<?xml version="1.0" encoding="utf-8"?>
<svg xmlns="http://www.w3.org/2000/svg" xmlns:xlink="http://www.w3.org/1999/xlink" width="960" height="672" viewBox="0 0 3840 2688">
<defs>
  <clipPath id="clip880">
    <rect x="0" y="0" width="3840" height="2688"/>
  </clipPath>
</defs>
<path clip-path="url(#clip880)" d="M0 2688 L3840 2688 L3840 0 L0 0  Z" fill="#ffffff" fill-rule="evenodd" fill-opacity="1"/>
<defs>
  <clipPath id="clip881">
    <rect x="386" y="126" width="3407" height="2371"/>
  </clipPath>
</defs>
<path clip-path="url(#clip880)" d="M386.479 2496.2 L3792.76 2496.2 L3792.76 126.496 L386.479 126.496  Z" fill="#ffffff" fill-rule="evenodd" fill-opacity="1"/>
<polyline clip-path="url(#clip881)" style="stroke:#000000; stroke-linecap:round; stroke-linejoin:round; stroke-width:2; stroke-opacity:0.1; fill:none" points="386.479,2496.2 386.479,126.496 "/>
<polyline clip-path="url(#clip881)" style="stroke:#000000; stroke-linecap:round; stroke-linejoin:round; stroke-width:2; stroke-opacity:0.1; fill:none" points="1067.73,2496.2 1067.73,126.496 "/>
<polyline clip-path="url(#clip881)" style="stroke:#000000; stroke-linecap:round; stroke-linejoin:round; stroke-width:2; stroke-opacity:0.1; fill:none" points="1748.99,2496.2 1748.99,126.496 "/>
<polyline clip-path="url(#clip881)" style="stroke:#000000; stroke-linecap:round; stroke-linejoin:round; stroke-width:2; stroke-opacity:0.1; fill:none" points="2430.25,2496.2 2430.25,126.496 "/>
<polyline clip-path="url(#clip881)" style="stroke:#000000; stroke-linecap:round; stroke-linejoin:round; stroke-width:2; stroke-opacity:0.1; fill:none" points="3111.5,2496.2 3111.5,126.496 "/>
<polyline clip-path="url(#clip881)" style="stroke:#000000; stroke-linecap:round; stroke-linejoin:round; stroke-width:2; stroke-opacity:0.1; fill:none" points="3792.76,2496.2 3792.76,126.496 "/>
<polyline clip-path="url(#clip881)" style="stroke:#000000; stroke-linecap:round; stroke-linejoin:round; stroke-width:2; stroke-opacity:0.1; fill:none" points="386.479,2429.13 3792.76,2429.13 "/>
<polyline clip-path="url(#clip881)" style="stroke:#000000; stroke-linecap:round; stroke-linejoin:round; stroke-width:2; stroke-opacity:0.1; fill:none" points="386.479,1870.24 3792.76,1870.24 "/>
<polyline clip-path="url(#clip881)" style="stroke:#000000; stroke-linecap:round; stroke-linejoin:round; stroke-width:2; stroke-opacity:0.1; fill:none" points="386.479,1311.35 3792.76,1311.35 "/>
<polyline clip-path="url(#clip881)" style="stroke:#000000; stroke-linecap:round; stroke-linejoin:round; stroke-width:2; stroke-opacity:0.1; fill:none" points="386.479,752.455 3792.76,752.455 "/>
<polyline clip-path="url(#clip881)" style="stroke:#000000; stroke-linecap:round; stroke-linejoin:round; stroke-width:2; stroke-opacity:0.1; fill:none" points="386.479,193.563 3792.76,193.563 "/>
<polyline clip-path="url(#clip880)" style="stroke:#000000; stroke-linecap:round; stroke-linejoin:round; stroke-width:4; stroke-opacity:1; fill:none" points="386.479,2496.2 3792.76,2496.2 "/>
<polyline clip-path="url(#clip880)" style="stroke:#000000; stroke-linecap:round; stroke-linejoin:round; stroke-width:4; stroke-opacity:1; fill:none" points="386.479,2496.2 386.479,2477.3 "/>
<polyline clip-path="url(#clip880)" style="stroke:#000000; stroke-linecap:round; stroke-linejoin:round; stroke-width:4; stroke-opacity:1; fill:none" points="1067.73,2496.2 1067.73,2477.3 "/>
<polyline clip-path="url(#clip880)" style="stroke:#000000; stroke-linecap:round; stroke-linejoin:round; stroke-width:4; stroke-opacity:1; fill:none" points="1748.99,2496.2 1748.99,2477.3 "/>
<polyline clip-path="url(#clip880)" style="stroke:#000000; stroke-linecap:round; stroke-linejoin:round; stroke-width:4; stroke-opacity:1; fill:none" points="2430.25,2496.2 2430.25,2477.3 "/>
<polyline clip-path="url(#clip880)" style="stroke:#000000; stroke-linecap:round; stroke-linejoin:round; stroke-width:4; stroke-opacity:1; fill:none" points="3111.5,2496.2 3111.5,2477.3 "/>
<polyline clip-path="url(#clip880)" style="stroke:#000000; stroke-linecap:round; stroke-linejoin:round; stroke-width:4; stroke-opacity:1; fill:none" points="3792.76,2496.2 3792.76,2477.3 "/>
<path clip-path="url(#clip880)" d="M363.864 2538.63 Q360.253 2538.63 358.424 2542.2 Q356.618 2545.74 356.618 2552.87 Q356.618 2559.98 358.424 2563.54 Q360.253 2567.08 363.864 2567.08 Q367.498 2567.08 369.304 2563.54 Q371.132 2559.98 371.132 2552.87 Q371.132 2545.74 369.304 2542.2 Q367.498 2538.63 363.864 2538.63 M363.864 2534.93 Q369.674 2534.93 372.729 2539.54 Q375.808 2544.12 375.808 2552.87 Q375.808 2561.6 372.729 2566.2 Q369.674 2570.79 363.864 2570.79 Q358.054 2570.79 354.975 2566.2 Q351.919 2561.6 351.919 2552.87 Q351.919 2544.12 354.975 2539.54 Q358.054 2534.93 363.864 2534.93 Z" fill="#000000" fill-rule="nonzero" fill-opacity="1" /><path clip-path="url(#clip880)" d="M384.026 2564.24 L388.91 2564.24 L388.91 2570.12 L384.026 2570.12 L384.026 2564.24 Z" fill="#000000" fill-rule="nonzero" fill-opacity="1" /><path clip-path="url(#clip880)" d="M409.095 2538.63 Q405.484 2538.63 403.655 2542.2 Q401.85 2545.74 401.85 2552.87 Q401.85 2559.98 403.655 2563.54 Q405.484 2567.08 409.095 2567.08 Q412.729 2567.08 414.535 2563.54 Q416.364 2559.98 416.364 2552.87 Q416.364 2545.74 414.535 2542.2 Q412.729 2538.63 409.095 2538.63 M409.095 2534.93 Q414.905 2534.93 417.961 2539.54 Q421.039 2544.12 421.039 2552.87 Q421.039 2561.6 417.961 2566.2 Q414.905 2570.79 409.095 2570.79 Q403.285 2570.79 400.206 2566.2 Q397.151 2561.6 397.151 2552.87 Q397.151 2544.12 400.206 2539.54 Q403.285 2534.93 409.095 2534.93 Z" fill="#000000" fill-rule="nonzero" fill-opacity="1" /><path clip-path="url(#clip880)" d="M1045.92 2538.63 Q1042.31 2538.63 1040.48 2542.2 Q1038.67 2545.74 1038.67 2552.87 Q1038.67 2559.98 1040.48 2563.54 Q1042.31 2567.08 1045.92 2567.08 Q1049.55 2567.08 1051.36 2563.54 Q1053.19 2559.98 1053.19 2552.87 Q1053.19 2545.74 1051.36 2542.2 Q1049.55 2538.63 1045.92 2538.63 M1045.92 2534.93 Q1051.73 2534.93 1054.78 2539.54 Q1057.86 2544.12 1057.86 2552.87 Q1057.86 2561.6 1054.78 2566.2 Q1051.73 2570.79 1045.92 2570.79 Q1040.11 2570.79 1037.03 2566.2 Q1033.97 2561.6 1033.97 2552.87 Q1033.97 2544.12 1037.03 2539.54 Q1040.11 2534.93 1045.92 2534.93 Z" fill="#000000" fill-rule="nonzero" fill-opacity="1" /><path clip-path="url(#clip880)" d="M1066.08 2564.24 L1070.96 2564.24 L1070.96 2570.12 L1066.08 2570.12 L1066.08 2564.24 Z" fill="#000000" fill-rule="nonzero" fill-opacity="1" /><path clip-path="url(#clip880)" d="M1085.18 2566.18 L1101.5 2566.18 L1101.5 2570.12 L1079.55 2570.12 L1079.55 2566.18 Q1082.21 2563.43 1086.8 2558.8 Q1091.4 2554.14 1092.58 2552.8 Q1094.83 2550.28 1095.71 2548.54 Q1096.61 2546.78 1096.61 2545.09 Q1096.61 2542.34 1094.67 2540.6 Q1092.75 2538.87 1089.64 2538.87 Q1087.45 2538.87 1084.99 2539.63 Q1082.56 2540.39 1079.78 2541.94 L1079.78 2537.22 Q1082.61 2536.09 1085.06 2535.51 Q1087.51 2534.93 1089.55 2534.93 Q1094.92 2534.93 1098.12 2537.62 Q1101.31 2540.3 1101.31 2544.79 Q1101.31 2546.92 1100.5 2548.84 Q1099.71 2550.74 1097.61 2553.33 Q1097.03 2554 1093.93 2557.22 Q1090.82 2560.42 1085.18 2566.18 Z" fill="#000000" fill-rule="nonzero" fill-opacity="1" /><path clip-path="url(#clip880)" d="M1726.13 2538.63 Q1722.52 2538.63 1720.69 2542.2 Q1718.89 2545.74 1718.89 2552.87 Q1718.89 2559.98 1720.69 2563.54 Q1722.52 2567.08 1726.13 2567.08 Q1729.77 2567.08 1731.57 2563.54 Q1733.4 2559.98 1733.4 2552.87 Q1733.4 2545.74 1731.57 2542.2 Q1729.77 2538.63 1726.13 2538.63 M1726.13 2534.93 Q1731.94 2534.93 1735 2539.54 Q1738.08 2544.12 1738.08 2552.87 Q1738.08 2561.6 1735 2566.2 Q1731.94 2570.79 1726.13 2570.79 Q1720.32 2570.79 1717.24 2566.2 Q1714.19 2561.6 1714.19 2552.87 Q1714.19 2544.12 1717.24 2539.54 Q1720.32 2534.93 1726.13 2534.93 Z" fill="#000000" fill-rule="nonzero" fill-opacity="1" /><path clip-path="url(#clip880)" d="M1746.29 2564.24 L1751.18 2564.24 L1751.18 2570.12 L1746.29 2570.12 L1746.29 2564.24 Z" fill="#000000" fill-rule="nonzero" fill-opacity="1" /><path clip-path="url(#clip880)" d="M1774.21 2539.63 L1762.4 2558.08 L1774.21 2558.08 L1774.21 2539.63 M1772.98 2535.56 L1778.86 2535.56 L1778.86 2558.08 L1783.79 2558.08 L1783.79 2561.97 L1778.86 2561.97 L1778.86 2570.12 L1774.21 2570.12 L1774.21 2561.97 L1758.61 2561.97 L1758.61 2557.45 L1772.98 2535.56 Z" fill="#000000" fill-rule="nonzero" fill-opacity="1" /><path clip-path="url(#clip880)" d="M2407.55 2538.63 Q2403.94 2538.63 2402.11 2542.2 Q2400.3 2545.74 2400.3 2552.87 Q2400.3 2559.98 2402.11 2563.54 Q2403.94 2567.08 2407.55 2567.08 Q2411.18 2567.08 2412.99 2563.54 Q2414.82 2559.98 2414.82 2552.87 Q2414.82 2545.74 2412.99 2542.2 Q2411.18 2538.63 2407.55 2538.63 M2407.55 2534.93 Q2413.36 2534.93 2416.41 2539.54 Q2419.49 2544.12 2419.49 2552.87 Q2419.49 2561.6 2416.41 2566.2 Q2413.36 2570.79 2407.55 2570.79 Q2401.74 2570.79 2398.66 2566.2 Q2395.6 2561.6 2395.6 2552.87 Q2395.6 2544.12 2398.66 2539.54 Q2401.74 2534.93 2407.55 2534.93 Z" fill="#000000" fill-rule="nonzero" fill-opacity="1" /><path clip-path="url(#clip880)" d="M2427.71 2564.24 L2432.59 2564.24 L2432.59 2570.12 L2427.71 2570.12 L2427.71 2564.24 Z" fill="#000000" fill-rule="nonzero" fill-opacity="1" /><path clip-path="url(#clip880)" d="M2453.36 2550.97 Q2450.21 2550.97 2448.36 2553.13 Q2446.53 2555.28 2446.53 2559.03 Q2446.53 2562.75 2448.36 2564.93 Q2450.21 2567.08 2453.36 2567.08 Q2456.51 2567.08 2458.34 2564.93 Q2460.19 2562.75 2460.19 2559.03 Q2460.19 2555.28 2458.34 2553.13 Q2456.51 2550.97 2453.36 2550.97 M2462.64 2536.32 L2462.64 2540.58 Q2460.88 2539.75 2459.08 2539.31 Q2457.29 2538.87 2455.53 2538.87 Q2450.9 2538.87 2448.45 2541.99 Q2446.02 2545.12 2445.67 2551.44 Q2447.04 2549.42 2449.1 2548.36 Q2451.16 2547.27 2453.64 2547.27 Q2458.84 2547.27 2461.85 2550.44 Q2464.89 2553.59 2464.89 2559.03 Q2464.89 2564.35 2461.74 2567.57 Q2458.59 2570.79 2453.36 2570.79 Q2447.36 2570.79 2444.19 2566.2 Q2441.02 2561.6 2441.02 2552.87 Q2441.02 2544.68 2444.91 2539.82 Q2448.8 2534.93 2455.35 2534.93 Q2457.11 2534.93 2458.89 2535.28 Q2460.7 2535.63 2462.64 2536.32 Z" fill="#000000" fill-rule="nonzero" fill-opacity="1" /><path clip-path="url(#clip880)" d="M3088.93 2538.63 Q3085.32 2538.63 3083.49 2542.2 Q3081.69 2545.74 3081.69 2552.87 Q3081.69 2559.98 3083.49 2563.54 Q3085.32 2567.08 3088.93 2567.08 Q3092.57 2567.08 3094.37 2563.54 Q3096.2 2559.98 3096.2 2552.87 Q3096.2 2545.74 3094.37 2542.2 Q3092.57 2538.63 3088.93 2538.63 M3088.93 2534.93 Q3094.74 2534.93 3097.8 2539.54 Q3100.88 2544.12 3100.88 2552.87 Q3100.88 2561.6 3097.8 2566.2 Q3094.74 2570.79 3088.93 2570.79 Q3083.12 2570.79 3080.04 2566.2 Q3076.99 2561.6 3076.99 2552.87 Q3076.99 2544.12 3080.04 2539.54 Q3083.12 2534.93 3088.93 2534.93 Z" fill="#000000" fill-rule="nonzero" fill-opacity="1" /><path clip-path="url(#clip880)" d="M3109.09 2564.24 L3113.98 2564.24 L3113.98 2570.12 L3109.09 2570.12 L3109.09 2564.24 Z" fill="#000000" fill-rule="nonzero" fill-opacity="1" /><path clip-path="url(#clip880)" d="M3134.16 2553.7 Q3130.83 2553.7 3128.91 2555.49 Q3127.01 2557.27 3127.01 2560.39 Q3127.01 2563.52 3128.91 2565.3 Q3130.83 2567.08 3134.16 2567.08 Q3137.5 2567.08 3139.42 2565.3 Q3141.34 2563.5 3141.34 2560.39 Q3141.34 2557.27 3139.42 2555.49 Q3137.52 2553.7 3134.16 2553.7 M3129.49 2551.71 Q3126.48 2550.97 3124.79 2548.91 Q3123.12 2546.85 3123.12 2543.89 Q3123.12 2539.75 3126.06 2537.34 Q3129.02 2534.93 3134.16 2534.93 Q3139.32 2534.93 3142.26 2537.34 Q3145.2 2539.75 3145.2 2543.89 Q3145.2 2546.85 3143.51 2548.91 Q3141.85 2550.97 3138.86 2551.71 Q3142.24 2552.5 3144.12 2554.79 Q3146.01 2557.08 3146.01 2560.39 Q3146.01 2565.42 3142.94 2568.1 Q3139.88 2570.79 3134.16 2570.79 Q3128.44 2570.79 3125.37 2568.1 Q3122.31 2565.42 3122.31 2560.39 Q3122.31 2557.08 3124.21 2554.79 Q3126.11 2552.5 3129.49 2551.71 M3127.77 2544.33 Q3127.77 2547.01 3129.44 2548.52 Q3131.13 2550.02 3134.16 2550.02 Q3137.17 2550.02 3138.86 2548.52 Q3140.57 2547.01 3140.57 2544.33 Q3140.57 2541.64 3138.86 2540.14 Q3137.17 2538.63 3134.16 2538.63 Q3131.13 2538.63 3129.44 2540.14 Q3127.77 2541.64 3127.77 2544.33 Z" fill="#000000" fill-rule="nonzero" fill-opacity="1" /><path clip-path="url(#clip880)" d="M3759.91 2566.18 L3767.55 2566.18 L3767.55 2539.82 L3759.24 2541.48 L3759.24 2537.22 L3767.5 2535.56 L3772.18 2535.56 L3772.18 2566.18 L3779.82 2566.18 L3779.82 2570.12 L3759.91 2570.12 L3759.91 2566.18 Z" fill="#000000" fill-rule="nonzero" fill-opacity="1" /><path clip-path="url(#clip880)" d="M3789.26 2564.24 L3794.14 2564.24 L3794.14 2570.12 L3789.26 2570.12 L3789.26 2564.24 Z" fill="#000000" fill-rule="nonzero" fill-opacity="1" /><path clip-path="url(#clip880)" d="M3814.33 2538.63 Q3810.72 2538.63 3808.89 2542.2 Q3807.08 2545.74 3807.08 2552.87 Q3807.08 2559.98 3808.89 2563.54 Q3810.72 2567.08 3814.33 2567.08 Q3817.96 2567.08 3819.77 2563.54 Q3821.6 2559.98 3821.6 2552.87 Q3821.6 2545.74 3819.77 2542.2 Q3817.96 2538.63 3814.33 2538.63 M3814.33 2534.93 Q3820.14 2534.93 3823.2 2539.54 Q3826.27 2544.12 3826.27 2552.87 Q3826.27 2561.6 3823.2 2566.2 Q3820.14 2570.79 3814.33 2570.79 Q3808.52 2570.79 3805.44 2566.2 Q3802.39 2561.6 3802.39 2552.87 Q3802.39 2544.12 3805.44 2539.54 Q3808.52 2534.93 3814.33 2534.93 Z" fill="#000000" fill-rule="nonzero" fill-opacity="1" /><path clip-path="url(#clip880)" d="M1994.72 2639.97 L1994.72 2657.38 L2005.03 2657.38 Q2010.22 2657.38 2012.7 2655.24 Q2015.22 2653.08 2015.22 2648.66 Q2015.22 2644.2 2012.7 2642.1 Q2010.22 2639.97 2005.03 2639.97 L1994.72 2639.97 M1994.72 2620.42 L1994.72 2634.75 L2004.24 2634.75 Q2008.95 2634.75 2011.24 2633 Q2013.56 2631.21 2013.56 2627.58 Q2013.56 2623.99 2011.24 2622.21 Q2008.95 2620.42 2004.24 2620.42 L1994.72 2620.42 M1988.29 2615.14 L2004.72 2615.14 Q2012.07 2615.14 2016.05 2618.2 Q2020.02 2621.25 2020.02 2626.88 Q2020.02 2631.25 2017.99 2633.82 Q2015.95 2636.4 2012 2637.04 Q2016.75 2638.06 2019.36 2641.3 Q2022 2644.52 2022 2649.36 Q2022 2655.72 2017.67 2659.19 Q2013.34 2662.66 2005.35 2662.66 L1988.29 2662.66 L1988.29 2615.14 Z" fill="#000000" fill-rule="nonzero" fill-opacity="1" /><path clip-path="url(#clip880)" d="M2038.42 2657.31 L2038.42 2676.22 L2032.53 2676.22 L2032.53 2627.01 L2038.42 2627.01 L2038.42 2632.42 Q2040.27 2629.24 2043.07 2627.71 Q2045.9 2626.15 2049.82 2626.15 Q2056.31 2626.15 2060.35 2631.31 Q2064.43 2636.46 2064.43 2644.87 Q2064.43 2653.27 2060.35 2658.43 Q2056.31 2663.58 2049.82 2663.58 Q2045.9 2663.58 2043.07 2662.06 Q2040.27 2660.5 2038.42 2657.31 M2058.35 2644.87 Q2058.35 2638.41 2055.67 2634.75 Q2053.03 2631.05 2048.38 2631.05 Q2043.74 2631.05 2041.06 2634.75 Q2038.42 2638.41 2038.42 2644.87 Q2038.42 2651.33 2041.06 2655.02 Q2043.74 2658.68 2048.38 2658.68 Q2053.03 2658.68 2055.67 2655.02 Q2058.35 2651.33 2058.35 2644.87 Z" fill="#000000" fill-rule="nonzero" fill-opacity="1" /><path clip-path="url(#clip880)" d="M2104.62 2643.37 L2104.62 2646.24 L2077.7 2646.24 Q2078.08 2652.28 2081.33 2655.47 Q2084.6 2658.62 2090.43 2658.62 Q2093.8 2658.62 2096.95 2657.79 Q2100.14 2656.96 2103.26 2655.31 L2103.26 2660.85 Q2100.11 2662.18 2096.8 2662.88 Q2093.48 2663.58 2090.08 2663.58 Q2081.55 2663.58 2076.55 2658.62 Q2071.59 2653.65 2071.59 2645.19 Q2071.59 2636.43 2076.3 2631.31 Q2081.04 2626.15 2089.06 2626.15 Q2096.25 2626.15 2100.42 2630.8 Q2104.62 2635.41 2104.62 2643.37 M2098.77 2641.65 Q2098.7 2636.85 2096.06 2633.98 Q2093.45 2631.12 2089.12 2631.12 Q2084.22 2631.12 2081.26 2633.89 Q2078.33 2636.66 2077.89 2641.68 L2098.77 2641.65 Z" fill="#000000" fill-rule="nonzero" fill-opacity="1" /><path clip-path="url(#clip880)" d="M2114.01 2627.01 L2122.58 2627.01 L2132.7 2650.88 L2142.85 2627.01 L2151.35 2627.01 L2151.35 2662.66 L2145.46 2662.66 L2145.46 2632.61 L2135.63 2655.82 L2129.77 2655.82 L2119.9 2632.61 L2119.9 2662.66 L2114.01 2662.66 L2114.01 2627.01 Z" fill="#000000" fill-rule="nonzero" fill-opacity="1" /><path clip-path="url(#clip880)" d="M2169.3 2637.29 Q2169.3 2639.93 2171.34 2641.43 Q2173.37 2642.93 2177.16 2642.93 L2185.06 2642.93 L2185.06 2631.69 L2177.16 2631.69 Q2173.37 2631.69 2171.34 2633.15 Q2169.3 2634.62 2169.3 2637.29 M2160.96 2662.66 L2171.85 2647.03 Q2168.15 2646.2 2165.7 2644.04 Q2163.25 2641.84 2163.25 2637.29 Q2163.25 2632.14 2166.66 2629.59 Q2170.1 2627.01 2177 2627.01 L2190.94 2627.01 L2190.94 2662.66 L2185.06 2662.66 L2185.06 2647.6 L2177.77 2647.6 L2167.26 2662.66 L2160.96 2662.66 Z" fill="#000000" fill-rule="nonzero" fill-opacity="1" /><polyline clip-path="url(#clip880)" style="stroke:#000000; stroke-linecap:round; stroke-linejoin:round; stroke-width:4; stroke-opacity:1; fill:none" points="386.479,2496.2 386.479,126.496 "/>
<polyline clip-path="url(#clip880)" style="stroke:#000000; stroke-linecap:round; stroke-linejoin:round; stroke-width:4; stroke-opacity:1; fill:none" points="386.479,2429.13 405.377,2429.13 "/>
<polyline clip-path="url(#clip880)" style="stroke:#000000; stroke-linecap:round; stroke-linejoin:round; stroke-width:4; stroke-opacity:1; fill:none" points="386.479,1870.24 405.377,1870.24 "/>
<polyline clip-path="url(#clip880)" style="stroke:#000000; stroke-linecap:round; stroke-linejoin:round; stroke-width:4; stroke-opacity:1; fill:none" points="386.479,1311.35 405.377,1311.35 "/>
<polyline clip-path="url(#clip880)" style="stroke:#000000; stroke-linecap:round; stroke-linejoin:round; stroke-width:4; stroke-opacity:1; fill:none" points="386.479,752.455 405.377,752.455 "/>
<polyline clip-path="url(#clip880)" style="stroke:#000000; stroke-linecap:round; stroke-linejoin:round; stroke-width:4; stroke-opacity:1; fill:none" points="386.479,193.563 405.377,193.563 "/>
<path clip-path="url(#clip880)" d="M316.935 2414.93 Q313.324 2414.93 311.495 2418.49 Q309.69 2422.03 309.69 2429.16 Q309.69 2436.27 311.495 2439.83 Q313.324 2443.38 316.935 2443.38 Q320.569 2443.38 322.375 2439.83 Q324.204 2436.27 324.204 2429.16 Q324.204 2422.03 322.375 2418.49 Q320.569 2414.93 316.935 2414.93 M316.935 2411.22 Q322.745 2411.22 325.801 2415.83 Q328.879 2420.41 328.879 2429.16 Q328.879 2437.89 325.801 2442.5 Q322.745 2447.08 316.935 2447.08 Q311.125 2447.08 308.046 2442.5 Q304.991 2437.89 304.991 2429.16 Q304.991 2420.41 308.046 2415.83 Q311.125 2411.22 316.935 2411.22 Z" fill="#000000" fill-rule="nonzero" fill-opacity="1" /><path clip-path="url(#clip880)" d="M113.054 1859.41 L131.411 1859.41 L131.411 1863.34 L117.337 1863.34 L117.337 1871.81 Q118.355 1871.47 119.374 1871.3 Q120.392 1871.12 121.411 1871.12 Q127.198 1871.12 130.578 1874.29 Q133.957 1877.46 133.957 1882.88 Q133.957 1888.46 130.485 1891.56 Q127.013 1894.64 120.693 1894.64 Q118.517 1894.64 116.249 1894.27 Q114.004 1893.9 111.596 1893.15 L111.596 1888.46 Q113.679 1889.59 115.902 1890.15 Q118.124 1890.7 120.601 1890.7 Q124.605 1890.7 126.943 1888.59 Q129.281 1886.49 129.281 1882.88 Q129.281 1879.27 126.943 1877.16 Q124.605 1875.05 120.601 1875.05 Q118.726 1875.05 116.851 1875.47 Q114.999 1875.89 113.054 1876.77 L113.054 1859.41 Z" fill="#000000" fill-rule="nonzero" fill-opacity="1" /><path clip-path="url(#clip880)" d="M143.17 1888.09 L148.054 1888.09 L148.054 1893.97 L143.17 1893.97 L143.17 1888.09 Z" fill="#000000" fill-rule="nonzero" fill-opacity="1" /><path clip-path="url(#clip880)" d="M168.239 1862.48 Q164.628 1862.48 162.8 1866.05 Q160.994 1869.59 160.994 1876.72 Q160.994 1883.83 162.8 1887.39 Q164.628 1890.93 168.239 1890.93 Q171.874 1890.93 173.679 1887.39 Q175.508 1883.83 175.508 1876.72 Q175.508 1869.59 173.679 1866.05 Q171.874 1862.48 168.239 1862.48 M168.239 1858.78 Q174.05 1858.78 177.105 1863.39 Q180.184 1867.97 180.184 1876.72 Q180.184 1885.45 177.105 1890.05 Q174.05 1894.64 168.239 1894.64 Q162.429 1894.64 159.351 1890.05 Q156.295 1885.45 156.295 1876.72 Q156.295 1867.97 159.351 1863.39 Q162.429 1858.78 168.239 1858.78 Z" fill="#000000" fill-rule="nonzero" fill-opacity="1" /><path clip-path="url(#clip880)" d="M198.401 1862.48 Q194.79 1862.48 192.961 1866.05 Q191.156 1869.59 191.156 1876.72 Q191.156 1883.83 192.961 1887.39 Q194.79 1890.93 198.401 1890.93 Q202.035 1890.93 203.841 1887.39 Q205.67 1883.83 205.67 1876.72 Q205.67 1869.59 203.841 1866.05 Q202.035 1862.48 198.401 1862.48 M198.401 1858.78 Q204.211 1858.78 207.267 1863.39 Q210.346 1867.97 210.346 1876.72 Q210.346 1885.45 207.267 1890.05 Q204.211 1894.64 198.401 1894.64 Q192.591 1894.64 189.512 1890.05 Q186.457 1885.45 186.457 1876.72 Q186.457 1867.97 189.512 1863.39 Q192.591 1858.78 198.401 1858.78 Z" fill="#000000" fill-rule="nonzero" fill-opacity="1" /><path clip-path="url(#clip880)" d="M246.734 1868.5 L236.156 1879.13 L246.734 1889.71 L243.98 1892.51 L233.355 1881.88 L222.73 1892.51 L219.998 1889.71 L230.554 1879.13 L219.998 1868.5 L222.73 1865.7 L233.355 1876.33 L243.98 1865.7 L246.734 1868.5 Z" fill="#000000" fill-rule="nonzero" fill-opacity="1" /><path clip-path="url(#clip880)" d="M259.095 1890.03 L266.734 1890.03 L266.734 1863.66 L258.424 1865.33 L258.424 1861.07 L266.688 1859.41 L271.364 1859.41 L271.364 1890.03 L279.003 1890.03 L279.003 1893.97 L259.095 1893.97 L259.095 1890.03 Z" fill="#000000" fill-rule="nonzero" fill-opacity="1" /><path clip-path="url(#clip880)" d="M298.447 1862.48 Q294.836 1862.48 293.007 1866.05 Q291.202 1869.59 291.202 1876.72 Q291.202 1883.83 293.007 1887.39 Q294.836 1890.93 298.447 1890.93 Q302.081 1890.93 303.887 1887.39 Q305.715 1883.83 305.715 1876.72 Q305.715 1869.59 303.887 1866.05 Q302.081 1862.48 298.447 1862.48 M298.447 1858.78 Q304.257 1858.78 307.313 1863.39 Q310.391 1867.97 310.391 1876.72 Q310.391 1885.45 307.313 1890.05 Q304.257 1894.64 298.447 1894.64 Q292.637 1894.64 289.558 1890.05 Q286.503 1885.45 286.503 1876.72 Q286.503 1867.97 289.558 1863.39 Q292.637 1858.78 298.447 1858.78 Z" fill="#000000" fill-rule="nonzero" fill-opacity="1" /><path clip-path="url(#clip880)" d="M323.087 1851.41 Q325.814 1852 327.337 1853.84 Q328.879 1855.68 328.879 1858.39 Q328.879 1862.55 326.021 1864.82 Q323.162 1867.1 317.896 1867.1 Q316.128 1867.1 314.247 1866.74 Q312.385 1866.4 310.391 1865.71 L310.391 1862.04 Q311.971 1862.96 313.852 1863.43 Q315.733 1863.9 317.783 1863.9 Q321.356 1863.9 323.218 1862.49 Q325.099 1861.08 325.099 1858.39 Q325.099 1855.91 323.35 1854.52 Q321.62 1853.11 318.516 1853.11 L315.244 1853.11 L315.244 1849.98 L318.667 1849.98 Q321.469 1849.98 322.955 1848.88 Q324.441 1847.75 324.441 1845.64 Q324.441 1843.48 322.899 1842.33 Q321.375 1841.16 318.516 1841.16 Q316.955 1841.16 315.169 1841.5 Q313.382 1841.84 311.238 1842.56 L311.238 1839.17 Q313.401 1838.57 315.281 1838.27 Q317.181 1837.97 318.855 1837.97 Q323.181 1837.97 325.701 1839.94 Q328.221 1841.9 328.221 1845.25 Q328.221 1847.58 326.886 1849.2 Q325.55 1850.79 323.087 1851.41 Z" fill="#000000" fill-rule="nonzero" fill-opacity="1" /><path clip-path="url(#clip880)" d="M111.844 1331.14 L119.482 1331.14 L119.482 1304.77 L111.172 1306.44 L111.172 1302.18 L119.436 1300.51 L124.112 1300.51 L124.112 1331.14 L131.751 1331.14 L131.751 1335.07 L111.844 1335.07 L111.844 1331.14 Z" fill="#000000" fill-rule="nonzero" fill-opacity="1" /><path clip-path="url(#clip880)" d="M141.195 1329.19 L146.079 1329.19 L146.079 1335.07 L141.195 1335.07 L141.195 1329.19 Z" fill="#000000" fill-rule="nonzero" fill-opacity="1" /><path clip-path="url(#clip880)" d="M166.265 1303.59 Q162.653 1303.59 160.825 1307.16 Q159.019 1310.7 159.019 1317.83 Q159.019 1324.93 160.825 1328.5 Q162.653 1332.04 166.265 1332.04 Q169.899 1332.04 171.704 1328.5 Q173.533 1324.93 173.533 1317.83 Q173.533 1310.7 171.704 1307.16 Q169.899 1303.59 166.265 1303.59 M166.265 1299.89 Q172.075 1299.89 175.13 1304.5 Q178.209 1309.08 178.209 1317.83 Q178.209 1326.56 175.13 1331.16 Q172.075 1335.74 166.265 1335.74 Q160.454 1335.74 157.376 1331.16 Q154.32 1326.56 154.32 1317.83 Q154.32 1309.08 157.376 1304.5 Q160.454 1299.89 166.265 1299.89 Z" fill="#000000" fill-rule="nonzero" fill-opacity="1" /><path clip-path="url(#clip880)" d="M196.426 1303.59 Q192.815 1303.59 190.987 1307.16 Q189.181 1310.7 189.181 1317.83 Q189.181 1324.93 190.987 1328.5 Q192.815 1332.04 196.426 1332.04 Q200.061 1332.04 201.866 1328.5 Q203.695 1324.93 203.695 1317.83 Q203.695 1310.7 201.866 1307.16 Q200.061 1303.59 196.426 1303.59 M196.426 1299.89 Q202.237 1299.89 205.292 1304.5 Q208.371 1309.08 208.371 1317.83 Q208.371 1326.56 205.292 1331.16 Q202.237 1335.74 196.426 1335.74 Q190.616 1335.74 187.538 1331.16 Q184.482 1326.56 184.482 1317.83 Q184.482 1309.08 187.538 1304.5 Q190.616 1299.89 196.426 1299.89 Z" fill="#000000" fill-rule="nonzero" fill-opacity="1" /><path clip-path="url(#clip880)" d="M244.76 1309.61 L234.181 1320.24 L244.76 1330.81 L242.005 1333.62 L231.38 1322.99 L220.755 1333.62 L218.024 1330.81 L228.579 1320.24 L218.024 1309.61 L220.755 1306.81 L231.38 1317.43 L242.005 1306.81 L244.76 1309.61 Z" fill="#000000" fill-rule="nonzero" fill-opacity="1" /><path clip-path="url(#clip880)" d="M257.121 1331.14 L264.759 1331.14 L264.759 1304.77 L256.449 1306.44 L256.449 1302.18 L264.713 1300.51 L269.389 1300.51 L269.389 1331.14 L277.028 1331.14 L277.028 1335.07 L257.121 1335.07 L257.121 1331.14 Z" fill="#000000" fill-rule="nonzero" fill-opacity="1" /><path clip-path="url(#clip880)" d="M296.472 1303.59 Q292.861 1303.59 291.032 1307.16 Q289.227 1310.7 289.227 1317.83 Q289.227 1324.93 291.032 1328.5 Q292.861 1332.04 296.472 1332.04 Q300.106 1332.04 301.912 1328.5 Q303.741 1324.93 303.741 1317.83 Q303.741 1310.7 301.912 1307.16 Q300.106 1303.59 296.472 1303.59 M296.472 1299.89 Q302.282 1299.89 305.338 1304.5 Q308.417 1309.08 308.417 1317.83 Q308.417 1326.56 305.338 1331.16 Q302.282 1335.74 296.472 1335.74 Q290.662 1335.74 287.583 1331.16 Q284.528 1326.56 284.528 1317.83 Q284.528 1309.08 287.583 1304.5 Q290.662 1299.89 296.472 1299.89 Z" fill="#000000" fill-rule="nonzero" fill-opacity="1" /><path clip-path="url(#clip880)" d="M321.093 1282.89 L311.501 1297.88 L321.093 1297.88 L321.093 1282.89 M320.096 1279.58 L324.873 1279.58 L324.873 1297.88 L328.879 1297.88 L328.879 1301.04 L324.873 1301.04 L324.873 1307.66 L321.093 1307.66 L321.093 1301.04 L308.417 1301.04 L308.417 1297.38 L320.096 1279.58 Z" fill="#000000" fill-rule="nonzero" fill-opacity="1" /><path clip-path="url(#clip880)" d="M111.844 772.247 L119.482 772.247 L119.482 745.881 L111.172 747.548 L111.172 743.289 L119.436 741.622 L124.112 741.622 L124.112 772.247 L131.751 772.247 L131.751 776.182 L111.844 776.182 L111.844 772.247 Z" fill="#000000" fill-rule="nonzero" fill-opacity="1" /><path clip-path="url(#clip880)" d="M141.195 770.303 L146.079 770.303 L146.079 776.182 L141.195 776.182 L141.195 770.303 Z" fill="#000000" fill-rule="nonzero" fill-opacity="1" /><path clip-path="url(#clip880)" d="M156.311 741.622 L174.667 741.622 L174.667 745.557 L160.593 745.557 L160.593 754.029 Q161.612 753.682 162.63 753.52 Q163.649 753.335 164.667 753.335 Q170.454 753.335 173.834 756.506 Q177.214 759.678 177.214 765.094 Q177.214 770.673 173.741 773.775 Q170.269 776.853 163.95 776.853 Q161.774 776.853 159.505 776.483 Q157.26 776.113 154.853 775.372 L154.853 770.673 Q156.936 771.807 159.158 772.363 Q161.38 772.918 163.857 772.918 Q167.862 772.918 170.2 770.812 Q172.538 768.705 172.538 765.094 Q172.538 761.483 170.2 759.377 Q167.862 757.27 163.857 757.27 Q161.982 757.27 160.107 757.687 Q158.255 758.104 156.311 758.983 L156.311 741.622 Z" fill="#000000" fill-rule="nonzero" fill-opacity="1" /><path clip-path="url(#clip880)" d="M196.426 744.701 Q192.815 744.701 190.987 748.266 Q189.181 751.807 189.181 758.937 Q189.181 766.043 190.987 769.608 Q192.815 773.15 196.426 773.15 Q200.061 773.15 201.866 769.608 Q203.695 766.043 203.695 758.937 Q203.695 751.807 201.866 748.266 Q200.061 744.701 196.426 744.701 M196.426 740.997 Q202.237 740.997 205.292 745.604 Q208.371 750.187 208.371 758.937 Q208.371 767.664 205.292 772.27 Q202.237 776.853 196.426 776.853 Q190.616 776.853 187.538 772.27 Q184.482 767.664 184.482 758.937 Q184.482 750.187 187.538 745.604 Q190.616 740.997 196.426 740.997 Z" fill="#000000" fill-rule="nonzero" fill-opacity="1" /><path clip-path="url(#clip880)" d="M244.76 750.719 L234.181 761.344 L244.76 771.923 L242.005 774.724 L231.38 764.099 L220.755 774.724 L218.024 771.923 L228.579 761.344 L218.024 750.719 L220.755 747.918 L231.38 758.543 L242.005 747.918 L244.76 750.719 Z" fill="#000000" fill-rule="nonzero" fill-opacity="1" /><path clip-path="url(#clip880)" d="M257.121 772.247 L264.759 772.247 L264.759 745.881 L256.449 747.548 L256.449 743.289 L264.713 741.622 L269.389 741.622 L269.389 772.247 L277.028 772.247 L277.028 776.182 L257.121 776.182 L257.121 772.247 Z" fill="#000000" fill-rule="nonzero" fill-opacity="1" /><path clip-path="url(#clip880)" d="M296.472 744.701 Q292.861 744.701 291.032 748.266 Q289.227 751.807 289.227 758.937 Q289.227 766.043 291.032 769.608 Q292.861 773.15 296.472 773.15 Q300.106 773.15 301.912 769.608 Q303.741 766.043 303.741 758.937 Q303.741 751.807 301.912 748.266 Q300.106 744.701 296.472 744.701 M296.472 740.997 Q302.282 740.997 305.338 745.604 Q308.417 750.187 308.417 758.937 Q308.417 767.664 305.338 772.27 Q302.282 776.853 296.472 776.853 Q290.662 776.853 287.583 772.27 Q284.528 767.664 284.528 758.937 Q284.528 750.187 287.583 745.604 Q290.662 740.997 296.472 740.997 Z" fill="#000000" fill-rule="nonzero" fill-opacity="1" /><path clip-path="url(#clip880)" d="M321.093 724.002 L311.501 738.992 L321.093 738.992 L321.093 724.002 M320.096 720.692 L324.873 720.692 L324.873 738.992 L328.879 738.992 L328.879 742.151 L324.873 742.151 L324.873 748.772 L321.093 748.772 L321.093 742.151 L308.417 742.151 L308.417 738.484 L320.096 720.692 Z" fill="#000000" fill-rule="nonzero" fill-opacity="1" /><path clip-path="url(#clip880)" d="M115.061 213.356 L131.38 213.356 L131.38 217.291 L109.436 217.291 L109.436 213.356 Q112.098 210.601 116.681 205.971 Q121.288 201.319 122.468 199.976 Q124.714 197.453 125.593 195.717 Q126.496 193.957 126.496 192.268 Q126.496 189.513 124.552 187.777 Q122.631 186.041 119.529 186.041 Q117.33 186.041 114.876 186.805 Q112.445 187.569 109.668 189.12 L109.668 184.397 Q112.492 183.263 114.945 182.684 Q117.399 182.106 119.436 182.106 Q124.806 182.106 128.001 184.791 Q131.195 187.476 131.195 191.967 Q131.195 194.096 130.385 196.018 Q129.598 197.916 127.492 200.508 Q126.913 201.18 123.811 204.397 Q120.709 207.592 115.061 213.356 Z" fill="#000000" fill-rule="nonzero" fill-opacity="1" /><path clip-path="url(#clip880)" d="M141.195 211.411 L146.079 211.411 L146.079 217.291 L141.195 217.291 L141.195 211.411 Z" fill="#000000" fill-rule="nonzero" fill-opacity="1" /><path clip-path="url(#clip880)" d="M166.265 185.809 Q162.653 185.809 160.825 189.374 Q159.019 192.916 159.019 200.045 Q159.019 207.152 160.825 210.717 Q162.653 214.258 166.265 214.258 Q169.899 214.258 171.704 210.717 Q173.533 207.152 173.533 200.045 Q173.533 192.916 171.704 189.374 Q169.899 185.809 166.265 185.809 M166.265 182.106 Q172.075 182.106 175.13 186.712 Q178.209 191.295 178.209 200.045 Q178.209 208.772 175.13 213.379 Q172.075 217.962 166.265 217.962 Q160.454 217.962 157.376 213.379 Q154.32 208.772 154.32 200.045 Q154.32 191.295 157.376 186.712 Q160.454 182.106 166.265 182.106 Z" fill="#000000" fill-rule="nonzero" fill-opacity="1" /><path clip-path="url(#clip880)" d="M196.426 185.809 Q192.815 185.809 190.987 189.374 Q189.181 192.916 189.181 200.045 Q189.181 207.152 190.987 210.717 Q192.815 214.258 196.426 214.258 Q200.061 214.258 201.866 210.717 Q203.695 207.152 203.695 200.045 Q203.695 192.916 201.866 189.374 Q200.061 185.809 196.426 185.809 M196.426 182.106 Q202.237 182.106 205.292 186.712 Q208.371 191.295 208.371 200.045 Q208.371 208.772 205.292 213.379 Q202.237 217.962 196.426 217.962 Q190.616 217.962 187.538 213.379 Q184.482 208.772 184.482 200.045 Q184.482 191.295 187.538 186.712 Q190.616 182.106 196.426 182.106 Z" fill="#000000" fill-rule="nonzero" fill-opacity="1" /><path clip-path="url(#clip880)" d="M244.76 191.828 L234.181 202.453 L244.76 213.031 L242.005 215.832 L231.38 205.207 L220.755 215.832 L218.024 213.031 L228.579 202.453 L218.024 191.828 L220.755 189.027 L231.38 199.652 L242.005 189.027 L244.76 191.828 Z" fill="#000000" fill-rule="nonzero" fill-opacity="1" /><path clip-path="url(#clip880)" d="M257.121 213.356 L264.759 213.356 L264.759 186.99 L256.449 188.657 L256.449 184.397 L264.713 182.731 L269.389 182.731 L269.389 213.356 L277.028 213.356 L277.028 217.291 L257.121 217.291 L257.121 213.356 Z" fill="#000000" fill-rule="nonzero" fill-opacity="1" /><path clip-path="url(#clip880)" d="M296.472 185.809 Q292.861 185.809 291.032 189.374 Q289.227 192.916 289.227 200.045 Q289.227 207.152 291.032 210.717 Q292.861 214.258 296.472 214.258 Q300.106 214.258 301.912 210.717 Q303.741 207.152 303.741 200.045 Q303.741 192.916 301.912 189.374 Q300.106 185.809 296.472 185.809 M296.472 182.106 Q302.282 182.106 305.338 186.712 Q308.417 191.295 308.417 200.045 Q308.417 208.772 305.338 213.379 Q302.282 217.962 296.472 217.962 Q290.662 217.962 287.583 213.379 Q284.528 208.772 284.528 200.045 Q284.528 191.295 287.583 186.712 Q290.662 182.106 296.472 182.106 Z" fill="#000000" fill-rule="nonzero" fill-opacity="1" /><path clip-path="url(#clip880)" d="M321.093 165.11 L311.501 180.1 L321.093 180.1 L321.093 165.11 M320.096 161.8 L324.873 161.8 L324.873 180.1 L328.879 180.1 L328.879 183.26 L324.873 183.26 L324.873 189.88 L321.093 189.88 L321.093 183.26 L308.417 183.26 L308.417 179.592 L320.096 161.8 Z" fill="#000000" fill-rule="nonzero" fill-opacity="1" /><path clip-path="url(#clip880)" d="M37.5802 1501.38 L18.1011 1501.38 L18.1011 1514.65 Q18.1011 1520.57 14.409 1524.1 Q10.685 1527.64 3.10986 1527.64 L-9.93984 1527.64 L-9.93984 1521.24 L2.6006 1521.24 Q7.66134 1521.24 10.1758 1519.27 Q12.6902 1517.29 12.6902 1513.35 L12.6902 1501.38 L-9.93984 1501.38 L-9.93984 1494.92 L37.5802 1494.92 L37.5802 1501.38 Z" fill="#000000" fill-rule="nonzero" fill-opacity="1" /><path clip-path="url(#clip880)" d="M1.9322 1452.08 L37.5802 1452.08 L37.5802 1457.9 L8.96631 1457.9 L37.5802 1475.09 L37.5802 1482.6 L1.9322 1482.6 L1.9322 1476.77 L30.4824 1476.77 L1.9322 1459.62 L1.9322 1452.08 Z" fill="#000000" fill-rule="nonzero" fill-opacity="1" /><path clip-path="url(#clip880)" d="M3.30083 1414.36 L8.77533 1414.36 Q7.40671 1416.84 6.73831 1419.36 Q6.03808 1421.84 6.03808 1424.39 Q6.03808 1430.08 9.66653 1433.23 Q13.2632 1436.38 19.788 1436.38 Q26.3129 1436.38 29.9413 1433.23 Q33.5379 1430.08 33.5379 1424.39 Q33.5379 1421.84 32.8695 1419.36 Q32.1693 1416.84 30.8007 1414.36 L36.2115 1414.36 Q37.3574 1416.81 37.9303 1419.45 Q38.5032 1422.06 38.5032 1425.02 Q38.5032 1433.07 33.4424 1437.82 Q28.3817 1442.56 19.788 1442.56 Q11.067 1442.56 6.06991 1437.78 Q1.07283 1432.98 1.07283 1424.64 Q1.07283 1421.93 1.64574 1419.36 Q2.18683 1416.78 3.30083 1414.36 Z" fill="#000000" fill-rule="nonzero" fill-opacity="1" /><path clip-path="url(#clip880)" d="M37.5802 1407.9 L32.7104 1407.9 Q31.8192 1402.11 27.8088 1400.32 Q22.1751 1398.16 7.75682 1398.16 L1.9322 1398.16 L1.9322 1374.06 L37.5802 1374.06 L37.5802 1379.92 L6.61099 1379.92 L6.61099 1392.3 L10.144 1392.3 Q23.8939 1392.3 30.0686 1395.1 Q36.6571 1398.09 37.5802 1407.9 Z" fill="#000000" fill-rule="nonzero" fill-opacity="1" /><path clip-path="url(#clip880)" d="M18.2921 1332.02 L21.1566 1332.02 L21.1566 1358.95 Q27.2041 1358.56 30.3869 1355.32 Q33.5379 1352.04 33.5379 1346.21 Q33.5379 1342.84 32.7104 1339.69 Q31.8829 1336.51 30.2278 1333.39 L35.7659 1333.39 Q37.1027 1336.54 37.803 1339.85 Q38.5032 1343.16 38.5032 1346.56 Q38.5032 1355.09 33.5379 1360.09 Q28.5727 1365.06 20.1063 1365.06 Q11.3534 1365.06 6.22905 1360.35 Q1.07283 1355.6 1.07283 1347.58 Q1.07283 1340.39 5.7198 1336.22 Q10.3349 1332.02 18.2921 1332.02 M16.5733 1337.88 Q11.7672 1337.94 8.90265 1340.58 Q6.03808 1343.19 6.03808 1347.52 Q6.03808 1352.42 8.80716 1355.38 Q11.5762 1358.31 16.6052 1358.75 L16.5733 1337.88 Z" fill="#000000" fill-rule="nonzero" fill-opacity="1" /><path clip-path="url(#clip880)" d="M1.9322 1322.63 L1.9322 1316.74 L16.4778 1316.74 L16.4778 1297.74 L1.9322 1297.74 L1.9322 1291.85 L37.5802 1291.85 L37.5802 1297.74 L21.1566 1297.74 L21.1566 1316.74 L37.5802 1316.74 L37.5802 1322.63 L1.9322 1322.63 Z" fill="#000000" fill-rule="nonzero" fill-opacity="1" /><path clip-path="url(#clip880)" d="M1.9322 1280.01 L1.9322 1274.12 L16.4778 1274.12 L16.4778 1255.12 L1.9322 1255.12 L1.9322 1249.23 L37.5802 1249.23 L37.5802 1255.12 L21.1566 1255.12 L21.1566 1274.12 L37.5802 1274.12 L37.5802 1280.01 L1.9322 1280.01 Z" fill="#000000" fill-rule="nonzero" fill-opacity="1" /><path clip-path="url(#clip880)" d="M6.03808 1223.36 Q6.03808 1228.07 9.73019 1230.8 Q13.3905 1233.54 19.788 1233.54 Q26.1855 1233.54 29.8777 1230.84 Q33.5379 1228.1 33.5379 1223.36 Q33.5379 1218.68 29.8458 1215.94 Q26.1537 1213.2 19.788 1213.2 Q13.4541 1213.2 9.76202 1215.94 Q6.03808 1218.68 6.03808 1223.36 M1.07283 1223.36 Q1.07283 1215.72 6.03808 1211.36 Q11.0033 1207 19.788 1207 Q28.5409 1207 33.5379 1211.36 Q38.5032 1215.72 38.5032 1223.36 Q38.5032 1231.03 33.5379 1235.39 Q28.5409 1239.72 19.788 1239.72 Q11.0033 1239.72 6.03808 1235.39 Q1.07283 1231.03 1.07283 1223.36 Z" fill="#000000" fill-rule="nonzero" fill-opacity="1" /><path clip-path="url(#clip880)" d="M3.30083 1171.63 L8.77533 1171.63 Q7.40671 1174.12 6.73831 1176.63 Q6.03808 1179.11 6.03808 1181.66 Q6.03808 1187.36 9.66653 1190.51 Q13.2632 1193.66 19.788 1193.66 Q26.3129 1193.66 29.9413 1190.51 Q33.5379 1187.36 33.5379 1181.66 Q33.5379 1179.11 32.8695 1176.63 Q32.1693 1174.12 30.8007 1171.63 L36.2115 1171.63 Q37.3574 1174.09 37.9303 1176.73 Q38.5032 1179.34 38.5032 1182.3 Q38.5032 1190.35 33.4424 1195.09 Q28.3817 1199.83 19.788 1199.83 Q11.067 1199.83 6.06991 1195.06 Q1.07283 1190.25 1.07283 1181.92 Q1.07283 1179.21 1.64574 1176.63 Q2.18683 1174.05 3.30083 1171.63 Z" fill="#000000" fill-rule="nonzero" fill-opacity="1" /><path clip-path="url(#clip880)" d="M1.9322 1165.68 L1.9322 1131.53 L6.61099 1131.53 L6.61099 1145.73 L37.5802 1145.73 L37.5802 1151.49 L6.61099 1151.49 L6.61099 1165.68 L1.9322 1165.68 Z" fill="#000000" fill-rule="nonzero" fill-opacity="1" /><path clip-path="url(#clip880)" d="M27.0131 1101.29 Q24.1485 1101.29 22.6526 1103.39 Q21.1566 1105.46 21.1566 1109.47 L21.1566 1117.81 L32.9014 1117.81 L32.9014 1109.47 Q32.9014 1105.46 31.4054 1103.39 Q29.8777 1101.29 27.0131 1101.29 M1.9322 1123.7 L1.9322 1117.81 L16.4778 1117.81 L16.4778 1109.22 Q16.4778 1102.41 19.0878 1098.75 Q21.6659 1095.06 27.0131 1095.06 Q32.3603 1095.06 34.9702 1098.75 Q37.5802 1102.41 37.5802 1109.22 L37.5802 1123.7 L1.9322 1123.7 Z" fill="#000000" fill-rule="nonzero" fill-opacity="1" /><path clip-path="url(#clip880)" d="M1228.64 12.096 L1240.83 12.096 L1256.27 53.2532 L1271.78 12.096 L1283.97 12.096 L1283.97 72.576 L1275.99 72.576 L1275.99 19.4686 L1260.4 60.9499 L1252.17 60.9499 L1236.58 19.4686 L1236.58 72.576 L1228.64 72.576 L1228.64 12.096 Z" fill="#000000" fill-rule="nonzero" fill-opacity="1" /><path clip-path="url(#clip880)" d="M1317.47 32.4315 Q1311.48 32.4315 1308 37.1306 Q1304.51 41.7891 1304.51 49.9314 Q1304.51 58.0738 1307.96 62.7728 Q1311.44 67.4314 1317.47 67.4314 Q1323.43 67.4314 1326.91 62.7323 Q1330.4 58.0333 1330.4 49.9314 Q1330.4 41.8701 1326.91 37.1711 Q1323.43 32.4315 1317.47 32.4315 M1317.47 26.1121 Q1327.2 26.1121 1332.75 32.4315 Q1338.3 38.7509 1338.3 49.9314 Q1338.3 61.0714 1332.75 67.4314 Q1327.2 73.7508 1317.47 73.7508 Q1307.71 73.7508 1302.16 67.4314 Q1296.65 61.0714 1296.65 49.9314 Q1296.65 38.7509 1302.16 32.4315 Q1307.71 26.1121 1317.47 26.1121 Z" fill="#000000" fill-rule="nonzero" fill-opacity="1" /><path clip-path="url(#clip880)" d="M1360.78 66.6212 L1382.41 66.6212 L1382.41 33.1607 L1366.73 33.1607 L1366.73 38.832 Q1366.73 55.5217 1361.95 64.4337 L1360.78 66.6212 M1349.96 66.6212 Q1353.65 65.0008 1355.27 61.5575 Q1359.24 53.0101 1359.24 35.7938 L1359.24 27.2059 L1389.9 27.2059 L1389.9 66.6212 L1395.86 66.6212 L1395.86 84.0401 L1389.9 84.0401 L1389.9 72.576 L1353.12 72.576 L1353.12 84.0401 L1347.17 84.0401 L1347.17 66.6212 L1349.96 66.6212 Z" fill="#000000" fill-rule="nonzero" fill-opacity="1" /><path clip-path="url(#clip880)" d="M1446.82 48.0275 L1446.82 51.6733 L1412.55 51.6733 Q1413.04 59.3701 1417.17 63.421 Q1421.34 67.4314 1428.75 67.4314 Q1433.05 67.4314 1437.06 66.3781 Q1441.11 65.3249 1445.08 63.2184 L1445.08 70.267 Q1441.07 71.9684 1436.85 72.8596 Q1432.64 73.7508 1428.31 73.7508 Q1417.45 73.7508 1411.09 67.4314 Q1404.77 61.1119 1404.77 50.3365 Q1404.77 39.1965 1410.77 32.6746 Q1416.8 26.1121 1427.01 26.1121 Q1436.17 26.1121 1441.47 32.0264 Q1446.82 37.9003 1446.82 48.0275 M1439.37 45.84 Q1439.29 39.7232 1435.92 36.0774 Q1432.6 32.4315 1427.09 32.4315 Q1420.85 32.4315 1417.09 35.9558 Q1413.36 39.4801 1412.79 45.8805 L1439.37 45.84 Z" fill="#000000" fill-rule="nonzero" fill-opacity="1" /><path clip-path="url(#clip880)" d="M1454.31 72.576 L1454.31 66.3781 Q1461.69 65.2439 1463.96 60.1397 Q1466.71 52.9696 1466.71 34.619 L1466.71 27.2059 L1497.38 27.2059 L1497.38 72.576 L1489.92 72.576 L1489.92 33.1607 L1474.16 33.1607 L1474.16 37.6572 Q1474.16 55.1571 1470.6 63.0159 Q1466.79 71.4012 1454.31 72.576 Z" fill="#000000" fill-rule="nonzero" fill-opacity="1" /><path clip-path="url(#clip880)" d="M1540.32 59.127 Q1540.32 55.4812 1537.64 53.5773 Q1535.01 51.6733 1529.9 51.6733 L1519.29 51.6733 L1519.29 66.6212 L1529.9 66.6212 Q1535.01 66.6212 1537.64 64.7172 Q1540.32 62.7728 1540.32 59.127 M1511.8 27.2059 L1519.29 27.2059 L1519.29 45.7185 L1530.23 45.7185 Q1538.9 45.7185 1543.56 49.0402 Q1548.25 52.3215 1548.25 59.127 Q1548.25 65.9325 1543.56 69.2543 Q1538.9 72.576 1530.23 72.576 L1511.8 72.576 L1511.8 27.2059 Z" fill="#000000" fill-rule="nonzero" fill-opacity="1" /><path clip-path="url(#clip880)" d="M1581.72 72.576 L1581.72 65.6895 Q1587.67 65.6895 1587.67 61.355 L1587.67 12.096 L1598.69 12.096 L1625.51 62.6918 L1625.51 23.317 Q1625.51 18.1318 1628.67 15.1342 Q1631.87 12.096 1639.4 12.096 L1639.4 18.9825 Q1633.45 18.9825 1633.45 23.317 L1633.45 72.576 L1622.43 72.576 L1595.61 21.9802 L1595.61 61.355 Q1595.61 66.5402 1592.41 69.5783 Q1589.25 72.576 1581.72 72.576 M1639.93 47.3794 Q1639.93 41.7891 1642.84 37.9408 Q1645.76 34.0519 1649.93 34.0519 Q1654.1 34.0519 1657.02 37.9408 Q1659.94 41.7891 1659.94 47.3794 Q1659.94 52.9696 1657.02 56.8585 Q1654.1 60.7069 1649.93 60.7069 Q1645.76 60.7069 1642.84 56.8585 Q1639.93 52.9696 1639.93 47.3794 M1645.6 47.3794 Q1645.6 50.5391 1646.73 52.6456 Q1647.91 54.7115 1649.93 54.7115 Q1651.96 54.7115 1653.09 52.6456 Q1654.27 50.5391 1654.27 47.3794 Q1654.27 44.2197 1653.09 42.1537 Q1651.96 40.0472 1649.93 40.0472 Q1647.91 40.0472 1646.73 42.1537 Q1645.6 44.2197 1645.6 47.3794 M1639.93 72.576 L1639.93 67.5934 L1659.94 67.5934 L1659.94 72.576 L1639.93 72.576 Z" fill="#000000" fill-rule="nonzero" fill-opacity="1" /><path clip-path="url(#clip880)" d="M1681.73 65.6895 L1710.29 65.6895 L1710.29 72.576 L1671.89 72.576 L1671.89 65.6895 Q1676.55 60.8689 1684.57 52.7671 Q1692.63 44.6248 1694.7 42.2752 Q1698.62 37.8598 1700.16 34.8216 Q1701.74 31.7429 1701.74 28.7857 Q1701.74 23.9651 1698.34 20.927 Q1694.98 17.8888 1689.55 17.8888 Q1685.7 17.8888 1681.41 19.2256 Q1677.15 20.5624 1672.29 23.2765 L1672.29 15.0127 Q1677.24 13.0277 1681.53 12.015 Q1685.82 11.0023 1689.39 11.0023 Q1698.79 11.0023 1704.38 15.7013 Q1709.97 20.4004 1709.97 28.2591 Q1709.97 31.9859 1708.55 35.3482 Q1707.17 38.6699 1703.49 43.2069 Q1702.47 44.3817 1697.04 50.0125 Q1691.62 55.6027 1681.73 65.6895 Z" fill="#000000" fill-rule="nonzero" fill-opacity="1" /><path clip-path="url(#clip880)" d="M1770.69 9.62495 Q1765.26 18.942 1762.63 28.0566 Q1760 37.1711 1760 46.5287 Q1760 55.8863 1762.63 65.0818 Q1765.3 74.2369 1770.69 83.5134 L1764.21 83.5134 Q1758.13 73.9938 1755.09 64.7983 Q1752.1 55.6027 1752.1 46.5287 Q1752.1 37.4952 1755.09 28.3401 Q1758.09 19.1851 1764.21 9.62495 L1770.69 9.62495 Z" fill="#000000" fill-rule="nonzero" fill-opacity="1" /><path clip-path="url(#clip880)" d="M1793.66 18.8205 L1793.66 41.5461 L1803.95 41.5461 Q1809.66 41.5461 1812.78 38.5889 Q1815.9 35.6318 1815.9 30.163 Q1815.9 24.7348 1812.78 21.7777 Q1809.66 18.8205 1803.95 18.8205 L1793.66 18.8205 M1785.48 12.096 L1803.95 12.096 Q1814.12 12.096 1819.3 16.714 Q1824.53 21.2916 1824.53 30.163 Q1824.53 39.1155 1819.3 43.6931 Q1814.12 48.2706 1803.95 48.2706 L1793.66 48.2706 L1793.66 72.576 L1785.48 72.576 L1785.48 12.096 Z" fill="#000000" fill-rule="nonzero" fill-opacity="1" /><path clip-path="url(#clip880)" d="M1873.99 48.0275 L1873.99 51.6733 L1839.72 51.6733 Q1840.2 59.3701 1844.34 63.421 Q1848.51 67.4314 1855.92 67.4314 Q1860.21 67.4314 1864.23 66.3781 Q1868.28 65.3249 1872.25 63.2184 L1872.25 70.267 Q1868.24 71.9684 1864.02 72.8596 Q1859.81 73.7508 1855.48 73.7508 Q1844.62 73.7508 1838.26 67.4314 Q1831.94 61.1119 1831.94 50.3365 Q1831.94 39.1965 1837.93 32.6746 Q1843.97 26.1121 1854.18 26.1121 Q1863.33 26.1121 1868.64 32.0264 Q1873.99 37.9003 1873.99 48.0275 M1866.53 45.84 Q1866.45 39.7232 1863.09 36.0774 Q1859.77 32.4315 1854.26 32.4315 Q1848.02 32.4315 1844.25 35.9558 Q1840.53 39.4801 1839.96 45.8805 L1866.53 45.84 Z" fill="#000000" fill-rule="nonzero" fill-opacity="1" /><path clip-path="url(#clip880)" d="M1885.94 72.576 L1885.94 27.2059 L1917.94 27.2059 L1917.94 33.1607 L1893.43 33.1607 L1893.43 72.576 L1885.94 72.576 Z" fill="#000000" fill-rule="nonzero" fill-opacity="1" /><path clip-path="url(#clip880)" d="M1948.69 76.7889 Q1945.53 84.8907 1942.53 87.3618 Q1939.53 89.8329 1934.51 89.8329 L1928.55 89.8329 L1928.55 83.5945 L1932.93 83.5945 Q1936.01 83.5945 1937.71 82.1361 Q1939.41 80.6778 1941.48 75.2496 L1942.81 71.8468 L1924.46 27.2059 L1932.36 27.2059 L1946.54 62.6918 L1960.72 27.2059 L1968.62 27.2059 L1948.69 76.7889 Z" fill="#000000" fill-rule="nonzero" fill-opacity="1" /><path clip-path="url(#clip880)" d="M1974.17 72.576 L1974.17 66.3781 Q1981.54 65.2439 1983.81 60.1397 Q1986.56 52.9696 1986.56 34.619 L1986.56 27.2059 L2017.23 27.2059 L2017.23 72.576 L2009.77 72.576 L2009.77 33.1607 L1994.02 33.1607 L1994.02 37.6572 Q1994.02 55.1571 1990.45 63.0159 Q1986.64 71.4012 1974.17 72.576 Z" fill="#000000" fill-rule="nonzero" fill-opacity="1" /><path clip-path="url(#clip880)" d="M2039.43 40.2903 Q2039.43 43.6525 2042.02 45.5565 Q2044.61 47.4604 2049.43 47.4604 L2059.48 47.4604 L2059.48 33.1607 L2049.43 33.1607 Q2044.61 33.1607 2042.02 35.0241 Q2039.43 36.8875 2039.43 40.2903 M2028.81 72.576 L2042.67 52.6861 Q2037.97 51.6328 2034.85 48.8782 Q2031.73 46.0831 2031.73 40.2903 Q2031.73 33.7278 2036.06 30.4871 Q2040.44 27.2059 2049.23 27.2059 L2066.97 27.2059 L2066.97 72.576 L2059.48 72.576 L2059.48 53.4152 L2050.2 53.4152 L2036.83 72.576 L2028.81 72.576 Z" fill="#000000" fill-rule="nonzero" fill-opacity="1" /><path clip-path="url(#clip880)" d="M2089.05 65.7705 L2089.05 89.8329 L2081.56 89.8329 L2081.56 27.2059 L2089.05 27.2059 L2089.05 34.0924 Q2091.4 30.0415 2094.96 28.0971 Q2098.57 26.1121 2103.55 26.1121 Q2111.82 26.1121 2116.96 32.6746 Q2122.15 39.2371 2122.15 49.9314 Q2122.15 60.6258 2116.96 67.1883 Q2111.82 73.7508 2103.55 73.7508 Q2098.57 73.7508 2094.96 71.8063 Q2091.4 69.8214 2089.05 65.7705 M2114.41 49.9314 Q2114.41 41.7081 2111.01 37.0496 Q2107.64 32.3505 2101.73 32.3505 Q2095.82 32.3505 2092.41 37.0496 Q2089.05 41.7081 2089.05 49.9314 Q2089.05 58.1548 2092.41 62.8538 Q2095.82 67.5124 2101.73 67.5124 Q2107.64 67.5124 2111.01 62.8538 Q2114.41 58.1548 2114.41 49.9314 Z" fill="#000000" fill-rule="nonzero" fill-opacity="1" /><path clip-path="url(#clip880)" d="M2134.22 27.2059 L2141.71 27.2059 L2141.71 45.7185 L2165.9 45.7185 L2165.9 27.2059 L2173.39 27.2059 L2173.39 72.576 L2165.9 72.576 L2165.9 51.6733 L2141.71 51.6733 L2141.71 72.576 L2134.22 72.576 L2134.22 27.2059 Z" fill="#000000" fill-rule="nonzero" fill-opacity="1" /><path clip-path="url(#clip880)" d="M2231.6 27.2059 L2239.06 27.2059 L2239.06 72.576 L2231.6 72.576 L2231.6 27.2059 M2235.33 26.1121 L2235.33 26.1121 M2216.98 59.127 Q2216.98 55.4812 2214.3 53.5773 Q2211.67 51.6733 2206.57 51.6733 L2195.95 51.6733 L2195.95 66.6212 L2206.57 66.6212 Q2211.67 66.6212 2214.3 64.7172 Q2216.98 62.7728 2216.98 59.127 M2188.46 27.2059 L2195.95 27.2059 L2195.95 45.7185 L2206.89 45.7185 Q2215.56 45.7185 2220.22 49.0402 Q2224.92 52.3215 2224.92 59.127 Q2224.92 65.9325 2220.22 69.2543 Q2215.56 72.576 2206.89 72.576 L2188.46 72.576 L2188.46 27.2059 Z" fill="#000000" fill-rule="nonzero" fill-opacity="1" /><path clip-path="url(#clip880)" d="M2293.05 48.0275 L2293.05 51.6733 L2258.78 51.6733 Q2259.27 59.3701 2263.4 63.421 Q2267.57 67.4314 2274.99 67.4314 Q2279.28 67.4314 2283.29 66.3781 Q2287.34 65.3249 2291.31 63.2184 L2291.31 70.267 Q2287.3 71.9684 2283.09 72.8596 Q2278.88 73.7508 2274.54 73.7508 Q2263.69 73.7508 2257.33 67.4314 Q2251.01 61.1119 2251.01 50.3365 Q2251.01 39.1965 2257 32.6746 Q2263.04 26.1121 2273.25 26.1121 Q2282.4 26.1121 2287.71 32.0264 Q2293.05 37.9003 2293.05 48.0275 M2285.6 45.84 Q2285.52 39.7232 2282.16 36.0774 Q2278.84 32.4315 2273.33 32.4315 Q2267.09 32.4315 2263.32 35.9558 Q2259.59 39.4801 2259.03 45.8805 L2285.6 45.84 Z" fill="#000000" fill-rule="nonzero" fill-opacity="1" /><path clip-path="url(#clip880)" d="M2326.31 27.2059 L2334.21 27.2059 L2348.39 65.2844 L2362.57 27.2059 L2370.47 27.2059 L2353.45 72.576 L2343.33 72.576 L2326.31 27.2059 Z" fill="#000000" fill-rule="nonzero" fill-opacity="1" /><path clip-path="url(#clip880)" d="M2409.68 28.5427 L2409.68 35.5912 Q2406.52 33.9709 2403.12 33.1607 Q2399.71 32.3505 2396.07 32.3505 Q2390.52 32.3505 2387.72 34.0519 Q2384.97 35.7533 2384.97 39.156 Q2384.97 41.7486 2386.95 43.2475 Q2388.94 44.7058 2394.93 46.0426 L2397.49 46.6097 Q2405.43 48.3111 2408.75 51.4303 Q2412.11 54.509 2412.11 60.0587 Q2412.11 66.3781 2407.09 70.0644 Q2402.1 73.7508 2393.35 73.7508 Q2389.71 73.7508 2385.74 73.0216 Q2381.81 72.3329 2377.43 70.9151 L2377.43 63.2184 Q2381.57 65.3654 2385.58 66.4591 Q2389.59 67.5124 2393.52 67.5124 Q2398.78 67.5124 2401.62 65.73 Q2404.45 63.9071 2404.45 60.6258 Q2404.45 57.5877 2402.39 55.9673 Q2400.36 54.3469 2393.44 52.8481 L2390.84 52.2405 Q2383.92 50.7821 2380.84 47.7845 Q2377.76 44.7463 2377.76 39.4801 Q2377.76 33.0797 2382.3 29.5959 Q2386.83 26.1121 2395.18 26.1121 Q2399.31 26.1121 2402.96 26.7198 Q2406.6 27.3274 2409.68 28.5427 Z" fill="#000000" fill-rule="nonzero" fill-opacity="1" /><path clip-path="url(#clip880)" d="M2496.77 12.096 L2496.77 72.576 L2488.59 72.576 L2488.59 18.9825 L2458.86 18.9825 L2458.86 72.576 L2450.67 72.576 L2450.67 12.096 L2496.77 12.096 Z" fill="#000000" fill-rule="nonzero" fill-opacity="1" /><path clip-path="url(#clip880)" d="M2533.35 49.7694 Q2524.32 49.7694 2520.84 51.8354 Q2517.35 53.9013 2517.35 58.8839 Q2517.35 62.8538 2519.95 65.2034 Q2522.58 67.5124 2527.07 67.5124 Q2533.27 67.5124 2537 63.1374 Q2540.77 58.7219 2540.77 51.4303 L2540.77 49.7694 L2533.35 49.7694 M2548.22 46.6907 L2548.22 72.576 L2540.77 72.576 L2540.77 65.6895 Q2538.21 69.8214 2534.41 71.8063 Q2530.6 73.7508 2525.09 73.7508 Q2518.12 73.7508 2513.99 69.8619 Q2509.9 65.9325 2509.9 59.3701 Q2509.9 51.7138 2515 47.825 Q2520.15 43.9361 2530.32 43.9361 L2540.77 43.9361 L2540.77 43.2069 Q2540.77 38.0623 2537.36 35.2672 Q2534 32.4315 2527.88 32.4315 Q2524 32.4315 2520.31 33.3632 Q2516.62 34.295 2513.22 36.1584 L2513.22 29.2718 Q2517.31 27.692 2521.16 26.9223 Q2525.01 26.1121 2528.65 26.1121 Q2538.5 26.1121 2543.36 31.2163 Q2548.22 36.3204 2548.22 46.6907 Z" fill="#000000" fill-rule="nonzero" fill-opacity="1" /><path clip-path="url(#clip880)" d="M2570.78 65.7705 L2570.78 89.8329 L2563.29 89.8329 L2563.29 27.2059 L2570.78 27.2059 L2570.78 34.0924 Q2573.13 30.0415 2576.7 28.0971 Q2580.3 26.1121 2585.29 26.1121 Q2593.55 26.1121 2598.69 32.6746 Q2603.88 39.2371 2603.88 49.9314 Q2603.88 60.6258 2598.69 67.1883 Q2593.55 73.7508 2585.29 73.7508 Q2580.3 73.7508 2576.7 71.8063 Q2573.13 69.8214 2570.78 65.7705 M2596.14 49.9314 Q2596.14 41.7081 2592.74 37.0496 Q2589.38 32.3505 2583.46 32.3505 Q2577.55 32.3505 2574.15 37.0496 Q2570.78 41.7081 2570.78 49.9314 Q2570.78 58.1548 2574.15 62.8538 Q2577.55 67.5124 2583.46 67.5124 Q2589.38 67.5124 2592.74 62.8538 Q2596.14 58.1548 2596.14 49.9314 Z" fill="#000000" fill-rule="nonzero" fill-opacity="1" /><path clip-path="url(#clip880)" d="M2610.85 27.2059 L2654.31 27.2059 L2654.31 33.1607 L2636.25 33.1607 L2636.25 72.576 L2628.91 72.576 L2628.91 33.1607 L2610.85 33.1607 L2610.85 27.2059 Z" fill="#000000" fill-rule="nonzero" fill-opacity="1" /><path clip-path="url(#clip880)" d="M2703.13 27.2059 L2703.13 72.576 L2695.71 72.576 L2695.71 36.1584 L2673.84 72.576 L2664.28 72.576 L2664.28 27.2059 L2671.69 27.2059 L2671.69 63.5425 L2693.53 27.2059 L2703.13 27.2059 Z" fill="#000000" fill-rule="nonzero" fill-opacity="1" /><path clip-path="url(#clip880)" d="M2739.26 48.1085 Q2744.28 49.0808 2747.08 52.0379 Q2749.87 54.9951 2749.87 59.3701 Q2749.87 66.3781 2744.65 70.0644 Q2739.42 73.7508 2729.78 73.7508 Q2726.54 73.7508 2723.1 73.1836 Q2719.7 72.6165 2716.05 71.4823 L2716.05 64.5552 Q2718.93 66.054 2722.37 66.8237 Q2725.81 67.5529 2729.58 67.5529 Q2735.7 67.5529 2739.1 65.2844 Q2742.54 63.0159 2742.54 59.3701 Q2742.54 55.8053 2739.5 53.6583 Q2736.47 51.4708 2730.92 51.4708 L2724.92 51.4708 L2724.92 45.3134 L2731.2 45.3134 Q2735.9 45.3134 2738.61 43.531 Q2741.37 41.7081 2741.37 38.8725 Q2741.37 36.2799 2738.53 34.4165 Q2735.74 32.5531 2730.92 32.5531 Q2728.04 32.5531 2724.76 33.0797 Q2721.52 33.6063 2717.59 34.7811 L2717.59 28.0161 Q2721.56 27.0438 2725 26.5577 Q2728.45 26.0716 2731.52 26.0716 Q2739.46 26.0716 2744.04 29.2718 Q2748.66 32.4315 2748.66 38.1433 Q2748.66 41.9107 2746.23 44.5437 Q2743.8 47.1363 2739.26 48.1085 Z" fill="#000000" fill-rule="nonzero" fill-opacity="1" /><path clip-path="url(#clip880)" d="M2783.21 49.7694 Q2774.18 49.7694 2770.7 51.8354 Q2767.21 53.9013 2767.21 58.8839 Q2767.21 62.8538 2769.8 65.2034 Q2772.44 67.5124 2776.93 67.5124 Q2783.13 67.5124 2786.86 63.1374 Q2790.63 58.7219 2790.63 51.4303 L2790.63 49.7694 L2783.21 49.7694 M2798.08 46.6907 L2798.08 72.576 L2790.63 72.576 L2790.63 65.6895 Q2788.07 69.8214 2784.27 71.8063 Q2780.46 73.7508 2774.95 73.7508 Q2767.98 73.7508 2763.85 69.8619 Q2759.76 65.9325 2759.76 59.3701 Q2759.76 51.7138 2764.86 47.825 Q2770.01 43.9361 2780.18 43.9361 L2790.63 43.9361 L2790.63 43.2069 Q2790.63 38.0623 2787.22 35.2672 Q2783.86 32.4315 2777.74 32.4315 Q2773.86 32.4315 2770.17 33.3632 Q2766.48 34.295 2763.08 36.1584 L2763.08 29.2718 Q2767.17 27.692 2771.02 26.9223 Q2774.87 26.1121 2778.51 26.1121 Q2788.36 26.1121 2793.22 31.2163 Q2798.08 36.3204 2798.08 46.6907 Z" fill="#000000" fill-rule="nonzero" fill-opacity="1" /><path clip-path="url(#clip880)" d="M2813.15 27.2059 L2820.64 27.2059 L2820.64 45.7185 L2844.83 45.7185 L2844.83 27.2059 L2852.32 27.2059 L2852.32 72.576 L2844.83 72.576 L2844.83 51.6733 L2820.64 51.6733 L2820.64 72.576 L2813.15 72.576 L2813.15 27.2059 Z" fill="#000000" fill-rule="nonzero" fill-opacity="1" /><path clip-path="url(#clip880)" d="M2910.53 27.2059 L2917.99 27.2059 L2917.99 72.576 L2910.53 72.576 L2910.53 27.2059 M2914.26 26.1121 L2914.26 26.1121 M2895.91 59.127 Q2895.91 55.4812 2893.24 53.5773 Q2890.6 51.6733 2885.5 51.6733 L2874.89 51.6733 L2874.89 66.6212 L2885.5 66.6212 Q2890.6 66.6212 2893.24 64.7172 Q2895.91 62.7728 2895.91 59.127 M2867.39 27.2059 L2874.89 27.2059 L2874.89 45.7185 L2885.82 45.7185 Q2894.49 45.7185 2899.15 49.0402 Q2903.85 52.3215 2903.85 59.127 Q2903.85 65.9325 2899.15 69.2543 Q2894.49 72.576 2885.82 72.576 L2867.39 72.576 L2867.39 27.2059 Z" fill="#000000" fill-rule="nonzero" fill-opacity="1" /><path clip-path="url(#clip880)" d="M2932 9.62495 L2938.48 9.62495 Q2944.56 19.1851 2947.56 28.3401 Q2950.6 37.4952 2950.6 46.5287 Q2950.6 55.6027 2947.56 64.7983 Q2944.56 73.9938 2938.48 83.5134 L2932 83.5134 Q2937.39 74.2369 2940.02 65.0818 Q2942.7 55.8863 2942.7 46.5287 Q2942.7 37.1711 2940.02 28.0566 Q2937.39 18.942 2932 9.62495 Z" fill="#000000" fill-rule="nonzero" fill-opacity="1" /><polyline clip-path="url(#clip881)" style="stroke:#009af9; stroke-linecap:round; stroke-linejoin:round; stroke-width:8; stroke-opacity:1; fill:none" points="386.479,193.563 420.542,202.567 454.605,211.454 488.668,220.306 522.73,229.122 556.793,237.903 590.856,246.65 624.919,255.361 658.982,264.038 693.044,272.679 727.107,281.287 761.17,289.86 795.233,298.398 829.295,306.903 863.358,315.374 897.421,323.811 931.484,332.214 965.546,340.583 999.609,348.92 1033.67,357.222 1067.73,365.492 1101.8,373.729 1135.86,381.933 1169.92,390.104 1203.99,398.242 1238.05,406.348 1272.11,414.422 1306.17,422.463 1340.24,430.472 1374.3,438.45 1408.36,446.395 1442.43,454.309 1476.49,462.191 1510.55,470.041 1544.61,477.86 1578.68,485.648 1612.74,493.405 1646.8,501.131 1680.86,508.826 1714.93,516.491 1748.99,524.124 1783.05,531.728 1817.12,539.3 1851.18,546.843 1885.24,554.356 1919.3,561.838 1953.37,569.291 1987.43,576.714 2021.49,584.107 2055.55,591.471 2089.62,598.805 2123.68,606.11 2157.74,613.386 2191.81,620.633 2225.87,627.85 2259.93,635.039 2293.99,642.2 2328.06,649.331 2362.12,656.435 2396.18,663.51 2430.25,670.556 2464.31,677.575 2498.37,684.565 2532.43,691.528 2566.5,698.462 2600.56,705.37 2634.62,712.249 2668.68,719.101 2702.75,725.926 2736.81,732.723 2770.87,739.493 2804.94,746.236 2839,752.953 2873.06,759.642 2907.12,766.305 2941.19,772.941 2975.25,779.551 3009.31,786.134 3043.38,792.691 3077.44,799.222 3111.5,805.726 3145.56,812.205 3179.63,818.658 3213.69,825.085 3247.75,831.486 3281.81,837.862 3315.88,844.213 3349.94,850.538 3384,856.838 3418.07,863.112 3452.13,869.362 3486.19,875.586 3520.25,881.786 3554.32,887.961 3588.38,894.111 3622.44,900.237 3656.5,906.339 3690.57,912.416 3724.63,918.468 3758.69,924.497 3792.76,930.501 "/>
<polyline clip-path="url(#clip881)" style="stroke:#e26f46; stroke-linecap:round; stroke-linejoin:round; stroke-width:8; stroke-opacity:1; fill:none" points="386.479,1423.12 420.542,2429.13 454.605,2429.13 488.668,2429.13 522.73,2429.13 556.793,2429.13 590.856,2429.13 624.919,2429.13 658.982,2429.13 693.044,2429.13 727.107,2429.13 761.17,2429.13 795.233,2429.13 829.295,2429.13 863.358,2429.13 897.421,2429.13 931.484,2429.13 965.546,2429.13 999.609,2429.13 1033.67,2429.13 1067.73,2429.13 1101.8,2429.13 1135.86,2429.13 1169.92,2429.13 1203.99,2429.13 1238.05,2429.13 1272.11,2429.13 1306.17,2429.13 1340.24,2429.13 1374.3,2429.13 1408.36,2429.13 1442.43,2429.13 1476.49,2429.13 1510.55,2429.13 1544.61,2429.13 1578.68,2429.13 1612.74,2429.13 1646.8,2429.13 1680.86,2429.13 1714.93,2429.13 1748.99,2429.13 1783.05,2429.13 1817.12,2429.13 1851.18,2429.13 1885.24,2429.13 1919.3,2429.13 1953.37,2429.13 1987.43,2429.13 2021.49,2429.13 2055.55,2429.13 2089.62,2429.13 2123.68,2429.13 2157.74,2429.13 2191.81,2429.13 2225.87,2429.13 2259.93,2429.13 2293.99,2429.13 2328.06,2429.13 2362.12,2429.13 2396.18,2429.13 2430.25,2429.13 2464.31,2429.13 2498.37,2429.13 2532.43,2429.13 2566.5,2429.13 2600.56,2429.13 2634.62,2429.13 2668.68,2429.13 2702.75,2429.13 2736.81,2429.13 2770.87,2429.13 2804.94,2429.13 2839,2429.13 2873.06,2429.13 2907.12,2429.13 2941.19,2429.13 2975.25,2429.13 3009.31,2429.13 3043.38,2429.13 3077.44,2429.13 3111.5,2429.13 3145.56,2429.13 3179.63,2429.13 3213.69,2429.13 3247.75,2429.13 3281.81,2429.13 3315.88,2429.13 3349.94,2429.13 3384,2429.13 3418.07,2429.13 3452.13,2429.13 3486.19,2429.13 3520.25,2429.13 3554.32,2429.13 3588.38,2429.13 3622.44,2429.13 3656.5,2429.13 3690.57,2429.13 3724.63,2429.13 3758.69,2429.13 3792.76,2429.13 "/>
<path clip-path="url(#clip880)" d="M3135.28 361.006 L3679.21 361.006 L3679.21 205.486 L3135.28 205.486  Z" fill="#ffffff" fill-rule="evenodd" fill-opacity="1"/>
<polyline clip-path="url(#clip880)" style="stroke:#000000; stroke-linecap:round; stroke-linejoin:round; stroke-width:4; stroke-opacity:1; fill:none" points="3135.28,361.006 3679.21,361.006 3679.21,205.486 3135.28,205.486 3135.28,361.006 "/>
<polyline clip-path="url(#clip880)" style="stroke:#009af9; stroke-linecap:round; stroke-linejoin:round; stroke-width:8; stroke-opacity:1; fill:none" points="3173.12,257.326 3400.21,257.326 "/>
<path clip-path="url(#clip880)" d="M3453.89 244.653 L3447.55 261.852 L3460.26 261.852 L3453.89 244.653 M3451.25 240.046 L3456.55 240.046 L3469.72 274.606 L3464.86 274.606 L3461.71 265.74 L3446.14 265.74 L3442.99 274.606 L3438.06 274.606 L3451.25 240.046 Z" fill="#000000" fill-rule="nonzero" fill-opacity="1" /><path clip-path="url(#clip880)" d="M3478.7 270.717 L3478.7 284.467 L3474.42 284.467 L3474.42 248.68 L3478.7 248.68 L3478.7 252.615 Q3480.05 250.301 3482.08 249.19 Q3484.14 248.055 3486.99 248.055 Q3491.71 248.055 3494.65 251.805 Q3497.62 255.555 3497.62 261.666 Q3497.62 267.777 3494.65 271.527 Q3491.71 275.277 3486.99 275.277 Q3484.14 275.277 3482.08 274.166 Q3480.05 273.032 3478.7 270.717 M3493.2 261.666 Q3493.2 256.967 3491.25 254.305 Q3489.33 251.62 3485.95 251.62 Q3482.57 251.62 3480.63 254.305 Q3478.7 256.967 3478.7 261.666 Q3478.7 266.365 3480.63 269.051 Q3482.57 271.713 3485.95 271.713 Q3489.33 271.713 3491.25 269.051 Q3493.2 266.365 3493.2 261.666 Z" fill="#000000" fill-rule="nonzero" fill-opacity="1" /><path clip-path="url(#clip880)" d="M3504.51 248.68 L3510.74 248.68 L3518.1 266.041 L3525.49 248.68 L3531.67 248.68 L3531.67 274.606 L3527.38 274.606 L3527.38 252.754 L3520.23 269.629 L3515.97 269.629 L3508.8 252.754 L3508.8 274.606 L3504.51 274.606 L3504.51 248.68 Z" fill="#000000" fill-rule="nonzero" fill-opacity="1" /><path clip-path="url(#clip880)" d="M3562.48 248.68 L3562.48 274.606 L3558.24 274.606 L3558.24 253.796 L3545.74 274.606 L3540.28 274.606 L3540.28 248.68 L3544.51 248.68 L3544.51 269.444 L3556.99 248.68 L3562.48 248.68 Z" fill="#000000" fill-rule="nonzero" fill-opacity="1" /><path clip-path="url(#clip880)" d="M3575.53 256.157 Q3575.53 258.078 3577.01 259.166 Q3578.5 260.254 3581.25 260.254 L3586.99 260.254 L3586.99 252.083 L3581.25 252.083 Q3578.5 252.083 3577.01 253.148 Q3575.53 254.213 3575.53 256.157 M3569.47 274.606 L3577.38 263.24 Q3574.7 262.639 3572.92 261.065 Q3571.13 259.467 3571.13 256.157 Q3571.13 252.407 3573.61 250.555 Q3576.11 248.68 3581.13 248.68 L3591.27 248.68 L3591.27 274.606 L3586.99 274.606 L3586.99 263.657 L3581.69 263.657 L3574.05 274.606 L3569.47 274.606 Z" fill="#000000" fill-rule="nonzero" fill-opacity="1" /><path clip-path="url(#clip880)" d="M3613.36 240.046 L3618.38 240.046 L3626.97 252.893 L3635.6 240.046 L3640.63 240.046 L3629.51 256.643 L3641.37 274.606 L3636.34 274.606 L3626.62 259.907 L3616.83 274.606 L3611.78 274.606 L3624.12 256.157 L3613.36 240.046 Z" fill="#000000" fill-rule="nonzero" fill-opacity="1" /><polyline clip-path="url(#clip880)" style="stroke:#e26f46; stroke-linecap:round; stroke-linejoin:round; stroke-width:8; stroke-opacity:1; fill:none" points="3173.12,309.166 3400.21,309.166 "/>
<path clip-path="url(#clip880)" d="M3453.89 296.493 L3447.55 313.692 L3460.26 313.692 L3453.89 296.493 M3451.25 291.886 L3456.55 291.886 L3469.72 326.446 L3464.86 326.446 L3461.71 317.58 L3446.14 317.58 L3442.99 326.446 L3438.06 326.446 L3451.25 291.886 Z" fill="#000000" fill-rule="nonzero" fill-opacity="1" /><path clip-path="url(#clip880)" d="M3478.7 322.557 L3478.7 336.307 L3474.42 336.307 L3474.42 300.52 L3478.7 300.52 L3478.7 304.455 Q3480.05 302.141 3482.08 301.03 Q3484.14 299.895 3486.99 299.895 Q3491.71 299.895 3494.65 303.645 Q3497.62 307.395 3497.62 313.506 Q3497.62 319.617 3494.65 323.367 Q3491.71 327.117 3486.99 327.117 Q3484.14 327.117 3482.08 326.006 Q3480.05 324.872 3478.7 322.557 M3493.2 313.506 Q3493.2 308.807 3491.25 306.145 Q3489.33 303.46 3485.95 303.46 Q3482.57 303.46 3480.63 306.145 Q3478.7 308.807 3478.7 313.506 Q3478.7 318.205 3480.63 320.891 Q3482.57 323.553 3485.95 323.553 Q3489.33 323.553 3491.25 320.891 Q3493.2 318.205 3493.2 313.506 Z" fill="#000000" fill-rule="nonzero" fill-opacity="1" /><path clip-path="url(#clip880)" d="M3504.51 300.52 L3510.74 300.52 L3518.1 317.881 L3525.49 300.52 L3531.67 300.52 L3531.67 326.446 L3527.38 326.446 L3527.38 304.594 L3520.23 321.469 L3515.97 321.469 L3508.8 304.594 L3508.8 326.446 L3504.51 326.446 L3504.51 300.52 Z" fill="#000000" fill-rule="nonzero" fill-opacity="1" /><path clip-path="url(#clip880)" d="M3562.48 300.52 L3562.48 326.446 L3558.24 326.446 L3558.24 305.636 L3545.74 326.446 L3540.28 326.446 L3540.28 300.52 L3544.51 300.52 L3544.51 321.284 L3556.99 300.52 L3562.48 300.52 Z" fill="#000000" fill-rule="nonzero" fill-opacity="1" /><path clip-path="url(#clip880)" d="M3575.53 307.997 Q3575.53 309.918 3577.01 311.006 Q3578.5 312.094 3581.25 312.094 L3586.99 312.094 L3586.99 303.923 L3581.25 303.923 Q3578.5 303.923 3577.01 304.988 Q3575.53 306.053 3575.53 307.997 M3569.47 326.446 L3577.38 315.08 Q3574.7 314.479 3572.92 312.905 Q3571.13 311.307 3571.13 307.997 Q3571.13 304.247 3573.61 302.395 Q3576.11 300.52 3581.13 300.52 L3591.27 300.52 L3591.27 326.446 L3586.99 326.446 L3586.99 315.497 L3581.69 315.497 L3574.05 326.446 L3569.47 326.446 Z" fill="#000000" fill-rule="nonzero" fill-opacity="1" /><path clip-path="url(#clip880)" d="M3610.28 291.886 L3615.3 291.886 L3624.88 306.099 L3634.4 291.886 L3639.42 291.886 L3627.2 309.988 L3627.2 326.446 L3622.5 326.446 L3622.5 309.988 L3610.28 291.886 Z" fill="#000000" fill-rule="nonzero" fill-opacity="1" /></svg>
