<?xml version="1.0" encoding="utf-8"?>
<svg xmlns="http://www.w3.org/2000/svg" xmlns:xlink="http://www.w3.org/1999/xlink" width="600" height="400" viewBox="0 0 2400 1600">
<defs>
  <clipPath id="clip000">
    <rect x="0" y="0" width="2400" height="1600"/>
  </clipPath>
</defs>
<path clip-path="url(#clip000)" d="M0 1600 L2400 1600 L2400 0 L0 0  Z" fill="#ffffff" fill-rule="evenodd" fill-opacity="1"/>
<defs>
  <clipPath id="clip001">
    <rect x="339" y="123" width="2014" height="1301"/>
  </clipPath>
</defs>
<path clip-path="url(#clip000)" d="M369.703 1423.18 L2352.76 1423.18 L2352.76 123.472 L369.703 123.472  Z" fill="#ffffff" fill-rule="evenodd" fill-opacity="1"/>
<defs>
  <clipPath id="clip002">
    <rect x="369" y="123" width="1984" height="1301"/>
  </clipPath>
</defs>
<polyline clip-path="url(#clip002)" style="stroke:#000000; stroke-linecap:round; stroke-linejoin:round; stroke-width:2; stroke-opacity:0.1; fill:none" points="369.703,1423.18 369.703,123.472 "/>
<polyline clip-path="url(#clip002)" style="stroke:#000000; stroke-linecap:round; stroke-linejoin:round; stroke-width:2; stroke-opacity:0.1; fill:none" points="766.314,1423.18 766.314,123.472 "/>
<polyline clip-path="url(#clip002)" style="stroke:#000000; stroke-linecap:round; stroke-linejoin:round; stroke-width:2; stroke-opacity:0.1; fill:none" points="1162.92,1423.18 1162.92,123.472 "/>
<polyline clip-path="url(#clip002)" style="stroke:#000000; stroke-linecap:round; stroke-linejoin:round; stroke-width:2; stroke-opacity:0.1; fill:none" points="1559.53,1423.18 1559.53,123.472 "/>
<polyline clip-path="url(#clip002)" style="stroke:#000000; stroke-linecap:round; stroke-linejoin:round; stroke-width:2; stroke-opacity:0.1; fill:none" points="1956.15,1423.18 1956.15,123.472 "/>
<polyline clip-path="url(#clip002)" style="stroke:#000000; stroke-linecap:round; stroke-linejoin:round; stroke-width:2; stroke-opacity:0.1; fill:none" points="2352.76,1423.18 2352.76,123.472 "/>
<polyline clip-path="url(#clip002)" style="stroke:#000000; stroke-linecap:round; stroke-linejoin:round; stroke-width:2; stroke-opacity:0.1; fill:none" points="369.703,1386.4 2352.76,1386.4 "/>
<polyline clip-path="url(#clip002)" style="stroke:#000000; stroke-linecap:round; stroke-linejoin:round; stroke-width:2; stroke-opacity:0.1; fill:none" points="369.703,1079.86 2352.76,1079.86 "/>
<polyline clip-path="url(#clip002)" style="stroke:#000000; stroke-linecap:round; stroke-linejoin:round; stroke-width:2; stroke-opacity:0.1; fill:none" points="369.703,773.326 2352.76,773.326 "/>
<polyline clip-path="url(#clip002)" style="stroke:#000000; stroke-linecap:round; stroke-linejoin:round; stroke-width:2; stroke-opacity:0.1; fill:none" points="369.703,466.791 2352.76,466.791 "/>
<polyline clip-path="url(#clip002)" style="stroke:#000000; stroke-linecap:round; stroke-linejoin:round; stroke-width:2; stroke-opacity:0.1; fill:none" points="369.703,160.256 2352.76,160.256 "/>
<polyline clip-path="url(#clip000)" style="stroke:#000000; stroke-linecap:round; stroke-linejoin:round; stroke-width:4; stroke-opacity:1; fill:none" points="369.703,1423.18 2352.76,1423.18 "/>
<polyline clip-path="url(#clip000)" style="stroke:#000000; stroke-linecap:round; stroke-linejoin:round; stroke-width:4; stroke-opacity:1; fill:none" points="369.703,1423.18 369.703,1404.28 "/>
<polyline clip-path="url(#clip000)" style="stroke:#000000; stroke-linecap:round; stroke-linejoin:round; stroke-width:4; stroke-opacity:1; fill:none" points="766.314,1423.18 766.314,1404.28 "/>
<polyline clip-path="url(#clip000)" style="stroke:#000000; stroke-linecap:round; stroke-linejoin:round; stroke-width:4; stroke-opacity:1; fill:none" points="1162.92,1423.18 1162.92,1404.28 "/>
<polyline clip-path="url(#clip000)" style="stroke:#000000; stroke-linecap:round; stroke-linejoin:round; stroke-width:4; stroke-opacity:1; fill:none" points="1559.53,1423.18 1559.53,1404.28 "/>
<polyline clip-path="url(#clip000)" style="stroke:#000000; stroke-linecap:round; stroke-linejoin:round; stroke-width:4; stroke-opacity:1; fill:none" points="1956.15,1423.18 1956.15,1404.28 "/>
<polyline clip-path="url(#clip000)" style="stroke:#000000; stroke-linecap:round; stroke-linejoin:round; stroke-width:4; stroke-opacity:1; fill:none" points="2352.76,1423.18 2352.76,1404.28 "/>
<path clip-path="url(#clip000)" d="M347.088 1454.1 Q343.477 1454.1 341.648 1457.66 Q339.842 1461.2 339.842 1468.33 Q339.842 1475.44 341.648 1479.01 Q343.477 1482.55 347.088 1482.55 Q350.722 1482.55 352.528 1479.01 Q354.356 1475.44 354.356 1468.33 Q354.356 1461.2 352.528 1457.66 Q350.722 1454.1 347.088 1454.1 M347.088 1450.39 Q352.898 1450.39 355.953 1455 Q359.032 1459.58 359.032 1468.33 Q359.032 1477.06 355.953 1481.67 Q352.898 1486.25 347.088 1486.25 Q341.278 1486.25 338.199 1481.67 Q335.143 1477.06 335.143 1468.33 Q335.143 1459.58 338.199 1455 Q341.278 1450.39 347.088 1450.39 Z" fill="#000000" fill-rule="nonzero" fill-opacity="1" /><path clip-path="url(#clip000)" d="M367.25 1479.7 L372.134 1479.7 L372.134 1485.58 L367.25 1485.58 L367.25 1479.7 Z" fill="#000000" fill-rule="nonzero" fill-opacity="1" /><path clip-path="url(#clip000)" d="M392.319 1454.1 Q388.708 1454.1 386.879 1457.66 Q385.074 1461.2 385.074 1468.33 Q385.074 1475.44 386.879 1479.01 Q388.708 1482.55 392.319 1482.55 Q395.953 1482.55 397.759 1479.01 Q399.588 1475.44 399.588 1468.33 Q399.588 1461.2 397.759 1457.66 Q395.953 1454.1 392.319 1454.1 M392.319 1450.39 Q398.129 1450.39 401.185 1455 Q404.263 1459.58 404.263 1468.33 Q404.263 1477.06 401.185 1481.67 Q398.129 1486.25 392.319 1486.25 Q386.509 1486.25 383.43 1481.67 Q380.375 1477.06 380.375 1468.33 Q380.375 1459.58 383.43 1455 Q386.509 1450.39 392.319 1450.39 Z" fill="#000000" fill-rule="nonzero" fill-opacity="1" /><path clip-path="url(#clip000)" d="M744.497 1454.1 Q740.886 1454.1 739.057 1457.66 Q737.252 1461.2 737.252 1468.33 Q737.252 1475.44 739.057 1479.01 Q740.886 1482.55 744.497 1482.55 Q748.131 1482.55 749.937 1479.01 Q751.765 1475.44 751.765 1468.33 Q751.765 1461.2 749.937 1457.66 Q748.131 1454.1 744.497 1454.1 M744.497 1450.39 Q750.307 1450.39 753.363 1455 Q756.441 1459.58 756.441 1468.33 Q756.441 1477.06 753.363 1481.67 Q750.307 1486.25 744.497 1486.25 Q738.687 1486.25 735.608 1481.67 Q732.553 1477.06 732.553 1468.33 Q732.553 1459.58 735.608 1455 Q738.687 1450.39 744.497 1450.39 Z" fill="#000000" fill-rule="nonzero" fill-opacity="1" /><path clip-path="url(#clip000)" d="M764.659 1479.7 L769.543 1479.7 L769.543 1485.58 L764.659 1485.58 L764.659 1479.7 Z" fill="#000000" fill-rule="nonzero" fill-opacity="1" /><path clip-path="url(#clip000)" d="M783.756 1481.64 L800.075 1481.64 L800.075 1485.58 L778.131 1485.58 L778.131 1481.64 Q780.793 1478.89 785.376 1474.26 Q789.983 1469.61 791.163 1468.27 Q793.409 1465.74 794.288 1464.01 Q795.191 1462.25 795.191 1460.56 Q795.191 1457.8 793.247 1456.07 Q791.325 1454.33 788.224 1454.33 Q786.024 1454.33 783.571 1455.09 Q781.14 1455.86 778.362 1457.41 L778.362 1452.69 Q781.187 1451.55 783.64 1450.97 Q786.094 1450.39 788.131 1450.39 Q793.501 1450.39 796.696 1453.08 Q799.89 1455.77 799.89 1460.26 Q799.89 1462.39 799.08 1464.31 Q798.293 1466.2 796.186 1468.8 Q795.608 1469.47 792.506 1472.69 Q789.404 1475.88 783.756 1481.64 Z" fill="#000000" fill-rule="nonzero" fill-opacity="1" /><path clip-path="url(#clip000)" d="M1140.07 1454.1 Q1136.45 1454.1 1134.63 1457.66 Q1132.82 1461.2 1132.82 1468.33 Q1132.82 1475.44 1134.63 1479.01 Q1136.45 1482.55 1140.07 1482.55 Q1143.7 1482.55 1145.51 1479.01 Q1147.33 1475.44 1147.33 1468.33 Q1147.33 1461.2 1145.51 1457.66 Q1143.7 1454.1 1140.07 1454.1 M1140.07 1450.39 Q1145.88 1450.39 1148.93 1455 Q1152.01 1459.58 1152.01 1468.33 Q1152.01 1477.06 1148.93 1481.67 Q1145.88 1486.25 1140.07 1486.25 Q1134.26 1486.25 1131.18 1481.67 Q1128.12 1477.06 1128.12 1468.33 Q1128.12 1459.58 1131.18 1455 Q1134.26 1450.39 1140.07 1450.39 Z" fill="#000000" fill-rule="nonzero" fill-opacity="1" /><path clip-path="url(#clip000)" d="M1160.23 1479.7 L1165.11 1479.7 L1165.11 1485.58 L1160.23 1485.58 L1160.23 1479.7 Z" fill="#000000" fill-rule="nonzero" fill-opacity="1" /><path clip-path="url(#clip000)" d="M1188.14 1455.09 L1176.34 1473.54 L1188.14 1473.54 L1188.14 1455.09 M1186.92 1451.02 L1192.8 1451.02 L1192.8 1473.54 L1197.73 1473.54 L1197.73 1477.43 L1192.8 1477.43 L1192.8 1485.58 L1188.14 1485.58 L1188.14 1477.43 L1172.54 1477.43 L1172.54 1472.92 L1186.92 1451.02 Z" fill="#000000" fill-rule="nonzero" fill-opacity="1" /><path clip-path="url(#clip000)" d="M1536.84 1454.1 Q1533.23 1454.1 1531.4 1457.66 Q1529.59 1461.2 1529.59 1468.33 Q1529.59 1475.44 1531.4 1479.01 Q1533.23 1482.55 1536.84 1482.55 Q1540.47 1482.55 1542.28 1479.01 Q1544.11 1475.44 1544.11 1468.33 Q1544.11 1461.2 1542.28 1457.66 Q1540.47 1454.1 1536.84 1454.1 M1536.84 1450.39 Q1542.65 1450.39 1545.7 1455 Q1548.78 1459.58 1548.78 1468.33 Q1548.78 1477.06 1545.7 1481.67 Q1542.65 1486.25 1536.84 1486.25 Q1531.03 1486.25 1527.95 1481.67 Q1524.89 1477.06 1524.89 1468.33 Q1524.89 1459.58 1527.95 1455 Q1531.03 1450.39 1536.84 1450.39 Z" fill="#000000" fill-rule="nonzero" fill-opacity="1" /><path clip-path="url(#clip000)" d="M1557 1479.7 L1561.88 1479.7 L1561.88 1485.58 L1557 1485.58 L1557 1479.7 Z" fill="#000000" fill-rule="nonzero" fill-opacity="1" /><path clip-path="url(#clip000)" d="M1582.65 1466.44 Q1579.5 1466.44 1577.65 1468.59 Q1575.82 1470.74 1575.82 1474.49 Q1575.82 1478.22 1577.65 1480.39 Q1579.5 1482.55 1582.65 1482.55 Q1585.8 1482.55 1587.63 1480.39 Q1589.48 1478.22 1589.48 1474.49 Q1589.48 1470.74 1587.63 1468.59 Q1585.8 1466.44 1582.65 1466.44 M1591.93 1451.78 L1591.93 1456.04 Q1590.17 1455.21 1588.37 1454.77 Q1586.58 1454.33 1584.82 1454.33 Q1580.19 1454.33 1577.74 1457.45 Q1575.31 1460.58 1574.96 1466.9 Q1576.33 1464.89 1578.39 1463.82 Q1580.45 1462.73 1582.93 1462.73 Q1588.13 1462.73 1591.14 1465.9 Q1594.18 1469.05 1594.18 1474.49 Q1594.18 1479.82 1591.03 1483.03 Q1587.88 1486.25 1582.65 1486.25 Q1576.65 1486.25 1573.48 1481.67 Q1570.31 1477.06 1570.31 1468.33 Q1570.31 1460.14 1574.2 1455.28 Q1578.09 1450.39 1584.64 1450.39 Q1586.4 1450.39 1588.18 1450.74 Q1589.99 1451.09 1591.93 1451.78 Z" fill="#000000" fill-rule="nonzero" fill-opacity="1" /><path clip-path="url(#clip000)" d="M1933.58 1454.1 Q1929.96 1454.1 1928.14 1457.66 Q1926.33 1461.2 1926.33 1468.33 Q1926.33 1475.44 1928.14 1479.01 Q1929.96 1482.55 1933.58 1482.55 Q1937.21 1482.55 1939.02 1479.01 Q1940.84 1475.44 1940.84 1468.33 Q1940.84 1461.2 1939.02 1457.66 Q1937.21 1454.1 1933.58 1454.1 M1933.58 1450.39 Q1939.39 1450.39 1942.44 1455 Q1945.52 1459.58 1945.52 1468.33 Q1945.52 1477.06 1942.44 1481.67 Q1939.39 1486.25 1933.58 1486.25 Q1927.77 1486.25 1924.69 1481.67 Q1921.63 1477.06 1921.63 1468.33 Q1921.63 1459.58 1924.69 1455 Q1927.77 1450.39 1933.58 1450.39 Z" fill="#000000" fill-rule="nonzero" fill-opacity="1" /><path clip-path="url(#clip000)" d="M1953.74 1479.7 L1958.62 1479.7 L1958.62 1485.58 L1953.74 1485.58 L1953.74 1479.7 Z" fill="#000000" fill-rule="nonzero" fill-opacity="1" /><path clip-path="url(#clip000)" d="M1978.81 1469.17 Q1975.47 1469.17 1973.55 1470.95 Q1971.65 1472.73 1971.65 1475.86 Q1971.65 1478.98 1973.55 1480.77 Q1975.47 1482.55 1978.81 1482.55 Q1982.14 1482.55 1984.06 1480.77 Q1985.98 1478.96 1985.98 1475.86 Q1985.98 1472.73 1984.06 1470.95 Q1982.16 1469.17 1978.81 1469.17 M1974.13 1467.18 Q1971.12 1466.44 1969.43 1464.38 Q1967.77 1462.32 1967.77 1459.35 Q1967.77 1455.21 1970.71 1452.8 Q1973.67 1450.39 1978.81 1450.39 Q1983.97 1450.39 1986.91 1452.8 Q1989.85 1455.21 1989.85 1459.35 Q1989.85 1462.32 1988.16 1464.38 Q1986.49 1466.44 1983.51 1467.18 Q1986.89 1467.96 1988.76 1470.26 Q1990.66 1472.55 1990.66 1475.86 Q1990.66 1480.88 1987.58 1483.57 Q1984.52 1486.25 1978.81 1486.25 Q1973.09 1486.25 1970.01 1483.57 Q1966.96 1480.88 1966.96 1475.86 Q1966.96 1472.55 1968.85 1470.26 Q1970.75 1467.96 1974.13 1467.18 M1972.42 1459.79 Q1972.42 1462.48 1974.09 1463.98 Q1975.77 1465.49 1978.81 1465.49 Q1981.82 1465.49 1983.51 1463.98 Q1985.22 1462.48 1985.22 1459.79 Q1985.22 1457.11 1983.51 1455.6 Q1981.82 1454.1 1978.81 1454.1 Q1975.77 1454.1 1974.09 1455.6 Q1972.42 1457.11 1972.42 1459.79 Z" fill="#000000" fill-rule="nonzero" fill-opacity="1" /><path clip-path="url(#clip000)" d="M2319.91 1481.64 L2327.55 1481.64 L2327.55 1455.28 L2319.24 1456.95 L2319.24 1452.69 L2327.5 1451.02 L2332.18 1451.02 L2332.18 1481.64 L2339.82 1481.64 L2339.82 1485.58 L2319.91 1485.58 L2319.91 1481.64 Z" fill="#000000" fill-rule="nonzero" fill-opacity="1" /><path clip-path="url(#clip000)" d="M2349.26 1479.7 L2354.14 1479.7 L2354.14 1485.58 L2349.26 1485.58 L2349.26 1479.7 Z" fill="#000000" fill-rule="nonzero" fill-opacity="1" /><path clip-path="url(#clip000)" d="M2374.33 1454.1 Q2370.72 1454.1 2368.89 1457.66 Q2367.08 1461.2 2367.08 1468.33 Q2367.08 1475.44 2368.89 1479.01 Q2370.72 1482.55 2374.33 1482.55 Q2377.96 1482.55 2379.77 1479.01 Q2381.6 1475.44 2381.6 1468.33 Q2381.6 1461.2 2379.77 1457.66 Q2377.96 1454.1 2374.33 1454.1 M2374.33 1450.39 Q2380.14 1450.39 2383.2 1455 Q2386.27 1459.58 2386.27 1468.33 Q2386.27 1477.06 2383.2 1481.67 Q2380.14 1486.25 2374.33 1486.25 Q2368.52 1486.25 2365.44 1481.67 Q2362.39 1477.06 2362.39 1468.33 Q2362.39 1459.58 2365.44 1455 Q2368.52 1450.39 2374.33 1450.39 Z" fill="#000000" fill-rule="nonzero" fill-opacity="1" /><path clip-path="url(#clip000)" d="M1266.33 1545.35 L1266.33 1562.76 L1276.65 1562.76 Q1281.83 1562.76 1284.32 1560.63 Q1286.83 1558.46 1286.83 1554.04 Q1286.83 1549.58 1284.32 1547.48 Q1281.83 1545.35 1276.65 1545.35 L1266.33 1545.35 M1266.33 1525.81 L1266.33 1540.13 L1275.85 1540.13 Q1280.56 1540.13 1282.85 1538.38 Q1285.18 1536.6 1285.18 1532.97 Q1285.18 1529.37 1282.85 1527.59 Q1280.56 1525.81 1275.85 1525.81 L1266.33 1525.81 M1259.9 1520.52 L1276.33 1520.52 Q1283.68 1520.52 1287.66 1523.58 Q1291.64 1526.63 1291.64 1532.27 Q1291.64 1536.63 1289.6 1539.21 Q1287.56 1541.79 1283.62 1542.42 Q1288.36 1543.44 1290.97 1546.69 Q1293.61 1549.9 1293.61 1554.74 Q1293.61 1561.11 1289.28 1564.57 Q1284.95 1568.04 1276.96 1568.04 L1259.9 1568.04 L1259.9 1520.52 Z" fill="#000000" fill-rule="nonzero" fill-opacity="1" /><path clip-path="url(#clip000)" d="M1310.03 1562.7 L1310.03 1581.6 L1304.15 1581.6 L1304.15 1532.4 L1310.03 1532.4 L1310.03 1537.81 Q1311.88 1534.62 1314.68 1533.1 Q1317.51 1531.54 1321.43 1531.54 Q1327.92 1531.54 1331.96 1536.69 Q1336.04 1541.85 1336.04 1550.25 Q1336.04 1558.65 1331.96 1563.81 Q1327.92 1568.97 1321.43 1568.97 Q1317.51 1568.97 1314.68 1567.44 Q1311.88 1565.88 1310.03 1562.7 M1329.96 1550.25 Q1329.96 1543.79 1327.28 1540.13 Q1324.64 1536.44 1320 1536.44 Q1315.35 1536.44 1312.68 1540.13 Q1310.03 1543.79 1310.03 1550.25 Q1310.03 1556.71 1312.68 1560.4 Q1315.35 1564.07 1320 1564.07 Q1324.64 1564.07 1327.28 1560.4 Q1329.96 1556.71 1329.96 1550.25 Z" fill="#000000" fill-rule="nonzero" fill-opacity="1" /><path clip-path="url(#clip000)" d="M1376.24 1548.76 L1376.24 1551.62 L1349.31 1551.62 Q1349.69 1557.67 1352.94 1560.85 Q1356.22 1564 1362.04 1564 Q1365.42 1564 1368.57 1563.17 Q1371.75 1562.35 1374.87 1560.69 L1374.87 1566.23 Q1371.72 1567.57 1368.41 1568.27 Q1365.1 1568.97 1361.69 1568.97 Q1353.16 1568.97 1348.16 1564 Q1343.2 1559.04 1343.2 1550.57 Q1343.2 1541.82 1347.91 1536.69 Q1352.65 1531.54 1360.67 1531.54 Q1367.87 1531.54 1372.04 1536.18 Q1376.24 1540.8 1376.24 1548.76 M1370.38 1547.04 Q1370.32 1542.23 1367.67 1539.37 Q1365.07 1536.5 1360.74 1536.5 Q1355.83 1536.5 1352.87 1539.27 Q1349.95 1542.04 1349.5 1547.07 L1370.38 1547.04 Z" fill="#000000" fill-rule="nonzero" fill-opacity="1" /><path clip-path="url(#clip000)" d="M1385.63 1532.4 L1394.19 1532.4 L1404.31 1556.27 L1414.46 1532.4 L1422.96 1532.4 L1422.96 1568.04 L1417.07 1568.04 L1417.07 1538 L1407.24 1561.2 L1401.38 1561.2 L1391.51 1538 L1391.51 1568.04 L1385.63 1568.04 L1385.63 1532.4 Z" fill="#000000" fill-rule="nonzero" fill-opacity="1" /><path clip-path="url(#clip000)" d="M1440.91 1542.68 Q1440.91 1545.32 1442.95 1546.81 Q1444.99 1548.31 1448.77 1548.31 L1456.67 1548.31 L1456.67 1537.07 L1448.77 1537.07 Q1444.99 1537.07 1442.95 1538.54 Q1440.91 1540 1440.91 1542.68 M1432.57 1568.04 L1443.46 1552.42 Q1439.77 1551.59 1437.32 1549.42 Q1434.86 1547.23 1434.86 1542.68 Q1434.86 1537.52 1438.27 1534.97 Q1441.71 1532.4 1448.61 1532.4 L1462.56 1532.4 L1462.56 1568.04 L1456.67 1568.04 L1456.67 1552.99 L1449.38 1552.99 L1438.88 1568.04 L1432.57 1568.04 Z" fill="#000000" fill-rule="nonzero" fill-opacity="1" /><polyline clip-path="url(#clip000)" style="stroke:#000000; stroke-linecap:round; stroke-linejoin:round; stroke-width:4; stroke-opacity:1; fill:none" points="369.703,1423.18 369.703,123.472 "/>
<polyline clip-path="url(#clip000)" style="stroke:#000000; stroke-linecap:round; stroke-linejoin:round; stroke-width:4; stroke-opacity:1; fill:none" points="369.703,1386.4 388.601,1386.4 "/>
<polyline clip-path="url(#clip000)" style="stroke:#000000; stroke-linecap:round; stroke-linejoin:round; stroke-width:4; stroke-opacity:1; fill:none" points="369.703,1079.86 388.601,1079.86 "/>
<polyline clip-path="url(#clip000)" style="stroke:#000000; stroke-linecap:round; stroke-linejoin:round; stroke-width:4; stroke-opacity:1; fill:none" points="369.703,773.326 388.601,773.326 "/>
<polyline clip-path="url(#clip000)" style="stroke:#000000; stroke-linecap:round; stroke-linejoin:round; stroke-width:4; stroke-opacity:1; fill:none" points="369.703,466.791 388.601,466.791 "/>
<polyline clip-path="url(#clip000)" style="stroke:#000000; stroke-linecap:round; stroke-linejoin:round; stroke-width:4; stroke-opacity:1; fill:none" points="369.703,160.256 388.601,160.256 "/>
<path clip-path="url(#clip000)" d="M321.759 1372.19 Q318.148 1372.19 316.319 1375.76 Q314.514 1379.3 314.514 1386.43 Q314.514 1393.54 316.319 1397.1 Q318.148 1400.64 321.759 1400.64 Q325.393 1400.64 327.199 1397.1 Q329.028 1393.54 329.028 1386.43 Q329.028 1379.3 327.199 1375.76 Q325.393 1372.19 321.759 1372.19 M321.759 1368.49 Q327.569 1368.49 330.625 1373.1 Q333.703 1377.68 333.703 1386.43 Q333.703 1395.16 330.625 1399.76 Q327.569 1404.35 321.759 1404.35 Q315.949 1404.35 312.87 1399.76 Q309.815 1395.16 309.815 1386.43 Q309.815 1377.68 312.87 1373.1 Q315.949 1368.49 321.759 1368.49 Z" fill="#000000" fill-rule="nonzero" fill-opacity="1" /><path clip-path="url(#clip000)" d="M117.878 1069.03 L136.235 1069.03 L136.235 1072.96 L122.161 1072.96 L122.161 1081.44 Q123.179 1081.09 124.198 1080.93 Q125.216 1080.74 126.235 1080.74 Q132.022 1080.74 135.402 1083.91 Q138.781 1087.08 138.781 1092.5 Q138.781 1098.08 135.309 1101.18 Q131.837 1104.26 125.517 1104.26 Q123.341 1104.26 121.073 1103.89 Q118.828 1103.52 116.42 1102.78 L116.42 1098.08 Q118.503 1099.21 120.726 1099.77 Q122.948 1100.32 125.425 1100.32 Q129.429 1100.32 131.767 1098.22 Q134.105 1096.11 134.105 1092.5 Q134.105 1088.89 131.767 1086.78 Q129.429 1084.68 125.425 1084.68 Q123.55 1084.68 121.675 1085.09 Q119.823 1085.51 117.878 1086.39 L117.878 1069.03 Z" fill="#000000" fill-rule="nonzero" fill-opacity="1" /><path clip-path="url(#clip000)" d="M147.994 1097.71 L152.878 1097.71 L152.878 1103.59 L147.994 1103.59 L147.994 1097.71 Z" fill="#000000" fill-rule="nonzero" fill-opacity="1" /><path clip-path="url(#clip000)" d="M173.063 1072.11 Q169.452 1072.11 167.624 1075.67 Q165.818 1079.21 165.818 1086.34 Q165.818 1093.45 167.624 1097.01 Q169.452 1100.56 173.063 1100.56 Q176.698 1100.56 178.503 1097.01 Q180.332 1093.45 180.332 1086.34 Q180.332 1079.21 178.503 1075.67 Q176.698 1072.11 173.063 1072.11 M173.063 1068.4 Q178.874 1068.4 181.929 1073.01 Q185.008 1077.59 185.008 1086.34 Q185.008 1095.07 181.929 1099.68 Q178.874 1104.26 173.063 1104.26 Q167.253 1104.26 164.175 1099.68 Q161.119 1095.07 161.119 1086.34 Q161.119 1077.59 164.175 1073.01 Q167.253 1068.4 173.063 1068.4 Z" fill="#000000" fill-rule="nonzero" fill-opacity="1" /><path clip-path="url(#clip000)" d="M203.225 1072.11 Q199.614 1072.11 197.785 1075.67 Q195.98 1079.21 195.98 1086.34 Q195.98 1093.45 197.785 1097.01 Q199.614 1100.56 203.225 1100.56 Q206.859 1100.56 208.665 1097.01 Q210.494 1093.45 210.494 1086.34 Q210.494 1079.21 208.665 1075.67 Q206.859 1072.11 203.225 1072.11 M203.225 1068.4 Q209.035 1068.4 212.091 1073.01 Q215.17 1077.59 215.17 1086.34 Q215.17 1095.07 212.091 1099.68 Q209.035 1104.26 203.225 1104.26 Q197.415 1104.26 194.336 1099.68 Q191.281 1095.07 191.281 1086.34 Q191.281 1077.59 194.336 1073.01 Q197.415 1068.4 203.225 1068.4 Z" fill="#000000" fill-rule="nonzero" fill-opacity="1" /><path clip-path="url(#clip000)" d="M251.558 1078.13 L240.98 1088.75 L251.558 1099.33 L248.804 1102.13 L238.179 1091.51 L227.554 1102.13 L224.822 1099.33 L235.378 1088.75 L224.822 1078.13 L227.554 1075.32 L238.179 1085.95 L248.804 1075.32 L251.558 1078.13 Z" fill="#000000" fill-rule="nonzero" fill-opacity="1" /><path clip-path="url(#clip000)" d="M263.919 1099.65 L271.558 1099.65 L271.558 1073.29 L263.248 1074.95 L263.248 1070.7 L271.512 1069.03 L276.188 1069.03 L276.188 1099.65 L283.827 1099.65 L283.827 1103.59 L263.919 1103.59 L263.919 1099.65 Z" fill="#000000" fill-rule="nonzero" fill-opacity="1" /><path clip-path="url(#clip000)" d="M303.271 1072.11 Q299.66 1072.11 297.831 1075.67 Q296.026 1079.21 296.026 1086.34 Q296.026 1093.45 297.831 1097.01 Q299.66 1100.56 303.271 1100.56 Q306.905 1100.56 308.711 1097.01 Q310.539 1093.45 310.539 1086.34 Q310.539 1079.21 308.711 1075.67 Q306.905 1072.11 303.271 1072.11 M303.271 1068.4 Q309.081 1068.4 312.137 1073.01 Q315.215 1077.59 315.215 1086.34 Q315.215 1095.07 312.137 1099.68 Q309.081 1104.26 303.271 1104.26 Q297.461 1104.26 294.382 1099.68 Q291.327 1095.07 291.327 1086.34 Q291.327 1077.59 294.382 1073.01 Q297.461 1068.4 303.271 1068.4 Z" fill="#000000" fill-rule="nonzero" fill-opacity="1" /><path clip-path="url(#clip000)" d="M327.911 1061.04 Q330.638 1061.62 332.161 1063.46 Q333.703 1065.31 333.703 1068.02 Q333.703 1072.17 330.845 1074.45 Q327.986 1076.72 322.72 1076.72 Q320.952 1076.72 319.071 1076.37 Q317.209 1076.03 315.215 1075.33 L315.215 1071.66 Q316.795 1072.59 318.676 1073.06 Q320.557 1073.53 322.607 1073.53 Q326.18 1073.53 328.042 1072.12 Q329.923 1070.7 329.923 1068.02 Q329.923 1065.53 328.174 1064.14 Q326.444 1062.73 323.34 1062.73 L320.068 1062.73 L320.068 1059.61 L323.491 1059.61 Q326.293 1059.61 327.779 1058.5 Q329.265 1057.37 329.265 1055.26 Q329.265 1053.1 327.723 1051.95 Q326.199 1050.79 323.34 1050.79 Q321.779 1050.79 319.993 1051.13 Q318.206 1051.46 316.062 1052.18 L316.062 1048.79 Q318.225 1048.19 320.105 1047.89 Q322.005 1047.59 323.679 1047.59 Q328.005 1047.59 330.525 1049.57 Q333.045 1051.52 333.045 1054.87 Q333.045 1057.2 331.71 1058.82 Q330.374 1060.42 327.911 1061.04 Z" fill="#000000" fill-rule="nonzero" fill-opacity="1" /><path clip-path="url(#clip000)" d="M116.668 793.118 L124.306 793.118 L124.306 766.753 L115.996 768.419 L115.996 764.16 L124.26 762.494 L128.936 762.494 L128.936 793.118 L136.575 793.118 L136.575 797.054 L116.668 797.054 L116.668 793.118 Z" fill="#000000" fill-rule="nonzero" fill-opacity="1" /><path clip-path="url(#clip000)" d="M146.019 791.174 L150.903 791.174 L150.903 797.054 L146.019 797.054 L146.019 791.174 Z" fill="#000000" fill-rule="nonzero" fill-opacity="1" /><path clip-path="url(#clip000)" d="M171.089 765.572 Q167.477 765.572 165.649 769.137 Q163.843 772.679 163.843 779.808 Q163.843 786.915 165.649 790.48 Q167.477 794.021 171.089 794.021 Q174.723 794.021 176.528 790.48 Q178.357 786.915 178.357 779.808 Q178.357 772.679 176.528 769.137 Q174.723 765.572 171.089 765.572 M171.089 761.869 Q176.899 761.869 179.954 766.475 Q183.033 771.058 183.033 779.808 Q183.033 788.535 179.954 793.142 Q176.899 797.725 171.089 797.725 Q165.278 797.725 162.2 793.142 Q159.144 788.535 159.144 779.808 Q159.144 771.058 162.2 766.475 Q165.278 761.869 171.089 761.869 Z" fill="#000000" fill-rule="nonzero" fill-opacity="1" /><path clip-path="url(#clip000)" d="M201.25 765.572 Q197.639 765.572 195.811 769.137 Q194.005 772.679 194.005 779.808 Q194.005 786.915 195.811 790.48 Q197.639 794.021 201.25 794.021 Q204.885 794.021 206.69 790.48 Q208.519 786.915 208.519 779.808 Q208.519 772.679 206.69 769.137 Q204.885 765.572 201.25 765.572 M201.25 761.869 Q207.061 761.869 210.116 766.475 Q213.195 771.058 213.195 779.808 Q213.195 788.535 210.116 793.142 Q207.061 797.725 201.25 797.725 Q195.44 797.725 192.362 793.142 Q189.306 788.535 189.306 779.808 Q189.306 771.058 192.362 766.475 Q195.44 761.869 201.25 761.869 Z" fill="#000000" fill-rule="nonzero" fill-opacity="1" /><path clip-path="url(#clip000)" d="M249.584 771.591 L239.005 782.216 L249.584 792.794 L246.829 795.595 L236.204 784.97 L225.579 795.595 L222.848 792.794 L233.403 782.216 L222.848 771.591 L225.579 768.79 L236.204 779.415 L246.829 768.79 L249.584 771.591 Z" fill="#000000" fill-rule="nonzero" fill-opacity="1" /><path clip-path="url(#clip000)" d="M261.945 793.118 L269.583 793.118 L269.583 766.753 L261.273 768.419 L261.273 764.16 L269.537 762.494 L274.213 762.494 L274.213 793.118 L281.852 793.118 L281.852 797.054 L261.945 797.054 L261.945 793.118 Z" fill="#000000" fill-rule="nonzero" fill-opacity="1" /><path clip-path="url(#clip000)" d="M301.296 765.572 Q297.685 765.572 295.856 769.137 Q294.051 772.679 294.051 779.808 Q294.051 786.915 295.856 790.48 Q297.685 794.021 301.296 794.021 Q304.93 794.021 306.736 790.48 Q308.565 786.915 308.565 779.808 Q308.565 772.679 306.736 769.137 Q304.93 765.572 301.296 765.572 M301.296 761.869 Q307.106 761.869 310.162 766.475 Q313.241 771.058 313.241 779.808 Q313.241 788.535 310.162 793.142 Q307.106 797.725 301.296 797.725 Q295.486 797.725 292.407 793.142 Q289.352 788.535 289.352 779.808 Q289.352 771.058 292.407 766.475 Q295.486 761.869 301.296 761.869 Z" fill="#000000" fill-rule="nonzero" fill-opacity="1" /><path clip-path="url(#clip000)" d="M325.917 744.873 L316.325 759.863 L325.917 759.863 L325.917 744.873 M324.92 741.563 L329.697 741.563 L329.697 759.863 L333.703 759.863 L333.703 763.023 L329.697 763.023 L329.697 769.643 L325.917 769.643 L325.917 763.023 L313.241 763.023 L313.241 759.355 L324.92 741.563 Z" fill="#000000" fill-rule="nonzero" fill-opacity="1" /><path clip-path="url(#clip000)" d="M116.668 486.584 L124.306 486.584 L124.306 460.218 L115.996 461.885 L115.996 457.625 L124.26 455.959 L128.936 455.959 L128.936 486.584 L136.575 486.584 L136.575 490.519 L116.668 490.519 L116.668 486.584 Z" fill="#000000" fill-rule="nonzero" fill-opacity="1" /><path clip-path="url(#clip000)" d="M146.019 484.639 L150.903 484.639 L150.903 490.519 L146.019 490.519 L146.019 484.639 Z" fill="#000000" fill-rule="nonzero" fill-opacity="1" /><path clip-path="url(#clip000)" d="M161.135 455.959 L179.491 455.959 L179.491 459.894 L165.417 459.894 L165.417 468.366 Q166.436 468.019 167.454 467.857 Q168.473 467.672 169.491 467.672 Q175.278 467.672 178.658 470.843 Q182.038 474.014 182.038 479.431 Q182.038 485.01 178.565 488.111 Q175.093 491.19 168.774 491.19 Q166.598 491.19 164.329 490.82 Q162.084 490.449 159.677 489.709 L159.677 485.01 Q161.76 486.144 163.982 486.699 Q166.204 487.255 168.681 487.255 Q172.686 487.255 175.024 485.148 Q177.362 483.042 177.362 479.431 Q177.362 475.82 175.024 473.713 Q172.686 471.607 168.681 471.607 Q166.806 471.607 164.931 472.023 Q163.079 472.44 161.135 473.32 L161.135 455.959 Z" fill="#000000" fill-rule="nonzero" fill-opacity="1" /><path clip-path="url(#clip000)" d="M201.25 459.037 Q197.639 459.037 195.811 462.602 Q194.005 466.144 194.005 473.273 Q194.005 480.38 195.811 483.945 Q197.639 487.486 201.25 487.486 Q204.885 487.486 206.69 483.945 Q208.519 480.38 208.519 473.273 Q208.519 466.144 206.69 462.602 Q204.885 459.037 201.25 459.037 M201.25 455.334 Q207.061 455.334 210.116 459.94 Q213.195 464.524 213.195 473.273 Q213.195 482 210.116 486.607 Q207.061 491.19 201.25 491.19 Q195.44 491.19 192.362 486.607 Q189.306 482 189.306 473.273 Q189.306 464.524 192.362 459.94 Q195.44 455.334 201.25 455.334 Z" fill="#000000" fill-rule="nonzero" fill-opacity="1" /><path clip-path="url(#clip000)" d="M249.584 465.056 L239.005 475.681 L249.584 486.26 L246.829 489.06 L236.204 478.435 L225.579 489.06 L222.848 486.26 L233.403 475.681 L222.848 465.056 L225.579 462.255 L236.204 472.88 L246.829 462.255 L249.584 465.056 Z" fill="#000000" fill-rule="nonzero" fill-opacity="1" /><path clip-path="url(#clip000)" d="M261.945 486.584 L269.583 486.584 L269.583 460.218 L261.273 461.885 L261.273 457.625 L269.537 455.959 L274.213 455.959 L274.213 486.584 L281.852 486.584 L281.852 490.519 L261.945 490.519 L261.945 486.584 Z" fill="#000000" fill-rule="nonzero" fill-opacity="1" /><path clip-path="url(#clip000)" d="M301.296 459.037 Q297.685 459.037 295.856 462.602 Q294.051 466.144 294.051 473.273 Q294.051 480.38 295.856 483.945 Q297.685 487.486 301.296 487.486 Q304.93 487.486 306.736 483.945 Q308.565 480.38 308.565 473.273 Q308.565 466.144 306.736 462.602 Q304.93 459.037 301.296 459.037 M301.296 455.334 Q307.106 455.334 310.162 459.94 Q313.241 464.524 313.241 473.273 Q313.241 482 310.162 486.607 Q307.106 491.19 301.296 491.19 Q295.486 491.19 292.407 486.607 Q289.352 482 289.352 473.273 Q289.352 464.524 292.407 459.94 Q295.486 455.334 301.296 455.334 Z" fill="#000000" fill-rule="nonzero" fill-opacity="1" /><path clip-path="url(#clip000)" d="M325.917 438.339 L316.325 453.328 L325.917 453.328 L325.917 438.339 M324.92 435.028 L329.697 435.028 L329.697 453.328 L333.703 453.328 L333.703 456.488 L329.697 456.488 L329.697 463.108 L325.917 463.108 L325.917 456.488 L313.241 456.488 L313.241 452.82 L324.92 435.028 Z" fill="#000000" fill-rule="nonzero" fill-opacity="1" /><path clip-path="url(#clip000)" d="M119.885 180.049 L136.204 180.049 L136.204 183.984 L114.26 183.984 L114.26 180.049 Q116.922 177.294 121.505 172.665 Q126.112 168.012 127.292 166.669 Q129.538 164.146 130.417 162.41 Q131.32 160.651 131.32 158.961 Q131.32 156.206 129.376 154.47 Q127.455 152.734 124.353 152.734 Q122.154 152.734 119.7 153.498 Q117.269 154.262 114.492 155.813 L114.492 151.091 Q117.316 149.956 119.769 149.378 Q122.223 148.799 124.26 148.799 Q129.63 148.799 132.825 151.484 Q136.019 154.169 136.019 158.66 Q136.019 160.79 135.209 162.711 Q134.422 164.609 132.316 167.202 Q131.737 167.873 128.635 171.09 Q125.533 174.285 119.885 180.049 Z" fill="#000000" fill-rule="nonzero" fill-opacity="1" /><path clip-path="url(#clip000)" d="M146.019 178.104 L150.903 178.104 L150.903 183.984 L146.019 183.984 L146.019 178.104 Z" fill="#000000" fill-rule="nonzero" fill-opacity="1" /><path clip-path="url(#clip000)" d="M171.089 152.503 Q167.477 152.503 165.649 156.067 Q163.843 159.609 163.843 166.739 Q163.843 173.845 165.649 177.41 Q167.477 180.952 171.089 180.952 Q174.723 180.952 176.528 177.41 Q178.357 173.845 178.357 166.739 Q178.357 159.609 176.528 156.067 Q174.723 152.503 171.089 152.503 M171.089 148.799 Q176.899 148.799 179.954 153.405 Q183.033 157.989 183.033 166.739 Q183.033 175.465 179.954 180.072 Q176.899 184.655 171.089 184.655 Q165.278 184.655 162.2 180.072 Q159.144 175.465 159.144 166.739 Q159.144 157.989 162.2 153.405 Q165.278 148.799 171.089 148.799 Z" fill="#000000" fill-rule="nonzero" fill-opacity="1" /><path clip-path="url(#clip000)" d="M201.25 152.503 Q197.639 152.503 195.811 156.067 Q194.005 159.609 194.005 166.739 Q194.005 173.845 195.811 177.41 Q197.639 180.952 201.25 180.952 Q204.885 180.952 206.69 177.41 Q208.519 173.845 208.519 166.739 Q208.519 159.609 206.69 156.067 Q204.885 152.503 201.25 152.503 M201.25 148.799 Q207.061 148.799 210.116 153.405 Q213.195 157.989 213.195 166.739 Q213.195 175.465 210.116 180.072 Q207.061 184.655 201.25 184.655 Q195.44 184.655 192.362 180.072 Q189.306 175.465 189.306 166.739 Q189.306 157.989 192.362 153.405 Q195.44 148.799 201.25 148.799 Z" fill="#000000" fill-rule="nonzero" fill-opacity="1" /><path clip-path="url(#clip000)" d="M249.584 158.521 L239.005 169.146 L249.584 179.725 L246.829 182.526 L236.204 171.901 L225.579 182.526 L222.848 179.725 L233.403 169.146 L222.848 158.521 L225.579 155.72 L236.204 166.345 L246.829 155.72 L249.584 158.521 Z" fill="#000000" fill-rule="nonzero" fill-opacity="1" /><path clip-path="url(#clip000)" d="M261.945 180.049 L269.583 180.049 L269.583 153.683 L261.273 155.35 L261.273 151.091 L269.537 149.424 L274.213 149.424 L274.213 180.049 L281.852 180.049 L281.852 183.984 L261.945 183.984 L261.945 180.049 Z" fill="#000000" fill-rule="nonzero" fill-opacity="1" /><path clip-path="url(#clip000)" d="M301.296 152.503 Q297.685 152.503 295.856 156.067 Q294.051 159.609 294.051 166.739 Q294.051 173.845 295.856 177.41 Q297.685 180.952 301.296 180.952 Q304.93 180.952 306.736 177.41 Q308.565 173.845 308.565 166.739 Q308.565 159.609 306.736 156.067 Q304.93 152.503 301.296 152.503 M301.296 148.799 Q307.106 148.799 310.162 153.405 Q313.241 157.989 313.241 166.739 Q313.241 175.465 310.162 180.072 Q307.106 184.655 301.296 184.655 Q295.486 184.655 292.407 180.072 Q289.352 175.465 289.352 166.739 Q289.352 157.989 292.407 153.405 Q295.486 148.799 301.296 148.799 Z" fill="#000000" fill-rule="nonzero" fill-opacity="1" /><path clip-path="url(#clip000)" d="M325.917 131.804 L316.325 146.793 L325.917 146.793 L325.917 131.804 M324.92 128.494 L329.697 128.494 L329.697 146.793 L333.703 146.793 L333.703 149.953 L329.697 149.953 L329.697 156.574 L325.917 156.574 L325.917 149.953 L313.241 149.953 L313.241 146.286 L324.92 128.494 Z" fill="#000000" fill-rule="nonzero" fill-opacity="1" /><path clip-path="url(#clip000)" d="M64.0042 963.358 L44.5251 963.358 L44.5251 976.631 Q44.5251 982.551 40.833 986.084 Q37.109 989.617 29.5339 989.617 L16.4842 989.617 L16.4842 983.219 L29.0246 983.219 Q34.0853 983.219 36.5998 981.246 Q39.1142 979.273 39.1142 975.326 L39.1142 963.358 L16.4842 963.358 L16.4842 956.897 L64.0042 956.897 L64.0042 963.358 Z" fill="#000000" fill-rule="nonzero" fill-opacity="1" /><path clip-path="url(#clip000)" d="M28.3562 914.056 L64.0042 914.056 L64.0042 919.88 L35.3903 919.88 L64.0042 937.068 L64.0042 944.579 L28.3562 944.579 L28.3562 938.755 L56.9064 938.755 L28.3562 921.599 L28.3562 914.056 Z" fill="#000000" fill-rule="nonzero" fill-opacity="1" /><path clip-path="url(#clip000)" d="M29.7248 876.339 L35.1993 876.339 Q33.8307 878.822 33.1623 881.336 Q32.4621 883.819 32.4621 886.365 Q32.4621 892.062 36.0905 895.213 Q39.6872 898.364 46.212 898.364 Q52.7369 898.364 56.3653 895.213 Q59.9619 892.062 59.9619 886.365 Q59.9619 883.819 59.2935 881.336 Q58.5933 878.822 57.2247 876.339 L62.6355 876.339 Q63.7814 878.79 64.3543 881.432 Q64.9272 884.042 64.9272 887.002 Q64.9272 895.054 59.8664 899.797 Q54.8057 904.539 46.212 904.539 Q37.491 904.539 32.4939 899.765 Q27.4968 894.959 27.4968 886.62 Q27.4968 883.914 28.0697 881.336 Q28.6108 878.758 29.7248 876.339 Z" fill="#000000" fill-rule="nonzero" fill-opacity="1" /><path clip-path="url(#clip000)" d="M64.0042 869.878 L59.1344 869.878 Q58.2432 864.085 54.2328 862.303 Q48.5991 860.138 34.1808 860.138 L28.3562 860.138 L28.3562 836.044 L64.0042 836.044 L64.0042 841.901 L33.035 841.901 L33.035 854.282 L36.568 854.282 Q50.3179 854.282 56.4926 857.083 Q63.0811 860.075 64.0042 869.878 Z" fill="#000000" fill-rule="nonzero" fill-opacity="1" /><path clip-path="url(#clip000)" d="M44.7161 793.999 L47.5806 793.999 L47.5806 820.926 Q53.6281 820.544 56.8109 817.297 Q59.9619 814.019 59.9619 808.194 Q59.9619 804.82 59.1344 801.669 Q58.3069 798.486 56.6518 795.367 L62.1899 795.367 Q63.5267 798.518 64.227 801.828 Q64.9272 805.139 64.9272 808.544 Q64.9272 817.074 59.9619 822.071 Q54.9967 827.037 46.5303 827.037 Q37.7774 827.037 32.6531 822.326 Q27.4968 817.584 27.4968 809.563 Q27.4968 802.37 32.1438 798.2 Q36.7589 793.999 44.7161 793.999 M42.9973 799.855 Q38.1912 799.919 35.3266 802.56 Q32.4621 805.17 32.4621 809.499 Q32.4621 814.401 35.2312 817.361 Q38.0002 820.289 43.0292 820.735 L42.9973 799.855 Z" fill="#000000" fill-rule="nonzero" fill-opacity="1" /><path clip-path="url(#clip000)" d="M28.3562 784.609 L28.3562 778.721 L42.9018 778.721 L42.9018 759.719 L28.3562 759.719 L28.3562 753.831 L64.0042 753.831 L64.0042 759.719 L47.5806 759.719 L47.5806 778.721 L64.0042 778.721 L64.0042 784.609 L28.3562 784.609 Z" fill="#000000" fill-rule="nonzero" fill-opacity="1" /><path clip-path="url(#clip000)" d="M28.3562 741.991 L28.3562 736.103 L42.9018 736.103 L42.9018 717.101 L28.3562 717.101 L28.3562 711.213 L64.0042 711.213 L64.0042 717.101 L47.5806 717.101 L47.5806 736.103 L64.0042 736.103 L64.0042 741.991 L28.3562 741.991 Z" fill="#000000" fill-rule="nonzero" fill-opacity="1" /><path clip-path="url(#clip000)" d="M32.4621 685.336 Q32.4621 690.047 36.1542 692.784 Q39.8145 695.521 46.212 695.521 Q52.6095 695.521 56.3017 692.816 Q59.9619 690.078 59.9619 685.336 Q59.9619 680.657 56.2698 677.92 Q52.5777 675.183 46.212 675.183 Q39.8781 675.183 36.186 677.92 Q32.4621 680.657 32.4621 685.336 M27.4968 685.336 Q27.4968 677.697 32.4621 673.337 Q37.4273 668.976 46.212 668.976 Q54.9649 668.976 59.9619 673.337 Q64.9272 677.697 64.9272 685.336 Q64.9272 693.007 59.9619 697.367 Q54.9649 701.696 46.212 701.696 Q37.4273 701.696 32.4621 697.367 Q27.4968 693.007 27.4968 685.336 Z" fill="#000000" fill-rule="nonzero" fill-opacity="1" /><path clip-path="url(#clip000)" d="M29.7248 633.615 L35.1993 633.615 Q33.8307 636.097 33.1623 638.612 Q32.4621 641.094 32.4621 643.641 Q32.4621 649.338 36.0905 652.489 Q39.6872 655.64 46.212 655.64 Q52.7369 655.64 56.3653 652.489 Q59.9619 649.338 59.9619 643.641 Q59.9619 641.094 59.2935 638.612 Q58.5933 636.097 57.2247 633.615 L62.6355 633.615 Q63.7814 636.065 64.3543 638.707 Q64.9272 641.317 64.9272 644.277 Q64.9272 652.33 59.8664 657.072 Q54.8057 661.815 46.212 661.815 Q37.491 661.815 32.4939 657.04 Q27.4968 652.234 27.4968 643.895 Q27.4968 641.19 28.0697 638.612 Q28.6108 636.034 29.7248 633.615 Z" fill="#000000" fill-rule="nonzero" fill-opacity="1" /><path clip-path="url(#clip000)" d="M28.3562 627.663 L28.3562 593.511 L33.035 593.511 L33.035 607.706 L64.0042 607.706 L64.0042 613.467 L33.035 613.467 L33.035 627.663 L28.3562 627.663 Z" fill="#000000" fill-rule="nonzero" fill-opacity="1" /><path clip-path="url(#clip000)" d="M53.4371 563.274 Q50.5725 563.274 49.0766 565.374 Q47.5806 567.443 47.5806 571.454 L47.5806 579.793 L59.3254 579.793 L59.3254 571.454 Q59.3254 567.443 57.8294 565.374 Q56.3017 563.274 53.4371 563.274 M28.3562 585.681 L28.3562 579.793 L42.9018 579.793 L42.9018 571.199 Q42.9018 564.388 45.5118 560.727 Q48.0899 557.035 53.4371 557.035 Q58.7843 557.035 61.3942 560.727 Q64.0042 564.388 64.0042 571.199 L64.0042 585.681 L28.3562 585.681 Z" fill="#000000" fill-rule="nonzero" fill-opacity="1" /><path clip-path="url(#clip000)" d="M518.763 12.096 L530.956 12.096 L546.39 53.2532 L561.905 12.096 L574.098 12.096 L574.098 72.576 L566.118 72.576 L566.118 19.4686 L550.522 60.9499 L542.299 60.9499 L526.703 19.4686 L526.703 72.576 L518.763 72.576 L518.763 12.096 Z" fill="#000000" fill-rule="nonzero" fill-opacity="1" /><path clip-path="url(#clip000)" d="M607.599 32.4315 Q601.604 32.4315 598.12 37.1306 Q594.637 41.7891 594.637 49.9314 Q594.637 58.0738 598.08 62.7728 Q601.564 67.4314 607.599 67.4314 Q613.554 67.4314 617.038 62.7323 Q620.522 58.0333 620.522 49.9314 Q620.522 41.8701 617.038 37.1711 Q613.554 32.4315 607.599 32.4315 M607.599 26.1121 Q617.322 26.1121 622.871 32.4315 Q628.421 38.7509 628.421 49.9314 Q628.421 61.0714 622.871 67.4314 Q617.322 73.7508 607.599 73.7508 Q597.837 73.7508 592.287 67.4314 Q586.778 61.0714 586.778 49.9314 Q586.778 38.7509 592.287 32.4315 Q597.837 26.1121 607.599 26.1121 Z" fill="#000000" fill-rule="nonzero" fill-opacity="1" /><path clip-path="url(#clip000)" d="M650.904 66.6212 L672.535 66.6212 L672.535 33.1607 L656.858 33.1607 L656.858 38.832 Q656.858 55.5217 652.078 64.4337 L650.904 66.6212 M640.088 66.6212 Q643.774 65.0008 645.394 61.5575 Q649.364 53.0101 649.364 35.7938 L649.364 27.2059 L680.03 27.2059 L680.03 66.6212 L685.984 66.6212 L685.984 84.0401 L680.03 84.0401 L680.03 72.576 L643.247 72.576 L643.247 84.0401 L637.293 84.0401 L637.293 66.6212 L640.088 66.6212 Z" fill="#000000" fill-rule="nonzero" fill-opacity="1" /><path clip-path="url(#clip000)" d="M736.945 48.0275 L736.945 51.6733 L702.674 51.6733 Q703.16 59.3701 707.292 63.421 Q711.465 67.4314 718.878 67.4314 Q723.172 67.4314 727.182 66.3781 Q731.233 65.3249 735.203 63.2184 L735.203 70.267 Q731.193 71.9684 726.98 72.8596 Q722.767 73.7508 718.432 73.7508 Q707.576 73.7508 701.216 67.4314 Q694.896 61.1119 694.896 50.3365 Q694.896 39.1965 700.892 32.6746 Q706.928 26.1121 717.136 26.1121 Q726.291 26.1121 731.598 32.0264 Q736.945 37.9003 736.945 48.0275 M729.491 45.84 Q729.41 39.7232 726.048 36.0774 Q722.726 32.4315 717.217 32.4315 Q710.979 32.4315 707.211 35.9558 Q703.484 39.4801 702.917 45.8805 L729.491 45.84 Z" fill="#000000" fill-rule="nonzero" fill-opacity="1" /><path clip-path="url(#clip000)" d="M744.439 72.576 L744.439 66.3781 Q751.812 65.2439 754.08 60.1397 Q756.835 52.9696 756.835 34.619 L756.835 27.2059 L787.5 27.2059 L787.5 72.576 L780.046 72.576 L780.046 33.1607 L764.288 33.1607 L764.288 37.6572 Q764.288 55.1571 760.724 63.0159 Q756.916 71.4012 744.439 72.576 Z" fill="#000000" fill-rule="nonzero" fill-opacity="1" /><path clip-path="url(#clip000)" d="M830.44 59.127 Q830.44 55.4812 827.766 53.5773 Q825.133 51.6733 820.029 51.6733 L809.415 51.6733 L809.415 66.6212 L820.029 66.6212 Q825.133 66.6212 827.766 64.7172 Q830.44 62.7728 830.44 59.127 M801.921 27.2059 L809.415 27.2059 L809.415 45.7185 L820.353 45.7185 Q829.022 45.7185 833.68 49.0402 Q838.379 52.3215 838.379 59.127 Q838.379 65.9325 833.68 69.2543 Q829.022 72.576 820.353 72.576 L801.921 72.576 L801.921 27.2059 Z" fill="#000000" fill-rule="nonzero" fill-opacity="1" /><path clip-path="url(#clip000)" d="M871.84 72.576 L871.84 65.6895 Q877.795 65.6895 877.795 61.355 L877.795 12.096 L888.813 12.096 L915.63 62.6918 L915.63 23.317 Q915.63 18.1318 918.79 15.1342 Q921.99 12.096 929.525 12.096 L929.525 18.9825 Q923.57 18.9825 923.57 23.317 L923.57 72.576 L912.552 72.576 L885.735 21.9802 L885.735 61.355 Q885.735 66.5402 882.534 69.5783 Q879.375 72.576 871.84 72.576 M930.051 47.3794 Q930.051 41.7891 932.968 37.9408 Q935.885 34.0519 940.057 34.0519 Q944.23 34.0519 947.146 37.9408 Q950.063 41.7891 950.063 47.3794 Q950.063 52.9696 947.146 56.8585 Q944.23 60.7069 940.057 60.7069 Q935.885 60.7069 932.968 56.8585 Q930.051 52.9696 930.051 47.3794 M935.723 47.3794 Q935.723 50.5391 936.857 52.6456 Q938.032 54.7115 940.057 54.7115 Q942.083 54.7115 943.217 52.6456 Q944.392 50.5391 944.392 47.3794 Q944.392 44.2197 943.217 42.1537 Q942.083 40.0472 940.057 40.0472 Q938.032 40.0472 936.857 42.1537 Q935.723 44.2197 935.723 47.3794 M930.051 72.576 L930.051 67.5934 L950.063 67.5934 L950.063 72.576 L930.051 72.576 Z" fill="#000000" fill-rule="nonzero" fill-opacity="1" /><path clip-path="url(#clip000)" d="M971.857 65.6895 L1000.42 65.6895 L1000.42 72.576 L962.013 72.576 L962.013 65.6895 Q966.672 60.8689 974.692 52.7671 Q982.754 44.6248 984.82 42.2752 Q988.749 37.8598 990.288 34.8216 Q991.868 31.7429 991.868 28.7857 Q991.868 23.9651 988.465 20.927 Q985.103 17.8888 979.675 17.8888 Q975.827 17.8888 971.533 19.2256 Q967.279 20.5624 962.418 23.2765 L962.418 15.0127 Q967.36 13.0277 971.654 12.015 Q975.948 11.0023 979.513 11.0023 Q988.911 11.0023 994.501 15.7013 Q1000.09 20.4004 1000.09 28.2591 Q1000.09 31.9859 998.674 35.3482 Q997.296 38.6699 993.61 43.2069 Q992.597 44.3817 987.169 50.0125 Q981.741 55.6027 971.857 65.6895 Z" fill="#000000" fill-rule="nonzero" fill-opacity="1" /><path clip-path="url(#clip000)" d="M1018.44 62.2867 L1026.99 62.2867 L1026.99 72.576 L1018.44 72.576 L1018.44 62.2867 M1018.44 29.6769 L1026.99 29.6769 L1026.99 39.9662 L1018.44 39.9662 L1018.44 29.6769 Z" fill="#000000" fill-rule="nonzero" fill-opacity="1" /><path clip-path="url(#clip000)" d="M1079.37 18.8205 L1079.37 41.5461 L1089.66 41.5461 Q1095.37 41.5461 1098.49 38.5889 Q1101.61 35.6318 1101.61 30.163 Q1101.61 24.7348 1098.49 21.7777 Q1095.37 18.8205 1089.66 18.8205 L1079.37 18.8205 M1071.18 12.096 L1089.66 12.096 Q1099.82 12.096 1105.01 16.714 Q1110.24 21.2916 1110.24 30.163 Q1110.24 39.1155 1105.01 43.6931 Q1099.82 48.2706 1089.66 48.2706 L1079.37 48.2706 L1079.37 72.576 L1071.18 72.576 L1071.18 12.096 Z" fill="#000000" fill-rule="nonzero" fill-opacity="1" /><path clip-path="url(#clip000)" d="M1159.7 48.0275 L1159.7 51.6733 L1125.43 51.6733 Q1125.91 59.3701 1130.04 63.421 Q1134.22 67.4314 1141.63 67.4314 Q1145.92 67.4314 1149.93 66.3781 Q1153.99 65.3249 1157.96 63.2184 L1157.96 70.267 Q1153.94 71.9684 1149.73 72.8596 Q1145.52 73.7508 1141.18 73.7508 Q1130.33 73.7508 1123.97 67.4314 Q1117.65 61.1119 1117.65 50.3365 Q1117.65 39.1965 1123.64 32.6746 Q1129.68 26.1121 1139.89 26.1121 Q1149.04 26.1121 1154.35 32.0264 Q1159.7 37.9003 1159.7 48.0275 M1152.24 45.84 Q1152.16 39.7232 1148.8 36.0774 Q1145.48 32.4315 1139.97 32.4315 Q1133.73 32.4315 1129.96 35.9558 Q1126.24 39.4801 1125.67 45.8805 L1152.24 45.84 Z" fill="#000000" fill-rule="nonzero" fill-opacity="1" /><path clip-path="url(#clip000)" d="M1171.65 72.576 L1171.65 27.2059 L1203.65 27.2059 L1203.65 33.1607 L1179.14 33.1607 L1179.14 72.576 L1171.65 72.576 Z" fill="#000000" fill-rule="nonzero" fill-opacity="1" /><path clip-path="url(#clip000)" d="M1234.4 76.7889 Q1231.24 84.8907 1228.24 87.3618 Q1225.24 89.8329 1220.22 89.8329 L1214.26 89.8329 L1214.26 83.5945 L1218.64 83.5945 Q1221.72 83.5945 1223.42 82.1361 Q1225.12 80.6778 1227.19 75.2496 L1228.52 71.8468 L1210.17 27.2059 L1218.07 27.2059 L1232.25 62.6918 L1246.43 27.2059 L1254.33 27.2059 L1234.4 76.7889 Z" fill="#000000" fill-rule="nonzero" fill-opacity="1" /><path clip-path="url(#clip000)" d="M1259.88 72.576 L1259.88 66.3781 Q1267.25 65.2439 1269.52 60.1397 Q1272.27 52.9696 1272.27 34.619 L1272.27 27.2059 L1302.94 27.2059 L1302.94 72.576 L1295.48 72.576 L1295.48 33.1607 L1279.73 33.1607 L1279.73 37.6572 Q1279.73 55.1571 1276.16 63.0159 Q1272.35 71.4012 1259.88 72.576 Z" fill="#000000" fill-rule="nonzero" fill-opacity="1" /><path clip-path="url(#clip000)" d="M1325.14 40.2903 Q1325.14 43.6525 1327.73 45.5565 Q1330.32 47.4604 1335.14 47.4604 L1345.19 47.4604 L1345.19 33.1607 L1335.14 33.1607 Q1330.32 33.1607 1327.73 35.0241 Q1325.14 36.8875 1325.14 40.2903 M1314.52 72.576 L1328.38 52.6861 Q1323.68 51.6328 1320.56 48.8782 Q1317.44 46.0831 1317.44 40.2903 Q1317.44 33.7278 1321.77 30.4871 Q1326.15 27.2059 1334.94 27.2059 L1352.68 27.2059 L1352.68 72.576 L1345.19 72.576 L1345.19 53.4152 L1335.91 53.4152 L1322.54 72.576 L1314.52 72.576 Z" fill="#000000" fill-rule="nonzero" fill-opacity="1" /><path clip-path="url(#clip000)" d="M1374.76 65.7705 L1374.76 89.8329 L1367.27 89.8329 L1367.27 27.2059 L1374.76 27.2059 L1374.76 34.0924 Q1377.11 30.0415 1380.67 28.0971 Q1384.28 26.1121 1389.26 26.1121 Q1397.53 26.1121 1402.67 32.6746 Q1407.86 39.2371 1407.86 49.9314 Q1407.86 60.6258 1402.67 67.1883 Q1397.53 73.7508 1389.26 73.7508 Q1384.28 73.7508 1380.67 71.8063 Q1377.11 69.8214 1374.76 65.7705 M1400.12 49.9314 Q1400.12 41.7081 1396.72 37.0496 Q1393.35 32.3505 1387.44 32.3505 Q1381.52 32.3505 1378.12 37.0496 Q1374.76 41.7081 1374.76 49.9314 Q1374.76 58.1548 1378.12 62.8538 Q1381.52 67.5124 1387.44 67.5124 Q1393.35 67.5124 1396.72 62.8538 Q1400.12 58.1548 1400.12 49.9314 Z" fill="#000000" fill-rule="nonzero" fill-opacity="1" /><path clip-path="url(#clip000)" d="M1419.93 27.2059 L1427.42 27.2059 L1427.42 45.7185 L1451.61 45.7185 L1451.61 27.2059 L1459.1 27.2059 L1459.1 72.576 L1451.61 72.576 L1451.61 51.6733 L1427.42 51.6733 L1427.42 72.576 L1419.93 72.576 L1419.93 27.2059 Z" fill="#000000" fill-rule="nonzero" fill-opacity="1" /><path clip-path="url(#clip000)" d="M1517.31 27.2059 L1524.76 27.2059 L1524.76 72.576 L1517.31 72.576 L1517.31 27.2059 M1521.04 26.1121 L1521.04 26.1121 M1502.69 59.127 Q1502.69 55.4812 1500.01 53.5773 Q1497.38 51.6733 1492.28 51.6733 L1481.66 51.6733 L1481.66 66.6212 L1492.28 66.6212 Q1497.38 66.6212 1500.01 64.7172 Q1502.69 62.7728 1502.69 59.127 M1474.17 27.2059 L1481.66 27.2059 L1481.66 45.7185 L1492.6 45.7185 Q1501.27 45.7185 1505.93 49.0402 Q1510.63 52.3215 1510.63 59.127 Q1510.63 65.9325 1505.93 69.2543 Q1501.27 72.576 1492.6 72.576 L1474.17 72.576 L1474.17 27.2059 Z" fill="#000000" fill-rule="nonzero" fill-opacity="1" /><path clip-path="url(#clip000)" d="M1578.76 48.0275 L1578.76 51.6733 L1544.49 51.6733 Q1544.98 59.3701 1549.11 63.421 Q1553.28 67.4314 1560.7 67.4314 Q1564.99 67.4314 1569 66.3781 Q1573.05 65.3249 1577.02 63.2184 L1577.02 70.267 Q1573.01 71.9684 1568.8 72.8596 Q1564.59 73.7508 1560.25 73.7508 Q1549.39 73.7508 1543.03 67.4314 Q1536.71 61.1119 1536.71 50.3365 Q1536.71 39.1965 1542.71 32.6746 Q1548.75 26.1121 1558.95 26.1121 Q1568.11 26.1121 1573.42 32.0264 Q1578.76 37.9003 1578.76 48.0275 M1571.31 45.84 Q1571.23 39.7232 1567.87 36.0774 Q1564.54 32.4315 1559.04 32.4315 Q1552.8 32.4315 1549.03 35.9558 Q1545.3 39.4801 1544.74 45.8805 L1571.31 45.84 Z" fill="#000000" fill-rule="nonzero" fill-opacity="1" /><path clip-path="url(#clip000)" d="M1612.02 27.2059 L1619.92 27.2059 L1634.1 65.2844 L1648.28 27.2059 L1656.18 27.2059 L1639.16 72.576 L1629.03 72.576 L1612.02 27.2059 Z" fill="#000000" fill-rule="nonzero" fill-opacity="1" /><path clip-path="url(#clip000)" d="M1695.39 28.5427 L1695.39 35.5912 Q1692.23 33.9709 1688.83 33.1607 Q1685.42 32.3505 1681.78 32.3505 Q1676.23 32.3505 1673.43 34.0519 Q1670.68 35.7533 1670.68 39.156 Q1670.68 41.7486 1672.66 43.2475 Q1674.65 44.7058 1680.64 46.0426 L1683.2 46.6097 Q1691.14 48.3111 1694.46 51.4303 Q1697.82 54.509 1697.82 60.0587 Q1697.82 66.3781 1692.8 70.0644 Q1687.81 73.7508 1679.06 73.7508 Q1675.42 73.7508 1671.45 73.0216 Q1667.52 72.3329 1663.14 70.9151 L1663.14 63.2184 Q1667.28 65.3654 1671.29 66.4591 Q1675.3 67.5124 1679.23 67.5124 Q1684.49 67.5124 1687.33 65.73 Q1690.16 63.9071 1690.16 60.6258 Q1690.16 57.5877 1688.1 55.9673 Q1686.07 54.3469 1679.14 52.8481 L1676.55 52.2405 Q1669.63 50.7821 1666.55 47.7845 Q1663.47 44.7463 1663.47 39.4801 Q1663.47 33.0797 1668 29.5959 Q1672.54 26.1121 1680.89 26.1121 Q1685.02 26.1121 1688.66 26.7198 Q1692.31 27.3274 1695.39 28.5427 Z" fill="#000000" fill-rule="nonzero" fill-opacity="1" /><path clip-path="url(#clip000)" d="M1782.48 12.096 L1782.48 72.576 L1774.3 72.576 L1774.3 18.9825 L1744.57 18.9825 L1744.57 72.576 L1736.38 72.576 L1736.38 12.096 L1782.48 12.096 Z" fill="#000000" fill-rule="nonzero" fill-opacity="1" /><path clip-path="url(#clip000)" d="M1819.06 49.7694 Q1810.03 49.7694 1806.55 51.8354 Q1803.06 53.9013 1803.06 58.8839 Q1803.06 62.8538 1805.65 65.2034 Q1808.29 67.5124 1812.78 67.5124 Q1818.98 67.5124 1822.71 63.1374 Q1826.48 58.7219 1826.48 51.4303 L1826.48 49.7694 L1819.06 49.7694 M1833.93 46.6907 L1833.93 72.576 L1826.48 72.576 L1826.48 65.6895 Q1823.92 69.8214 1820.12 71.8063 Q1816.31 73.7508 1810.8 73.7508 Q1803.83 73.7508 1799.7 69.8619 Q1795.61 65.9325 1795.61 59.3701 Q1795.61 51.7138 1800.71 47.825 Q1805.86 43.9361 1816.02 43.9361 L1826.48 43.9361 L1826.48 43.2069 Q1826.48 38.0623 1823.07 35.2672 Q1819.71 32.4315 1813.59 32.4315 Q1809.71 32.4315 1806.02 33.3632 Q1802.33 34.295 1798.93 36.1584 L1798.93 29.2718 Q1803.02 27.692 1806.87 26.9223 Q1810.72 26.1121 1814.36 26.1121 Q1824.21 26.1121 1829.07 31.2163 Q1833.93 36.3204 1833.93 46.6907 Z" fill="#000000" fill-rule="nonzero" fill-opacity="1" /><path clip-path="url(#clip000)" d="M1856.49 65.7705 L1856.49 89.8329 L1849 89.8329 L1849 27.2059 L1856.49 27.2059 L1856.49 34.0924 Q1858.84 30.0415 1862.41 28.0971 Q1866.01 26.1121 1871 26.1121 Q1879.26 26.1121 1884.4 32.6746 Q1889.59 39.2371 1889.59 49.9314 Q1889.59 60.6258 1884.4 67.1883 Q1879.26 73.7508 1871 73.7508 Q1866.01 73.7508 1862.41 71.8063 Q1858.84 69.8214 1856.49 65.7705 M1881.85 49.9314 Q1881.85 41.7081 1878.45 37.0496 Q1875.09 32.3505 1869.17 32.3505 Q1863.26 32.3505 1859.86 37.0496 Q1856.49 41.7081 1856.49 49.9314 Q1856.49 58.1548 1859.86 62.8538 Q1863.26 67.5124 1869.17 67.5124 Q1875.09 67.5124 1878.45 62.8538 Q1881.85 58.1548 1881.85 49.9314 Z" fill="#000000" fill-rule="nonzero" fill-opacity="1" /><path clip-path="url(#clip000)" d="M1896.56 27.2059 L1940.02 27.2059 L1940.02 33.1607 L1921.96 33.1607 L1921.96 72.576 L1914.62 72.576 L1914.62 33.1607 L1896.56 33.1607 L1896.56 27.2059 Z" fill="#000000" fill-rule="nonzero" fill-opacity="1" /><path clip-path="url(#clip000)" d="M1988.84 27.2059 L1988.84 72.576 L1981.42 72.576 L1981.42 36.1584 L1959.55 72.576 L1949.99 72.576 L1949.99 27.2059 L1957.4 27.2059 L1957.4 63.5425 L1979.24 27.2059 L1988.84 27.2059 Z" fill="#000000" fill-rule="nonzero" fill-opacity="1" /><path clip-path="url(#clip000)" d="M2024.97 48.1085 Q2029.99 49.0808 2032.79 52.0379 Q2035.58 54.9951 2035.58 59.3701 Q2035.58 66.3781 2030.36 70.0644 Q2025.13 73.7508 2015.49 73.7508 Q2012.25 73.7508 2008.81 73.1836 Q2005.4 72.6165 2001.76 71.4823 L2001.76 64.5552 Q2004.63 66.054 2008.08 66.8237 Q2011.52 67.5529 2015.29 67.5529 Q2021.41 67.5529 2024.81 65.2844 Q2028.25 63.0159 2028.25 59.3701 Q2028.25 55.8053 2025.21 53.6583 Q2022.18 51.4708 2016.63 51.4708 L2010.63 51.4708 L2010.63 45.3134 L2016.91 45.3134 Q2021.61 45.3134 2024.32 43.531 Q2027.08 41.7081 2027.08 38.8725 Q2027.08 36.2799 2024.24 34.4165 Q2021.45 32.5531 2016.63 32.5531 Q2013.75 32.5531 2010.47 33.0797 Q2007.23 33.6063 2003.3 34.7811 L2003.3 28.0161 Q2007.27 27.0438 2010.71 26.5577 Q2014.15 26.0716 2017.23 26.0716 Q2025.17 26.0716 2029.75 29.2718 Q2034.37 32.4315 2034.37 38.1433 Q2034.37 41.9107 2031.94 44.5437 Q2029.51 47.1363 2024.97 48.1085 Z" fill="#000000" fill-rule="nonzero" fill-opacity="1" /><path clip-path="url(#clip000)" d="M2068.92 49.7694 Q2059.89 49.7694 2056.41 51.8354 Q2052.92 53.9013 2052.92 58.8839 Q2052.92 62.8538 2055.51 65.2034 Q2058.15 67.5124 2062.64 67.5124 Q2068.84 67.5124 2072.57 63.1374 Q2076.34 58.7219 2076.34 51.4303 L2076.34 49.7694 L2068.92 49.7694 M2083.79 46.6907 L2083.79 72.576 L2076.34 72.576 L2076.34 65.6895 Q2073.78 69.8214 2069.98 71.8063 Q2066.17 73.7508 2060.66 73.7508 Q2053.69 73.7508 2049.56 69.8619 Q2045.47 65.9325 2045.47 59.3701 Q2045.47 51.7138 2050.57 47.825 Q2055.72 43.9361 2065.88 43.9361 L2076.34 43.9361 L2076.34 43.2069 Q2076.34 38.0623 2072.93 35.2672 Q2069.57 32.4315 2063.45 32.4315 Q2059.57 32.4315 2055.88 33.3632 Q2052.19 34.295 2048.79 36.1584 L2048.79 29.2718 Q2052.88 27.692 2056.73 26.9223 Q2060.58 26.1121 2064.22 26.1121 Q2074.07 26.1121 2078.93 31.2163 Q2083.79 36.3204 2083.79 46.6907 Z" fill="#000000" fill-rule="nonzero" fill-opacity="1" /><path clip-path="url(#clip000)" d="M2098.86 27.2059 L2106.35 27.2059 L2106.35 45.7185 L2130.54 45.7185 L2130.54 27.2059 L2138.03 27.2059 L2138.03 72.576 L2130.54 72.576 L2130.54 51.6733 L2106.35 51.6733 L2106.35 72.576 L2098.86 72.576 L2098.86 27.2059 Z" fill="#000000" fill-rule="nonzero" fill-opacity="1" /><path clip-path="url(#clip000)" d="M2196.24 27.2059 L2203.7 27.2059 L2203.7 72.576 L2196.24 72.576 L2196.24 27.2059 M2199.97 26.1121 L2199.97 26.1121 M2181.62 59.127 Q2181.62 55.4812 2178.95 53.5773 Q2176.31 51.6733 2171.21 51.6733 L2160.59 51.6733 L2160.59 66.6212 L2171.21 66.6212 Q2176.31 66.6212 2178.95 64.7172 Q2181.62 62.7728 2181.62 59.127 M2153.1 27.2059 L2160.59 27.2059 L2160.59 45.7185 L2171.53 45.7185 Q2180.2 45.7185 2184.86 49.0402 Q2189.56 52.3215 2189.56 59.127 Q2189.56 65.9325 2184.86 69.2543 Q2180.2 72.576 2171.53 72.576 L2153.1 72.576 L2153.1 27.2059 Z" fill="#000000" fill-rule="nonzero" fill-opacity="1" /><polyline clip-path="url(#clip002)" style="stroke:#0000ff; stroke-linecap:round; stroke-linejoin:round; stroke-width:8; stroke-opacity:1; fill:none" points="369.703,160.256 389.534,165.194 409.364,170.069 429.195,174.924 449.026,179.759 468.856,184.576 488.687,189.373 508.517,194.151 528.348,198.909 548.178,203.649 568.009,208.37 587.839,213.072 607.67,217.755 627.5,222.42 647.331,227.066 667.161,231.693 686.992,236.302 706.822,240.892 726.653,245.465 746.483,250.018 766.314,254.554 786.144,259.072 805.975,263.571 825.805,268.053 845.636,272.517 865.467,276.962 885.297,281.391 905.128,285.801 924.958,290.194 944.789,294.569 964.619,298.927 984.45,303.267 1004.28,307.59 1024.11,311.896 1043.94,316.185 1063.77,320.456 1083.6,324.711 1103.43,328.948 1123.26,333.168 1143.09,337.372 1162.92,341.559 1182.75,345.729 1202.59,349.883 1222.42,354.02 1242.25,358.14 1262.08,362.244 1281.91,366.331 1301.74,370.403 1321.57,374.458 1341.4,378.496 1361.23,382.519 1381.06,386.526 1400.89,390.516 1420.72,394.491 1440.55,398.45 1460.38,402.393 1480.21,406.32 1500.04,410.231 1519.87,414.127 1539.7,418.008 1559.53,421.872 1579.37,425.722 1599.2,429.556 1619.03,433.375 1638.86,437.178 1658.69,440.966 1678.52,444.74 1698.35,448.498 1718.18,452.241 1738.01,455.969 1757.84,459.682 1777.67,463.381 1797.5,467.064 1817.33,470.733 1837.16,474.388 1856.99,478.027 1876.82,481.653 1896.65,485.263 1916.48,488.86 1936.31,492.441 1956.15,496.009 1975.98,499.563 1995.81,503.102 2015.64,506.627 2035.47,510.138 2055.3,513.635 2075.13,517.118 2094.96,520.587 2114.79,524.042 2134.62,527.483 2154.45,530.911 2174.28,534.325 2194.11,537.726 2213.94,541.112 2233.77,544.486 2253.6,547.845 2273.43,551.192 2293.26,554.525 2313.09,557.845 2332.93,561.151 2352.76,564.444 "/>
<polyline clip-path="url(#clip002)" style="stroke:#ff0000; stroke-linecap:round; stroke-linejoin:round; stroke-width:8; stroke-opacity:1; fill:none" points="369.703,834.633 389.534,1386.4 409.364,1386.4 429.195,1386.4 449.026,1386.4 468.856,1386.4 488.687,1386.4 508.517,1386.4 528.348,1386.4 548.178,1386.4 568.009,1386.4 587.839,1386.4 607.67,1386.4 627.5,1386.4 647.331,1386.4 667.161,1386.4 686.992,1386.4 706.822,1386.4 726.653,1386.4 746.483,1386.4 766.314,1386.4 786.144,1386.4 805.975,1386.4 825.805,1386.4 845.636,1386.4 865.467,1386.4 885.297,1386.4 905.128,1386.4 924.958,1386.4 944.789,1386.4 964.619,1386.4 984.45,1386.4 1004.28,1386.4 1024.11,1386.4 1043.94,1386.4 1063.77,1386.4 1083.6,1386.4 1103.43,1386.4 1123.26,1386.4 1143.09,1386.4 1162.92,1386.4 1182.75,1386.4 1202.59,1386.4 1222.42,1386.4 1242.25,1386.4 1262.08,1386.4 1281.91,1386.4 1301.74,1386.4 1321.57,1386.4 1341.4,1386.4 1361.23,1386.4 1381.06,1386.4 1400.89,1386.4 1420.72,1386.4 1440.55,1386.4 1460.38,1386.4 1480.21,1386.4 1500.04,1386.4 1519.87,1386.4 1539.7,1386.4 1559.53,1386.4 1579.37,1386.4 1599.2,1386.4 1619.03,1386.4 1638.86,1386.4 1658.69,1386.4 1678.52,1386.4 1698.35,1386.4 1718.18,1386.4 1738.01,1386.4 1757.84,1386.4 1777.67,1386.4 1797.5,1386.4 1817.33,1386.4 1837.16,1386.4 1856.99,1386.4 1876.82,1386.4 1896.65,1386.4 1916.48,1386.4 1936.31,1386.4 1956.15,1386.4 1975.98,1386.4 1995.81,1386.4 2015.64,1386.4 2035.47,1386.4 2055.3,1386.4 2075.13,1386.4 2094.96,1386.4 2114.79,1386.4 2134.62,1386.4 2154.45,1386.4 2174.28,1386.4 2194.11,1386.4 2213.94,1386.4 2233.77,1386.4 2253.6,1386.4 2273.43,1386.4 2293.26,1386.4 2313.09,1386.4 2332.93,1386.4 2352.76,1386.4 "/>
<path clip-path="url(#clip000)" d="M1567.84 322.316 L2286.65 322.316 L2286.65 166.796 L1567.84 166.796  Z" fill="#ffffff" fill-rule="evenodd" fill-opacity="1"/>
<polyline clip-path="url(#clip000)" style="stroke:#000000; stroke-linecap:round; stroke-linejoin:round; stroke-width:4; stroke-opacity:1; fill:none" points="1567.84,322.316 2286.65,322.316 2286.65,166.796 1567.84,166.796 1567.84,322.316 "/>
<polyline clip-path="url(#clip000)" style="stroke:#0000ff; stroke-linecap:round; stroke-linejoin:round; stroke-width:8; stroke-opacity:1; fill:none" points="1589.88,218.636 1722.08,218.636 "/>
<path clip-path="url(#clip000)" d="M1759.95 205.962 L1753.6 223.161 L1766.31 223.161 L1759.95 205.962 M1757.31 201.356 L1762.61 201.356 L1775.78 235.916 L1770.92 235.916 L1767.77 227.05 L1752.19 227.05 L1749.04 235.916 L1744.11 235.916 L1757.31 201.356 Z" fill="#000000" fill-rule="nonzero" fill-opacity="1" /><path clip-path="url(#clip000)" d="M1784.76 232.027 L1784.76 245.777 L1780.48 245.777 L1780.48 209.99 L1784.76 209.99 L1784.76 213.925 Q1786.1 211.61 1788.14 210.499 Q1790.2 209.365 1793.05 209.365 Q1797.77 209.365 1800.71 213.115 Q1803.67 216.865 1803.67 222.976 Q1803.67 229.087 1800.71 232.837 Q1797.77 236.587 1793.05 236.587 Q1790.2 236.587 1788.14 235.476 Q1786.1 234.342 1784.76 232.027 M1799.25 222.976 Q1799.25 218.277 1797.31 215.615 Q1795.39 212.93 1792.01 212.93 Q1788.63 212.93 1786.68 215.615 Q1784.76 218.277 1784.76 222.976 Q1784.76 227.675 1786.68 230.36 Q1788.63 233.022 1792.01 233.022 Q1795.39 233.022 1797.31 230.36 Q1799.25 227.675 1799.25 222.976 Z" fill="#000000" fill-rule="nonzero" fill-opacity="1" /><path clip-path="url(#clip000)" d="M1810.57 209.99 L1816.8 209.99 L1824.16 227.351 L1831.54 209.99 L1837.72 209.99 L1837.72 235.916 L1833.44 235.916 L1833.44 214.064 L1826.29 230.939 L1822.03 230.939 L1814.85 214.064 L1814.85 235.916 L1810.57 235.916 L1810.57 209.99 Z" fill="#000000" fill-rule="nonzero" fill-opacity="1" /><path clip-path="url(#clip000)" d="M1868.53 209.99 L1868.53 235.916 L1864.3 235.916 L1864.3 215.106 L1851.8 235.916 L1846.34 235.916 L1846.34 209.99 L1850.57 209.99 L1850.57 230.754 L1863.05 209.99 L1868.53 209.99 Z" fill="#000000" fill-rule="nonzero" fill-opacity="1" /><path clip-path="url(#clip000)" d="M1881.59 217.467 Q1881.59 219.388 1883.07 220.476 Q1884.55 221.564 1887.31 221.564 L1893.05 221.564 L1893.05 213.393 L1887.31 213.393 Q1884.55 213.393 1883.07 214.457 Q1881.59 215.522 1881.59 217.467 M1875.53 235.916 L1883.44 224.55 Q1880.76 223.948 1878.97 222.374 Q1877.19 220.777 1877.19 217.467 Q1877.19 213.717 1879.67 211.865 Q1882.17 209.99 1887.19 209.99 L1897.33 209.99 L1897.33 235.916 L1893.05 235.916 L1893.05 224.967 L1887.75 224.967 L1880.11 235.916 L1875.53 235.916 Z" fill="#000000" fill-rule="nonzero" fill-opacity="1" /><path clip-path="url(#clip000)" d="M1919.41 201.356 L1924.44 201.356 L1933.02 214.203 L1941.66 201.356 L1946.68 201.356 L1935.57 217.953 L1947.42 235.916 L1942.4 235.916 L1932.68 221.217 L1922.89 235.916 L1917.84 235.916 L1930.18 217.467 L1919.41 201.356 Z" fill="#000000" fill-rule="nonzero" fill-opacity="1" /><polyline clip-path="url(#clip000)" style="stroke:#ff0000; stroke-linecap:round; stroke-linejoin:round; stroke-width:8; stroke-opacity:1; fill:none" points="1589.88,270.476 1722.08,270.476 "/>
<path clip-path="url(#clip000)" d="M1759.95 257.802 L1753.6 275.001 L1766.31 275.001 L1759.95 257.802 M1757.31 253.196 L1762.61 253.196 L1775.78 287.756 L1770.92 287.756 L1767.77 278.89 L1752.19 278.89 L1749.04 287.756 L1744.11 287.756 L1757.31 253.196 Z" fill="#000000" fill-rule="nonzero" fill-opacity="1" /><path clip-path="url(#clip000)" d="M1784.76 283.867 L1784.76 297.617 L1780.48 297.617 L1780.48 261.83 L1784.76 261.83 L1784.76 265.765 Q1786.1 263.45 1788.14 262.339 Q1790.2 261.205 1793.05 261.205 Q1797.77 261.205 1800.71 264.955 Q1803.67 268.705 1803.67 274.816 Q1803.67 280.927 1800.71 284.677 Q1797.77 288.427 1793.05 288.427 Q1790.2 288.427 1788.14 287.316 Q1786.1 286.182 1784.76 283.867 M1799.25 274.816 Q1799.25 270.117 1797.31 267.455 Q1795.39 264.77 1792.01 264.77 Q1788.63 264.77 1786.68 267.455 Q1784.76 270.117 1784.76 274.816 Q1784.76 279.515 1786.68 282.2 Q1788.63 284.862 1792.01 284.862 Q1795.39 284.862 1797.31 282.2 Q1799.25 279.515 1799.25 274.816 Z" fill="#000000" fill-rule="nonzero" fill-opacity="1" /><path clip-path="url(#clip000)" d="M1810.57 261.83 L1816.8 261.83 L1824.16 279.191 L1831.54 261.83 L1837.72 261.83 L1837.72 287.756 L1833.44 287.756 L1833.44 265.904 L1826.29 282.779 L1822.03 282.779 L1814.85 265.904 L1814.85 287.756 L1810.57 287.756 L1810.57 261.83 Z" fill="#000000" fill-rule="nonzero" fill-opacity="1" /><path clip-path="url(#clip000)" d="M1868.53 261.83 L1868.53 287.756 L1864.3 287.756 L1864.3 266.946 L1851.8 287.756 L1846.34 287.756 L1846.34 261.83 L1850.57 261.83 L1850.57 282.594 L1863.05 261.83 L1868.53 261.83 Z" fill="#000000" fill-rule="nonzero" fill-opacity="1" /><path clip-path="url(#clip000)" d="M1881.59 269.307 Q1881.59 271.228 1883.07 272.316 Q1884.55 273.404 1887.31 273.404 L1893.05 273.404 L1893.05 265.233 L1887.31 265.233 Q1884.55 265.233 1883.07 266.297 Q1881.59 267.362 1881.59 269.307 M1875.53 287.756 L1883.44 276.39 Q1880.76 275.788 1878.97 274.214 Q1877.19 272.617 1877.19 269.307 Q1877.19 265.557 1879.67 263.705 Q1882.17 261.83 1887.19 261.83 L1897.33 261.83 L1897.33 287.756 L1893.05 287.756 L1893.05 276.807 L1887.75 276.807 L1880.11 287.756 L1875.53 287.756 Z" fill="#000000" fill-rule="nonzero" fill-opacity="1" /><path clip-path="url(#clip000)" d="M1916.34 253.196 L1921.36 253.196 L1930.94 267.409 L1940.46 253.196 L1945.48 253.196 L1933.26 271.297 L1933.26 287.756 L1928.56 287.756 L1928.56 271.297 L1916.34 253.196 Z" fill="#000000" fill-rule="nonzero" fill-opacity="1" /><path clip-path="url(#clip000)" d="M1975.15 251.784 Q1972.05 257.108 1970.55 262.316 Q1969.04 267.524 1969.04 272.872 Q1969.04 278.219 1970.55 283.473 Q1972.08 288.705 1975.15 294.006 L1971.45 294.006 Q1967.98 288.566 1966.24 283.311 Q1964.53 278.057 1964.53 272.872 Q1964.53 267.71 1966.24 262.478 Q1967.96 257.247 1971.45 251.784 L1975.15 251.784 Z" fill="#000000" fill-rule="nonzero" fill-opacity="1" /><path clip-path="url(#clip000)" d="M2005.64 261.83 L2005.64 287.756 L2001.36 287.756 L2001.36 265.233 L1987.54 265.233 L1987.54 287.756 L1983.26 287.756 L1983.26 261.83 L2005.64 261.83 Z" fill="#000000" fill-rule="nonzero" fill-opacity="1" /><path clip-path="url(#clip000)" d="M2026.2 274.723 Q2021.03 274.723 2019.04 275.904 Q2017.05 277.084 2017.05 279.932 Q2017.05 282.2 2018.53 283.543 Q2020.04 284.862 2022.61 284.862 Q2026.15 284.862 2028.28 282.362 Q2030.43 279.839 2030.43 275.672 L2030.43 274.723 L2026.2 274.723 M2034.69 272.964 L2034.69 287.756 L2030.43 287.756 L2030.43 283.821 Q2028.97 286.182 2026.8 287.316 Q2024.62 288.427 2021.47 288.427 Q2017.49 288.427 2015.13 286.205 Q2012.79 283.959 2012.79 280.209 Q2012.79 275.834 2015.71 273.612 Q2018.65 271.39 2024.46 271.39 L2030.43 271.39 L2030.43 270.973 Q2030.43 268.034 2028.49 266.436 Q2026.57 264.816 2023.07 264.816 Q2020.85 264.816 2018.74 265.348 Q2016.64 265.881 2014.69 266.946 L2014.69 263.01 Q2017.03 262.108 2019.23 261.668 Q2021.43 261.205 2023.51 261.205 Q2029.14 261.205 2031.91 264.122 Q2034.69 267.038 2034.69 272.964 Z" fill="#000000" fill-rule="nonzero" fill-opacity="1" /><path clip-path="url(#clip000)" d="M2047.58 283.867 L2047.58 297.617 L2043.3 297.617 L2043.3 261.83 L2047.58 261.83 L2047.58 265.765 Q2048.93 263.45 2050.96 262.339 Q2053.02 261.205 2055.87 261.205 Q2060.59 261.205 2063.53 264.955 Q2066.5 268.705 2066.5 274.816 Q2066.5 280.927 2063.53 284.677 Q2060.59 288.427 2055.87 288.427 Q2053.02 288.427 2050.96 287.316 Q2048.93 286.182 2047.58 283.867 M2062.08 274.816 Q2062.08 270.117 2060.13 267.455 Q2058.21 264.77 2054.83 264.77 Q2051.45 264.77 2049.51 267.455 Q2047.58 270.117 2047.58 274.816 Q2047.58 279.515 2049.51 282.2 Q2051.45 284.862 2054.83 284.862 Q2058.21 284.862 2060.13 282.2 Q2062.08 279.515 2062.08 274.816 Z" fill="#000000" fill-rule="nonzero" fill-opacity="1" /><path clip-path="url(#clip000)" d="M2070.48 261.83 L2095.32 261.83 L2095.32 265.233 L2084.99 265.233 L2084.99 287.756 L2080.8 287.756 L2080.8 265.233 L2070.48 265.233 L2070.48 261.83 Z" fill="#000000" fill-rule="nonzero" fill-opacity="1" /><path clip-path="url(#clip000)" d="M2123.21 261.83 L2123.21 287.756 L2118.97 287.756 L2118.97 266.946 L2106.47 287.756 L2101.01 287.756 L2101.01 261.83 L2105.25 261.83 L2105.25 282.594 L2117.72 261.83 L2123.21 261.83 Z" fill="#000000" fill-rule="nonzero" fill-opacity="1" /><path clip-path="url(#clip000)" d="M2143.86 273.774 Q2146.73 274.33 2148.32 276.02 Q2149.92 277.709 2149.92 280.209 Q2149.92 284.214 2146.94 286.321 Q2143.95 288.427 2138.44 288.427 Q2136.59 288.427 2134.62 288.103 Q2132.68 287.779 2130.59 287.131 L2130.59 283.172 Q2132.24 284.029 2134.2 284.469 Q2136.17 284.885 2138.32 284.885 Q2141.82 284.885 2143.76 283.589 Q2145.73 282.293 2145.73 280.209 Q2145.73 278.172 2144 276.946 Q2142.26 275.696 2139.09 275.696 L2135.66 275.696 L2135.66 272.177 L2139.25 272.177 Q2141.94 272.177 2143.49 271.159 Q2145.06 270.117 2145.06 268.497 Q2145.06 267.015 2143.44 265.95 Q2141.84 264.885 2139.09 264.885 Q2137.44 264.885 2135.57 265.186 Q2133.72 265.487 2131.47 266.159 L2131.47 262.293 Q2133.74 261.737 2135.71 261.46 Q2137.68 261.182 2139.44 261.182 Q2143.97 261.182 2146.59 263.01 Q2149.23 264.816 2149.23 268.08 Q2149.23 270.233 2147.84 271.737 Q2146.45 273.219 2143.86 273.774 Z" fill="#000000" fill-rule="nonzero" fill-opacity="1" /><path clip-path="url(#clip000)" d="M2168.97 274.723 Q2163.81 274.723 2161.82 275.904 Q2159.83 277.084 2159.83 279.932 Q2159.83 282.2 2161.31 283.543 Q2162.82 284.862 2165.38 284.862 Q2168.93 284.862 2171.06 282.362 Q2173.21 279.839 2173.21 275.672 L2173.21 274.723 L2168.97 274.723 M2177.47 272.964 L2177.47 287.756 L2173.21 287.756 L2173.21 283.821 Q2171.75 286.182 2169.57 287.316 Q2167.4 288.427 2164.25 288.427 Q2160.27 288.427 2157.91 286.205 Q2155.57 283.959 2155.57 280.209 Q2155.57 275.834 2158.49 273.612 Q2161.43 271.39 2167.24 271.39 L2173.21 271.39 L2173.21 270.973 Q2173.21 268.034 2171.26 266.436 Q2169.34 264.816 2165.85 264.816 Q2163.63 264.816 2161.52 265.348 Q2159.41 265.881 2157.47 266.946 L2157.47 263.01 Q2159.81 262.108 2162.01 261.668 Q2164.2 261.205 2166.29 261.205 Q2171.91 261.205 2174.69 264.122 Q2177.47 267.038 2177.47 272.964 Z" fill="#000000" fill-rule="nonzero" fill-opacity="1" /><path clip-path="url(#clip000)" d="M2186.08 261.83 L2190.36 261.83 L2190.36 272.409 L2204.18 272.409 L2204.18 261.83 L2208.46 261.83 L2208.46 287.756 L2204.18 287.756 L2204.18 275.811 L2190.36 275.811 L2190.36 287.756 L2186.08 287.756 L2186.08 261.83 Z" fill="#000000" fill-rule="nonzero" fill-opacity="1" /><path clip-path="url(#clip000)" d="M2241.73 261.83 L2245.99 261.83 L2245.99 287.756 L2241.73 287.756 L2241.73 261.83 M2243.86 261.205 L2243.86 261.205 M2233.37 280.071 Q2233.37 277.987 2231.84 276.899 Q2230.34 275.811 2227.42 275.811 L2221.36 275.811 L2221.36 284.353 L2227.42 284.353 Q2230.34 284.353 2231.84 283.265 Q2233.37 282.154 2233.37 280.071 M2217.07 261.83 L2221.36 261.83 L2221.36 272.409 L2227.61 272.409 Q2232.56 272.409 2235.22 274.307 Q2237.91 276.182 2237.91 280.071 Q2237.91 283.959 2235.22 285.858 Q2232.56 287.756 2227.61 287.756 L2217.07 287.756 L2217.07 261.83 Z" fill="#000000" fill-rule="nonzero" fill-opacity="1" /><path clip-path="url(#clip000)" d="M2254 251.784 L2257.7 251.784 Q2261.17 257.247 2262.88 262.478 Q2264.62 267.71 2264.62 272.872 Q2264.62 278.057 2262.88 283.311 Q2261.17 288.566 2257.7 294.006 L2254 294.006 Q2257.07 288.705 2258.58 283.473 Q2260.11 278.219 2260.11 272.872 Q2260.11 267.524 2258.58 262.316 Q2257.07 257.108 2254 251.784 Z" fill="#000000" fill-rule="nonzero" fill-opacity="1" /></svg>
