<?xml version="1.0" encoding="utf-8"?>
<svg xmlns="http://www.w3.org/2000/svg" xmlns:xlink="http://www.w3.org/1999/xlink" width="600" height="400" viewBox="0 0 2400 1600">
<defs>
  <clipPath id="clip690">
    <rect x="0" y="0" width="2400" height="1600"/>
  </clipPath>
</defs>
<path clip-path="url(#clip690)" d="M0 1600 L2400 1600 L2400 0 L0 0  Z" fill="#ffffff" fill-rule="evenodd" fill-opacity="1"/>
<defs>
  <clipPath id="clip691">
    <rect x="369" y="123" width="1984" height="1301"/>
  </clipPath>
</defs>
<path clip-path="url(#clip690)" d="M339.542 1423.18 L2352.76 1423.18 L2352.76 123.472 L339.542 123.472  Z" fill="#ffffff" fill-rule="evenodd" fill-opacity="1"/>
<defs>
  <clipPath id="clip692">
    <rect x="339" y="123" width="2014" height="1301"/>
  </clipPath>
</defs>
<polyline clip-path="url(#clip692)" style="stroke:#000000; stroke-linecap:round; stroke-linejoin:round; stroke-width:2; stroke-opacity:0.1; fill:none" points="339.542,1423.18 339.542,123.472 "/>
<polyline clip-path="url(#clip692)" style="stroke:#000000; stroke-linecap:round; stroke-linejoin:round; stroke-width:2; stroke-opacity:0.1; fill:none" points="1010.61,1423.18 1010.61,123.472 "/>
<polyline clip-path="url(#clip692)" style="stroke:#000000; stroke-linecap:round; stroke-linejoin:round; stroke-width:2; stroke-opacity:0.1; fill:none" points="1681.68,1423.18 1681.68,123.472 "/>
<polyline clip-path="url(#clip692)" style="stroke:#000000; stroke-linecap:round; stroke-linejoin:round; stroke-width:2; stroke-opacity:0.1; fill:none" points="2352.76,1423.18 2352.76,123.472 "/>
<polyline clip-path="url(#clip692)" style="stroke:#000000; stroke-linecap:round; stroke-linejoin:round; stroke-width:2; stroke-opacity:0.1; fill:none" points="339.542,1394.73 2352.76,1394.73 "/>
<polyline clip-path="url(#clip692)" style="stroke:#000000; stroke-linecap:round; stroke-linejoin:round; stroke-width:2; stroke-opacity:0.1; fill:none" points="339.542,1042.02 2352.76,1042.02 "/>
<polyline clip-path="url(#clip692)" style="stroke:#000000; stroke-linecap:round; stroke-linejoin:round; stroke-width:2; stroke-opacity:0.1; fill:none" points="339.542,689.315 2352.76,689.315 "/>
<polyline clip-path="url(#clip692)" style="stroke:#000000; stroke-linecap:round; stroke-linejoin:round; stroke-width:2; stroke-opacity:0.1; fill:none" points="339.542,336.609 2352.76,336.609 "/>
<polyline clip-path="url(#clip690)" style="stroke:#000000; stroke-linecap:round; stroke-linejoin:round; stroke-width:4; stroke-opacity:1; fill:none" points="339.542,1423.18 2352.76,1423.18 "/>
<polyline clip-path="url(#clip690)" style="stroke:#000000; stroke-linecap:round; stroke-linejoin:round; stroke-width:4; stroke-opacity:1; fill:none" points="339.542,1423.18 339.542,1404.28 "/>
<polyline clip-path="url(#clip690)" style="stroke:#000000; stroke-linecap:round; stroke-linejoin:round; stroke-width:4; stroke-opacity:1; fill:none" points="1010.61,1423.18 1010.61,1404.28 "/>
<polyline clip-path="url(#clip690)" style="stroke:#000000; stroke-linecap:round; stroke-linejoin:round; stroke-width:4; stroke-opacity:1; fill:none" points="1681.68,1423.18 1681.68,1404.28 "/>
<polyline clip-path="url(#clip690)" style="stroke:#000000; stroke-linecap:round; stroke-linejoin:round; stroke-width:4; stroke-opacity:1; fill:none" points="2352.76,1423.18 2352.76,1404.28 "/>
<path clip-path="url(#clip690)" d="M316.926 1454.1 Q313.315 1454.1 311.486 1457.66 Q309.681 1461.2 309.681 1468.33 Q309.681 1475.44 311.486 1479.01 Q313.315 1482.55 316.926 1482.55 Q320.56 1482.55 322.366 1479.01 Q324.194 1475.44 324.194 1468.33 Q324.194 1461.2 322.366 1457.66 Q320.56 1454.1 316.926 1454.1 M316.926 1450.39 Q322.736 1450.39 325.792 1455 Q328.87 1459.58 328.87 1468.33 Q328.87 1477.06 325.792 1481.67 Q322.736 1486.25 316.926 1486.25 Q311.116 1486.25 308.037 1481.67 Q304.982 1477.06 304.982 1468.33 Q304.982 1459.58 308.037 1455 Q311.116 1450.39 316.926 1450.39 Z" fill="#000000" fill-rule="nonzero" fill-opacity="1" /><path clip-path="url(#clip690)" d="M337.088 1479.7 L341.972 1479.7 L341.972 1485.58 L337.088 1485.58 L337.088 1479.7 Z" fill="#000000" fill-rule="nonzero" fill-opacity="1" /><path clip-path="url(#clip690)" d="M362.157 1454.1 Q358.546 1454.1 356.717 1457.66 Q354.912 1461.2 354.912 1468.33 Q354.912 1475.44 356.717 1479.01 Q358.546 1482.55 362.157 1482.55 Q365.791 1482.55 367.597 1479.01 Q369.426 1475.44 369.426 1468.33 Q369.426 1461.2 367.597 1457.66 Q365.791 1454.1 362.157 1454.1 M362.157 1450.39 Q367.967 1450.39 371.023 1455 Q374.102 1459.58 374.102 1468.33 Q374.102 1477.06 371.023 1481.67 Q367.967 1486.25 362.157 1486.25 Q356.347 1486.25 353.268 1481.67 Q350.213 1477.06 350.213 1468.33 Q350.213 1459.58 353.268 1455 Q356.347 1450.39 362.157 1450.39 Z" fill="#000000" fill-rule="nonzero" fill-opacity="1" /><path clip-path="url(#clip690)" d="M988.495 1454.1 Q984.884 1454.1 983.055 1457.66 Q981.25 1461.2 981.25 1468.33 Q981.25 1475.44 983.055 1479.01 Q984.884 1482.55 988.495 1482.55 Q992.129 1482.55 993.935 1479.01 Q995.764 1475.44 995.764 1468.33 Q995.764 1461.2 993.935 1457.66 Q992.129 1454.1 988.495 1454.1 M988.495 1450.39 Q994.305 1450.39 997.361 1455 Q1000.44 1459.58 1000.44 1468.33 Q1000.44 1477.06 997.361 1481.67 Q994.305 1486.25 988.495 1486.25 Q982.685 1486.25 979.606 1481.67 Q976.551 1477.06 976.551 1468.33 Q976.551 1459.58 979.606 1455 Q982.685 1450.39 988.495 1450.39 Z" fill="#000000" fill-rule="nonzero" fill-opacity="1" /><path clip-path="url(#clip690)" d="M1008.66 1479.7 L1013.54 1479.7 L1013.54 1485.58 L1008.66 1485.58 L1008.66 1479.7 Z" fill="#000000" fill-rule="nonzero" fill-opacity="1" /><path clip-path="url(#clip690)" d="M1023.77 1451.02 L1042.13 1451.02 L1042.13 1454.96 L1028.06 1454.96 L1028.06 1463.43 Q1029.07 1463.08 1030.09 1462.92 Q1031.11 1462.73 1032.13 1462.73 Q1037.92 1462.73 1041.3 1465.9 Q1044.68 1469.08 1044.68 1474.49 Q1044.68 1480.07 1041.2 1483.17 Q1037.73 1486.25 1031.41 1486.25 Q1029.24 1486.25 1026.97 1485.88 Q1024.72 1485.51 1022.31 1484.77 L1022.31 1480.07 Q1024.4 1481.2 1026.62 1481.76 Q1028.84 1482.32 1031.32 1482.32 Q1035.32 1482.32 1037.66 1480.21 Q1040 1478.1 1040 1474.49 Q1040 1470.88 1037.66 1468.77 Q1035.32 1466.67 1031.32 1466.67 Q1029.44 1466.67 1027.57 1467.08 Q1025.72 1467.5 1023.77 1468.38 L1023.77 1451.02 Z" fill="#000000" fill-rule="nonzero" fill-opacity="1" /><path clip-path="url(#clip690)" d="M1648.84 1481.64 L1656.48 1481.64 L1656.48 1455.28 L1648.17 1456.95 L1648.17 1452.69 L1656.43 1451.02 L1661.11 1451.02 L1661.11 1481.64 L1668.74 1481.64 L1668.74 1485.58 L1648.84 1485.58 L1648.84 1481.64 Z" fill="#000000" fill-rule="nonzero" fill-opacity="1" /><path clip-path="url(#clip690)" d="M1678.19 1479.7 L1683.07 1479.7 L1683.07 1485.58 L1678.19 1485.58 L1678.19 1479.7 Z" fill="#000000" fill-rule="nonzero" fill-opacity="1" /><path clip-path="url(#clip690)" d="M1703.26 1454.1 Q1699.65 1454.1 1697.82 1457.66 Q1696.01 1461.2 1696.01 1468.33 Q1696.01 1475.44 1697.82 1479.01 Q1699.65 1482.55 1703.26 1482.55 Q1706.89 1482.55 1708.7 1479.01 Q1710.53 1475.44 1710.53 1468.33 Q1710.53 1461.2 1708.7 1457.66 Q1706.89 1454.1 1703.26 1454.1 M1703.26 1450.39 Q1709.07 1450.39 1712.12 1455 Q1715.2 1459.58 1715.2 1468.33 Q1715.2 1477.06 1712.12 1481.67 Q1709.07 1486.25 1703.26 1486.25 Q1697.45 1486.25 1694.37 1481.67 Q1691.31 1477.06 1691.31 1468.33 Q1691.31 1459.58 1694.37 1455 Q1697.45 1450.39 1703.26 1450.39 Z" fill="#000000" fill-rule="nonzero" fill-opacity="1" /><path clip-path="url(#clip690)" d="M2320.41 1481.64 L2328.05 1481.64 L2328.05 1455.28 L2319.74 1456.95 L2319.74 1452.69 L2328 1451.02 L2332.67 1451.02 L2332.67 1481.64 L2340.31 1481.64 L2340.31 1485.58 L2320.41 1485.58 L2320.41 1481.64 Z" fill="#000000" fill-rule="nonzero" fill-opacity="1" /><path clip-path="url(#clip690)" d="M2349.76 1479.7 L2354.64 1479.7 L2354.64 1485.58 L2349.76 1485.58 L2349.76 1479.7 Z" fill="#000000" fill-rule="nonzero" fill-opacity="1" /><path clip-path="url(#clip690)" d="M2364.87 1451.02 L2383.23 1451.02 L2383.23 1454.96 L2369.16 1454.96 L2369.16 1463.43 Q2370.17 1463.08 2371.19 1462.92 Q2372.21 1462.73 2373.23 1462.73 Q2379.02 1462.73 2382.4 1465.9 Q2385.78 1469.08 2385.78 1474.49 Q2385.78 1480.07 2382.3 1483.17 Q2378.83 1486.25 2372.51 1486.25 Q2370.34 1486.25 2368.07 1485.88 Q2365.82 1485.51 2363.42 1484.77 L2363.42 1480.07 Q2365.5 1481.2 2367.72 1481.76 Q2369.94 1482.32 2372.42 1482.32 Q2376.42 1482.32 2378.76 1480.21 Q2381.1 1478.1 2381.1 1474.49 Q2381.1 1470.88 2378.76 1468.77 Q2376.42 1466.67 2372.42 1466.67 Q2370.55 1466.67 2368.67 1467.08 Q2366.82 1467.5 2364.87 1468.38 L2364.87 1451.02 Z" fill="#000000" fill-rule="nonzero" fill-opacity="1" /><path clip-path="url(#clip690)" d="M1251.25 1545.35 L1251.25 1562.76 L1261.56 1562.76 Q1266.75 1562.76 1269.24 1560.63 Q1271.75 1558.46 1271.75 1554.04 Q1271.75 1549.58 1269.24 1547.48 Q1266.75 1545.35 1261.56 1545.35 L1251.25 1545.35 M1251.25 1525.81 L1251.25 1540.13 L1260.77 1540.13 Q1265.48 1540.13 1267.77 1538.38 Q1270.09 1536.6 1270.09 1532.97 Q1270.09 1529.37 1267.77 1527.59 Q1265.48 1525.81 1260.77 1525.81 L1251.25 1525.81 M1244.82 1520.52 L1261.25 1520.52 Q1268.6 1520.52 1272.58 1523.58 Q1276.56 1526.63 1276.56 1532.27 Q1276.56 1536.63 1274.52 1539.21 Q1272.48 1541.79 1268.53 1542.42 Q1273.28 1543.44 1275.89 1546.69 Q1278.53 1549.9 1278.53 1554.74 Q1278.53 1561.11 1274.2 1564.57 Q1269.87 1568.04 1261.88 1568.04 L1244.82 1568.04 L1244.82 1520.52 Z" fill="#000000" fill-rule="nonzero" fill-opacity="1" /><path clip-path="url(#clip690)" d="M1294.95 1562.7 L1294.95 1581.6 L1289.06 1581.6 L1289.06 1532.4 L1294.95 1532.4 L1294.95 1537.81 Q1296.8 1534.62 1299.6 1533.1 Q1302.43 1531.54 1306.35 1531.54 Q1312.84 1531.54 1316.88 1536.69 Q1320.96 1541.85 1320.96 1550.25 Q1320.96 1558.65 1316.88 1563.81 Q1312.84 1568.97 1306.35 1568.97 Q1302.43 1568.97 1299.6 1567.44 Q1296.8 1565.88 1294.95 1562.7 M1314.88 1550.25 Q1314.88 1543.79 1312.2 1540.13 Q1309.56 1536.44 1304.91 1536.44 Q1300.27 1536.44 1297.59 1540.13 Q1294.95 1543.79 1294.95 1550.25 Q1294.95 1556.71 1297.59 1560.4 Q1300.27 1564.07 1304.91 1564.07 Q1309.56 1564.07 1312.2 1560.4 Q1314.88 1556.71 1314.88 1550.25 Z" fill="#000000" fill-rule="nonzero" fill-opacity="1" /><path clip-path="url(#clip690)" d="M1361.16 1548.76 L1361.16 1551.62 L1334.23 1551.62 Q1334.61 1557.67 1337.86 1560.85 Q1341.14 1564 1346.96 1564 Q1350.33 1564 1353.49 1563.17 Q1356.67 1562.35 1359.79 1560.69 L1359.79 1566.23 Q1356.64 1567.57 1353.33 1568.27 Q1350.02 1568.97 1346.61 1568.97 Q1338.08 1568.97 1333.08 1564 Q1328.12 1559.04 1328.12 1550.57 Q1328.12 1541.82 1332.83 1536.69 Q1337.57 1531.54 1345.59 1531.54 Q1352.78 1531.54 1356.95 1536.18 Q1361.16 1540.8 1361.16 1548.76 M1355.3 1547.04 Q1355.24 1542.23 1352.59 1539.37 Q1349.98 1536.5 1345.66 1536.5 Q1340.75 1536.5 1337.79 1539.27 Q1334.87 1542.04 1334.42 1547.07 L1355.3 1547.04 Z" fill="#000000" fill-rule="nonzero" fill-opacity="1" /><path clip-path="url(#clip690)" d="M1370.55 1532.4 L1379.11 1532.4 L1389.23 1556.27 L1399.38 1532.4 L1407.88 1532.4 L1407.88 1568.04 L1401.99 1568.04 L1401.99 1538 L1392.16 1561.2 L1386.3 1561.2 L1376.43 1538 L1376.43 1568.04 L1370.55 1568.04 L1370.55 1532.4 Z" fill="#000000" fill-rule="nonzero" fill-opacity="1" /><path clip-path="url(#clip690)" d="M1425.83 1542.68 Q1425.83 1545.32 1427.87 1546.81 Q1429.91 1548.31 1433.69 1548.31 L1441.59 1548.31 L1441.59 1537.07 L1433.69 1537.07 Q1429.91 1537.07 1427.87 1538.54 Q1425.83 1540 1425.83 1542.68 M1417.49 1568.04 L1428.38 1552.42 Q1424.69 1551.59 1422.23 1549.42 Q1419.78 1547.23 1419.78 1542.68 Q1419.78 1537.52 1423.19 1534.97 Q1426.63 1532.4 1433.53 1532.4 L1447.47 1532.4 L1447.47 1568.04 L1441.59 1568.04 L1441.59 1552.99 L1434.3 1552.99 L1423.79 1568.04 L1417.49 1568.04 Z" fill="#000000" fill-rule="nonzero" fill-opacity="1" /><polyline clip-path="url(#clip690)" style="stroke:#000000; stroke-linecap:round; stroke-linejoin:round; stroke-width:4; stroke-opacity:1; fill:none" points="339.542,1423.18 339.542,123.472 "/>
<polyline clip-path="url(#clip690)" style="stroke:#000000; stroke-linecap:round; stroke-linejoin:round; stroke-width:4; stroke-opacity:1; fill:none" points="339.542,1394.73 358.439,1394.73 "/>
<polyline clip-path="url(#clip690)" style="stroke:#000000; stroke-linecap:round; stroke-linejoin:round; stroke-width:4; stroke-opacity:1; fill:none" points="339.542,1042.02 358.439,1042.02 "/>
<polyline clip-path="url(#clip690)" style="stroke:#000000; stroke-linecap:round; stroke-linejoin:round; stroke-width:4; stroke-opacity:1; fill:none" points="339.542,689.315 358.439,689.315 "/>
<polyline clip-path="url(#clip690)" style="stroke:#000000; stroke-linecap:round; stroke-linejoin:round; stroke-width:4; stroke-opacity:1; fill:none" points="339.542,336.609 358.439,336.609 "/>
<path clip-path="url(#clip690)" d="M291.597 1380.52 Q287.986 1380.52 286.157 1384.09 Q284.352 1387.63 284.352 1394.76 Q284.352 1401.87 286.157 1405.43 Q287.986 1408.97 291.597 1408.97 Q295.231 1408.97 297.037 1405.43 Q298.866 1401.87 298.866 1394.76 Q298.866 1387.63 297.037 1384.09 Q295.231 1380.52 291.597 1380.52 M291.597 1376.82 Q297.407 1376.82 300.463 1381.43 Q303.542 1386.01 303.542 1394.76 Q303.542 1403.49 300.463 1408.09 Q297.407 1412.68 291.597 1412.68 Q285.787 1412.68 282.708 1408.09 Q279.653 1403.49 279.653 1394.76 Q279.653 1386.01 282.708 1381.43 Q285.787 1376.82 291.597 1376.82 Z" fill="#000000" fill-rule="nonzero" fill-opacity="1" /><path clip-path="url(#clip690)" d="M116.668 1061.81 L124.306 1061.81 L124.306 1035.45 L115.996 1037.11 L115.996 1032.85 L124.26 1031.19 L128.936 1031.19 L128.936 1061.81 L136.575 1061.81 L136.575 1065.75 L116.668 1065.75 L116.668 1061.81 Z" fill="#000000" fill-rule="nonzero" fill-opacity="1" /><path clip-path="url(#clip690)" d="M146.019 1059.87 L150.903 1059.87 L150.903 1065.75 L146.019 1065.75 L146.019 1059.87 Z" fill="#000000" fill-rule="nonzero" fill-opacity="1" /><path clip-path="url(#clip690)" d="M171.089 1034.27 Q167.477 1034.27 165.649 1037.83 Q163.843 1041.37 163.843 1048.5 Q163.843 1055.61 165.649 1059.17 Q167.477 1062.72 171.089 1062.72 Q174.723 1062.72 176.528 1059.17 Q178.357 1055.61 178.357 1048.5 Q178.357 1041.37 176.528 1037.83 Q174.723 1034.27 171.089 1034.27 M171.089 1030.56 Q176.899 1030.56 179.954 1035.17 Q183.033 1039.75 183.033 1048.5 Q183.033 1057.23 179.954 1061.84 Q176.899 1066.42 171.089 1066.42 Q165.278 1066.42 162.2 1061.84 Q159.144 1057.23 159.144 1048.5 Q159.144 1039.75 162.2 1035.17 Q165.278 1030.56 171.089 1030.56 Z" fill="#000000" fill-rule="nonzero" fill-opacity="1" /><path clip-path="url(#clip690)" d="M219.422 1040.29 L208.843 1050.91 L219.422 1061.49 L216.667 1064.29 L206.042 1053.66 L195.417 1064.29 L192.686 1061.49 L203.241 1050.91 L192.686 1040.29 L195.417 1037.48 L206.042 1048.11 L216.667 1037.48 L219.422 1040.29 Z" fill="#000000" fill-rule="nonzero" fill-opacity="1" /><path clip-path="url(#clip690)" d="M231.783 1061.81 L239.422 1061.81 L239.422 1035.45 L231.111 1037.11 L231.111 1032.85 L239.375 1031.19 L244.051 1031.19 L244.051 1061.81 L251.69 1061.81 L251.69 1065.75 L231.783 1065.75 L231.783 1061.81 Z" fill="#000000" fill-rule="nonzero" fill-opacity="1" /><path clip-path="url(#clip690)" d="M271.134 1034.27 Q267.523 1034.27 265.695 1037.83 Q263.889 1041.37 263.889 1048.5 Q263.889 1055.61 265.695 1059.17 Q267.523 1062.72 271.134 1062.72 Q274.769 1062.72 276.574 1059.17 Q278.403 1055.61 278.403 1048.5 Q278.403 1041.37 276.574 1037.83 Q274.769 1034.27 271.134 1034.27 M271.134 1030.56 Q276.944 1030.56 280 1035.17 Q283.079 1039.75 283.079 1048.5 Q283.079 1057.23 280 1061.84 Q276.944 1066.42 271.134 1066.42 Q265.324 1066.42 262.245 1061.84 Q259.19 1057.23 259.19 1048.5 Q259.19 1039.75 262.245 1035.17 Q265.324 1030.56 271.134 1030.56 Z" fill="#000000" fill-rule="nonzero" fill-opacity="1" /><path clip-path="url(#clip690)" d="M295.755 1013.57 L286.163 1028.56 L295.755 1028.56 L295.755 1013.57 M294.758 1010.26 L299.535 1010.26 L299.535 1028.56 L303.542 1028.56 L303.542 1031.72 L299.535 1031.72 L299.535 1038.34 L295.755 1038.34 L295.755 1031.72 L283.079 1031.72 L283.079 1028.05 L294.758 1010.26 Z" fill="#000000" fill-rule="nonzero" fill-opacity="1" /><path clip-path="url(#clip690)" d="M119.885 709.107 L136.204 709.107 L136.204 713.042 L114.26 713.042 L114.26 709.107 Q116.922 706.353 121.505 701.723 Q126.112 697.07 127.292 695.728 Q129.538 693.205 130.417 691.468 Q131.32 689.709 131.32 688.019 Q131.32 685.265 129.376 683.529 Q127.455 681.793 124.353 681.793 Q122.154 681.793 119.7 682.557 Q117.269 683.32 114.492 684.871 L114.492 680.149 Q117.316 679.015 119.769 678.436 Q122.223 677.857 124.26 677.857 Q129.63 677.857 132.825 680.543 Q136.019 683.228 136.019 687.719 Q136.019 689.848 135.209 691.769 Q134.422 693.668 132.316 696.26 Q131.737 696.931 128.635 700.149 Q125.533 703.343 119.885 709.107 Z" fill="#000000" fill-rule="nonzero" fill-opacity="1" /><path clip-path="url(#clip690)" d="M146.019 707.163 L150.903 707.163 L150.903 713.042 L146.019 713.042 L146.019 707.163 Z" fill="#000000" fill-rule="nonzero" fill-opacity="1" /><path clip-path="url(#clip690)" d="M171.089 681.561 Q167.477 681.561 165.649 685.126 Q163.843 688.668 163.843 695.797 Q163.843 702.904 165.649 706.468 Q167.477 710.01 171.089 710.01 Q174.723 710.01 176.528 706.468 Q178.357 702.904 178.357 695.797 Q178.357 688.668 176.528 685.126 Q174.723 681.561 171.089 681.561 M171.089 677.857 Q176.899 677.857 179.954 682.464 Q183.033 687.047 183.033 695.797 Q183.033 704.524 179.954 709.13 Q176.899 713.714 171.089 713.714 Q165.278 713.714 162.2 709.13 Q159.144 704.524 159.144 695.797 Q159.144 687.047 162.2 682.464 Q165.278 677.857 171.089 677.857 Z" fill="#000000" fill-rule="nonzero" fill-opacity="1" /><path clip-path="url(#clip690)" d="M219.422 687.58 L208.843 698.205 L219.422 708.783 L216.667 711.584 L206.042 700.959 L195.417 711.584 L192.686 708.783 L203.241 698.205 L192.686 687.58 L195.417 684.779 L206.042 695.404 L216.667 684.779 L219.422 687.58 Z" fill="#000000" fill-rule="nonzero" fill-opacity="1" /><path clip-path="url(#clip690)" d="M231.783 709.107 L239.422 709.107 L239.422 682.742 L231.111 684.408 L231.111 680.149 L239.375 678.482 L244.051 678.482 L244.051 709.107 L251.69 709.107 L251.69 713.042 L231.783 713.042 L231.783 709.107 Z" fill="#000000" fill-rule="nonzero" fill-opacity="1" /><path clip-path="url(#clip690)" d="M271.134 681.561 Q267.523 681.561 265.695 685.126 Q263.889 688.668 263.889 695.797 Q263.889 702.904 265.695 706.468 Q267.523 710.01 271.134 710.01 Q274.769 710.01 276.574 706.468 Q278.403 702.904 278.403 695.797 Q278.403 688.668 276.574 685.126 Q274.769 681.561 271.134 681.561 M271.134 677.857 Q276.944 677.857 280 682.464 Q283.079 687.047 283.079 695.797 Q283.079 704.524 280 709.13 Q276.944 713.714 271.134 713.714 Q265.324 713.714 262.245 709.13 Q259.19 704.524 259.19 695.797 Q259.19 687.047 262.245 682.464 Q265.324 677.857 271.134 677.857 Z" fill="#000000" fill-rule="nonzero" fill-opacity="1" /><path clip-path="url(#clip690)" d="M295.755 660.862 L286.163 675.852 L295.755 675.852 L295.755 660.862 M294.758 657.552 L299.535 657.552 L299.535 675.852 L303.542 675.852 L303.542 679.012 L299.535 679.012 L299.535 685.632 L295.755 685.632 L295.755 679.012 L283.079 679.012 L283.079 675.344 L294.758 657.552 Z" fill="#000000" fill-rule="nonzero" fill-opacity="1" /><path clip-path="url(#clip690)" d="M130.024 341.703 Q133.38 342.42 135.255 344.689 Q137.154 346.957 137.154 350.291 Q137.154 355.406 133.635 358.207 Q130.117 361.008 123.635 361.008 Q121.459 361.008 119.144 360.568 Q116.853 360.152 114.399 359.295 L114.399 354.781 Q116.343 355.915 118.658 356.494 Q120.973 357.073 123.496 357.073 Q127.894 357.073 130.186 355.337 Q132.501 353.601 132.501 350.291 Q132.501 347.235 130.348 345.522 Q128.218 343.786 124.399 343.786 L120.371 343.786 L120.371 339.943 L124.584 339.943 Q128.033 339.943 129.862 338.578 Q131.691 337.189 131.691 334.596 Q131.691 331.934 129.792 330.522 Q127.917 329.087 124.399 329.087 Q122.478 329.087 120.279 329.504 Q118.08 329.92 115.441 330.8 L115.441 326.633 Q118.103 325.892 120.418 325.522 Q122.755 325.152 124.816 325.152 Q130.14 325.152 133.242 327.582 Q136.343 329.99 136.343 334.11 Q136.343 336.98 134.7 338.971 Q133.056 340.939 130.024 341.703 Z" fill="#000000" fill-rule="nonzero" fill-opacity="1" /><path clip-path="url(#clip690)" d="M146.019 354.457 L150.903 354.457 L150.903 360.337 L146.019 360.337 L146.019 354.457 Z" fill="#000000" fill-rule="nonzero" fill-opacity="1" /><path clip-path="url(#clip690)" d="M171.089 328.855 Q167.477 328.855 165.649 332.42 Q163.843 335.962 163.843 343.091 Q163.843 350.198 165.649 353.763 Q167.477 357.304 171.089 357.304 Q174.723 357.304 176.528 353.763 Q178.357 350.198 178.357 343.091 Q178.357 335.962 176.528 332.42 Q174.723 328.855 171.089 328.855 M171.089 325.152 Q176.899 325.152 179.954 329.758 Q183.033 334.342 183.033 343.091 Q183.033 351.818 179.954 356.425 Q176.899 361.008 171.089 361.008 Q165.278 361.008 162.2 356.425 Q159.144 351.818 159.144 343.091 Q159.144 334.342 162.2 329.758 Q165.278 325.152 171.089 325.152 Z" fill="#000000" fill-rule="nonzero" fill-opacity="1" /><path clip-path="url(#clip690)" d="M219.422 334.874 L208.843 345.499 L219.422 356.078 L216.667 358.878 L206.042 348.253 L195.417 358.878 L192.686 356.078 L203.241 345.499 L192.686 334.874 L195.417 332.073 L206.042 342.698 L216.667 332.073 L219.422 334.874 Z" fill="#000000" fill-rule="nonzero" fill-opacity="1" /><path clip-path="url(#clip690)" d="M231.783 356.402 L239.422 356.402 L239.422 330.036 L231.111 331.703 L231.111 327.443 L239.375 325.777 L244.051 325.777 L244.051 356.402 L251.69 356.402 L251.69 360.337 L231.783 360.337 L231.783 356.402 Z" fill="#000000" fill-rule="nonzero" fill-opacity="1" /><path clip-path="url(#clip690)" d="M271.134 328.855 Q267.523 328.855 265.695 332.42 Q263.889 335.962 263.889 343.091 Q263.889 350.198 265.695 353.763 Q267.523 357.304 271.134 357.304 Q274.769 357.304 276.574 353.763 Q278.403 350.198 278.403 343.091 Q278.403 335.962 276.574 332.42 Q274.769 328.855 271.134 328.855 M271.134 325.152 Q276.944 325.152 280 329.758 Q283.079 334.342 283.079 343.091 Q283.079 351.818 280 356.425 Q276.944 361.008 271.134 361.008 Q265.324 361.008 262.245 356.425 Q259.19 351.818 259.19 343.091 Q259.19 334.342 262.245 329.758 Q265.324 325.152 271.134 325.152 Z" fill="#000000" fill-rule="nonzero" fill-opacity="1" /><path clip-path="url(#clip690)" d="M295.755 308.157 L286.163 323.146 L295.755 323.146 L295.755 308.157 M294.758 304.846 L299.535 304.846 L299.535 323.146 L303.542 323.146 L303.542 326.306 L299.535 326.306 L299.535 332.926 L295.755 332.926 L295.755 326.306 L283.079 326.306 L283.079 322.639 L294.758 304.846 Z" fill="#000000" fill-rule="nonzero" fill-opacity="1" /><path clip-path="url(#clip690)" d="M64.0042 963.358 L44.5251 963.358 L44.5251 976.631 Q44.5251 982.551 40.833 986.084 Q37.109 989.617 29.5339 989.617 L16.4842 989.617 L16.4842 983.219 L29.0246 983.219 Q34.0853 983.219 36.5998 981.246 Q39.1142 979.273 39.1142 975.326 L39.1142 963.358 L16.4842 963.358 L16.4842 956.897 L64.0042 956.897 L64.0042 963.358 Z" fill="#000000" fill-rule="nonzero" fill-opacity="1" /><path clip-path="url(#clip690)" d="M28.3562 914.056 L64.0042 914.056 L64.0042 919.88 L35.3903 919.88 L64.0042 937.068 L64.0042 944.579 L28.3562 944.579 L28.3562 938.755 L56.9064 938.755 L28.3562 921.599 L28.3562 914.056 Z" fill="#000000" fill-rule="nonzero" fill-opacity="1" /><path clip-path="url(#clip690)" d="M29.7248 876.339 L35.1993 876.339 Q33.8307 878.822 33.1623 881.336 Q32.4621 883.819 32.4621 886.365 Q32.4621 892.062 36.0905 895.213 Q39.6872 898.364 46.212 898.364 Q52.7369 898.364 56.3653 895.213 Q59.9619 892.062 59.9619 886.365 Q59.9619 883.819 59.2935 881.336 Q58.5933 878.822 57.2247 876.339 L62.6355 876.339 Q63.7814 878.79 64.3543 881.432 Q64.9272 884.042 64.9272 887.002 Q64.9272 895.054 59.8664 899.797 Q54.8057 904.539 46.212 904.539 Q37.491 904.539 32.4939 899.765 Q27.4968 894.959 27.4968 886.62 Q27.4968 883.914 28.0697 881.336 Q28.6108 878.758 29.7248 876.339 Z" fill="#000000" fill-rule="nonzero" fill-opacity="1" /><path clip-path="url(#clip690)" d="M64.0042 869.878 L59.1344 869.878 Q58.2432 864.085 54.2328 862.303 Q48.5991 860.138 34.1808 860.138 L28.3562 860.138 L28.3562 836.044 L64.0042 836.044 L64.0042 841.901 L33.035 841.901 L33.035 854.282 L36.568 854.282 Q50.3179 854.282 56.4926 857.083 Q63.0811 860.075 64.0042 869.878 Z" fill="#000000" fill-rule="nonzero" fill-opacity="1" /><path clip-path="url(#clip690)" d="M44.7161 793.999 L47.5806 793.999 L47.5806 820.926 Q53.6281 820.544 56.8109 817.297 Q59.9619 814.019 59.9619 808.194 Q59.9619 804.82 59.1344 801.669 Q58.3069 798.486 56.6518 795.367 L62.1899 795.367 Q63.5267 798.518 64.227 801.828 Q64.9272 805.139 64.9272 808.544 Q64.9272 817.074 59.9619 822.071 Q54.9967 827.037 46.5303 827.037 Q37.7774 827.037 32.6531 822.326 Q27.4968 817.584 27.4968 809.563 Q27.4968 802.37 32.1438 798.2 Q36.7589 793.999 44.7161 793.999 M42.9973 799.855 Q38.1912 799.919 35.3266 802.56 Q32.4621 805.17 32.4621 809.499 Q32.4621 814.401 35.2312 817.361 Q38.0002 820.289 43.0292 820.735 L42.9973 799.855 Z" fill="#000000" fill-rule="nonzero" fill-opacity="1" /><path clip-path="url(#clip690)" d="M28.3562 784.609 L28.3562 778.721 L42.9018 778.721 L42.9018 759.719 L28.3562 759.719 L28.3562 753.831 L64.0042 753.831 L64.0042 759.719 L47.5806 759.719 L47.5806 778.721 L64.0042 778.721 L64.0042 784.609 L28.3562 784.609 Z" fill="#000000" fill-rule="nonzero" fill-opacity="1" /><path clip-path="url(#clip690)" d="M28.3562 741.991 L28.3562 736.103 L42.9018 736.103 L42.9018 717.101 L28.3562 717.101 L28.3562 711.213 L64.0042 711.213 L64.0042 717.101 L47.5806 717.101 L47.5806 736.103 L64.0042 736.103 L64.0042 741.991 L28.3562 741.991 Z" fill="#000000" fill-rule="nonzero" fill-opacity="1" /><path clip-path="url(#clip690)" d="M32.4621 685.336 Q32.4621 690.047 36.1542 692.784 Q39.8145 695.521 46.212 695.521 Q52.6095 695.521 56.3017 692.816 Q59.9619 690.078 59.9619 685.336 Q59.9619 680.657 56.2698 677.92 Q52.5777 675.183 46.212 675.183 Q39.8781 675.183 36.186 677.92 Q32.4621 680.657 32.4621 685.336 M27.4968 685.336 Q27.4968 677.697 32.4621 673.337 Q37.4273 668.976 46.212 668.976 Q54.9649 668.976 59.9619 673.337 Q64.9272 677.697 64.9272 685.336 Q64.9272 693.007 59.9619 697.367 Q54.9649 701.696 46.212 701.696 Q37.4273 701.696 32.4621 697.367 Q27.4968 693.007 27.4968 685.336 Z" fill="#000000" fill-rule="nonzero" fill-opacity="1" /><path clip-path="url(#clip690)" d="M29.7248 633.615 L35.1993 633.615 Q33.8307 636.097 33.1623 638.612 Q32.4621 641.094 32.4621 643.641 Q32.4621 649.338 36.0905 652.489 Q39.6872 655.64 46.212 655.64 Q52.7369 655.64 56.3653 652.489 Q59.9619 649.338 59.9619 643.641 Q59.9619 641.094 59.2935 638.612 Q58.5933 636.097 57.2247 633.615 L62.6355 633.615 Q63.7814 636.065 64.3543 638.707 Q64.9272 641.317 64.9272 644.277 Q64.9272 652.33 59.8664 657.072 Q54.8057 661.815 46.212 661.815 Q37.491 661.815 32.4939 657.04 Q27.4968 652.234 27.4968 643.895 Q27.4968 641.19 28.0697 638.612 Q28.6108 636.034 29.7248 633.615 Z" fill="#000000" fill-rule="nonzero" fill-opacity="1" /><path clip-path="url(#clip690)" d="M28.3562 627.663 L28.3562 593.511 L33.035 593.511 L33.035 607.706 L64.0042 607.706 L64.0042 613.467 L33.035 613.467 L33.035 627.663 L28.3562 627.663 Z" fill="#000000" fill-rule="nonzero" fill-opacity="1" /><path clip-path="url(#clip690)" d="M53.4371 563.274 Q50.5725 563.274 49.0766 565.374 Q47.5806 567.443 47.5806 571.454 L47.5806 579.793 L59.3254 579.793 L59.3254 571.454 Q59.3254 567.443 57.8294 565.374 Q56.3017 563.274 53.4371 563.274 M28.3562 585.681 L28.3562 579.793 L42.9018 579.793 L42.9018 571.199 Q42.9018 564.388 45.5118 560.727 Q48.0899 557.035 53.4371 557.035 Q58.7843 557.035 61.3942 560.727 Q64.0042 564.388 64.0042 571.199 L64.0042 585.681 L28.3562 585.681 Z" fill="#000000" fill-rule="nonzero" fill-opacity="1" /><path clip-path="url(#clip690)" d="M654.457 12.096 L666.65 12.096 L682.084 53.2532 L697.599 12.096 L709.792 12.096 L709.792 72.576 L701.812 72.576 L701.812 19.4686 L686.216 60.9499 L677.993 60.9499 L662.397 19.4686 L662.397 72.576 L654.457 72.576 L654.457 12.096 Z" fill="#000000" fill-rule="nonzero" fill-opacity="1" /><path clip-path="url(#clip690)" d="M743.293 32.4315 Q737.298 32.4315 733.814 37.1306 Q730.33 41.7891 730.33 49.9314 Q730.33 58.0738 733.774 62.7728 Q737.257 67.4314 743.293 67.4314 Q749.248 67.4314 752.732 62.7323 Q756.216 58.0333 756.216 49.9314 Q756.216 41.8701 752.732 37.1711 Q749.248 32.4315 743.293 32.4315 M743.293 26.1121 Q753.015 26.1121 758.565 32.4315 Q764.115 38.7509 764.115 49.9314 Q764.115 61.0714 758.565 67.4314 Q753.015 73.7508 743.293 73.7508 Q733.53 73.7508 727.981 67.4314 Q722.472 61.0714 722.472 49.9314 Q722.472 38.7509 727.981 32.4315 Q733.53 26.1121 743.293 26.1121 Z" fill="#000000" fill-rule="nonzero" fill-opacity="1" /><path clip-path="url(#clip690)" d="M786.597 66.6212 L808.229 66.6212 L808.229 33.1607 L792.552 33.1607 L792.552 38.832 Q792.552 55.5217 787.772 64.4337 L786.597 66.6212 M775.781 66.6212 Q779.468 65.0008 781.088 61.5575 Q785.058 53.0101 785.058 35.7938 L785.058 27.2059 L815.723 27.2059 L815.723 66.6212 L821.678 66.6212 L821.678 84.0401 L815.723 84.0401 L815.723 72.576 L778.941 72.576 L778.941 84.0401 L772.986 84.0401 L772.986 66.6212 L775.781 66.6212 Z" fill="#000000" fill-rule="nonzero" fill-opacity="1" /><path clip-path="url(#clip690)" d="M872.639 48.0275 L872.639 51.6733 L838.368 51.6733 Q838.854 59.3701 842.986 63.421 Q847.158 67.4314 854.572 67.4314 Q858.865 67.4314 862.876 66.3781 Q866.927 65.3249 870.897 63.2184 L870.897 70.267 Q866.886 71.9684 862.673 72.8596 Q858.46 73.7508 854.126 73.7508 Q843.269 73.7508 836.91 67.4314 Q830.59 61.1119 830.59 50.3365 Q830.59 39.1965 836.585 32.6746 Q842.621 26.1121 852.83 26.1121 Q861.985 26.1121 867.291 32.0264 Q872.639 37.9003 872.639 48.0275 M865.185 45.84 Q865.104 39.7232 861.742 36.0774 Q858.42 32.4315 852.911 32.4315 Q846.672 32.4315 842.905 35.9558 Q839.178 39.4801 838.611 45.8805 L865.185 45.84 Z" fill="#000000" fill-rule="nonzero" fill-opacity="1" /><path clip-path="url(#clip690)" d="M880.133 72.576 L880.133 66.3781 Q887.505 65.2439 889.774 60.1397 Q892.528 52.9696 892.528 34.619 L892.528 27.2059 L923.194 27.2059 L923.194 72.576 L915.74 72.576 L915.74 33.1607 L899.982 33.1607 L899.982 37.6572 Q899.982 55.1571 896.417 63.0159 Q892.609 71.4012 880.133 72.576 Z" fill="#000000" fill-rule="nonzero" fill-opacity="1" /><path clip-path="url(#clip690)" d="M966.133 59.127 Q966.133 55.4812 963.46 53.5773 Q960.827 51.6733 955.723 51.6733 L945.109 51.6733 L945.109 66.6212 L955.723 66.6212 Q960.827 66.6212 963.46 64.7172 Q966.133 62.7728 966.133 59.127 M937.615 27.2059 L945.109 27.2059 L945.109 45.7185 L956.047 45.7185 Q964.716 45.7185 969.374 49.0402 Q974.073 52.3215 974.073 59.127 Q974.073 65.9325 969.374 69.2543 Q964.716 72.576 956.047 72.576 L937.615 72.576 L937.615 27.2059 Z" fill="#000000" fill-rule="nonzero" fill-opacity="1" /><path clip-path="url(#clip690)" d="M1007.53 72.576 L1007.53 65.6895 Q1013.49 65.6895 1013.49 61.355 L1013.49 12.096 L1024.51 12.096 L1051.32 62.6918 L1051.32 23.317 Q1051.32 18.1318 1054.48 15.1342 Q1057.68 12.096 1065.22 12.096 L1065.22 18.9825 Q1059.26 18.9825 1059.26 23.317 L1059.26 72.576 L1048.25 72.576 L1021.43 21.9802 L1021.43 61.355 Q1021.43 66.5402 1018.23 69.5783 Q1015.07 72.576 1007.53 72.576 M1065.75 47.3794 Q1065.75 41.7891 1068.66 37.9408 Q1071.58 34.0519 1075.75 34.0519 Q1079.92 34.0519 1082.84 37.9408 Q1085.76 41.7891 1085.76 47.3794 Q1085.76 52.9696 1082.84 56.8585 Q1079.92 60.7069 1075.75 60.7069 Q1071.58 60.7069 1068.66 56.8585 Q1065.75 52.9696 1065.75 47.3794 M1071.42 47.3794 Q1071.42 50.5391 1072.55 52.6456 Q1073.73 54.7115 1075.75 54.7115 Q1077.78 54.7115 1078.91 52.6456 Q1080.09 50.5391 1080.09 47.3794 Q1080.09 44.2197 1078.91 42.1537 Q1077.78 40.0472 1075.75 40.0472 Q1073.73 40.0472 1072.55 42.1537 Q1071.42 44.2197 1071.42 47.3794 M1065.75 72.576 L1065.75 67.5934 L1085.76 67.5934 L1085.76 72.576 L1065.75 72.576 Z" fill="#000000" fill-rule="nonzero" fill-opacity="1" /><path clip-path="url(#clip690)" d="M1101.92 65.6895 L1115.29 65.6895 L1115.29 19.5497 L1100.74 22.4663 L1100.74 15.0127 L1115.21 12.096 L1123.39 12.096 L1123.39 65.6895 L1136.76 65.6895 L1136.76 72.576 L1101.92 72.576 L1101.92 65.6895 Z" fill="#000000" fill-rule="nonzero" fill-opacity="1" /><path clip-path="url(#clip690)" d="M1154.14 62.2867 L1162.68 62.2867 L1162.68 72.576 L1154.14 72.576 L1154.14 62.2867 M1154.14 29.6769 L1162.68 29.6769 L1162.68 39.9662 L1154.14 39.9662 L1154.14 29.6769 Z" fill="#000000" fill-rule="nonzero" fill-opacity="1" /><path clip-path="url(#clip690)" d="M1215.06 18.8205 L1215.06 41.5461 L1225.35 41.5461 Q1231.06 41.5461 1234.18 38.5889 Q1237.3 35.6318 1237.3 30.163 Q1237.3 24.7348 1234.18 21.7777 Q1231.06 18.8205 1225.35 18.8205 L1215.06 18.8205 M1206.88 12.096 L1225.35 12.096 Q1235.52 12.096 1240.7 16.714 Q1245.93 21.2916 1245.93 30.163 Q1245.93 39.1155 1240.7 43.6931 Q1235.52 48.2706 1225.35 48.2706 L1215.06 48.2706 L1215.06 72.576 L1206.88 72.576 L1206.88 12.096 Z" fill="#000000" fill-rule="nonzero" fill-opacity="1" /><path clip-path="url(#clip690)" d="M1295.39 48.0275 L1295.39 51.6733 L1261.12 51.6733 Q1261.61 59.3701 1265.74 63.421 Q1269.91 67.4314 1277.32 67.4314 Q1281.62 67.4314 1285.63 66.3781 Q1289.68 65.3249 1293.65 63.2184 L1293.65 70.267 Q1289.64 71.9684 1285.43 72.8596 Q1281.21 73.7508 1276.88 73.7508 Q1266.02 73.7508 1259.66 67.4314 Q1253.34 61.1119 1253.34 50.3365 Q1253.34 39.1965 1259.34 32.6746 Q1265.37 26.1121 1275.58 26.1121 Q1284.74 26.1121 1290.04 32.0264 Q1295.39 37.9003 1295.39 48.0275 M1287.94 45.84 Q1287.86 39.7232 1284.49 36.0774 Q1281.17 32.4315 1275.66 32.4315 Q1269.42 32.4315 1265.66 35.9558 Q1261.93 39.4801 1261.36 45.8805 L1287.94 45.84 Z" fill="#000000" fill-rule="nonzero" fill-opacity="1" /><path clip-path="url(#clip690)" d="M1307.34 72.576 L1307.34 27.2059 L1339.34 27.2059 L1339.34 33.1607 L1314.84 33.1607 L1314.84 72.576 L1307.34 72.576 Z" fill="#000000" fill-rule="nonzero" fill-opacity="1" /><path clip-path="url(#clip690)" d="M1370.09 76.7889 Q1366.93 84.8907 1363.93 87.3618 Q1360.93 89.8329 1355.91 89.8329 L1349.96 89.8329 L1349.96 83.5945 L1354.33 83.5945 Q1357.41 83.5945 1359.11 82.1361 Q1360.81 80.6778 1362.88 75.2496 L1364.22 71.8468 L1345.87 27.2059 L1353.76 27.2059 L1367.94 62.6918 L1382.12 27.2059 L1390.02 27.2059 L1370.09 76.7889 Z" fill="#000000" fill-rule="nonzero" fill-opacity="1" /><path clip-path="url(#clip690)" d="M1395.57 72.576 L1395.57 66.3781 Q1402.94 65.2439 1405.21 60.1397 Q1407.97 52.9696 1407.97 34.619 L1407.97 27.2059 L1438.63 27.2059 L1438.63 72.576 L1431.18 72.576 L1431.18 33.1607 L1415.42 33.1607 L1415.42 37.6572 Q1415.42 55.1571 1411.85 63.0159 Q1408.05 71.4012 1395.57 72.576 Z" fill="#000000" fill-rule="nonzero" fill-opacity="1" /><path clip-path="url(#clip690)" d="M1460.83 40.2903 Q1460.83 43.6525 1463.42 45.5565 Q1466.01 47.4604 1470.84 47.4604 L1480.88 47.4604 L1480.88 33.1607 L1470.84 33.1607 Q1466.01 33.1607 1463.42 35.0241 Q1460.83 36.8875 1460.83 40.2903 M1450.22 72.576 L1464.07 52.6861 Q1459.37 51.6328 1456.25 48.8782 Q1453.13 46.0831 1453.13 40.2903 Q1453.13 33.7278 1457.47 30.4871 Q1461.84 27.2059 1470.63 27.2059 L1488.38 27.2059 L1488.38 72.576 L1480.88 72.576 L1480.88 53.4152 L1471.61 53.4152 L1458.24 72.576 L1450.22 72.576 Z" fill="#000000" fill-rule="nonzero" fill-opacity="1" /><path clip-path="url(#clip690)" d="M1510.45 65.7705 L1510.45 89.8329 L1502.96 89.8329 L1502.96 27.2059 L1510.45 27.2059 L1510.45 34.0924 Q1512.8 30.0415 1516.37 28.0971 Q1519.97 26.1121 1524.96 26.1121 Q1533.22 26.1121 1538.36 32.6746 Q1543.55 39.2371 1543.55 49.9314 Q1543.55 60.6258 1538.36 67.1883 Q1533.22 73.7508 1524.96 73.7508 Q1519.97 73.7508 1516.37 71.8063 Q1512.8 69.8214 1510.45 65.7705 M1535.81 49.9314 Q1535.81 41.7081 1532.41 37.0496 Q1529.05 32.3505 1523.13 32.3505 Q1517.22 32.3505 1513.82 37.0496 Q1510.45 41.7081 1510.45 49.9314 Q1510.45 58.1548 1513.82 62.8538 Q1517.22 67.5124 1523.13 67.5124 Q1529.05 67.5124 1532.41 62.8538 Q1535.81 58.1548 1535.81 49.9314 Z" fill="#000000" fill-rule="nonzero" fill-opacity="1" /><path clip-path="url(#clip690)" d="M1555.62 27.2059 L1563.12 27.2059 L1563.12 45.7185 L1587.3 45.7185 L1587.3 27.2059 L1594.79 27.2059 L1594.79 72.576 L1587.3 72.576 L1587.3 51.6733 L1563.12 51.6733 L1563.12 72.576 L1555.62 72.576 L1555.62 27.2059 Z" fill="#000000" fill-rule="nonzero" fill-opacity="1" /><path clip-path="url(#clip690)" d="M1653 27.2059 L1660.46 27.2059 L1660.46 72.576 L1653 72.576 L1653 27.2059 M1656.73 26.1121 L1656.73 26.1121 M1638.38 59.127 Q1638.38 55.4812 1635.71 53.5773 Q1633.07 51.6733 1627.97 51.6733 L1617.36 51.6733 L1617.36 66.6212 L1627.97 66.6212 Q1633.07 66.6212 1635.71 64.7172 Q1638.38 62.7728 1638.38 59.127 M1609.86 27.2059 L1617.36 27.2059 L1617.36 45.7185 L1628.29 45.7185 Q1636.96 45.7185 1641.62 49.0402 Q1646.32 52.3215 1646.32 59.127 Q1646.32 65.9325 1641.62 69.2543 Q1636.96 72.576 1628.29 72.576 L1609.86 72.576 L1609.86 27.2059 Z" fill="#000000" fill-rule="nonzero" fill-opacity="1" /><path clip-path="url(#clip690)" d="M1714.46 48.0275 L1714.46 51.6733 L1680.19 51.6733 Q1680.67 59.3701 1684.8 63.421 Q1688.98 67.4314 1696.39 67.4314 Q1700.68 67.4314 1704.69 66.3781 Q1708.75 65.3249 1712.72 63.2184 L1712.72 70.267 Q1708.7 71.9684 1704.49 72.8596 Q1700.28 73.7508 1695.94 73.7508 Q1685.09 73.7508 1678.73 67.4314 Q1672.41 61.1119 1672.41 50.3365 Q1672.41 39.1965 1678.4 32.6746 Q1684.44 26.1121 1694.65 26.1121 Q1703.8 26.1121 1709.11 32.0264 Q1714.46 37.9003 1714.46 48.0275 M1707 45.84 Q1706.92 39.7232 1703.56 36.0774 Q1700.24 32.4315 1694.73 32.4315 Q1688.49 32.4315 1684.72 35.9558 Q1681 39.4801 1680.43 45.8805 L1707 45.84 Z" fill="#000000" fill-rule="nonzero" fill-opacity="1" /><path clip-path="url(#clip690)" d="M1760.23 51.6733 L1760.23 66.6212 L1770.85 66.6212 Q1775.95 66.6212 1778.62 64.7172 Q1781.3 62.7728 1781.3 59.127 Q1781.3 55.4812 1778.62 53.5773 Q1775.95 51.6733 1770.85 51.6733 L1760.23 51.6733 M1760.23 33.1607 L1760.23 45.7185 L1770.04 45.7185 Q1774.25 45.7185 1776.92 44.0576 Q1779.6 42.3563 1779.6 39.3586 Q1779.6 36.3609 1776.92 34.7811 Q1774.25 33.1607 1770.04 33.1607 L1760.23 33.1607 M1752.78 27.2059 L1770.52 27.2059 Q1778.5 27.2059 1782.8 30.1225 Q1787.09 33.0392 1787.09 38.4269 Q1787.09 42.5993 1784.9 45.0704 Q1782.71 47.5009 1778.42 48.1085 Q1783.57 49.0808 1786.4 52.1594 Q1789.24 55.2381 1789.24 59.8562 Q1789.24 65.9325 1784.54 69.2543 Q1779.88 72.576 1771.21 72.576 L1752.78 72.576 L1752.78 27.2059 Z" fill="#000000" fill-rule="nonzero" fill-opacity="1" /><path clip-path="url(#clip690)" d="M1819.54 32.4315 Q1813.54 32.4315 1810.06 37.1306 Q1806.57 41.7891 1806.57 49.9314 Q1806.57 58.0738 1810.02 62.7728 Q1813.5 67.4314 1819.54 67.4314 Q1825.49 67.4314 1828.98 62.7323 Q1832.46 58.0333 1832.46 49.9314 Q1832.46 41.8701 1828.98 37.1711 Q1825.49 32.4315 1819.54 32.4315 M1819.54 26.1121 Q1829.26 26.1121 1834.81 32.4315 Q1840.36 38.7509 1840.36 49.9314 Q1840.36 61.0714 1834.81 67.4314 Q1829.26 73.7508 1819.54 73.7508 Q1809.77 73.7508 1804.22 67.4314 Q1798.72 61.0714 1798.72 49.9314 Q1798.72 38.7509 1804.22 32.4315 Q1809.77 26.1121 1819.54 26.1121 Z" fill="#000000" fill-rule="nonzero" fill-opacity="1" /><path clip-path="url(#clip690)" d="M1891.28 27.2059 L1891.28 72.576 L1883.87 72.576 L1883.87 36.1584 L1861.99 72.576 L1852.43 72.576 L1852.43 27.2059 L1859.84 27.2059 L1859.84 63.5425 L1881.68 27.2059 L1891.28 27.2059 M1859.2 9.54393 L1863.98 9.54393 Q1864.42 12.5821 1866.37 14.1215 Q1868.35 15.6203 1871.88 15.6203 Q1875.36 15.6203 1877.3 14.1215 Q1879.25 12.6226 1879.77 9.54393 L1884.55 9.54393 Q1884.15 15.3367 1880.95 18.2534 Q1877.75 21.17 1871.88 21.17 Q1866 21.17 1862.8 18.2534 Q1859.6 15.3367 1859.2 9.54393 Z" fill="#000000" fill-rule="nonzero" fill-opacity="1" /><path clip-path="url(#clip690)" d="M1939.28 28.9478 L1939.28 35.9153 Q1936.12 34.1734 1932.92 33.3227 Q1929.76 32.4315 1926.52 32.4315 Q1919.27 32.4315 1915.26 37.0496 Q1911.25 41.6271 1911.25 49.9314 Q1911.25 58.2358 1915.26 62.8538 Q1919.27 67.4314 1926.52 67.4314 Q1929.76 67.4314 1932.92 66.5807 Q1936.12 65.6895 1939.28 63.9476 L1939.28 70.8341 Q1936.16 72.2924 1932.8 73.0216 Q1929.48 73.7508 1925.71 73.7508 Q1915.46 73.7508 1909.43 67.3098 Q1903.39 60.8689 1903.39 49.9314 Q1903.39 38.832 1909.47 32.472 Q1915.58 26.1121 1926.2 26.1121 Q1929.64 26.1121 1932.92 26.8413 Q1936.2 27.5299 1939.28 28.9478 Z" fill="#000000" fill-rule="nonzero" fill-opacity="1" /><path clip-path="url(#clip690)" d="M1951.96 27.2059 L1959.37 27.2059 L1959.37 48.5136 L1980.4 27.2059 L1989.55 27.2059 L1972.22 44.7463 L1991.78 72.576 L1983.44 72.576 L1967.35 49.6884 L1959.37 57.7902 L1959.37 72.576 L1951.96 72.576 L1951.96 27.2059 Z" fill="#000000" fill-rule="nonzero" fill-opacity="1" /><path clip-path="url(#clip690)" d="M2022.97 49.7694 Q2013.94 49.7694 2010.46 51.8354 Q2006.97 53.9013 2006.97 58.8839 Q2006.97 62.8538 2009.57 65.2034 Q2012.2 67.5124 2016.69 67.5124 Q2022.89 67.5124 2026.62 63.1374 Q2030.39 58.7219 2030.39 51.4303 L2030.39 49.7694 L2022.97 49.7694 M2037.84 46.6907 L2037.84 72.576 L2030.39 72.576 L2030.39 65.6895 Q2027.83 69.8214 2024.03 71.8063 Q2020.22 73.7508 2014.71 73.7508 Q2007.74 73.7508 2003.61 69.8619 Q1999.52 65.9325 1999.52 59.3701 Q1999.52 51.7138 2004.62 47.825 Q2009.77 43.9361 2019.94 43.9361 L2030.39 43.9361 L2030.39 43.2069 Q2030.39 38.0623 2026.98 35.2672 Q2023.62 32.4315 2017.51 32.4315 Q2013.62 32.4315 2009.93 33.3632 Q2006.24 34.295 2002.84 36.1584 L2002.84 29.2718 Q2006.93 27.692 2010.78 26.9223 Q2014.63 26.1121 2018.27 26.1121 Q2028.12 26.1121 2032.98 31.2163 Q2037.84 36.3204 2037.84 46.6907 Z" fill="#000000" fill-rule="nonzero" fill-opacity="1" /><polyline clip-path="url(#clip692)" style="stroke:#0000ff; stroke-linecap:round; stroke-linejoin:round; stroke-width:8; stroke-opacity:1; fill:none" points="339.542,160.256 352.963,170.867 366.384,181.362 379.806,191.742 393.227,202.01 406.649,212.165 420.07,222.209 433.492,232.143 446.913,241.969 460.334,251.687 473.756,261.299 487.177,270.805 500.599,280.207 514.02,289.506 527.442,298.703 540.863,307.798 554.284,316.794 567.706,325.69 581.127,334.488 594.549,343.19 607.97,351.795 621.392,360.305 634.813,368.721 648.234,377.044 661.656,385.275 675.077,393.415 688.499,401.464 701.92,409.424 715.342,417.295 728.763,425.079 742.184,432.777 755.606,440.388 769.027,447.915 782.449,455.357 795.87,462.717 809.292,469.994 822.713,477.19 836.134,484.305 849.556,491.34 862.977,498.296 876.399,505.175 889.82,511.975 903.242,518.699 916.663,525.348 930.084,531.921 943.506,538.42 956.927,544.845 970.349,551.197 983.77,557.478 997.192,563.687 1010.61,569.825 1024.03,575.894 1037.46,581.894 1050.88,587.825 1064.3,593.688 1077.72,599.484 1091.14,605.214 1104.56,610.878 1117.98,616.477 1131.41,622.012 1144.83,627.483 1158.25,632.891 1171.67,638.237 1185.09,643.521 1198.51,648.743 1211.93,653.905 1225.36,659.007 1238.78,664.05 1252.2,669.034 1265.62,673.96 1279.04,678.828 1292.46,683.64 1305.88,688.395 1319.31,693.094 1332.73,697.738 1346.15,702.327 1359.57,706.862 1372.99,711.343 1386.41,715.771 1399.83,720.147 1413.26,724.471 1426.68,728.743 1440.1,732.964 1453.52,737.135 1466.94,741.256 1480.36,745.327 1493.78,749.35 1507.21,753.324 1520.63,757.25 1534.05,761.128 1547.47,764.96 1560.89,768.745 1574.31,772.484 1587.73,776.178 1601.16,779.826 1614.58,783.429 1628,786.989 1641.42,790.504 1654.84,793.977 1668.26,797.406 1681.68,800.793 1695.11,804.138 1708.53,807.441 1721.95,810.703 1735.37,813.924 1748.79,817.105 1762.21,820.246 1775.63,823.347 1789.06,826.409 1802.48,829.432 1815.9,832.416 1829.32,835.363 1842.74,838.272 1856.16,841.143 1869.58,843.978 1883.01,846.776 1896.43,849.537 1909.85,852.263 1923.27,854.954 1936.69,857.609 1950.11,860.229 1963.53,862.815 1976.96,865.367 1990.38,867.885 2003.8,870.369 2017.22,872.821 2030.64,875.239 2044.06,877.625 2057.48,879.979 2070.91,882.301 2084.33,884.592 2097.75,886.851 2111.17,889.08 2124.59,891.278 2138.01,893.446 2151.43,895.583 2164.86,897.691 2178.28,899.77 2191.7,901.819 2205.12,903.84 2218.54,905.832 2231.96,907.795 2245.38,909.731 2258.81,911.639 2272.23,913.52 2285.65,915.373 2299.07,917.199 2312.49,918.999 2325.91,920.772 2339.33,922.519 2352.76,924.241 "/>
<polyline clip-path="url(#clip692)" style="stroke:#ff0000; stroke-linecap:round; stroke-linejoin:round; stroke-width:8; stroke-opacity:1; fill:none" points="339.542,548.233 352.963,558.778 366.384,569.217 379.806,579.553 393.227,589.786 406.649,599.916 420.07,609.946 433.492,619.876 446.913,629.707 460.334,639.44 473.756,649.077 487.177,658.617 500.599,668.063 514.02,677.416 527.442,686.675 540.863,695.843 554.284,704.92 567.706,713.908 581.127,722.806 594.549,731.616 607.97,740.34 621.392,748.977 634.813,757.529 648.234,765.996 661.656,774.381 675.077,782.682 688.499,790.902 701.92,799.041 715.342,807.1 728.763,815.08 742.184,822.982 755.606,830.806 769.027,838.554 782.449,846.225 795.87,853.822 809.292,861.344 822.713,868.793 836.134,876.17 849.556,883.474 862.977,890.707 876.399,897.87 889.82,904.963 903.242,911.987 916.663,918.942 930.084,925.831 943.506,932.652 956.927,939.408 970.349,946.097 983.77,952.723 997.192,959.284 1010.61,965.782 1024.03,972.217 1037.46,978.59 1050.88,984.902 1064.3,991.153 1077.72,997.344 1091.14,1003.48 1104.56,1009.55 1117.98,1015.56 1131.41,1021.52 1144.83,1027.42 1158.25,1033.26 1171.67,1039.05 1185.09,1044.79 1198.51,1050.46 1211.93,1056.09 1225.36,1061.66 1238.78,1067.18 1252.2,1072.64 1265.62,1078.06 1279.04,1083.42 1292.46,1088.73 1305.88,1094 1319.31,1099.21 1332.73,1104.37 1346.15,1109.49 1359.57,1114.56 1372.99,1119.58 1386.41,1124.55 1399.83,1129.47 1413.26,1134.35 1426.68,1139.19 1440.1,1143.98 1453.52,1148.72 1466.94,1153.43 1480.36,1158.08 1493.78,1162.7 1507.21,1167.27 1520.63,1171.8 1534.05,1176.29 1547.47,1180.73 1560.89,1185.14 1574.31,1189.5 1587.73,1193.83 1601.16,1198.11 1614.58,1202.36 1628,1206.57 1641.42,1210.74 1654.84,1214.87 1668.26,1218.96 1681.68,1223.02 1695.11,1227.04 1708.53,1231.03 1721.95,1234.97 1735.37,1238.89 1748.79,1242.77 1762.21,1246.61 1775.63,1250.42 1789.06,1254.19 1802.48,1257.93 1815.9,1261.64 1829.32,1265.31 1842.74,1268.96 1856.16,1272.57 1869.58,1276.14 1883.01,1279.69 1896.43,1283.21 1909.85,1286.69 1923.27,1290.14 1936.69,1293.57 1950.11,1296.96 1963.53,1300.33 1976.96,1303.66 1990.38,1306.97 2003.8,1310.25 2017.22,1313.5 2030.64,1316.72 2044.06,1319.91 2057.48,1323.08 2070.91,1326.22 2084.33,1329.33 2097.75,1332.42 2111.17,1335.48 2124.59,1338.51 2138.01,1341.52 2151.43,1344.5 2164.86,1347.46 2178.28,1350.39 2191.7,1353.3 2205.12,1356.19 2218.54,1359.05 2231.96,1361.89 2245.38,1364.7 2258.81,1367.49 2272.23,1370.26 2285.65,1373 2299.07,1375.72 2312.49,1378.43 2325.91,1381.1 2339.33,1383.76 2352.76,1386.4 "/>
<path clip-path="url(#clip690)" d="M1881.02 322.316 L2285.65 322.316 L2285.65 166.796 L1881.02 166.796  Z" fill="#ffffff" fill-rule="evenodd" fill-opacity="1"/>
<polyline clip-path="url(#clip690)" style="stroke:#000000; stroke-linecap:round; stroke-linejoin:round; stroke-width:4; stroke-opacity:1; fill:none" points="1881.02,322.316 2285.65,322.316 2285.65,166.796 1881.02,166.796 1881.02,322.316 "/>
<polyline clip-path="url(#clip690)" style="stroke:#0000ff; stroke-linecap:round; stroke-linejoin:round; stroke-width:8; stroke-opacity:1; fill:none" points="1903.39,218.636 2037.6,218.636 "/>
<path clip-path="url(#clip690)" d="M2075.8 205.962 L2069.46 223.161 L2082.17 223.161 L2075.8 205.962 M2073.16 201.356 L2078.47 201.356 L2091.64 235.916 L2086.78 235.916 L2083.63 227.05 L2068.05 227.05 L2064.9 235.916 L2059.97 235.916 L2073.16 201.356 Z" fill="#000000" fill-rule="nonzero" fill-opacity="1" /><path clip-path="url(#clip690)" d="M2100.62 232.027 L2100.62 245.777 L2096.34 245.777 L2096.34 209.99 L2100.62 209.99 L2100.62 213.925 Q2101.96 211.61 2104 210.499 Q2106.06 209.365 2108.91 209.365 Q2113.63 209.365 2116.57 213.115 Q2119.53 216.865 2119.53 222.976 Q2119.53 229.087 2116.57 232.837 Q2113.63 236.587 2108.91 236.587 Q2106.06 236.587 2104 235.476 Q2101.96 234.342 2100.62 232.027 M2115.11 222.976 Q2115.11 218.277 2113.16 215.615 Q2111.24 212.93 2107.86 212.93 Q2104.48 212.93 2102.54 215.615 Q2100.62 218.277 2100.62 222.976 Q2100.62 227.675 2102.54 230.36 Q2104.48 233.022 2107.86 233.022 Q2111.24 233.022 2113.16 230.36 Q2115.11 227.675 2115.11 222.976 Z" fill="#000000" fill-rule="nonzero" fill-opacity="1" /><path clip-path="url(#clip690)" d="M2126.43 209.99 L2132.66 209.99 L2140.02 227.351 L2147.4 209.99 L2153.58 209.99 L2153.58 235.916 L2149.3 235.916 L2149.3 214.064 L2142.15 230.939 L2137.89 230.939 L2130.71 214.064 L2130.71 235.916 L2126.43 235.916 L2126.43 209.99 Z" fill="#000000" fill-rule="nonzero" fill-opacity="1" /><path clip-path="url(#clip690)" d="M2184.39 209.99 L2184.39 235.916 L2180.16 235.916 L2180.16 215.106 L2167.66 235.916 L2162.19 235.916 L2162.19 209.99 L2166.43 209.99 L2166.43 230.754 L2178.91 209.99 L2184.39 209.99 Z" fill="#000000" fill-rule="nonzero" fill-opacity="1" /><path clip-path="url(#clip690)" d="M2197.45 217.467 Q2197.45 219.388 2198.93 220.476 Q2200.41 221.564 2203.16 221.564 L2208.91 221.564 L2208.91 213.393 L2203.16 213.393 Q2200.41 213.393 2198.93 214.457 Q2197.45 215.522 2197.45 217.467 M2191.38 235.916 L2199.3 224.55 Q2196.61 223.948 2194.83 222.374 Q2193.05 220.777 2193.05 217.467 Q2193.05 213.717 2195.53 211.865 Q2198.03 209.99 2203.05 209.99 L2213.19 209.99 L2213.19 235.916 L2208.91 235.916 L2208.91 224.967 L2203.6 224.967 L2195.97 235.916 L2191.38 235.916 Z" fill="#000000" fill-rule="nonzero" fill-opacity="1" /><path clip-path="url(#clip690)" d="M2235.27 201.356 L2240.29 201.356 L2248.88 214.203 L2257.52 201.356 L2262.54 201.356 L2251.43 217.953 L2263.28 235.916 L2258.26 235.916 L2248.53 221.217 L2238.74 235.916 L2233.7 235.916 L2246.03 217.467 L2235.27 201.356 Z" fill="#000000" fill-rule="nonzero" fill-opacity="1" /><polyline clip-path="url(#clip690)" style="stroke:#ff0000; stroke-linecap:round; stroke-linejoin:round; stroke-width:8; stroke-opacity:1; fill:none" points="1903.39,270.476 2037.6,270.476 "/>
<path clip-path="url(#clip690)" d="M2075.8 257.802 L2069.46 275.001 L2082.17 275.001 L2075.8 257.802 M2073.16 253.196 L2078.47 253.196 L2091.64 287.756 L2086.78 287.756 L2083.63 278.89 L2068.05 278.89 L2064.9 287.756 L2059.97 287.756 L2073.16 253.196 Z" fill="#000000" fill-rule="nonzero" fill-opacity="1" /><path clip-path="url(#clip690)" d="M2100.62 283.867 L2100.62 297.617 L2096.34 297.617 L2096.34 261.83 L2100.62 261.83 L2100.62 265.765 Q2101.96 263.45 2104 262.339 Q2106.06 261.205 2108.91 261.205 Q2113.63 261.205 2116.57 264.955 Q2119.53 268.705 2119.53 274.816 Q2119.53 280.927 2116.57 284.677 Q2113.63 288.427 2108.91 288.427 Q2106.06 288.427 2104 287.316 Q2101.96 286.182 2100.62 283.867 M2115.11 274.816 Q2115.11 270.117 2113.16 267.455 Q2111.24 264.77 2107.86 264.77 Q2104.48 264.77 2102.54 267.455 Q2100.62 270.117 2100.62 274.816 Q2100.62 279.515 2102.54 282.2 Q2104.48 284.862 2107.86 284.862 Q2111.24 284.862 2113.16 282.2 Q2115.11 279.515 2115.11 274.816 Z" fill="#000000" fill-rule="nonzero" fill-opacity="1" /><path clip-path="url(#clip690)" d="M2126.43 261.83 L2132.66 261.83 L2140.02 279.191 L2147.4 261.83 L2153.58 261.83 L2153.58 287.756 L2149.3 287.756 L2149.3 265.904 L2142.15 282.779 L2137.89 282.779 L2130.71 265.904 L2130.71 287.756 L2126.43 287.756 L2126.43 261.83 Z" fill="#000000" fill-rule="nonzero" fill-opacity="1" /><path clip-path="url(#clip690)" d="M2184.39 261.83 L2184.39 287.756 L2180.16 287.756 L2180.16 266.946 L2167.66 287.756 L2162.19 287.756 L2162.19 261.83 L2166.43 261.83 L2166.43 282.594 L2178.91 261.83 L2184.39 261.83 Z" fill="#000000" fill-rule="nonzero" fill-opacity="1" /><path clip-path="url(#clip690)" d="M2197.45 269.307 Q2197.45 271.228 2198.93 272.316 Q2200.41 273.404 2203.16 273.404 L2208.91 273.404 L2208.91 265.233 L2203.16 265.233 Q2200.41 265.233 2198.93 266.297 Q2197.45 267.362 2197.45 269.307 M2191.38 287.756 L2199.3 276.39 Q2196.61 275.788 2194.83 274.214 Q2193.05 272.617 2193.05 269.307 Q2193.05 265.557 2195.53 263.705 Q2198.03 261.83 2203.05 261.83 L2213.19 261.83 L2213.19 287.756 L2208.91 287.756 L2208.91 276.807 L2203.6 276.807 L2195.97 287.756 L2191.38 287.756 Z" fill="#000000" fill-rule="nonzero" fill-opacity="1" /><path clip-path="url(#clip690)" d="M2232.19 253.196 L2237.22 253.196 L2246.8 267.409 L2256.31 253.196 L2261.34 253.196 L2249.11 271.297 L2249.11 287.756 L2244.41 287.756 L2244.41 271.297 L2232.19 253.196 Z" fill="#000000" fill-rule="nonzero" fill-opacity="1" /></svg>
