<?xml version="1.0" encoding="utf-8"?>
<svg xmlns="http://www.w3.org/2000/svg" xmlns:xlink="http://www.w3.org/1999/xlink" width="960" height="672" viewBox="0 0 3840 2688">
<defs>
  <clipPath id="clip570">
    <rect x="0" y="0" width="3840" height="2688"/>
  </clipPath>
</defs>
<path clip-path="url(#clip570)" d="M0 2688 L3840 2688 L3840 0 L0 0  Z" fill="#ffffff" fill-rule="evenodd" fill-opacity="1"/>
<defs>
  <clipPath id="clip571">
    <rect x="2246" y="1059" width="1549" height="1483"/>
  </clipPath>
</defs>
<path clip-path="url(#clip570)" d="M386.479 2496.2 L3792.76 2496.2 L3792.76 126.496 L386.479 126.496  Z" fill="#ffffff" fill-rule="evenodd" fill-opacity="1"/>
<defs>
  <clipPath id="clip572">
    <rect x="386" y="126" width="3407" height="2371"/>
  </clipPath>
</defs>
<polyline clip-path="url(#clip572)" style="stroke:#000000; stroke-linecap:round; stroke-linejoin:round; stroke-width:2; stroke-opacity:0.1; fill:none" points="386.479,2496.2 386.479,126.496 "/>
<polyline clip-path="url(#clip572)" style="stroke:#000000; stroke-linecap:round; stroke-linejoin:round; stroke-width:2; stroke-opacity:0.1; fill:none" points="1067.73,2496.2 1067.73,126.496 "/>
<polyline clip-path="url(#clip572)" style="stroke:#000000; stroke-linecap:round; stroke-linejoin:round; stroke-width:2; stroke-opacity:0.1; fill:none" points="1748.99,2496.2 1748.99,126.496 "/>
<polyline clip-path="url(#clip572)" style="stroke:#000000; stroke-linecap:round; stroke-linejoin:round; stroke-width:2; stroke-opacity:0.1; fill:none" points="2430.25,2496.2 2430.25,126.496 "/>
<polyline clip-path="url(#clip572)" style="stroke:#000000; stroke-linecap:round; stroke-linejoin:round; stroke-width:2; stroke-opacity:0.1; fill:none" points="3111.5,2496.2 3111.5,126.496 "/>
<polyline clip-path="url(#clip572)" style="stroke:#000000; stroke-linecap:round; stroke-linejoin:round; stroke-width:2; stroke-opacity:0.1; fill:none" points="3792.76,2496.2 3792.76,126.496 "/>
<polyline clip-path="url(#clip572)" style="stroke:#000000; stroke-linecap:round; stroke-linejoin:round; stroke-width:2; stroke-opacity:0.1; fill:none" points="386.479,2354.62 3792.76,2354.62 "/>
<polyline clip-path="url(#clip572)" style="stroke:#000000; stroke-linecap:round; stroke-linejoin:round; stroke-width:2; stroke-opacity:0.1; fill:none" points="386.479,1814.36 3792.76,1814.36 "/>
<polyline clip-path="url(#clip572)" style="stroke:#000000; stroke-linecap:round; stroke-linejoin:round; stroke-width:2; stroke-opacity:0.1; fill:none" points="386.479,1274.09 3792.76,1274.09 "/>
<polyline clip-path="url(#clip572)" style="stroke:#000000; stroke-linecap:round; stroke-linejoin:round; stroke-width:2; stroke-opacity:0.1; fill:none" points="386.479,733.828 3792.76,733.828 "/>
<polyline clip-path="url(#clip572)" style="stroke:#000000; stroke-linecap:round; stroke-linejoin:round; stroke-width:2; stroke-opacity:0.1; fill:none" points="386.479,193.563 3792.76,193.563 "/>
<polyline clip-path="url(#clip570)" style="stroke:#000000; stroke-linecap:round; stroke-linejoin:round; stroke-width:4; stroke-opacity:1; fill:none" points="386.479,2496.2 3792.76,2496.2 "/>
<polyline clip-path="url(#clip570)" style="stroke:#000000; stroke-linecap:round; stroke-linejoin:round; stroke-width:4; stroke-opacity:1; fill:none" points="386.479,2496.2 386.479,2477.3 "/>
<polyline clip-path="url(#clip570)" style="stroke:#000000; stroke-linecap:round; stroke-linejoin:round; stroke-width:4; stroke-opacity:1; fill:none" points="1067.73,2496.2 1067.73,2477.3 "/>
<polyline clip-path="url(#clip570)" style="stroke:#000000; stroke-linecap:round; stroke-linejoin:round; stroke-width:4; stroke-opacity:1; fill:none" points="1748.99,2496.2 1748.99,2477.3 "/>
<polyline clip-path="url(#clip570)" style="stroke:#000000; stroke-linecap:round; stroke-linejoin:round; stroke-width:4; stroke-opacity:1; fill:none" points="2430.25,2496.2 2430.25,2477.3 "/>
<polyline clip-path="url(#clip570)" style="stroke:#000000; stroke-linecap:round; stroke-linejoin:round; stroke-width:4; stroke-opacity:1; fill:none" points="3111.5,2496.2 3111.5,2477.3 "/>
<polyline clip-path="url(#clip570)" style="stroke:#000000; stroke-linecap:round; stroke-linejoin:round; stroke-width:4; stroke-opacity:1; fill:none" points="3792.76,2496.2 3792.76,2477.3 "/>
<path clip-path="url(#clip570)" d="M363.864 2538.63 Q360.253 2538.63 358.424 2542.2 Q356.618 2545.74 356.618 2552.87 Q356.618 2559.98 358.424 2563.54 Q360.253 2567.08 363.864 2567.08 Q367.498 2567.08 369.304 2563.54 Q371.132 2559.98 371.132 2552.87 Q371.132 2545.74 369.304 2542.2 Q367.498 2538.63 363.864 2538.63 M363.864 2534.93 Q369.674 2534.93 372.729 2539.54 Q375.808 2544.12 375.808 2552.87 Q375.808 2561.6 372.729 2566.2 Q369.674 2570.79 363.864 2570.79 Q358.054 2570.79 354.975 2566.2 Q351.919 2561.6 351.919 2552.87 Q351.919 2544.12 354.975 2539.54 Q358.054 2534.93 363.864 2534.93 Z" fill="#000000" fill-rule="nonzero" fill-opacity="1" /><path clip-path="url(#clip570)" d="M384.026 2564.24 L388.91 2564.24 L388.91 2570.12 L384.026 2570.12 L384.026 2564.24 Z" fill="#000000" fill-rule="nonzero" fill-opacity="1" /><path clip-path="url(#clip570)" d="M409.095 2538.63 Q405.484 2538.63 403.655 2542.2 Q401.85 2545.74 401.85 2552.87 Q401.85 2559.98 403.655 2563.54 Q405.484 2567.08 409.095 2567.08 Q412.729 2567.08 414.535 2563.54 Q416.364 2559.98 416.364 2552.87 Q416.364 2545.74 414.535 2542.2 Q412.729 2538.63 409.095 2538.63 M409.095 2534.93 Q414.905 2534.93 417.961 2539.54 Q421.039 2544.12 421.039 2552.87 Q421.039 2561.6 417.961 2566.2 Q414.905 2570.79 409.095 2570.79 Q403.285 2570.79 400.206 2566.2 Q397.151 2561.6 397.151 2552.87 Q397.151 2544.12 400.206 2539.54 Q403.285 2534.93 409.095 2534.93 Z" fill="#000000" fill-rule="nonzero" fill-opacity="1" /><path clip-path="url(#clip570)" d="M1045.92 2538.63 Q1042.31 2538.63 1040.48 2542.2 Q1038.67 2545.74 1038.67 2552.87 Q1038.67 2559.98 1040.48 2563.54 Q1042.31 2567.08 1045.92 2567.08 Q1049.55 2567.08 1051.36 2563.54 Q1053.19 2559.98 1053.19 2552.87 Q1053.19 2545.74 1051.36 2542.2 Q1049.55 2538.63 1045.92 2538.63 M1045.92 2534.93 Q1051.73 2534.93 1054.78 2539.54 Q1057.86 2544.12 1057.86 2552.87 Q1057.86 2561.6 1054.78 2566.2 Q1051.73 2570.79 1045.92 2570.79 Q1040.11 2570.79 1037.03 2566.2 Q1033.97 2561.6 1033.97 2552.87 Q1033.97 2544.12 1037.03 2539.54 Q1040.11 2534.93 1045.92 2534.93 Z" fill="#000000" fill-rule="nonzero" fill-opacity="1" /><path clip-path="url(#clip570)" d="M1066.08 2564.24 L1070.96 2564.24 L1070.96 2570.12 L1066.08 2570.12 L1066.08 2564.24 Z" fill="#000000" fill-rule="nonzero" fill-opacity="1" /><path clip-path="url(#clip570)" d="M1085.18 2566.18 L1101.5 2566.18 L1101.5 2570.12 L1079.55 2570.12 L1079.55 2566.18 Q1082.21 2563.43 1086.8 2558.8 Q1091.4 2554.14 1092.58 2552.8 Q1094.83 2550.28 1095.71 2548.54 Q1096.61 2546.78 1096.61 2545.09 Q1096.61 2542.34 1094.67 2540.6 Q1092.75 2538.87 1089.64 2538.87 Q1087.45 2538.87 1084.99 2539.63 Q1082.56 2540.39 1079.78 2541.94 L1079.78 2537.22 Q1082.61 2536.09 1085.06 2535.51 Q1087.51 2534.93 1089.55 2534.93 Q1094.92 2534.93 1098.12 2537.62 Q1101.31 2540.3 1101.31 2544.79 Q1101.31 2546.92 1100.5 2548.84 Q1099.71 2550.74 1097.61 2553.33 Q1097.03 2554 1093.93 2557.22 Q1090.82 2560.42 1085.18 2566.18 Z" fill="#000000" fill-rule="nonzero" fill-opacity="1" /><path clip-path="url(#clip570)" d="M1726.13 2538.63 Q1722.52 2538.63 1720.69 2542.2 Q1718.89 2545.74 1718.89 2552.87 Q1718.89 2559.98 1720.69 2563.54 Q1722.52 2567.08 1726.13 2567.08 Q1729.77 2567.08 1731.57 2563.54 Q1733.4 2559.98 1733.4 2552.87 Q1733.4 2545.74 1731.57 2542.2 Q1729.77 2538.63 1726.13 2538.63 M1726.13 2534.93 Q1731.94 2534.93 1735 2539.54 Q1738.08 2544.12 1738.08 2552.87 Q1738.08 2561.6 1735 2566.2 Q1731.94 2570.79 1726.13 2570.79 Q1720.32 2570.79 1717.24 2566.2 Q1714.19 2561.6 1714.19 2552.87 Q1714.19 2544.12 1717.24 2539.54 Q1720.32 2534.93 1726.13 2534.93 Z" fill="#000000" fill-rule="nonzero" fill-opacity="1" /><path clip-path="url(#clip570)" d="M1746.29 2564.24 L1751.18 2564.24 L1751.18 2570.12 L1746.29 2570.12 L1746.29 2564.24 Z" fill="#000000" fill-rule="nonzero" fill-opacity="1" /><path clip-path="url(#clip570)" d="M1774.21 2539.63 L1762.4 2558.08 L1774.21 2558.08 L1774.21 2539.63 M1772.98 2535.56 L1778.86 2535.56 L1778.86 2558.08 L1783.79 2558.08 L1783.79 2561.97 L1778.86 2561.97 L1778.86 2570.12 L1774.21 2570.12 L1774.21 2561.97 L1758.61 2561.97 L1758.61 2557.45 L1772.98 2535.56 Z" fill="#000000" fill-rule="nonzero" fill-opacity="1" /><path clip-path="url(#clip570)" d="M2407.55 2538.63 Q2403.94 2538.63 2402.11 2542.2 Q2400.3 2545.74 2400.3 2552.87 Q2400.3 2559.98 2402.11 2563.54 Q2403.94 2567.08 2407.55 2567.08 Q2411.18 2567.08 2412.99 2563.54 Q2414.82 2559.98 2414.82 2552.87 Q2414.82 2545.74 2412.99 2542.2 Q2411.18 2538.63 2407.55 2538.63 M2407.55 2534.93 Q2413.36 2534.93 2416.41 2539.54 Q2419.49 2544.12 2419.49 2552.87 Q2419.49 2561.6 2416.41 2566.2 Q2413.36 2570.79 2407.55 2570.79 Q2401.74 2570.79 2398.66 2566.2 Q2395.6 2561.6 2395.6 2552.87 Q2395.6 2544.12 2398.66 2539.54 Q2401.74 2534.93 2407.55 2534.93 Z" fill="#000000" fill-rule="nonzero" fill-opacity="1" /><path clip-path="url(#clip570)" d="M2427.71 2564.24 L2432.59 2564.24 L2432.59 2570.12 L2427.71 2570.12 L2427.71 2564.24 Z" fill="#000000" fill-rule="nonzero" fill-opacity="1" /><path clip-path="url(#clip570)" d="M2453.36 2550.97 Q2450.21 2550.97 2448.36 2553.13 Q2446.53 2555.28 2446.53 2559.03 Q2446.53 2562.75 2448.36 2564.93 Q2450.21 2567.08 2453.36 2567.08 Q2456.51 2567.08 2458.34 2564.93 Q2460.19 2562.75 2460.19 2559.03 Q2460.19 2555.28 2458.34 2553.13 Q2456.51 2550.97 2453.36 2550.97 M2462.64 2536.32 L2462.64 2540.58 Q2460.88 2539.75 2459.08 2539.31 Q2457.29 2538.87 2455.53 2538.87 Q2450.9 2538.87 2448.45 2541.99 Q2446.02 2545.12 2445.67 2551.44 Q2447.04 2549.42 2449.1 2548.36 Q2451.16 2547.27 2453.64 2547.27 Q2458.84 2547.27 2461.85 2550.44 Q2464.89 2553.59 2464.89 2559.03 Q2464.89 2564.35 2461.74 2567.57 Q2458.59 2570.79 2453.36 2570.79 Q2447.36 2570.79 2444.19 2566.2 Q2441.02 2561.6 2441.02 2552.87 Q2441.02 2544.68 2444.91 2539.82 Q2448.8 2534.93 2455.35 2534.93 Q2457.11 2534.93 2458.89 2535.28 Q2460.7 2535.63 2462.64 2536.32 Z" fill="#000000" fill-rule="nonzero" fill-opacity="1" /><path clip-path="url(#clip570)" d="M3088.93 2538.63 Q3085.32 2538.63 3083.49 2542.2 Q3081.69 2545.74 3081.69 2552.87 Q3081.69 2559.98 3083.49 2563.54 Q3085.32 2567.08 3088.93 2567.08 Q3092.57 2567.08 3094.37 2563.54 Q3096.2 2559.98 3096.2 2552.87 Q3096.2 2545.74 3094.37 2542.2 Q3092.57 2538.63 3088.93 2538.63 M3088.93 2534.93 Q3094.74 2534.93 3097.8 2539.54 Q3100.88 2544.12 3100.88 2552.87 Q3100.88 2561.6 3097.8 2566.2 Q3094.74 2570.79 3088.93 2570.79 Q3083.12 2570.79 3080.04 2566.2 Q3076.99 2561.6 3076.99 2552.87 Q3076.99 2544.12 3080.04 2539.54 Q3083.12 2534.93 3088.93 2534.93 Z" fill="#000000" fill-rule="nonzero" fill-opacity="1" /><path clip-path="url(#clip570)" d="M3109.09 2564.24 L3113.98 2564.24 L3113.98 2570.12 L3109.09 2570.12 L3109.09 2564.24 Z" fill="#000000" fill-rule="nonzero" fill-opacity="1" /><path clip-path="url(#clip570)" d="M3134.16 2553.7 Q3130.83 2553.7 3128.91 2555.49 Q3127.01 2557.27 3127.01 2560.39 Q3127.01 2563.52 3128.91 2565.3 Q3130.83 2567.08 3134.16 2567.08 Q3137.5 2567.08 3139.42 2565.3 Q3141.34 2563.5 3141.34 2560.39 Q3141.34 2557.27 3139.42 2555.49 Q3137.52 2553.7 3134.16 2553.7 M3129.49 2551.71 Q3126.48 2550.97 3124.79 2548.91 Q3123.12 2546.85 3123.12 2543.89 Q3123.12 2539.75 3126.06 2537.34 Q3129.02 2534.93 3134.16 2534.93 Q3139.32 2534.93 3142.26 2537.34 Q3145.2 2539.75 3145.2 2543.89 Q3145.2 2546.85 3143.51 2548.91 Q3141.85 2550.97 3138.86 2551.71 Q3142.24 2552.5 3144.12 2554.79 Q3146.01 2557.08 3146.01 2560.39 Q3146.01 2565.42 3142.94 2568.1 Q3139.88 2570.79 3134.16 2570.79 Q3128.44 2570.79 3125.37 2568.1 Q3122.31 2565.42 3122.31 2560.39 Q3122.31 2557.08 3124.21 2554.79 Q3126.11 2552.5 3129.49 2551.71 M3127.77 2544.33 Q3127.77 2547.01 3129.44 2548.52 Q3131.13 2550.02 3134.16 2550.02 Q3137.17 2550.02 3138.86 2548.52 Q3140.57 2547.01 3140.57 2544.33 Q3140.57 2541.64 3138.86 2540.14 Q3137.17 2538.63 3134.16 2538.63 Q3131.13 2538.63 3129.44 2540.14 Q3127.77 2541.64 3127.77 2544.33 Z" fill="#000000" fill-rule="nonzero" fill-opacity="1" /><path clip-path="url(#clip570)" d="M3759.91 2566.18 L3767.55 2566.18 L3767.55 2539.82 L3759.24 2541.48 L3759.24 2537.22 L3767.5 2535.56 L3772.18 2535.56 L3772.18 2566.18 L3779.82 2566.18 L3779.82 2570.12 L3759.91 2570.12 L3759.91 2566.18 Z" fill="#000000" fill-rule="nonzero" fill-opacity="1" /><path clip-path="url(#clip570)" d="M3789.26 2564.24 L3794.14 2564.24 L3794.14 2570.12 L3789.26 2570.12 L3789.26 2564.24 Z" fill="#000000" fill-rule="nonzero" fill-opacity="1" /><path clip-path="url(#clip570)" d="M3814.33 2538.63 Q3810.72 2538.63 3808.89 2542.2 Q3807.08 2545.74 3807.08 2552.87 Q3807.08 2559.98 3808.89 2563.54 Q3810.72 2567.08 3814.33 2567.08 Q3817.96 2567.08 3819.77 2563.54 Q3821.6 2559.98 3821.6 2552.87 Q3821.6 2545.74 3819.77 2542.2 Q3817.96 2538.63 3814.33 2538.63 M3814.33 2534.93 Q3820.14 2534.93 3823.2 2539.54 Q3826.27 2544.12 3826.27 2552.87 Q3826.27 2561.6 3823.2 2566.2 Q3820.14 2570.79 3814.33 2570.79 Q3808.52 2570.79 3805.44 2566.2 Q3802.39 2561.6 3802.39 2552.87 Q3802.39 2544.12 3805.44 2539.54 Q3808.52 2534.93 3814.33 2534.93 Z" fill="#000000" fill-rule="nonzero" fill-opacity="1" /><path clip-path="url(#clip570)" d="M1994.72 2639.97 L1994.72 2657.38 L2005.03 2657.38 Q2010.22 2657.38 2012.7 2655.24 Q2015.22 2653.08 2015.22 2648.66 Q2015.22 2644.2 2012.7 2642.1 Q2010.22 2639.97 2005.03 2639.97 L1994.72 2639.97 M1994.72 2620.42 L1994.72 2634.75 L2004.24 2634.75 Q2008.95 2634.75 2011.24 2633 Q2013.56 2631.21 2013.56 2627.58 Q2013.56 2623.99 2011.24 2622.21 Q2008.95 2620.42 2004.24 2620.42 L1994.72 2620.42 M1988.29 2615.14 L2004.72 2615.14 Q2012.07 2615.14 2016.05 2618.2 Q2020.02 2621.25 2020.02 2626.88 Q2020.02 2631.25 2017.99 2633.82 Q2015.95 2636.4 2012 2637.04 Q2016.75 2638.06 2019.36 2641.3 Q2022 2644.52 2022 2649.36 Q2022 2655.72 2017.67 2659.19 Q2013.34 2662.66 2005.35 2662.66 L1988.29 2662.66 L1988.29 2615.14 Z" fill="#000000" fill-rule="nonzero" fill-opacity="1" /><path clip-path="url(#clip570)" d="M2038.42 2657.31 L2038.42 2676.22 L2032.53 2676.22 L2032.53 2627.01 L2038.42 2627.01 L2038.42 2632.42 Q2040.27 2629.24 2043.07 2627.71 Q2045.9 2626.15 2049.82 2626.15 Q2056.31 2626.15 2060.35 2631.31 Q2064.43 2636.46 2064.43 2644.87 Q2064.43 2653.27 2060.35 2658.43 Q2056.31 2663.58 2049.82 2663.58 Q2045.9 2663.58 2043.07 2662.06 Q2040.27 2660.5 2038.42 2657.31 M2058.35 2644.87 Q2058.35 2638.41 2055.67 2634.75 Q2053.03 2631.05 2048.38 2631.05 Q2043.74 2631.05 2041.06 2634.75 Q2038.42 2638.41 2038.42 2644.87 Q2038.42 2651.33 2041.06 2655.02 Q2043.74 2658.68 2048.38 2658.68 Q2053.03 2658.68 2055.67 2655.02 Q2058.35 2651.33 2058.35 2644.87 Z" fill="#000000" fill-rule="nonzero" fill-opacity="1" /><path clip-path="url(#clip570)" d="M2104.62 2643.37 L2104.62 2646.24 L2077.7 2646.24 Q2078.08 2652.28 2081.33 2655.47 Q2084.6 2658.62 2090.43 2658.62 Q2093.8 2658.62 2096.95 2657.79 Q2100.14 2656.96 2103.26 2655.31 L2103.26 2660.85 Q2100.11 2662.18 2096.8 2662.88 Q2093.48 2663.58 2090.08 2663.58 Q2081.55 2663.58 2076.55 2658.62 Q2071.59 2653.65 2071.59 2645.19 Q2071.59 2636.43 2076.3 2631.31 Q2081.04 2626.15 2089.06 2626.15 Q2096.25 2626.15 2100.42 2630.8 Q2104.62 2635.41 2104.62 2643.37 M2098.77 2641.65 Q2098.7 2636.85 2096.06 2633.98 Q2093.45 2631.12 2089.12 2631.12 Q2084.22 2631.12 2081.26 2633.89 Q2078.33 2636.66 2077.89 2641.68 L2098.77 2641.65 Z" fill="#000000" fill-rule="nonzero" fill-opacity="1" /><path clip-path="url(#clip570)" d="M2114.01 2627.01 L2122.58 2627.01 L2132.7 2650.88 L2142.85 2627.01 L2151.35 2627.01 L2151.35 2662.66 L2145.46 2662.66 L2145.46 2632.61 L2135.63 2655.82 L2129.77 2655.82 L2119.9 2632.61 L2119.9 2662.66 L2114.01 2662.66 L2114.01 2627.01 Z" fill="#000000" fill-rule="nonzero" fill-opacity="1" /><path clip-path="url(#clip570)" d="M2169.3 2637.29 Q2169.3 2639.93 2171.34 2641.43 Q2173.37 2642.93 2177.16 2642.93 L2185.06 2642.93 L2185.06 2631.69 L2177.16 2631.69 Q2173.37 2631.69 2171.34 2633.15 Q2169.3 2634.62 2169.3 2637.29 M2160.96 2662.66 L2171.85 2647.03 Q2168.15 2646.2 2165.7 2644.04 Q2163.25 2641.84 2163.25 2637.29 Q2163.25 2632.14 2166.66 2629.59 Q2170.1 2627.01 2177 2627.01 L2190.94 2627.01 L2190.94 2662.66 L2185.06 2662.66 L2185.06 2647.6 L2177.77 2647.6 L2167.26 2662.66 L2160.96 2662.66 Z" fill="#000000" fill-rule="nonzero" fill-opacity="1" /><polyline clip-path="url(#clip570)" style="stroke:#000000; stroke-linecap:round; stroke-linejoin:round; stroke-width:4; stroke-opacity:1; fill:none" points="386.479,2496.2 386.479,126.496 "/>
<polyline clip-path="url(#clip570)" style="stroke:#000000; stroke-linecap:round; stroke-linejoin:round; stroke-width:4; stroke-opacity:1; fill:none" points="386.479,2354.62 405.377,2354.62 "/>
<polyline clip-path="url(#clip570)" style="stroke:#000000; stroke-linecap:round; stroke-linejoin:round; stroke-width:4; stroke-opacity:1; fill:none" points="386.479,1814.36 405.377,1814.36 "/>
<polyline clip-path="url(#clip570)" style="stroke:#000000; stroke-linecap:round; stroke-linejoin:round; stroke-width:4; stroke-opacity:1; fill:none" points="386.479,1274.09 405.377,1274.09 "/>
<polyline clip-path="url(#clip570)" style="stroke:#000000; stroke-linecap:round; stroke-linejoin:round; stroke-width:4; stroke-opacity:1; fill:none" points="386.479,733.828 405.377,733.828 "/>
<polyline clip-path="url(#clip570)" style="stroke:#000000; stroke-linecap:round; stroke-linejoin:round; stroke-width:4; stroke-opacity:1; fill:none" points="386.479,193.563 405.377,193.563 "/>
<path clip-path="url(#clip570)" d="M316.935 2340.42 Q313.324 2340.42 311.495 2343.99 Q309.69 2347.53 309.69 2354.66 Q309.69 2361.76 311.495 2365.33 Q313.324 2368.87 316.935 2368.87 Q320.569 2368.87 322.375 2365.33 Q324.204 2361.76 324.204 2354.66 Q324.204 2347.53 322.375 2343.99 Q320.569 2340.42 316.935 2340.42 M316.935 2336.72 Q322.745 2336.72 325.801 2341.32 Q328.879 2345.91 328.879 2354.66 Q328.879 2363.38 325.801 2367.99 Q322.745 2372.57 316.935 2372.57 Q311.125 2372.57 308.046 2367.99 Q304.991 2363.38 304.991 2354.66 Q304.991 2345.91 308.046 2341.32 Q311.125 2336.72 316.935 2336.72 Z" fill="#000000" fill-rule="nonzero" fill-opacity="1" /><path clip-path="url(#clip570)" d="M113.054 1803.52 L131.411 1803.52 L131.411 1807.46 L117.337 1807.46 L117.337 1815.93 Q118.355 1815.58 119.374 1815.42 Q120.392 1815.24 121.411 1815.24 Q127.198 1815.24 130.578 1818.41 Q133.957 1821.58 133.957 1827 Q133.957 1832.58 130.485 1835.68 Q127.013 1838.76 120.693 1838.76 Q118.517 1838.76 116.249 1838.39 Q114.004 1838.02 111.596 1837.27 L111.596 1832.58 Q113.679 1833.71 115.902 1834.27 Q118.124 1834.82 120.601 1834.82 Q124.605 1834.82 126.943 1832.71 Q129.281 1830.61 129.281 1827 Q129.281 1823.39 126.943 1821.28 Q124.605 1819.17 120.601 1819.17 Q118.726 1819.17 116.851 1819.59 Q114.999 1820.01 113.054 1820.89 L113.054 1803.52 Z" fill="#000000" fill-rule="nonzero" fill-opacity="1" /><path clip-path="url(#clip570)" d="M143.17 1832.21 L148.054 1832.21 L148.054 1838.08 L143.17 1838.08 L143.17 1832.21 Z" fill="#000000" fill-rule="nonzero" fill-opacity="1" /><path clip-path="url(#clip570)" d="M168.239 1806.6 Q164.628 1806.6 162.8 1810.17 Q160.994 1813.71 160.994 1820.84 Q160.994 1827.95 162.8 1831.51 Q164.628 1835.05 168.239 1835.05 Q171.874 1835.05 173.679 1831.51 Q175.508 1827.95 175.508 1820.84 Q175.508 1813.71 173.679 1810.17 Q171.874 1806.6 168.239 1806.6 M168.239 1802.9 Q174.05 1802.9 177.105 1807.51 Q180.184 1812.09 180.184 1820.84 Q180.184 1829.57 177.105 1834.17 Q174.05 1838.76 168.239 1838.76 Q162.429 1838.76 159.351 1834.17 Q156.295 1829.57 156.295 1820.84 Q156.295 1812.09 159.351 1807.51 Q162.429 1802.9 168.239 1802.9 Z" fill="#000000" fill-rule="nonzero" fill-opacity="1" /><path clip-path="url(#clip570)" d="M198.401 1806.6 Q194.79 1806.6 192.961 1810.17 Q191.156 1813.71 191.156 1820.84 Q191.156 1827.95 192.961 1831.51 Q194.79 1835.05 198.401 1835.05 Q202.035 1835.05 203.841 1831.51 Q205.67 1827.95 205.67 1820.84 Q205.67 1813.71 203.841 1810.17 Q202.035 1806.6 198.401 1806.6 M198.401 1802.9 Q204.211 1802.9 207.267 1807.51 Q210.346 1812.09 210.346 1820.84 Q210.346 1829.57 207.267 1834.17 Q204.211 1838.76 198.401 1838.76 Q192.591 1838.76 189.512 1834.17 Q186.457 1829.57 186.457 1820.84 Q186.457 1812.09 189.512 1807.51 Q192.591 1802.9 198.401 1802.9 Z" fill="#000000" fill-rule="nonzero" fill-opacity="1" /><path clip-path="url(#clip570)" d="M246.734 1812.62 L236.156 1823.25 L246.734 1833.83 L243.98 1836.63 L233.355 1826 L222.73 1836.63 L219.998 1833.83 L230.554 1823.25 L219.998 1812.62 L222.73 1809.82 L233.355 1820.45 L243.98 1809.82 L246.734 1812.62 Z" fill="#000000" fill-rule="nonzero" fill-opacity="1" /><path clip-path="url(#clip570)" d="M259.095 1834.15 L266.734 1834.15 L266.734 1807.78 L258.424 1809.45 L258.424 1805.19 L266.688 1803.52 L271.364 1803.52 L271.364 1834.15 L279.003 1834.15 L279.003 1838.08 L259.095 1838.08 L259.095 1834.15 Z" fill="#000000" fill-rule="nonzero" fill-opacity="1" /><path clip-path="url(#clip570)" d="M298.447 1806.6 Q294.836 1806.6 293.007 1810.17 Q291.202 1813.71 291.202 1820.84 Q291.202 1827.95 293.007 1831.51 Q294.836 1835.05 298.447 1835.05 Q302.081 1835.05 303.887 1831.51 Q305.715 1827.95 305.715 1820.84 Q305.715 1813.71 303.887 1810.17 Q302.081 1806.6 298.447 1806.6 M298.447 1802.9 Q304.257 1802.9 307.313 1807.51 Q310.391 1812.09 310.391 1820.84 Q310.391 1829.57 307.313 1834.17 Q304.257 1838.76 298.447 1838.76 Q292.637 1838.76 289.558 1834.17 Q286.503 1829.57 286.503 1820.84 Q286.503 1812.09 289.558 1807.51 Q292.637 1802.9 298.447 1802.9 Z" fill="#000000" fill-rule="nonzero" fill-opacity="1" /><path clip-path="url(#clip570)" d="M323.087 1795.53 Q325.814 1796.12 327.337 1797.96 Q328.879 1799.8 328.879 1802.51 Q328.879 1806.67 326.021 1808.94 Q323.162 1811.22 317.896 1811.22 Q316.128 1811.22 314.247 1810.86 Q312.385 1810.52 310.391 1809.83 L310.391 1806.16 Q311.971 1807.08 313.852 1807.55 Q315.733 1808.02 317.783 1808.02 Q321.356 1808.02 323.218 1806.61 Q325.099 1805.2 325.099 1802.51 Q325.099 1800.03 323.35 1798.64 Q321.62 1797.23 318.516 1797.23 L315.244 1797.23 L315.244 1794.1 L318.667 1794.1 Q321.469 1794.1 322.955 1792.99 Q324.441 1791.87 324.441 1789.76 Q324.441 1787.6 322.899 1786.45 Q321.375 1785.28 318.516 1785.28 Q316.955 1785.28 315.169 1785.62 Q313.382 1785.96 311.238 1786.68 L311.238 1783.29 Q313.401 1782.69 315.281 1782.39 Q317.181 1782.09 318.855 1782.09 Q323.181 1782.09 325.701 1784.06 Q328.221 1786.02 328.221 1789.37 Q328.221 1791.7 326.886 1793.31 Q325.55 1794.91 323.087 1795.53 Z" fill="#000000" fill-rule="nonzero" fill-opacity="1" /><path clip-path="url(#clip570)" d="M111.844 1293.88 L119.482 1293.88 L119.482 1267.52 L111.172 1269.19 L111.172 1264.93 L119.436 1263.26 L124.112 1263.26 L124.112 1293.88 L131.751 1293.88 L131.751 1297.82 L111.844 1297.82 L111.844 1293.88 Z" fill="#000000" fill-rule="nonzero" fill-opacity="1" /><path clip-path="url(#clip570)" d="M141.195 1291.94 L146.079 1291.94 L146.079 1297.82 L141.195 1297.82 L141.195 1291.94 Z" fill="#000000" fill-rule="nonzero" fill-opacity="1" /><path clip-path="url(#clip570)" d="M166.265 1266.34 Q162.653 1266.34 160.825 1269.9 Q159.019 1273.45 159.019 1280.57 Q159.019 1287.68 160.825 1291.25 Q162.653 1294.79 166.265 1294.79 Q169.899 1294.79 171.704 1291.25 Q173.533 1287.68 173.533 1280.57 Q173.533 1273.45 171.704 1269.9 Q169.899 1266.34 166.265 1266.34 M166.265 1262.64 Q172.075 1262.64 175.13 1267.24 Q178.209 1271.82 178.209 1280.57 Q178.209 1289.3 175.13 1293.91 Q172.075 1298.49 166.265 1298.49 Q160.454 1298.49 157.376 1293.91 Q154.32 1289.3 154.32 1280.57 Q154.32 1271.82 157.376 1267.24 Q160.454 1262.64 166.265 1262.64 Z" fill="#000000" fill-rule="nonzero" fill-opacity="1" /><path clip-path="url(#clip570)" d="M196.426 1266.34 Q192.815 1266.34 190.987 1269.9 Q189.181 1273.45 189.181 1280.57 Q189.181 1287.68 190.987 1291.25 Q192.815 1294.79 196.426 1294.79 Q200.061 1294.79 201.866 1291.25 Q203.695 1287.68 203.695 1280.57 Q203.695 1273.45 201.866 1269.9 Q200.061 1266.34 196.426 1266.34 M196.426 1262.64 Q202.237 1262.64 205.292 1267.24 Q208.371 1271.82 208.371 1280.57 Q208.371 1289.3 205.292 1293.91 Q202.237 1298.49 196.426 1298.49 Q190.616 1298.49 187.538 1293.91 Q184.482 1289.3 184.482 1280.57 Q184.482 1271.82 187.538 1267.24 Q190.616 1262.64 196.426 1262.64 Z" fill="#000000" fill-rule="nonzero" fill-opacity="1" /><path clip-path="url(#clip570)" d="M244.76 1272.36 L234.181 1282.98 L244.76 1293.56 L242.005 1296.36 L231.38 1285.74 L220.755 1296.36 L218.024 1293.56 L228.579 1282.98 L218.024 1272.36 L220.755 1269.56 L231.38 1280.18 L242.005 1269.56 L244.76 1272.36 Z" fill="#000000" fill-rule="nonzero" fill-opacity="1" /><path clip-path="url(#clip570)" d="M257.121 1293.88 L264.759 1293.88 L264.759 1267.52 L256.449 1269.19 L256.449 1264.93 L264.713 1263.26 L269.389 1263.26 L269.389 1293.88 L277.028 1293.88 L277.028 1297.82 L257.121 1297.82 L257.121 1293.88 Z" fill="#000000" fill-rule="nonzero" fill-opacity="1" /><path clip-path="url(#clip570)" d="M296.472 1266.34 Q292.861 1266.34 291.032 1269.9 Q289.227 1273.45 289.227 1280.57 Q289.227 1287.68 291.032 1291.25 Q292.861 1294.79 296.472 1294.79 Q300.106 1294.79 301.912 1291.25 Q303.741 1287.68 303.741 1280.57 Q303.741 1273.45 301.912 1269.9 Q300.106 1266.34 296.472 1266.34 M296.472 1262.64 Q302.282 1262.64 305.338 1267.24 Q308.417 1271.82 308.417 1280.57 Q308.417 1289.3 305.338 1293.91 Q302.282 1298.49 296.472 1298.49 Q290.662 1298.49 287.583 1293.91 Q284.528 1289.3 284.528 1280.57 Q284.528 1271.82 287.583 1267.24 Q290.662 1262.64 296.472 1262.64 Z" fill="#000000" fill-rule="nonzero" fill-opacity="1" /><path clip-path="url(#clip570)" d="M321.093 1245.64 L311.501 1260.63 L321.093 1260.63 L321.093 1245.64 M320.096 1242.33 L324.873 1242.33 L324.873 1260.63 L328.879 1260.63 L328.879 1263.79 L324.873 1263.79 L324.873 1270.41 L321.093 1270.41 L321.093 1263.79 L308.417 1263.79 L308.417 1260.12 L320.096 1242.33 Z" fill="#000000" fill-rule="nonzero" fill-opacity="1" /><path clip-path="url(#clip570)" d="M111.844 753.62 L119.482 753.62 L119.482 727.255 L111.172 728.921 L111.172 724.662 L119.436 722.995 L124.112 722.995 L124.112 753.62 L131.751 753.62 L131.751 757.555 L111.844 757.555 L111.844 753.62 Z" fill="#000000" fill-rule="nonzero" fill-opacity="1" /><path clip-path="url(#clip570)" d="M141.195 751.676 L146.079 751.676 L146.079 757.555 L141.195 757.555 L141.195 751.676 Z" fill="#000000" fill-rule="nonzero" fill-opacity="1" /><path clip-path="url(#clip570)" d="M156.311 722.995 L174.667 722.995 L174.667 726.931 L160.593 726.931 L160.593 735.403 Q161.612 735.055 162.63 734.893 Q163.649 734.708 164.667 734.708 Q170.454 734.708 173.834 737.88 Q177.214 741.051 177.214 746.467 Q177.214 752.046 173.741 755.148 Q170.269 758.227 163.95 758.227 Q161.774 758.227 159.505 757.856 Q157.26 757.486 154.853 756.745 L154.853 752.046 Q156.936 753.18 159.158 753.736 Q161.38 754.291 163.857 754.291 Q167.862 754.291 170.2 752.185 Q172.538 750.079 172.538 746.467 Q172.538 742.856 170.2 740.75 Q167.862 738.643 163.857 738.643 Q161.982 738.643 160.107 739.06 Q158.255 739.477 156.311 740.356 L156.311 722.995 Z" fill="#000000" fill-rule="nonzero" fill-opacity="1" /><path clip-path="url(#clip570)" d="M196.426 726.074 Q192.815 726.074 190.987 729.639 Q189.181 733.18 189.181 740.31 Q189.181 747.417 190.987 750.981 Q192.815 754.523 196.426 754.523 Q200.061 754.523 201.866 750.981 Q203.695 747.417 203.695 740.31 Q203.695 733.18 201.866 729.639 Q200.061 726.074 196.426 726.074 M196.426 722.37 Q202.237 722.37 205.292 726.977 Q208.371 731.56 208.371 740.31 Q208.371 749.037 205.292 753.643 Q202.237 758.227 196.426 758.227 Q190.616 758.227 187.538 753.643 Q184.482 749.037 184.482 740.31 Q184.482 731.56 187.538 726.977 Q190.616 722.37 196.426 722.37 Z" fill="#000000" fill-rule="nonzero" fill-opacity="1" /><path clip-path="url(#clip570)" d="M244.76 732.093 L234.181 742.717 L244.76 753.296 L242.005 756.097 L231.38 745.472 L220.755 756.097 L218.024 753.296 L228.579 742.717 L218.024 732.093 L220.755 729.292 L231.38 739.917 L242.005 729.292 L244.76 732.093 Z" fill="#000000" fill-rule="nonzero" fill-opacity="1" /><path clip-path="url(#clip570)" d="M257.121 753.62 L264.759 753.62 L264.759 727.255 L256.449 728.921 L256.449 724.662 L264.713 722.995 L269.389 722.995 L269.389 753.62 L277.028 753.62 L277.028 757.555 L257.121 757.555 L257.121 753.62 Z" fill="#000000" fill-rule="nonzero" fill-opacity="1" /><path clip-path="url(#clip570)" d="M296.472 726.074 Q292.861 726.074 291.032 729.639 Q289.227 733.18 289.227 740.31 Q289.227 747.417 291.032 750.981 Q292.861 754.523 296.472 754.523 Q300.106 754.523 301.912 750.981 Q303.741 747.417 303.741 740.31 Q303.741 733.18 301.912 729.639 Q300.106 726.074 296.472 726.074 M296.472 722.37 Q302.282 722.37 305.338 726.977 Q308.417 731.56 308.417 740.31 Q308.417 749.037 305.338 753.643 Q302.282 758.227 296.472 758.227 Q290.662 758.227 287.583 753.643 Q284.528 749.037 284.528 740.31 Q284.528 731.56 287.583 726.977 Q290.662 722.37 296.472 722.37 Z" fill="#000000" fill-rule="nonzero" fill-opacity="1" /><path clip-path="url(#clip570)" d="M321.093 705.375 L311.501 720.365 L321.093 720.365 L321.093 705.375 M320.096 702.065 L324.873 702.065 L324.873 720.365 L328.879 720.365 L328.879 723.525 L324.873 723.525 L324.873 730.145 L321.093 730.145 L321.093 723.525 L308.417 723.525 L308.417 719.857 L320.096 702.065 Z" fill="#000000" fill-rule="nonzero" fill-opacity="1" /><path clip-path="url(#clip570)" d="M115.061 213.356 L131.38 213.356 L131.38 217.291 L109.436 217.291 L109.436 213.356 Q112.098 210.601 116.681 205.971 Q121.288 201.319 122.468 199.976 Q124.714 197.453 125.593 195.717 Q126.496 193.957 126.496 192.268 Q126.496 189.513 124.552 187.777 Q122.631 186.041 119.529 186.041 Q117.33 186.041 114.876 186.805 Q112.445 187.569 109.668 189.12 L109.668 184.397 Q112.492 183.263 114.945 182.684 Q117.399 182.106 119.436 182.106 Q124.806 182.106 128.001 184.791 Q131.195 187.476 131.195 191.967 Q131.195 194.096 130.385 196.018 Q129.598 197.916 127.492 200.508 Q126.913 201.18 123.811 204.397 Q120.709 207.592 115.061 213.356 Z" fill="#000000" fill-rule="nonzero" fill-opacity="1" /><path clip-path="url(#clip570)" d="M141.195 211.411 L146.079 211.411 L146.079 217.291 L141.195 217.291 L141.195 211.411 Z" fill="#000000" fill-rule="nonzero" fill-opacity="1" /><path clip-path="url(#clip570)" d="M166.265 185.809 Q162.653 185.809 160.825 189.374 Q159.019 192.916 159.019 200.045 Q159.019 207.152 160.825 210.717 Q162.653 214.258 166.265 214.258 Q169.899 214.258 171.704 210.717 Q173.533 207.152 173.533 200.045 Q173.533 192.916 171.704 189.374 Q169.899 185.809 166.265 185.809 M166.265 182.106 Q172.075 182.106 175.13 186.712 Q178.209 191.295 178.209 200.045 Q178.209 208.772 175.13 213.379 Q172.075 217.962 166.265 217.962 Q160.454 217.962 157.376 213.379 Q154.32 208.772 154.32 200.045 Q154.32 191.295 157.376 186.712 Q160.454 182.106 166.265 182.106 Z" fill="#000000" fill-rule="nonzero" fill-opacity="1" /><path clip-path="url(#clip570)" d="M196.426 185.809 Q192.815 185.809 190.987 189.374 Q189.181 192.916 189.181 200.045 Q189.181 207.152 190.987 210.717 Q192.815 214.258 196.426 214.258 Q200.061 214.258 201.866 210.717 Q203.695 207.152 203.695 200.045 Q203.695 192.916 201.866 189.374 Q200.061 185.809 196.426 185.809 M196.426 182.106 Q202.237 182.106 205.292 186.712 Q208.371 191.295 208.371 200.045 Q208.371 208.772 205.292 213.379 Q202.237 217.962 196.426 217.962 Q190.616 217.962 187.538 213.379 Q184.482 208.772 184.482 200.045 Q184.482 191.295 187.538 186.712 Q190.616 182.106 196.426 182.106 Z" fill="#000000" fill-rule="nonzero" fill-opacity="1" /><path clip-path="url(#clip570)" d="M244.76 191.828 L234.181 202.453 L244.76 213.031 L242.005 215.832 L231.38 205.207 L220.755 215.832 L218.024 213.031 L228.579 202.453 L218.024 191.828 L220.755 189.027 L231.38 199.652 L242.005 189.027 L244.76 191.828 Z" fill="#000000" fill-rule="nonzero" fill-opacity="1" /><path clip-path="url(#clip570)" d="M257.121 213.356 L264.759 213.356 L264.759 186.99 L256.449 188.657 L256.449 184.397 L264.713 182.731 L269.389 182.731 L269.389 213.356 L277.028 213.356 L277.028 217.291 L257.121 217.291 L257.121 213.356 Z" fill="#000000" fill-rule="nonzero" fill-opacity="1" /><path clip-path="url(#clip570)" d="M296.472 185.809 Q292.861 185.809 291.032 189.374 Q289.227 192.916 289.227 200.045 Q289.227 207.152 291.032 210.717 Q292.861 214.258 296.472 214.258 Q300.106 214.258 301.912 210.717 Q303.741 207.152 303.741 200.045 Q303.741 192.916 301.912 189.374 Q300.106 185.809 296.472 185.809 M296.472 182.106 Q302.282 182.106 305.338 186.712 Q308.417 191.295 308.417 200.045 Q308.417 208.772 305.338 213.379 Q302.282 217.962 296.472 217.962 Q290.662 217.962 287.583 213.379 Q284.528 208.772 284.528 200.045 Q284.528 191.295 287.583 186.712 Q290.662 182.106 296.472 182.106 Z" fill="#000000" fill-rule="nonzero" fill-opacity="1" /><path clip-path="url(#clip570)" d="M321.093 165.11 L311.501 180.1 L321.093 180.1 L321.093 165.11 M320.096 161.8 L324.873 161.8 L324.873 180.1 L328.879 180.1 L328.879 183.26 L324.873 183.26 L324.873 189.88 L321.093 189.88 L321.093 183.26 L308.417 183.26 L308.417 179.592 L320.096 161.8 Z" fill="#000000" fill-rule="nonzero" fill-opacity="1" /><path clip-path="url(#clip570)" d="M37.5802 1501.38 L18.1011 1501.38 L18.1011 1514.65 Q18.1011 1520.57 14.409 1524.1 Q10.685 1527.64 3.10986 1527.64 L-9.93984 1527.64 L-9.93984 1521.24 L2.6006 1521.24 Q7.66134 1521.24 10.1758 1519.27 Q12.6902 1517.29 12.6902 1513.35 L12.6902 1501.38 L-9.93984 1501.38 L-9.93984 1494.92 L37.5802 1494.92 L37.5802 1501.38 Z" fill="#000000" fill-rule="nonzero" fill-opacity="1" /><path clip-path="url(#clip570)" d="M1.9322 1452.08 L37.5802 1452.08 L37.5802 1457.9 L8.96631 1457.9 L37.5802 1475.09 L37.5802 1482.6 L1.9322 1482.6 L1.9322 1476.77 L30.4824 1476.77 L1.9322 1459.62 L1.9322 1452.08 Z" fill="#000000" fill-rule="nonzero" fill-opacity="1" /><path clip-path="url(#clip570)" d="M3.30083 1414.36 L8.77533 1414.36 Q7.40671 1416.84 6.73831 1419.36 Q6.03808 1421.84 6.03808 1424.39 Q6.03808 1430.08 9.66653 1433.23 Q13.2632 1436.38 19.788 1436.38 Q26.3129 1436.38 29.9413 1433.23 Q33.5379 1430.08 33.5379 1424.39 Q33.5379 1421.84 32.8695 1419.36 Q32.1693 1416.84 30.8007 1414.36 L36.2115 1414.36 Q37.3574 1416.81 37.9303 1419.45 Q38.5032 1422.06 38.5032 1425.02 Q38.5032 1433.07 33.4424 1437.82 Q28.3817 1442.56 19.788 1442.56 Q11.067 1442.56 6.06991 1437.78 Q1.07283 1432.98 1.07283 1424.64 Q1.07283 1421.93 1.64574 1419.36 Q2.18683 1416.78 3.30083 1414.36 Z" fill="#000000" fill-rule="nonzero" fill-opacity="1" /><path clip-path="url(#clip570)" d="M37.5802 1407.9 L32.7104 1407.9 Q31.8192 1402.11 27.8088 1400.32 Q22.1751 1398.16 7.75682 1398.16 L1.9322 1398.16 L1.9322 1374.06 L37.5802 1374.06 L37.5802 1379.92 L6.61099 1379.92 L6.61099 1392.3 L10.144 1392.3 Q23.8939 1392.3 30.0686 1395.1 Q36.6571 1398.09 37.5802 1407.9 Z" fill="#000000" fill-rule="nonzero" fill-opacity="1" /><path clip-path="url(#clip570)" d="M18.2921 1332.02 L21.1566 1332.02 L21.1566 1358.95 Q27.2041 1358.56 30.3869 1355.32 Q33.5379 1352.04 33.5379 1346.21 Q33.5379 1342.84 32.7104 1339.69 Q31.8829 1336.51 30.2278 1333.39 L35.7659 1333.39 Q37.1027 1336.54 37.803 1339.85 Q38.5032 1343.16 38.5032 1346.56 Q38.5032 1355.09 33.5379 1360.09 Q28.5727 1365.06 20.1063 1365.06 Q11.3534 1365.06 6.22905 1360.35 Q1.07283 1355.6 1.07283 1347.58 Q1.07283 1340.39 5.7198 1336.22 Q10.3349 1332.02 18.2921 1332.02 M16.5733 1337.88 Q11.7672 1337.94 8.90265 1340.58 Q6.03808 1343.19 6.03808 1347.52 Q6.03808 1352.42 8.80716 1355.38 Q11.5762 1358.31 16.6052 1358.75 L16.5733 1337.88 Z" fill="#000000" fill-rule="nonzero" fill-opacity="1" /><path clip-path="url(#clip570)" d="M1.9322 1322.63 L1.9322 1316.74 L16.4778 1316.74 L16.4778 1297.74 L1.9322 1297.74 L1.9322 1291.85 L37.5802 1291.85 L37.5802 1297.74 L21.1566 1297.74 L21.1566 1316.74 L37.5802 1316.74 L37.5802 1322.63 L1.9322 1322.63 Z" fill="#000000" fill-rule="nonzero" fill-opacity="1" /><path clip-path="url(#clip570)" d="M1.9322 1280.01 L1.9322 1274.12 L16.4778 1274.12 L16.4778 1255.12 L1.9322 1255.12 L1.9322 1249.23 L37.5802 1249.23 L37.5802 1255.12 L21.1566 1255.12 L21.1566 1274.12 L37.5802 1274.12 L37.5802 1280.01 L1.9322 1280.01 Z" fill="#000000" fill-rule="nonzero" fill-opacity="1" /><path clip-path="url(#clip570)" d="M6.03808 1223.36 Q6.03808 1228.07 9.73019 1230.8 Q13.3905 1233.54 19.788 1233.54 Q26.1855 1233.54 29.8777 1230.84 Q33.5379 1228.1 33.5379 1223.36 Q33.5379 1218.68 29.8458 1215.94 Q26.1537 1213.2 19.788 1213.2 Q13.4541 1213.2 9.76202 1215.94 Q6.03808 1218.68 6.03808 1223.36 M1.07283 1223.36 Q1.07283 1215.72 6.03808 1211.36 Q11.0033 1207 19.788 1207 Q28.5409 1207 33.5379 1211.36 Q38.5032 1215.72 38.5032 1223.36 Q38.5032 1231.03 33.5379 1235.39 Q28.5409 1239.72 19.788 1239.72 Q11.0033 1239.72 6.03808 1235.39 Q1.07283 1231.03 1.07283 1223.36 Z" fill="#000000" fill-rule="nonzero" fill-opacity="1" /><path clip-path="url(#clip570)" d="M3.30083 1171.63 L8.77533 1171.63 Q7.40671 1174.12 6.73831 1176.63 Q6.03808 1179.11 6.03808 1181.66 Q6.03808 1187.36 9.66653 1190.51 Q13.2632 1193.66 19.788 1193.66 Q26.3129 1193.66 29.9413 1190.51 Q33.5379 1187.36 33.5379 1181.66 Q33.5379 1179.11 32.8695 1176.63 Q32.1693 1174.12 30.8007 1171.63 L36.2115 1171.63 Q37.3574 1174.09 37.9303 1176.73 Q38.5032 1179.34 38.5032 1182.3 Q38.5032 1190.35 33.4424 1195.09 Q28.3817 1199.83 19.788 1199.83 Q11.067 1199.83 6.06991 1195.06 Q1.07283 1190.25 1.07283 1181.92 Q1.07283 1179.21 1.64574 1176.63 Q2.18683 1174.05 3.30083 1171.63 Z" fill="#000000" fill-rule="nonzero" fill-opacity="1" /><path clip-path="url(#clip570)" d="M1.9322 1165.68 L1.9322 1131.53 L6.61099 1131.53 L6.61099 1145.73 L37.5802 1145.73 L37.5802 1151.49 L6.61099 1151.49 L6.61099 1165.68 L1.9322 1165.68 Z" fill="#000000" fill-rule="nonzero" fill-opacity="1" /><path clip-path="url(#clip570)" d="M27.0131 1101.29 Q24.1485 1101.29 22.6526 1103.39 Q21.1566 1105.46 21.1566 1109.47 L21.1566 1117.81 L32.9014 1117.81 L32.9014 1109.47 Q32.9014 1105.46 31.4054 1103.39 Q29.8777 1101.29 27.0131 1101.29 M1.9322 1123.7 L1.9322 1117.81 L16.4778 1117.81 L16.4778 1109.22 Q16.4778 1102.41 19.0878 1098.75 Q21.6659 1095.06 27.0131 1095.06 Q32.3603 1095.06 34.9702 1098.75 Q37.5802 1102.41 37.5802 1109.22 L37.5802 1123.7 L1.9322 1123.7 Z" fill="#000000" fill-rule="nonzero" fill-opacity="1" /><path clip-path="url(#clip570)" d="M1209.98 12.096 L1222.18 12.096 L1237.61 53.2532 L1253.13 12.096 L1265.32 12.096 L1265.32 72.576 L1257.34 72.576 L1257.34 19.4686 L1241.74 60.9499 L1233.52 60.9499 L1217.92 19.4686 L1217.92 72.576 L1209.98 72.576 L1209.98 12.096 Z" fill="#000000" fill-rule="nonzero" fill-opacity="1" /><path clip-path="url(#clip570)" d="M1298.82 32.4315 Q1292.83 32.4315 1289.34 37.1306 Q1285.86 41.7891 1285.86 49.9314 Q1285.86 58.0738 1289.3 62.7728 Q1292.78 67.4314 1298.82 67.4314 Q1304.78 67.4314 1308.26 62.7323 Q1311.74 58.0333 1311.74 49.9314 Q1311.74 41.8701 1308.26 37.1711 Q1304.78 32.4315 1298.82 32.4315 M1298.82 26.1121 Q1308.54 26.1121 1314.09 32.4315 Q1319.64 38.7509 1319.64 49.9314 Q1319.64 61.0714 1314.09 67.4314 Q1308.54 73.7508 1298.82 73.7508 Q1289.06 73.7508 1283.51 67.4314 Q1278 61.0714 1278 49.9314 Q1278 38.7509 1283.51 32.4315 Q1289.06 26.1121 1298.82 26.1121 Z" fill="#000000" fill-rule="nonzero" fill-opacity="1" /><path clip-path="url(#clip570)" d="M1342.12 66.6212 L1363.76 66.6212 L1363.76 33.1607 L1348.08 33.1607 L1348.08 38.832 Q1348.08 55.5217 1343.3 64.4337 L1342.12 66.6212 M1331.31 66.6212 Q1334.99 65.0008 1336.62 61.5575 Q1340.59 53.0101 1340.59 35.7938 L1340.59 27.2059 L1371.25 27.2059 L1371.25 66.6212 L1377.21 66.6212 L1377.21 84.0401 L1371.25 84.0401 L1371.25 72.576 L1334.47 72.576 L1334.47 84.0401 L1328.51 84.0401 L1328.51 66.6212 L1331.31 66.6212 Z" fill="#000000" fill-rule="nonzero" fill-opacity="1" /><path clip-path="url(#clip570)" d="M1428.17 48.0275 L1428.17 51.6733 L1393.9 51.6733 Q1394.38 59.3701 1398.51 63.421 Q1402.69 67.4314 1410.1 67.4314 Q1414.39 67.4314 1418.4 66.3781 Q1422.45 65.3249 1426.42 63.2184 L1426.42 70.267 Q1422.41 71.9684 1418.2 72.8596 Q1413.99 73.7508 1409.65 73.7508 Q1398.8 73.7508 1392.44 67.4314 Q1386.12 61.1119 1386.12 50.3365 Q1386.12 39.1965 1392.11 32.6746 Q1398.15 26.1121 1408.36 26.1121 Q1417.51 26.1121 1422.82 32.0264 Q1428.17 37.9003 1428.17 48.0275 M1420.71 45.84 Q1420.63 39.7232 1417.27 36.0774 Q1413.95 32.4315 1408.44 32.4315 Q1402.2 32.4315 1398.43 35.9558 Q1394.71 39.4801 1394.14 45.8805 L1420.71 45.84 Z" fill="#000000" fill-rule="nonzero" fill-opacity="1" /><path clip-path="url(#clip570)" d="M1435.66 72.576 L1435.66 66.3781 Q1443.03 65.2439 1445.3 60.1397 Q1448.06 52.9696 1448.06 34.619 L1448.06 27.2059 L1478.72 27.2059 L1478.72 72.576 L1471.27 72.576 L1471.27 33.1607 L1455.51 33.1607 L1455.51 37.6572 Q1455.51 55.1571 1451.94 63.0159 Q1448.14 71.4012 1435.66 72.576 Z" fill="#000000" fill-rule="nonzero" fill-opacity="1" /><path clip-path="url(#clip570)" d="M1521.66 59.127 Q1521.66 55.4812 1518.99 53.5773 Q1516.35 51.6733 1511.25 51.6733 L1500.64 51.6733 L1500.64 66.6212 L1511.25 66.6212 Q1516.35 66.6212 1518.99 64.7172 Q1521.66 62.7728 1521.66 59.127 M1493.14 27.2059 L1500.64 27.2059 L1500.64 45.7185 L1511.57 45.7185 Q1520.24 45.7185 1524.9 49.0402 Q1529.6 52.3215 1529.6 59.127 Q1529.6 65.9325 1524.9 69.2543 Q1520.24 72.576 1511.57 72.576 L1493.14 72.576 L1493.14 27.2059 Z" fill="#000000" fill-rule="nonzero" fill-opacity="1" /><path clip-path="url(#clip570)" d="M1563.06 72.576 L1563.06 65.6895 Q1569.02 65.6895 1569.02 61.355 L1569.02 12.096 L1580.03 12.096 L1606.85 62.6918 L1606.85 23.317 Q1606.85 18.1318 1610.01 15.1342 Q1613.21 12.096 1620.75 12.096 L1620.75 18.9825 Q1614.79 18.9825 1614.79 23.317 L1614.79 72.576 L1603.77 72.576 L1576.96 21.9802 L1576.96 61.355 Q1576.96 66.5402 1573.76 69.5783 Q1570.6 72.576 1563.06 72.576 M1621.27 47.3794 Q1621.27 41.7891 1624.19 37.9408 Q1627.11 34.0519 1631.28 34.0519 Q1635.45 34.0519 1638.37 37.9408 Q1641.28 41.7891 1641.28 47.3794 Q1641.28 52.9696 1638.37 56.8585 Q1635.45 60.7069 1631.28 60.7069 Q1627.11 60.7069 1624.19 56.8585 Q1621.27 52.9696 1621.27 47.3794 M1626.94 47.3794 Q1626.94 50.5391 1628.08 52.6456 Q1629.25 54.7115 1631.28 54.7115 Q1633.3 54.7115 1634.44 52.6456 Q1635.61 50.5391 1635.61 47.3794 Q1635.61 44.2197 1634.44 42.1537 Q1633.3 40.0472 1631.28 40.0472 Q1629.25 40.0472 1628.08 42.1537 Q1626.94 44.2197 1626.94 47.3794 M1621.27 72.576 L1621.27 67.5934 L1641.28 67.5934 L1641.28 72.576 L1621.27 72.576 Z" fill="#000000" fill-rule="nonzero" fill-opacity="1" /><path clip-path="url(#clip570)" d="M1657.45 65.6895 L1670.81 65.6895 L1670.81 19.5497 L1656.27 22.4663 L1656.27 15.0127 L1670.73 12.096 L1678.92 12.096 L1678.92 65.6895 L1692.28 65.6895 L1692.28 72.576 L1657.45 72.576 L1657.45 65.6895 Z" fill="#000000" fill-rule="nonzero" fill-opacity="1" /><path clip-path="url(#clip570)" d="M1752.04 9.62495 Q1746.61 18.942 1743.97 28.0566 Q1741.34 37.1711 1741.34 46.5287 Q1741.34 55.8863 1743.97 65.0818 Q1746.65 74.2369 1752.04 83.5134 L1745.55 83.5134 Q1739.48 73.9938 1736.44 64.7983 Q1733.44 55.6027 1733.44 46.5287 Q1733.44 37.4952 1736.44 28.3401 Q1739.44 19.1851 1745.55 9.62495 L1752.04 9.62495 Z" fill="#000000" fill-rule="nonzero" fill-opacity="1" /><path clip-path="url(#clip570)" d="M1775 18.8205 L1775 41.5461 L1785.29 41.5461 Q1791.01 41.5461 1794.12 38.5889 Q1797.24 35.6318 1797.24 30.163 Q1797.24 24.7348 1794.12 21.7777 Q1791.01 18.8205 1785.29 18.8205 L1775 18.8205 M1766.82 12.096 L1785.29 12.096 Q1795.46 12.096 1800.65 16.714 Q1805.87 21.2916 1805.87 30.163 Q1805.87 39.1155 1800.65 43.6931 Q1795.46 48.2706 1785.29 48.2706 L1775 48.2706 L1775 72.576 L1766.82 72.576 L1766.82 12.096 Z" fill="#000000" fill-rule="nonzero" fill-opacity="1" /><path clip-path="url(#clip570)" d="M1855.33 48.0275 L1855.33 51.6733 L1821.06 51.6733 Q1821.55 59.3701 1825.68 63.421 Q1829.85 67.4314 1837.27 67.4314 Q1841.56 67.4314 1845.57 66.3781 Q1849.62 65.3249 1853.59 63.2184 L1853.59 70.267 Q1849.58 71.9684 1845.37 72.8596 Q1841.16 73.7508 1836.82 73.7508 Q1825.96 73.7508 1819.6 67.4314 Q1813.29 61.1119 1813.29 50.3365 Q1813.29 39.1965 1819.28 32.6746 Q1825.32 26.1121 1835.52 26.1121 Q1844.68 26.1121 1849.99 32.0264 Q1855.33 37.9003 1855.33 48.0275 M1847.88 45.84 Q1847.8 39.7232 1844.44 36.0774 Q1841.11 32.4315 1835.61 32.4315 Q1829.37 32.4315 1825.6 35.9558 Q1821.87 39.4801 1821.31 45.8805 L1847.88 45.84 Z" fill="#000000" fill-rule="nonzero" fill-opacity="1" /><path clip-path="url(#clip570)" d="M1867.28 72.576 L1867.28 27.2059 L1899.29 27.2059 L1899.29 33.1607 L1874.78 33.1607 L1874.78 72.576 L1867.28 72.576 Z" fill="#000000" fill-rule="nonzero" fill-opacity="1" /><path clip-path="url(#clip570)" d="M1930.03 76.7889 Q1926.87 84.8907 1923.87 87.3618 Q1920.88 89.8329 1915.85 89.8329 L1909.9 89.8329 L1909.9 83.5945 L1914.27 83.5945 Q1917.35 83.5945 1919.05 82.1361 Q1920.76 80.6778 1922.82 75.2496 L1924.16 71.8468 L1905.81 27.2059 L1913.71 27.2059 L1927.89 62.6918 L1942.06 27.2059 L1949.96 27.2059 L1930.03 76.7889 Z" fill="#000000" fill-rule="nonzero" fill-opacity="1" /><path clip-path="url(#clip570)" d="M1955.51 72.576 L1955.51 66.3781 Q1962.89 65.2439 1965.15 60.1397 Q1967.91 52.9696 1967.91 34.619 L1967.91 27.2059 L1998.57 27.2059 L1998.57 72.576 L1991.12 72.576 L1991.12 33.1607 L1975.36 33.1607 L1975.36 37.6572 Q1975.36 55.1571 1971.8 63.0159 Q1967.99 71.4012 1955.51 72.576 Z" fill="#000000" fill-rule="nonzero" fill-opacity="1" /><path clip-path="url(#clip570)" d="M2020.77 40.2903 Q2020.77 43.6525 2023.37 45.5565 Q2025.96 47.4604 2030.78 47.4604 L2040.82 47.4604 L2040.82 33.1607 L2030.78 33.1607 Q2025.96 33.1607 2023.37 35.0241 Q2020.77 36.8875 2020.77 40.2903 M2010.16 72.576 L2024.01 52.6861 Q2019.31 51.6328 2016.2 48.8782 Q2013.08 46.0831 2013.08 40.2903 Q2013.08 33.7278 2017.41 30.4871 Q2021.79 27.2059 2030.58 27.2059 L2048.32 27.2059 L2048.32 72.576 L2040.82 72.576 L2040.82 53.4152 L2031.55 53.4152 L2018.18 72.576 L2010.16 72.576 Z" fill="#000000" fill-rule="nonzero" fill-opacity="1" /><path clip-path="url(#clip570)" d="M2070.4 65.7705 L2070.4 89.8329 L2062.9 89.8329 L2062.9 27.2059 L2070.4 27.2059 L2070.4 34.0924 Q2072.75 30.0415 2076.31 28.0971 Q2079.92 26.1121 2084.9 26.1121 Q2093.16 26.1121 2098.31 32.6746 Q2103.49 39.2371 2103.49 49.9314 Q2103.49 60.6258 2098.31 67.1883 Q2093.16 73.7508 2084.9 73.7508 Q2079.92 73.7508 2076.31 71.8063 Q2072.75 69.8214 2070.4 65.7705 M2095.75 49.9314 Q2095.75 41.7081 2092.35 37.0496 Q2088.99 32.3505 2083.08 32.3505 Q2077.16 32.3505 2073.76 37.0496 Q2070.4 41.7081 2070.4 49.9314 Q2070.4 58.1548 2073.76 62.8538 Q2077.16 67.5124 2083.08 67.5124 Q2088.99 67.5124 2092.35 62.8538 Q2095.75 58.1548 2095.75 49.9314 Z" fill="#000000" fill-rule="nonzero" fill-opacity="1" /><path clip-path="url(#clip570)" d="M2115.56 27.2059 L2123.06 27.2059 L2123.06 45.7185 L2147.24 45.7185 L2147.24 27.2059 L2154.74 27.2059 L2154.74 72.576 L2147.24 72.576 L2147.24 51.6733 L2123.06 51.6733 L2123.06 72.576 L2115.56 72.576 L2115.56 27.2059 Z" fill="#000000" fill-rule="nonzero" fill-opacity="1" /><path clip-path="url(#clip570)" d="M2212.95 27.2059 L2220.4 27.2059 L2220.4 72.576 L2212.95 72.576 L2212.95 27.2059 M2216.67 26.1121 L2216.67 26.1121 M2198.32 59.127 Q2198.32 55.4812 2195.65 53.5773 Q2193.02 51.6733 2187.91 51.6733 L2177.3 51.6733 L2177.3 66.6212 L2187.91 66.6212 Q2193.02 66.6212 2195.65 64.7172 Q2198.32 62.7728 2198.32 59.127 M2169.81 27.2059 L2177.3 27.2059 L2177.3 45.7185 L2188.24 45.7185 Q2196.91 45.7185 2201.56 49.0402 Q2206.26 52.3215 2206.26 59.127 Q2206.26 65.9325 2201.56 69.2543 Q2196.91 72.576 2188.24 72.576 L2169.81 72.576 L2169.81 27.2059 Z" fill="#000000" fill-rule="nonzero" fill-opacity="1" /><path clip-path="url(#clip570)" d="M2274.4 48.0275 L2274.4 51.6733 L2240.13 51.6733 Q2240.62 59.3701 2244.75 63.421 Q2248.92 67.4314 2256.33 67.4314 Q2260.63 67.4314 2264.64 66.3781 Q2268.69 65.3249 2272.66 63.2184 L2272.66 70.267 Q2268.65 71.9684 2264.43 72.8596 Q2260.22 73.7508 2255.89 73.7508 Q2245.03 73.7508 2238.67 67.4314 Q2232.35 61.1119 2232.35 50.3365 Q2232.35 39.1965 2238.35 32.6746 Q2244.38 26.1121 2254.59 26.1121 Q2263.75 26.1121 2269.05 32.0264 Q2274.4 37.9003 2274.4 48.0275 M2266.95 45.84 Q2266.86 39.7232 2263.5 36.0774 Q2260.18 32.4315 2254.67 32.4315 Q2248.43 32.4315 2244.67 35.9558 Q2240.94 39.4801 2240.37 45.8805 L2266.95 45.84 Z" fill="#000000" fill-rule="nonzero" fill-opacity="1" /><path clip-path="url(#clip570)" d="M2307.66 27.2059 L2315.56 27.2059 L2329.74 65.2844 L2343.91 27.2059 L2351.81 27.2059 L2334.8 72.576 L2324.67 72.576 L2307.66 27.2059 Z" fill="#000000" fill-rule="nonzero" fill-opacity="1" /><path clip-path="url(#clip570)" d="M2391.03 28.5427 L2391.03 35.5912 Q2387.87 33.9709 2384.46 33.1607 Q2381.06 32.3505 2377.41 32.3505 Q2371.86 32.3505 2369.07 34.0519 Q2366.31 35.7533 2366.31 39.156 Q2366.31 41.7486 2368.3 43.2475 Q2370.28 44.7058 2376.28 46.0426 L2378.83 46.6097 Q2386.77 48.3111 2390.09 51.4303 Q2393.46 54.509 2393.46 60.0587 Q2393.46 66.3781 2388.43 70.0644 Q2383.45 73.7508 2374.7 73.7508 Q2371.05 73.7508 2367.08 73.0216 Q2363.15 72.3329 2358.78 70.9151 L2358.78 63.2184 Q2362.91 65.3654 2366.92 66.4591 Q2370.93 67.5124 2374.86 67.5124 Q2380.13 67.5124 2382.96 65.73 Q2385.8 63.9071 2385.8 60.6258 Q2385.8 57.5877 2383.73 55.9673 Q2381.71 54.3469 2374.78 52.8481 L2372.19 52.2405 Q2365.26 50.7821 2362.18 47.7845 Q2359.1 44.7463 2359.1 39.4801 Q2359.1 33.0797 2363.64 29.5959 Q2368.18 26.1121 2376.52 26.1121 Q2380.65 26.1121 2384.3 26.7198 Q2387.95 27.3274 2391.03 28.5427 Z" fill="#000000" fill-rule="nonzero" fill-opacity="1" /><path clip-path="url(#clip570)" d="M2440.2 18.8205 L2440.2 41.5461 L2450.49 41.5461 Q2456.2 41.5461 2459.32 38.5889 Q2462.44 35.6318 2462.44 30.163 Q2462.44 24.7348 2459.32 21.7777 Q2456.2 18.8205 2450.49 18.8205 L2440.2 18.8205 M2432.02 12.096 L2450.49 12.096 Q2460.66 12.096 2465.85 16.714 Q2471.07 21.2916 2471.07 30.163 Q2471.07 39.1155 2465.85 43.6931 Q2460.66 48.2706 2450.49 48.2706 L2440.2 48.2706 L2440.2 72.576 L2432.02 72.576 L2432.02 12.096 Z" fill="#000000" fill-rule="nonzero" fill-opacity="1" /><path clip-path="url(#clip570)" d="M2520.53 48.0275 L2520.53 51.6733 L2486.26 51.6733 Q2486.75 59.3701 2490.88 63.421 Q2495.05 67.4314 2502.47 67.4314 Q2506.76 67.4314 2510.77 66.3781 Q2514.82 65.3249 2518.79 63.2184 L2518.79 70.267 Q2514.78 71.9684 2510.57 72.8596 Q2506.35 73.7508 2502.02 73.7508 Q2491.16 73.7508 2484.8 67.4314 Q2478.48 61.1119 2478.48 50.3365 Q2478.48 39.1965 2484.48 32.6746 Q2490.52 26.1121 2500.72 26.1121 Q2509.88 26.1121 2515.19 32.0264 Q2520.53 37.9003 2520.53 48.0275 M2513.08 45.84 Q2513 39.7232 2509.64 36.0774 Q2506.31 32.4315 2500.8 32.4315 Q2494.57 32.4315 2490.8 35.9558 Q2487.07 39.4801 2486.51 45.8805 L2513.08 45.84 Z" fill="#000000" fill-rule="nonzero" fill-opacity="1" /><path clip-path="url(#clip570)" d="M2532.48 72.576 L2532.48 27.2059 L2564.48 27.2059 L2564.48 33.1607 L2539.98 33.1607 L2539.98 72.576 L2532.48 72.576 Z" fill="#000000" fill-rule="nonzero" fill-opacity="1" /><path clip-path="url(#clip570)" d="M2595.23 76.7889 Q2592.07 84.8907 2589.07 87.3618 Q2586.08 89.8329 2581.05 89.8329 L2575.1 89.8329 L2575.1 83.5945 L2579.47 83.5945 Q2582.55 83.5945 2584.25 82.1361 Q2585.95 80.6778 2588.02 75.2496 L2589.36 71.8468 L2571.01 27.2059 L2578.91 27.2059 L2593.08 62.6918 L2607.26 27.2059 L2615.16 27.2059 L2595.23 76.7889 Z" fill="#000000" fill-rule="nonzero" fill-opacity="1" /><path clip-path="url(#clip570)" d="M2620.71 72.576 L2620.71 66.3781 Q2628.08 65.2439 2630.35 60.1397 Q2633.11 52.9696 2633.11 34.619 L2633.11 27.2059 L2663.77 27.2059 L2663.77 72.576 L2656.32 72.576 L2656.32 33.1607 L2640.56 33.1607 L2640.56 37.6572 Q2640.56 55.1571 2637 63.0159 Q2633.19 71.4012 2620.71 72.576 Z" fill="#000000" fill-rule="nonzero" fill-opacity="1" /><path clip-path="url(#clip570)" d="M2685.97 40.2903 Q2685.97 43.6525 2688.56 45.5565 Q2691.16 47.4604 2695.98 47.4604 L2706.02 47.4604 L2706.02 33.1607 L2695.98 33.1607 Q2691.16 33.1607 2688.56 35.0241 Q2685.97 36.8875 2685.97 40.2903 M2675.36 72.576 L2689.21 52.6861 Q2684.51 51.6328 2681.39 48.8782 Q2678.27 46.0831 2678.27 40.2903 Q2678.27 33.7278 2682.61 30.4871 Q2686.98 27.2059 2695.77 27.2059 L2713.52 27.2059 L2713.52 72.576 L2706.02 72.576 L2706.02 53.4152 L2696.75 53.4152 L2683.38 72.576 L2675.36 72.576 Z" fill="#000000" fill-rule="nonzero" fill-opacity="1" /><path clip-path="url(#clip570)" d="M2735.6 65.7705 L2735.6 89.8329 L2728.1 89.8329 L2728.1 27.2059 L2735.6 27.2059 L2735.6 34.0924 Q2737.94 30.0415 2741.51 28.0971 Q2745.11 26.1121 2750.1 26.1121 Q2758.36 26.1121 2763.51 32.6746 Q2768.69 39.2371 2768.69 49.9314 Q2768.69 60.6258 2763.51 67.1883 Q2758.36 73.7508 2750.1 73.7508 Q2745.11 73.7508 2741.51 71.8063 Q2737.94 69.8214 2735.6 65.7705 M2760.95 49.9314 Q2760.95 41.7081 2757.55 37.0496 Q2754.19 32.3505 2748.27 32.3505 Q2742.36 32.3505 2738.96 37.0496 Q2735.6 41.7081 2735.6 49.9314 Q2735.6 58.1548 2738.96 62.8538 Q2742.36 67.5124 2748.27 67.5124 Q2754.19 67.5124 2757.55 62.8538 Q2760.95 58.1548 2760.95 49.9314 Z" fill="#000000" fill-rule="nonzero" fill-opacity="1" /><path clip-path="url(#clip570)" d="M2780.76 27.2059 L2788.26 27.2059 L2788.26 45.7185 L2812.44 45.7185 L2812.44 27.2059 L2819.93 27.2059 L2819.93 72.576 L2812.44 72.576 L2812.44 51.6733 L2788.26 51.6733 L2788.26 72.576 L2780.76 72.576 L2780.76 27.2059 Z" fill="#000000" fill-rule="nonzero" fill-opacity="1" /><path clip-path="url(#clip570)" d="M2878.15 27.2059 L2885.6 27.2059 L2885.6 72.576 L2878.15 72.576 L2878.15 27.2059 M2881.87 26.1121 L2881.87 26.1121 M2863.52 59.127 Q2863.52 55.4812 2860.85 53.5773 Q2858.22 51.6733 2853.11 51.6733 L2842.5 51.6733 L2842.5 66.6212 L2853.11 66.6212 Q2858.22 66.6212 2860.85 64.7172 Q2863.52 62.7728 2863.52 59.127 M2835 27.2059 L2842.5 27.2059 L2842.5 45.7185 L2853.44 45.7185 Q2862.1 45.7185 2866.76 49.0402 Q2871.46 52.3215 2871.46 59.127 Q2871.46 65.9325 2866.76 69.2543 Q2862.1 72.576 2853.44 72.576 L2835 72.576 L2835 27.2059 Z" fill="#000000" fill-rule="nonzero" fill-opacity="1" /><path clip-path="url(#clip570)" d="M2939.6 48.0275 L2939.6 51.6733 L2905.33 51.6733 Q2905.81 59.3701 2909.95 63.421 Q2914.12 67.4314 2921.53 67.4314 Q2925.83 67.4314 2929.84 66.3781 Q2933.89 65.3249 2937.86 63.2184 L2937.86 70.267 Q2933.85 71.9684 2929.63 72.8596 Q2925.42 73.7508 2921.09 73.7508 Q2910.23 73.7508 2903.87 67.4314 Q2897.55 61.1119 2897.55 50.3365 Q2897.55 39.1965 2903.55 32.6746 Q2909.58 26.1121 2919.79 26.1121 Q2928.94 26.1121 2934.25 32.0264 Q2939.6 37.9003 2939.6 48.0275 M2932.14 45.84 Q2932.06 39.7232 2928.7 36.0774 Q2925.38 32.4315 2919.87 32.4315 Q2913.63 32.4315 2909.87 35.9558 Q2906.14 39.4801 2905.57 45.8805 L2932.14 45.84 Z" fill="#000000" fill-rule="nonzero" fill-opacity="1" /><path clip-path="url(#clip570)" d="M2950.66 9.62495 L2957.14 9.62495 Q2963.22 19.1851 2966.21 28.3401 Q2969.25 37.4952 2969.25 46.5287 Q2969.25 55.6027 2966.21 64.7983 Q2963.22 73.9938 2957.14 83.5134 L2950.66 83.5134 Q2956.05 74.2369 2958.68 65.0818 Q2961.35 55.8863 2961.35 46.5287 Q2961.35 37.1711 2958.68 28.0566 Q2956.05 18.942 2950.66 9.62495 Z" fill="#000000" fill-rule="nonzero" fill-opacity="1" /><polyline clip-path="url(#clip572)" style="stroke:#009af9; stroke-linecap:round; stroke-linejoin:round; stroke-width:8; stroke-opacity:1; fill:none" points="386.479,193.563 420.542,209.883 454.605,225.999 488.668,241.913 522.73,257.628 556.793,273.146 590.856,288.47 624.919,303.601 658.982,318.542 693.044,333.295 727.107,347.863 761.17,362.247 795.233,376.451 829.295,390.475 863.358,404.323 897.421,417.996 931.484,431.496 965.546,444.825 999.609,457.986 1033.67,470.98 1067.73,483.809 1101.8,496.476 1135.86,508.982 1169.92,521.329 1203.99,533.52 1238.05,545.555 1272.11,557.437 1306.17,569.167 1340.24,580.748 1374.3,592.181 1408.36,603.468 1442.43,614.611 1476.49,625.611 1510.55,636.47 1544.61,647.189 1578.68,657.771 1612.74,668.217 1646.8,678.529 1680.86,688.708 1714.93,698.755 1748.99,708.673 1783.05,718.463 1817.12,728.126 1851.18,737.663 1885.24,747.078 1919.3,756.369 1953.37,765.541 1987.43,774.593 2021.49,783.527 2055.55,792.344 2089.62,801.047 2123.68,809.636 2157.74,818.112 2191.81,826.477 2225.87,834.733 2259.93,842.88 2293.99,850.92 2328.06,858.854 2362.12,866.684 2396.18,874.41 2430.25,882.034 2464.31,889.557 2498.37,896.98 2532.43,904.304 2566.5,911.531 2600.56,918.662 2634.62,925.698 2668.68,932.639 2702.75,939.488 2736.81,946.244 2770.87,952.91 2804.94,959.487 2839,965.974 2873.06,972.374 2907.12,978.688 2941.19,984.916 2975.25,991.06 3009.31,997.12 3043.38,1003.1 3077.44,1008.99 3111.5,1014.81 3145.56,1020.54 3179.63,1026.2 3213.69,1031.78 3247.75,1037.28 3281.81,1042.71 3315.88,1048.06 3349.94,1053.34 3384,1058.55 3418.07,1063.68 3452.13,1068.74 3486.19,1073.73 3520.25,1078.65 3554.32,1083.5 3588.38,1088.28 3622.44,1093 3656.5,1097.64 3690.57,1102.23 3724.63,1106.74 3758.69,1111.2 3792.76,1115.59 "/>
<polyline clip-path="url(#clip572)" style="stroke:#e26f46; stroke-linecap:round; stroke-linejoin:round; stroke-width:8; stroke-opacity:1; fill:none" points="386.479,1382.15 420.542,1399.65 454.605,1416.96 488.668,1434.06 522.73,1450.97 556.793,1467.68 590.856,1484.2 624.919,1500.52 658.982,1516.66 693.044,1532.61 727.107,1548.38 761.17,1563.97 795.233,1579.37 829.295,1594.6 863.358,1609.65 897.421,1624.53 931.484,1639.23 965.546,1653.77 999.609,1668.14 1033.67,1682.34 1067.73,1696.38 1101.8,1710.26 1135.86,1723.98 1169.92,1737.54 1203.99,1750.95 1238.05,1764.2 1272.11,1777.3 1306.17,1790.25 1340.24,1803.06 1374.3,1815.71 1408.36,1828.22 1442.43,1840.59 1476.49,1852.81 1510.55,1864.9 1544.61,1876.85 1578.68,1888.66 1612.74,1900.34 1646.8,1911.88 1680.86,1923.29 1714.93,1934.57 1748.99,1945.73 1783.05,1956.75 1817.12,1967.66 1851.18,1978.43 1885.24,1989.09 1919.3,1999.62 1953.37,2010.04 1987.43,2020.33 2021.49,2030.51 2055.55,2040.58 2089.62,2050.53 2123.68,2060.37 2157.74,2070.1 2191.81,2079.71 2225.87,2089.22 2259.93,2098.62 2293.99,2107.92 2328.06,2117.11 2362.12,2126.2 2396.18,2135.18 2430.25,2144.07 2464.31,2152.86 2498.37,2161.54 2532.43,2170.13 2566.5,2178.62 2600.56,2187.02 2634.62,2195.33 2668.68,2203.54 2702.75,2211.66 2736.81,2219.69 2770.87,2227.63 2804.94,2235.48 2839,2243.24 2873.06,2250.92 2907.12,2258.51 2941.19,2266.02 2975.25,2273.45 3009.31,2280.79 3043.38,2288.05 3077.44,2295.24 3111.5,2302.34 3145.56,2309.36 3179.63,2316.31 3213.69,2323.18 3247.75,2329.97 3281.81,2336.69 3315.88,2343.34 3349.94,2349.91 3384,2356.42 3418.07,2362.85 3452.13,2369.21 3486.19,2375.5 3520.25,2381.72 3554.32,2387.88 3588.38,2393.96 3622.44,2399.98 3656.5,2405.94 3690.57,2411.83 3724.63,2417.66 3758.69,2423.43 3792.76,2429.13 "/>
<path clip-path="url(#clip570)" d="M3135.28 361.006 L3679.21 361.006 L3679.21 205.486 L3135.28 205.486  Z" fill="#ffffff" fill-rule="evenodd" fill-opacity="1"/>
<polyline clip-path="url(#clip570)" style="stroke:#000000; stroke-linecap:round; stroke-linejoin:round; stroke-width:4; stroke-opacity:1; fill:none" points="3135.28,361.006 3679.21,361.006 3679.21,205.486 3135.28,205.486 3135.28,361.006 "/>
<polyline clip-path="url(#clip570)" style="stroke:#009af9; stroke-linecap:round; stroke-linejoin:round; stroke-width:8; stroke-opacity:1; fill:none" points="3173.12,257.326 3400.21,257.326 "/>
<path clip-path="url(#clip570)" d="M3453.89 244.653 L3447.55 261.852 L3460.26 261.852 L3453.89 244.653 M3451.25 240.046 L3456.55 240.046 L3469.72 274.606 L3464.86 274.606 L3461.71 265.74 L3446.14 265.74 L3442.99 274.606 L3438.06 274.606 L3451.25 240.046 Z" fill="#000000" fill-rule="nonzero" fill-opacity="1" /><path clip-path="url(#clip570)" d="M3478.7 270.717 L3478.7 284.467 L3474.42 284.467 L3474.42 248.68 L3478.7 248.68 L3478.7 252.615 Q3480.05 250.301 3482.08 249.19 Q3484.14 248.055 3486.99 248.055 Q3491.71 248.055 3494.65 251.805 Q3497.62 255.555 3497.62 261.666 Q3497.62 267.777 3494.65 271.527 Q3491.71 275.277 3486.99 275.277 Q3484.14 275.277 3482.08 274.166 Q3480.05 273.032 3478.7 270.717 M3493.2 261.666 Q3493.2 256.967 3491.25 254.305 Q3489.33 251.62 3485.95 251.62 Q3482.57 251.62 3480.63 254.305 Q3478.7 256.967 3478.7 261.666 Q3478.7 266.365 3480.63 269.051 Q3482.57 271.713 3485.95 271.713 Q3489.33 271.713 3491.25 269.051 Q3493.2 266.365 3493.2 261.666 Z" fill="#000000" fill-rule="nonzero" fill-opacity="1" /><path clip-path="url(#clip570)" d="M3504.51 248.68 L3510.74 248.68 L3518.1 266.041 L3525.49 248.68 L3531.67 248.68 L3531.67 274.606 L3527.38 274.606 L3527.38 252.754 L3520.23 269.629 L3515.97 269.629 L3508.8 252.754 L3508.8 274.606 L3504.51 274.606 L3504.51 248.68 Z" fill="#000000" fill-rule="nonzero" fill-opacity="1" /><path clip-path="url(#clip570)" d="M3562.48 248.68 L3562.48 274.606 L3558.24 274.606 L3558.24 253.796 L3545.74 274.606 L3540.28 274.606 L3540.28 248.68 L3544.51 248.68 L3544.51 269.444 L3556.99 248.68 L3562.48 248.68 Z" fill="#000000" fill-rule="nonzero" fill-opacity="1" /><path clip-path="url(#clip570)" d="M3575.53 256.157 Q3575.53 258.078 3577.01 259.166 Q3578.5 260.254 3581.25 260.254 L3586.99 260.254 L3586.99 252.083 L3581.25 252.083 Q3578.5 252.083 3577.01 253.148 Q3575.53 254.213 3575.53 256.157 M3569.47 274.606 L3577.38 263.24 Q3574.7 262.639 3572.92 261.065 Q3571.13 259.467 3571.13 256.157 Q3571.13 252.407 3573.61 250.555 Q3576.11 248.68 3581.13 248.68 L3591.27 248.68 L3591.27 274.606 L3586.99 274.606 L3586.99 263.657 L3581.69 263.657 L3574.05 274.606 L3569.47 274.606 Z" fill="#000000" fill-rule="nonzero" fill-opacity="1" /><path clip-path="url(#clip570)" d="M3613.36 240.046 L3618.38 240.046 L3626.97 252.893 L3635.6 240.046 L3640.63 240.046 L3629.51 256.643 L3641.37 274.606 L3636.34 274.606 L3626.62 259.907 L3616.83 274.606 L3611.78 274.606 L3624.12 256.157 L3613.36 240.046 Z" fill="#000000" fill-rule="nonzero" fill-opacity="1" /><polyline clip-path="url(#clip570)" style="stroke:#e26f46; stroke-linecap:round; stroke-linejoin:round; stroke-width:8; stroke-opacity:1; fill:none" points="3173.12,309.166 3400.21,309.166 "/>
<path clip-path="url(#clip570)" d="M3453.89 296.493 L3447.55 313.692 L3460.26 313.692 L3453.89 296.493 M3451.25 291.886 L3456.55 291.886 L3469.72 326.446 L3464.86 326.446 L3461.71 317.58 L3446.14 317.58 L3442.99 326.446 L3438.06 326.446 L3451.25 291.886 Z" fill="#000000" fill-rule="nonzero" fill-opacity="1" /><path clip-path="url(#clip570)" d="M3478.7 322.557 L3478.7 336.307 L3474.42 336.307 L3474.42 300.52 L3478.7 300.52 L3478.7 304.455 Q3480.05 302.141 3482.08 301.03 Q3484.14 299.895 3486.99 299.895 Q3491.71 299.895 3494.65 303.645 Q3497.62 307.395 3497.62 313.506 Q3497.62 319.617 3494.65 323.367 Q3491.71 327.117 3486.99 327.117 Q3484.14 327.117 3482.08 326.006 Q3480.05 324.872 3478.7 322.557 M3493.2 313.506 Q3493.2 308.807 3491.25 306.145 Q3489.33 303.46 3485.95 303.46 Q3482.57 303.46 3480.63 306.145 Q3478.7 308.807 3478.7 313.506 Q3478.7 318.205 3480.63 320.891 Q3482.57 323.553 3485.95 323.553 Q3489.33 323.553 3491.25 320.891 Q3493.2 318.205 3493.2 313.506 Z" fill="#000000" fill-rule="nonzero" fill-opacity="1" /><path clip-path="url(#clip570)" d="M3504.51 300.52 L3510.74 300.52 L3518.1 317.881 L3525.49 300.52 L3531.67 300.52 L3531.67 326.446 L3527.38 326.446 L3527.38 304.594 L3520.23 321.469 L3515.97 321.469 L3508.8 304.594 L3508.8 326.446 L3504.51 326.446 L3504.51 300.52 Z" fill="#000000" fill-rule="nonzero" fill-opacity="1" /><path clip-path="url(#clip570)" d="M3562.48 300.52 L3562.48 326.446 L3558.24 326.446 L3558.24 305.636 L3545.74 326.446 L3540.28 326.446 L3540.28 300.52 L3544.51 300.52 L3544.51 321.284 L3556.99 300.52 L3562.48 300.52 Z" fill="#000000" fill-rule="nonzero" fill-opacity="1" /><path clip-path="url(#clip570)" d="M3575.53 307.997 Q3575.53 309.918 3577.01 311.006 Q3578.5 312.094 3581.25 312.094 L3586.99 312.094 L3586.99 303.923 L3581.25 303.923 Q3578.5 303.923 3577.01 304.988 Q3575.53 306.053 3575.53 307.997 M3569.47 326.446 L3577.38 315.08 Q3574.7 314.479 3572.92 312.905 Q3571.13 311.307 3571.13 307.997 Q3571.13 304.247 3573.61 302.395 Q3576.11 300.52 3581.13 300.52 L3591.27 300.52 L3591.27 326.446 L3586.99 326.446 L3586.99 315.497 L3581.69 315.497 L3574.05 326.446 L3569.47 326.446 Z" fill="#000000" fill-rule="nonzero" fill-opacity="1" /><path clip-path="url(#clip570)" d="M3610.28 291.886 L3615.3 291.886 L3624.88 306.099 L3634.4 291.886 L3639.42 291.886 L3627.2 309.988 L3627.2 326.446 L3622.5 326.446 L3622.5 309.988 L3610.28 291.886 Z" fill="#000000" fill-rule="nonzero" fill-opacity="1" /></svg>
