<?xml version="1.0" encoding="utf-8"?>
<svg xmlns="http://www.w3.org/2000/svg" xmlns:xlink="http://www.w3.org/1999/xlink" width="960" height="672" viewBox="0 0 3840 2688">
<defs>
  <clipPath id="clip930">
    <rect x="0" y="0" width="3840" height="2688"/>
  </clipPath>
</defs>
<path clip-path="url(#clip930)" d="M0 2688 L3840 2688 L3840 0 L0 0  Z" fill="#ffffff" fill-rule="evenodd" fill-opacity="1"/>
<defs>
  <clipPath id="clip931">
    <rect x="591" y="325" width="3174" height="2081"/>
  </clipPath>
</defs>
<path clip-path="url(#clip930)" d="M356.318 2496.2 L3792.76 2496.2 L3792.76 126.496 L356.318 126.496  Z" fill="#ffffff" fill-rule="evenodd" fill-opacity="1"/>
<defs>
  <clipPath id="clip932">
    <rect x="356" y="126" width="3437" height="2371"/>
  </clipPath>
</defs>
<polyline clip-path="url(#clip932)" style="stroke:#000000; stroke-linecap:round; stroke-linejoin:round; stroke-width:2; stroke-opacity:0.1; fill:none" points="356.318,2496.2 356.318,126.496 "/>
<polyline clip-path="url(#clip932)" style="stroke:#000000; stroke-linecap:round; stroke-linejoin:round; stroke-width:2; stroke-opacity:0.1; fill:none" points="1501.8,2496.2 1501.8,126.496 "/>
<polyline clip-path="url(#clip932)" style="stroke:#000000; stroke-linecap:round; stroke-linejoin:round; stroke-width:2; stroke-opacity:0.1; fill:none" points="2647.28,2496.2 2647.28,126.496 "/>
<polyline clip-path="url(#clip932)" style="stroke:#000000; stroke-linecap:round; stroke-linejoin:round; stroke-width:2; stroke-opacity:0.1; fill:none" points="3792.76,2496.2 3792.76,126.496 "/>
<polyline clip-path="url(#clip932)" style="stroke:#000000; stroke-linecap:round; stroke-linejoin:round; stroke-width:2; stroke-opacity:0.1; fill:none" points="356.318,2444.32 3792.76,2444.32 "/>
<polyline clip-path="url(#clip932)" style="stroke:#000000; stroke-linecap:round; stroke-linejoin:round; stroke-width:2; stroke-opacity:0.1; fill:none" points="356.318,1801.24 3792.76,1801.24 "/>
<polyline clip-path="url(#clip932)" style="stroke:#000000; stroke-linecap:round; stroke-linejoin:round; stroke-width:2; stroke-opacity:0.1; fill:none" points="356.318,1158.17 3792.76,1158.17 "/>
<polyline clip-path="url(#clip932)" style="stroke:#000000; stroke-linecap:round; stroke-linejoin:round; stroke-width:2; stroke-opacity:0.1; fill:none" points="356.318,515.099 3792.76,515.099 "/>
<polyline clip-path="url(#clip930)" style="stroke:#000000; stroke-linecap:round; stroke-linejoin:round; stroke-width:4; stroke-opacity:1; fill:none" points="356.318,2496.2 3792.76,2496.2 "/>
<polyline clip-path="url(#clip930)" style="stroke:#000000; stroke-linecap:round; stroke-linejoin:round; stroke-width:4; stroke-opacity:1; fill:none" points="356.318,2496.2 356.318,2477.3 "/>
<polyline clip-path="url(#clip930)" style="stroke:#000000; stroke-linecap:round; stroke-linejoin:round; stroke-width:4; stroke-opacity:1; fill:none" points="1501.8,2496.2 1501.8,2477.3 "/>
<polyline clip-path="url(#clip930)" style="stroke:#000000; stroke-linecap:round; stroke-linejoin:round; stroke-width:4; stroke-opacity:1; fill:none" points="2647.28,2496.2 2647.28,2477.3 "/>
<polyline clip-path="url(#clip930)" style="stroke:#000000; stroke-linecap:round; stroke-linejoin:round; stroke-width:4; stroke-opacity:1; fill:none" points="3792.76,2496.2 3792.76,2477.3 "/>
<path clip-path="url(#clip930)" d="M333.702 2538.63 Q330.091 2538.63 328.262 2542.2 Q326.457 2545.74 326.457 2552.87 Q326.457 2559.98 328.262 2563.54 Q330.091 2567.08 333.702 2567.08 Q337.336 2567.08 339.142 2563.54 Q340.97 2559.98 340.97 2552.87 Q340.97 2545.74 339.142 2542.2 Q337.336 2538.63 333.702 2538.63 M333.702 2534.93 Q339.512 2534.93 342.568 2539.54 Q345.646 2544.12 345.646 2552.87 Q345.646 2561.6 342.568 2566.2 Q339.512 2570.79 333.702 2570.79 Q327.892 2570.79 324.813 2566.2 Q321.758 2561.6 321.758 2552.87 Q321.758 2544.12 324.813 2539.54 Q327.892 2534.93 333.702 2534.93 Z" fill="#000000" fill-rule="nonzero" fill-opacity="1" /><path clip-path="url(#clip930)" d="M353.864 2564.24 L358.748 2564.24 L358.748 2570.12 L353.864 2570.12 L353.864 2564.24 Z" fill="#000000" fill-rule="nonzero" fill-opacity="1" /><path clip-path="url(#clip930)" d="M378.933 2538.63 Q375.322 2538.63 373.493 2542.2 Q371.688 2545.74 371.688 2552.87 Q371.688 2559.98 373.493 2563.54 Q375.322 2567.08 378.933 2567.08 Q382.567 2567.08 384.373 2563.54 Q386.202 2559.98 386.202 2552.87 Q386.202 2545.74 384.373 2542.2 Q382.567 2538.63 378.933 2538.63 M378.933 2534.93 Q384.743 2534.93 387.799 2539.54 Q390.878 2544.12 390.878 2552.87 Q390.878 2561.6 387.799 2566.2 Q384.743 2570.79 378.933 2570.79 Q373.123 2570.79 370.044 2566.2 Q366.989 2561.6 366.989 2552.87 Q366.989 2544.12 370.044 2539.54 Q373.123 2534.93 378.933 2534.93 Z" fill="#000000" fill-rule="nonzero" fill-opacity="1" /><path clip-path="url(#clip930)" d="M1479.68 2538.63 Q1476.07 2538.63 1474.24 2542.2 Q1472.43 2545.74 1472.43 2552.87 Q1472.43 2559.98 1474.24 2563.54 Q1476.07 2567.08 1479.68 2567.08 Q1483.31 2567.08 1485.12 2563.54 Q1486.95 2559.98 1486.95 2552.87 Q1486.95 2545.74 1485.12 2542.2 Q1483.31 2538.63 1479.68 2538.63 M1479.68 2534.93 Q1485.49 2534.93 1488.54 2539.54 Q1491.62 2544.12 1491.62 2552.87 Q1491.62 2561.6 1488.54 2566.2 Q1485.49 2570.79 1479.68 2570.79 Q1473.87 2570.79 1470.79 2566.2 Q1467.73 2561.6 1467.73 2552.87 Q1467.73 2544.12 1470.79 2539.54 Q1473.87 2534.93 1479.68 2534.93 Z" fill="#000000" fill-rule="nonzero" fill-opacity="1" /><path clip-path="url(#clip930)" d="M1499.84 2564.24 L1504.73 2564.24 L1504.73 2570.12 L1499.84 2570.12 L1499.84 2564.24 Z" fill="#000000" fill-rule="nonzero" fill-opacity="1" /><path clip-path="url(#clip930)" d="M1514.96 2535.56 L1533.31 2535.56 L1533.31 2539.49 L1519.24 2539.49 L1519.24 2547.96 Q1520.26 2547.62 1521.28 2547.45 Q1522.29 2547.27 1523.31 2547.27 Q1529.1 2547.27 1532.48 2550.44 Q1535.86 2553.61 1535.86 2559.03 Q1535.86 2564.61 1532.39 2567.71 Q1528.91 2570.79 1522.6 2570.79 Q1520.42 2570.79 1518.15 2570.42 Q1515.91 2570.05 1513.5 2569.31 L1513.5 2564.61 Q1515.58 2565.74 1517.8 2566.3 Q1520.03 2566.85 1522.5 2566.85 Q1526.51 2566.85 1528.85 2564.75 Q1531.18 2562.64 1531.18 2559.03 Q1531.18 2555.42 1528.85 2553.31 Q1526.51 2551.2 1522.5 2551.2 Q1520.63 2551.2 1518.75 2551.62 Q1516.9 2552.04 1514.96 2552.92 L1514.96 2535.56 Z" fill="#000000" fill-rule="nonzero" fill-opacity="1" /><path clip-path="url(#clip930)" d="M2614.43 2566.18 L2622.07 2566.18 L2622.07 2539.82 L2613.76 2541.48 L2613.76 2537.22 L2622.02 2535.56 L2626.7 2535.56 L2626.7 2566.18 L2634.34 2566.18 L2634.34 2570.12 L2614.43 2570.12 L2614.43 2566.18 Z" fill="#000000" fill-rule="nonzero" fill-opacity="1" /><path clip-path="url(#clip930)" d="M2643.78 2564.24 L2648.67 2564.24 L2648.67 2570.12 L2643.78 2570.12 L2643.78 2564.24 Z" fill="#000000" fill-rule="nonzero" fill-opacity="1" /><path clip-path="url(#clip930)" d="M2668.85 2538.63 Q2665.24 2538.63 2663.41 2542.2 Q2661.61 2545.74 2661.61 2552.87 Q2661.61 2559.98 2663.41 2563.54 Q2665.24 2567.08 2668.85 2567.08 Q2672.48 2567.08 2674.29 2563.54 Q2676.12 2559.98 2676.12 2552.87 Q2676.12 2545.74 2674.29 2542.2 Q2672.48 2538.63 2668.85 2538.63 M2668.85 2534.93 Q2674.66 2534.93 2677.72 2539.54 Q2680.79 2544.12 2680.79 2552.87 Q2680.79 2561.6 2677.72 2566.2 Q2674.66 2570.79 2668.85 2570.79 Q2663.04 2570.79 2659.96 2566.2 Q2656.91 2561.6 2656.91 2552.87 Q2656.91 2544.12 2659.96 2539.54 Q2663.04 2534.93 2668.85 2534.93 Z" fill="#000000" fill-rule="nonzero" fill-opacity="1" /><path clip-path="url(#clip930)" d="M3760.41 2566.18 L3768.05 2566.18 L3768.05 2539.82 L3759.74 2541.48 L3759.74 2537.22 L3768 2535.56 L3772.67 2535.56 L3772.67 2566.18 L3780.31 2566.18 L3780.31 2570.12 L3760.41 2570.12 L3760.41 2566.18 Z" fill="#000000" fill-rule="nonzero" fill-opacity="1" /><path clip-path="url(#clip930)" d="M3789.76 2564.24 L3794.64 2564.24 L3794.64 2570.12 L3789.76 2570.12 L3789.76 2564.24 Z" fill="#000000" fill-rule="nonzero" fill-opacity="1" /><path clip-path="url(#clip930)" d="M3804.87 2535.56 L3823.23 2535.56 L3823.23 2539.49 L3809.16 2539.49 L3809.16 2547.96 Q3810.17 2547.62 3811.19 2547.45 Q3812.21 2547.27 3813.23 2547.27 Q3819.02 2547.27 3822.4 2550.44 Q3825.78 2553.61 3825.78 2559.03 Q3825.78 2564.61 3822.3 2567.71 Q3818.83 2570.79 3812.51 2570.79 Q3810.34 2570.79 3808.07 2570.42 Q3805.82 2570.05 3803.42 2569.31 L3803.42 2564.61 Q3805.5 2565.74 3807.72 2566.3 Q3809.94 2566.85 3812.42 2566.85 Q3816.42 2566.85 3818.76 2564.75 Q3821.1 2562.64 3821.1 2559.03 Q3821.1 2555.42 3818.76 2553.31 Q3816.42 2551.2 3812.42 2551.2 Q3810.55 2551.2 3808.67 2551.62 Q3806.82 2552.04 3804.87 2552.92 L3804.87 2535.56 Z" fill="#000000" fill-rule="nonzero" fill-opacity="1" /><path clip-path="url(#clip930)" d="M1979.64 2639.97 L1979.64 2657.38 L1989.95 2657.38 Q1995.14 2657.38 1997.62 2655.24 Q2000.14 2653.08 2000.14 2648.66 Q2000.14 2644.2 1997.62 2642.1 Q1995.14 2639.97 1989.95 2639.97 L1979.64 2639.97 M1979.64 2620.42 L1979.64 2634.75 L1989.16 2634.75 Q1993.87 2634.75 1996.16 2633 Q1998.48 2631.21 1998.48 2627.58 Q1998.48 2623.99 1996.16 2622.21 Q1993.87 2620.42 1989.16 2620.42 L1979.64 2620.42 M1973.21 2615.14 L1989.63 2615.14 Q1996.99 2615.14 2000.97 2618.2 Q2004.94 2621.25 2004.94 2626.88 Q2004.94 2631.25 2002.91 2633.82 Q2000.87 2636.4 1996.92 2637.04 Q2001.67 2638.06 2004.28 2641.3 Q2006.92 2644.52 2006.92 2649.36 Q2006.92 2655.72 2002.59 2659.19 Q1998.26 2662.66 1990.27 2662.66 L1973.21 2662.66 L1973.21 2615.14 Z" fill="#000000" fill-rule="nonzero" fill-opacity="1" /><path clip-path="url(#clip930)" d="M2023.34 2657.31 L2023.34 2676.22 L2017.45 2676.22 L2017.45 2627.01 L2023.34 2627.01 L2023.34 2632.42 Q2025.19 2629.24 2027.99 2627.71 Q2030.82 2626.15 2034.74 2626.15 Q2041.23 2626.15 2045.27 2631.31 Q2049.34 2636.46 2049.34 2644.87 Q2049.34 2653.27 2045.27 2658.43 Q2041.23 2663.58 2034.74 2663.58 Q2030.82 2663.58 2027.99 2662.06 Q2025.19 2660.5 2023.34 2657.31 M2043.27 2644.87 Q2043.27 2638.41 2040.59 2634.75 Q2037.95 2631.05 2033.3 2631.05 Q2028.66 2631.05 2025.98 2634.75 Q2023.34 2638.41 2023.34 2644.87 Q2023.34 2651.33 2025.98 2655.02 Q2028.66 2658.68 2033.3 2658.68 Q2037.95 2658.68 2040.59 2655.02 Q2043.27 2651.33 2043.27 2644.87 Z" fill="#000000" fill-rule="nonzero" fill-opacity="1" /><path clip-path="url(#clip930)" d="M2089.54 2643.37 L2089.54 2646.24 L2062.62 2646.24 Q2063 2652.28 2066.25 2655.47 Q2069.52 2658.62 2075.35 2658.62 Q2078.72 2658.62 2081.87 2657.79 Q2085.06 2656.96 2088.18 2655.31 L2088.18 2660.85 Q2085.02 2662.18 2081.71 2662.88 Q2078.4 2663.58 2075 2663.58 Q2066.47 2663.58 2061.47 2658.62 Q2056.51 2653.65 2056.51 2645.19 Q2056.51 2636.43 2061.22 2631.31 Q2065.96 2626.15 2073.98 2626.15 Q2081.17 2626.15 2085.34 2630.8 Q2089.54 2635.41 2089.54 2643.37 M2083.69 2641.65 Q2083.62 2636.85 2080.98 2633.98 Q2078.37 2631.12 2074.04 2631.12 Q2069.14 2631.12 2066.18 2633.89 Q2063.25 2636.66 2062.81 2641.68 L2083.69 2641.65 Z" fill="#000000" fill-rule="nonzero" fill-opacity="1" /><path clip-path="url(#clip930)" d="M2098.93 2627.01 L2107.5 2627.01 L2117.62 2650.88 L2127.77 2627.01 L2136.27 2627.01 L2136.27 2662.66 L2130.38 2662.66 L2130.38 2632.61 L2120.54 2655.82 L2114.69 2655.82 L2104.82 2632.61 L2104.82 2662.66 L2098.93 2662.66 L2098.93 2627.01 Z" fill="#000000" fill-rule="nonzero" fill-opacity="1" /><path clip-path="url(#clip930)" d="M2154.22 2637.29 Q2154.22 2639.93 2156.26 2641.43 Q2158.29 2642.93 2162.08 2642.93 L2169.97 2642.93 L2169.97 2631.69 L2162.08 2631.69 Q2158.29 2631.69 2156.26 2633.15 Q2154.22 2634.62 2154.22 2637.29 M2145.88 2662.66 L2156.77 2647.03 Q2153.07 2646.2 2150.62 2644.04 Q2148.17 2641.84 2148.17 2637.29 Q2148.17 2632.14 2151.58 2629.59 Q2155.02 2627.01 2161.92 2627.01 L2175.86 2627.01 L2175.86 2662.66 L2169.97 2662.66 L2169.97 2647.6 L2162.69 2647.6 L2152.18 2662.66 L2145.88 2662.66 Z" fill="#000000" fill-rule="nonzero" fill-opacity="1" /><polyline clip-path="url(#clip930)" style="stroke:#000000; stroke-linecap:round; stroke-linejoin:round; stroke-width:4; stroke-opacity:1; fill:none" points="356.318,2496.2 356.318,126.496 "/>
<polyline clip-path="url(#clip930)" style="stroke:#000000; stroke-linecap:round; stroke-linejoin:round; stroke-width:4; stroke-opacity:1; fill:none" points="356.318,2444.32 375.215,2444.32 "/>
<polyline clip-path="url(#clip930)" style="stroke:#000000; stroke-linecap:round; stroke-linejoin:round; stroke-width:4; stroke-opacity:1; fill:none" points="356.318,1801.24 375.215,1801.24 "/>
<polyline clip-path="url(#clip930)" style="stroke:#000000; stroke-linecap:round; stroke-linejoin:round; stroke-width:4; stroke-opacity:1; fill:none" points="356.318,1158.17 375.215,1158.17 "/>
<polyline clip-path="url(#clip930)" style="stroke:#000000; stroke-linecap:round; stroke-linejoin:round; stroke-width:4; stroke-opacity:1; fill:none" points="356.318,515.099 375.215,515.099 "/>
<path clip-path="url(#clip930)" d="M286.773 2430.12 Q283.162 2430.12 281.333 2433.68 Q279.528 2437.22 279.528 2444.35 Q279.528 2451.46 281.333 2455.02 Q283.162 2458.57 286.773 2458.57 Q290.407 2458.57 292.213 2455.02 Q294.042 2451.46 294.042 2444.35 Q294.042 2437.22 292.213 2433.68 Q290.407 2430.12 286.773 2430.12 M286.773 2426.41 Q292.583 2426.41 295.639 2431.02 Q298.718 2435.6 298.718 2444.35 Q298.718 2453.08 295.639 2457.69 Q292.583 2462.27 286.773 2462.27 Q280.963 2462.27 277.884 2457.69 Q274.829 2453.08 274.829 2444.35 Q274.829 2435.6 277.884 2431.02 Q280.963 2426.41 286.773 2426.41 Z" fill="#000000" fill-rule="nonzero" fill-opacity="1" /><path clip-path="url(#clip930)" d="M111.844 1821.04 L119.482 1821.04 L119.482 1794.67 L111.172 1796.34 L111.172 1792.08 L119.436 1790.41 L124.112 1790.41 L124.112 1821.04 L131.751 1821.04 L131.751 1824.97 L111.844 1824.97 L111.844 1821.04 Z" fill="#000000" fill-rule="nonzero" fill-opacity="1" /><path clip-path="url(#clip930)" d="M141.195 1819.09 L146.079 1819.09 L146.079 1824.97 L141.195 1824.97 L141.195 1819.09 Z" fill="#000000" fill-rule="nonzero" fill-opacity="1" /><path clip-path="url(#clip930)" d="M166.265 1793.49 Q162.653 1793.49 160.825 1797.06 Q159.019 1800.6 159.019 1807.73 Q159.019 1814.83 160.825 1818.4 Q162.653 1821.94 166.265 1821.94 Q169.899 1821.94 171.704 1818.4 Q173.533 1814.83 173.533 1807.73 Q173.533 1800.6 171.704 1797.06 Q169.899 1793.49 166.265 1793.49 M166.265 1789.79 Q172.075 1789.79 175.13 1794.39 Q178.209 1798.98 178.209 1807.73 Q178.209 1816.45 175.13 1821.06 Q172.075 1825.64 166.265 1825.64 Q160.454 1825.64 157.376 1821.06 Q154.32 1816.45 154.32 1807.73 Q154.32 1798.98 157.376 1794.39 Q160.454 1789.79 166.265 1789.79 Z" fill="#000000" fill-rule="nonzero" fill-opacity="1" /><path clip-path="url(#clip930)" d="M214.598 1799.51 L204.019 1810.13 L214.598 1820.71 L211.843 1823.51 L201.218 1812.89 L190.593 1823.51 L187.862 1820.71 L198.417 1810.13 L187.862 1799.51 L190.593 1796.71 L201.218 1807.33 L211.843 1796.71 L214.598 1799.51 Z" fill="#000000" fill-rule="nonzero" fill-opacity="1" /><path clip-path="url(#clip930)" d="M226.959 1821.04 L234.598 1821.04 L234.598 1794.67 L226.287 1796.34 L226.287 1792.08 L234.551 1790.41 L239.227 1790.41 L239.227 1821.04 L246.866 1821.04 L246.866 1824.97 L226.959 1824.97 L226.959 1821.04 Z" fill="#000000" fill-rule="nonzero" fill-opacity="1" /><path clip-path="url(#clip930)" d="M266.31 1793.49 Q262.699 1793.49 260.871 1797.06 Q259.065 1800.6 259.065 1807.73 Q259.065 1814.83 260.871 1818.4 Q262.699 1821.94 266.31 1821.94 Q269.945 1821.94 271.75 1818.4 Q273.579 1814.83 273.579 1807.73 Q273.579 1800.6 271.75 1797.06 Q269.945 1793.49 266.31 1793.49 M266.31 1789.79 Q272.12 1789.79 275.176 1794.39 Q278.255 1798.98 278.255 1807.73 Q278.255 1816.45 275.176 1821.06 Q272.12 1825.64 266.31 1825.64 Q260.5 1825.64 257.421 1821.06 Q254.366 1816.45 254.366 1807.73 Q254.366 1798.98 257.421 1794.39 Q260.5 1789.79 266.31 1789.79 Z" fill="#000000" fill-rule="nonzero" fill-opacity="1" /><path clip-path="url(#clip930)" d="M290.931 1772.79 L281.339 1787.78 L290.931 1787.78 L290.931 1772.79 M289.934 1769.48 L294.711 1769.48 L294.711 1787.78 L298.718 1787.78 L298.718 1790.94 L294.711 1790.94 L294.711 1797.56 L290.931 1797.56 L290.931 1790.94 L278.255 1790.94 L278.255 1787.27 L289.934 1769.48 Z" fill="#000000" fill-rule="nonzero" fill-opacity="1" /><path clip-path="url(#clip930)" d="M115.061 1177.96 L131.38 1177.96 L131.38 1181.9 L109.436 1181.9 L109.436 1177.96 Q112.098 1175.21 116.681 1170.58 Q121.288 1165.93 122.468 1164.59 Q124.714 1162.06 125.593 1160.33 Q126.496 1158.57 126.496 1156.88 Q126.496 1154.12 124.552 1152.39 Q122.631 1150.65 119.529 1150.65 Q117.33 1150.65 114.876 1151.41 Q112.445 1152.18 109.668 1153.73 L109.668 1149.01 Q112.492 1147.87 114.945 1147.29 Q117.399 1146.71 119.436 1146.71 Q124.806 1146.71 128.001 1149.4 Q131.195 1152.09 131.195 1156.58 Q131.195 1158.71 130.385 1160.63 Q129.598 1162.52 127.492 1165.12 Q126.913 1165.79 123.811 1169.01 Q120.709 1172.2 115.061 1177.96 Z" fill="#000000" fill-rule="nonzero" fill-opacity="1" /><path clip-path="url(#clip930)" d="M141.195 1176.02 L146.079 1176.02 L146.079 1181.9 L141.195 1181.9 L141.195 1176.02 Z" fill="#000000" fill-rule="nonzero" fill-opacity="1" /><path clip-path="url(#clip930)" d="M166.265 1150.42 Q162.653 1150.42 160.825 1153.98 Q159.019 1157.52 159.019 1164.65 Q159.019 1171.76 160.825 1175.33 Q162.653 1178.87 166.265 1178.87 Q169.899 1178.87 171.704 1175.33 Q173.533 1171.76 173.533 1164.65 Q173.533 1157.52 171.704 1153.98 Q169.899 1150.42 166.265 1150.42 M166.265 1146.71 Q172.075 1146.71 175.13 1151.32 Q178.209 1155.9 178.209 1164.65 Q178.209 1173.38 175.13 1177.99 Q172.075 1182.57 166.265 1182.57 Q160.454 1182.57 157.376 1177.99 Q154.32 1173.38 154.32 1164.65 Q154.32 1155.9 157.376 1151.32 Q160.454 1146.71 166.265 1146.71 Z" fill="#000000" fill-rule="nonzero" fill-opacity="1" /><path clip-path="url(#clip930)" d="M214.598 1156.44 L204.019 1167.06 L214.598 1177.64 L211.843 1180.44 L201.218 1169.82 L190.593 1180.44 L187.862 1177.64 L198.417 1167.06 L187.862 1156.44 L190.593 1153.64 L201.218 1164.26 L211.843 1153.64 L214.598 1156.44 Z" fill="#000000" fill-rule="nonzero" fill-opacity="1" /><path clip-path="url(#clip930)" d="M226.959 1177.96 L234.598 1177.96 L234.598 1151.6 L226.287 1153.27 L226.287 1149.01 L234.551 1147.34 L239.227 1147.34 L239.227 1177.96 L246.866 1177.96 L246.866 1181.9 L226.959 1181.9 L226.959 1177.96 Z" fill="#000000" fill-rule="nonzero" fill-opacity="1" /><path clip-path="url(#clip930)" d="M266.31 1150.42 Q262.699 1150.42 260.871 1153.98 Q259.065 1157.52 259.065 1164.65 Q259.065 1171.76 260.871 1175.33 Q262.699 1178.87 266.31 1178.87 Q269.945 1178.87 271.75 1175.33 Q273.579 1171.76 273.579 1164.65 Q273.579 1157.52 271.75 1153.98 Q269.945 1150.42 266.31 1150.42 M266.31 1146.71 Q272.12 1146.71 275.176 1151.32 Q278.255 1155.9 278.255 1164.65 Q278.255 1173.38 275.176 1177.99 Q272.12 1182.57 266.31 1182.57 Q260.5 1182.57 257.421 1177.99 Q254.366 1173.38 254.366 1164.65 Q254.366 1155.9 257.421 1151.32 Q260.5 1146.71 266.31 1146.71 Z" fill="#000000" fill-rule="nonzero" fill-opacity="1" /><path clip-path="url(#clip930)" d="M290.931 1129.72 L281.339 1144.71 L290.931 1144.71 L290.931 1129.72 M289.934 1126.41 L294.711 1126.41 L294.711 1144.71 L298.718 1144.71 L298.718 1147.87 L294.711 1147.87 L294.711 1154.49 L290.931 1154.49 L290.931 1147.87 L278.255 1147.87 L278.255 1144.2 L289.934 1126.41 Z" fill="#000000" fill-rule="nonzero" fill-opacity="1" /><path clip-path="url(#clip930)" d="M125.2 520.193 Q128.556 520.91 130.431 523.179 Q132.33 525.448 132.33 528.781 Q132.33 533.897 128.811 536.697 Q125.293 539.498 118.811 539.498 Q116.635 539.498 114.32 539.059 Q112.029 538.642 109.575 537.785 L109.575 533.272 Q111.519 534.406 113.834 534.984 Q116.149 535.563 118.672 535.563 Q123.07 535.563 125.362 533.827 Q127.677 532.091 127.677 528.781 Q127.677 525.725 125.524 524.012 Q123.394 522.276 119.575 522.276 L115.547 522.276 L115.547 518.434 L119.76 518.434 Q123.209 518.434 125.038 517.068 Q126.867 515.679 126.867 513.086 Q126.867 510.424 124.968 509.012 Q123.093 507.577 119.575 507.577 Q117.654 507.577 115.455 507.994 Q113.256 508.411 110.617 509.29 L110.617 505.124 Q113.279 504.383 115.594 504.012 Q117.931 503.642 119.992 503.642 Q125.316 503.642 128.418 506.073 Q131.519 508.48 131.519 512.6 Q131.519 515.471 129.876 517.461 Q128.232 519.429 125.2 520.193 Z" fill="#000000" fill-rule="nonzero" fill-opacity="1" /><path clip-path="url(#clip930)" d="M141.195 532.947 L146.079 532.947 L146.079 538.827 L141.195 538.827 L141.195 532.947 Z" fill="#000000" fill-rule="nonzero" fill-opacity="1" /><path clip-path="url(#clip930)" d="M166.265 507.346 Q162.653 507.346 160.825 510.911 Q159.019 514.452 159.019 521.582 Q159.019 528.688 160.825 532.253 Q162.653 535.795 166.265 535.795 Q169.899 535.795 171.704 532.253 Q173.533 528.688 173.533 521.582 Q173.533 514.452 171.704 510.911 Q169.899 507.346 166.265 507.346 M166.265 503.642 Q172.075 503.642 175.13 508.249 Q178.209 512.832 178.209 521.582 Q178.209 530.309 175.13 534.915 Q172.075 539.498 166.265 539.498 Q160.454 539.498 157.376 534.915 Q154.32 530.309 154.32 521.582 Q154.32 512.832 157.376 508.249 Q160.454 503.642 166.265 503.642 Z" fill="#000000" fill-rule="nonzero" fill-opacity="1" /><path clip-path="url(#clip930)" d="M214.598 513.364 L204.019 523.989 L214.598 534.568 L211.843 537.369 L201.218 526.744 L190.593 537.369 L187.862 534.568 L198.417 523.989 L187.862 513.364 L190.593 510.563 L201.218 521.188 L211.843 510.563 L214.598 513.364 Z" fill="#000000" fill-rule="nonzero" fill-opacity="1" /><path clip-path="url(#clip930)" d="M226.959 534.892 L234.598 534.892 L234.598 508.526 L226.287 510.193 L226.287 505.934 L234.551 504.267 L239.227 504.267 L239.227 534.892 L246.866 534.892 L246.866 538.827 L226.959 538.827 L226.959 534.892 Z" fill="#000000" fill-rule="nonzero" fill-opacity="1" /><path clip-path="url(#clip930)" d="M266.31 507.346 Q262.699 507.346 260.871 510.911 Q259.065 514.452 259.065 521.582 Q259.065 528.688 260.871 532.253 Q262.699 535.795 266.31 535.795 Q269.945 535.795 271.75 532.253 Q273.579 528.688 273.579 521.582 Q273.579 514.452 271.75 510.911 Q269.945 507.346 266.31 507.346 M266.31 503.642 Q272.12 503.642 275.176 508.249 Q278.255 512.832 278.255 521.582 Q278.255 530.309 275.176 534.915 Q272.12 539.498 266.31 539.498 Q260.5 539.498 257.421 534.915 Q254.366 530.309 254.366 521.582 Q254.366 512.832 257.421 508.249 Q260.5 503.642 266.31 503.642 Z" fill="#000000" fill-rule="nonzero" fill-opacity="1" /><path clip-path="url(#clip930)" d="M290.931 486.647 L281.339 501.637 L290.931 501.637 L290.931 486.647 M289.934 483.337 L294.711 483.337 L294.711 501.637 L298.718 501.637 L298.718 504.796 L294.711 504.796 L294.711 511.417 L290.931 511.417 L290.931 504.796 L278.255 504.796 L278.255 501.129 L289.934 483.337 Z" fill="#000000" fill-rule="nonzero" fill-opacity="1" /><path clip-path="url(#clip930)" d="M37.5802 1501.38 L18.1011 1501.38 L18.1011 1514.65 Q18.1011 1520.57 14.409 1524.1 Q10.685 1527.64 3.10986 1527.64 L-9.93984 1527.64 L-9.93984 1521.24 L2.6006 1521.24 Q7.66134 1521.24 10.1758 1519.27 Q12.6902 1517.29 12.6902 1513.35 L12.6902 1501.38 L-9.93984 1501.38 L-9.93984 1494.92 L37.5802 1494.92 L37.5802 1501.38 Z" fill="#000000" fill-rule="nonzero" fill-opacity="1" /><path clip-path="url(#clip930)" d="M1.9322 1452.08 L37.5802 1452.08 L37.5802 1457.9 L8.96631 1457.9 L37.5802 1475.09 L37.5802 1482.6 L1.9322 1482.6 L1.9322 1476.77 L30.4824 1476.77 L1.9322 1459.62 L1.9322 1452.08 Z" fill="#000000" fill-rule="nonzero" fill-opacity="1" /><path clip-path="url(#clip930)" d="M3.30083 1414.36 L8.77533 1414.36 Q7.40671 1416.84 6.73831 1419.36 Q6.03808 1421.84 6.03808 1424.39 Q6.03808 1430.08 9.66653 1433.23 Q13.2632 1436.38 19.788 1436.38 Q26.3129 1436.38 29.9413 1433.23 Q33.5379 1430.08 33.5379 1424.39 Q33.5379 1421.84 32.8695 1419.36 Q32.1693 1416.84 30.8007 1414.36 L36.2115 1414.36 Q37.3574 1416.81 37.9303 1419.45 Q38.5032 1422.06 38.5032 1425.02 Q38.5032 1433.07 33.4424 1437.82 Q28.3817 1442.56 19.788 1442.56 Q11.067 1442.56 6.06991 1437.78 Q1.07283 1432.98 1.07283 1424.64 Q1.07283 1421.93 1.64574 1419.36 Q2.18683 1416.78 3.30083 1414.36 Z" fill="#000000" fill-rule="nonzero" fill-opacity="1" /><path clip-path="url(#clip930)" d="M37.5802 1407.9 L32.7104 1407.9 Q31.8192 1402.11 27.8088 1400.32 Q22.1751 1398.16 7.75682 1398.16 L1.9322 1398.16 L1.9322 1374.06 L37.5802 1374.06 L37.5802 1379.92 L6.61099 1379.92 L6.61099 1392.3 L10.144 1392.3 Q23.8939 1392.3 30.0686 1395.1 Q36.6571 1398.09 37.5802 1407.9 Z" fill="#000000" fill-rule="nonzero" fill-opacity="1" /><path clip-path="url(#clip930)" d="M18.2921 1332.02 L21.1566 1332.02 L21.1566 1358.95 Q27.2041 1358.56 30.3869 1355.32 Q33.5379 1352.04 33.5379 1346.21 Q33.5379 1342.84 32.7104 1339.69 Q31.8829 1336.51 30.2278 1333.39 L35.7659 1333.39 Q37.1027 1336.54 37.803 1339.85 Q38.5032 1343.16 38.5032 1346.56 Q38.5032 1355.09 33.5379 1360.09 Q28.5727 1365.06 20.1063 1365.06 Q11.3534 1365.06 6.22905 1360.35 Q1.07283 1355.6 1.07283 1347.58 Q1.07283 1340.39 5.7198 1336.22 Q10.3349 1332.02 18.2921 1332.02 M16.5733 1337.88 Q11.7672 1337.94 8.90265 1340.58 Q6.03808 1343.19 6.03808 1347.52 Q6.03808 1352.42 8.80716 1355.38 Q11.5762 1358.31 16.6052 1358.75 L16.5733 1337.88 Z" fill="#000000" fill-rule="nonzero" fill-opacity="1" /><path clip-path="url(#clip930)" d="M1.9322 1322.63 L1.9322 1316.74 L16.4778 1316.74 L16.4778 1297.74 L1.9322 1297.74 L1.9322 1291.85 L37.5802 1291.85 L37.5802 1297.74 L21.1566 1297.74 L21.1566 1316.74 L37.5802 1316.74 L37.5802 1322.63 L1.9322 1322.63 Z" fill="#000000" fill-rule="nonzero" fill-opacity="1" /><path clip-path="url(#clip930)" d="M1.9322 1280.01 L1.9322 1274.12 L16.4778 1274.12 L16.4778 1255.12 L1.9322 1255.12 L1.9322 1249.23 L37.5802 1249.23 L37.5802 1255.12 L21.1566 1255.12 L21.1566 1274.12 L37.5802 1274.12 L37.5802 1280.01 L1.9322 1280.01 Z" fill="#000000" fill-rule="nonzero" fill-opacity="1" /><path clip-path="url(#clip930)" d="M6.03808 1223.36 Q6.03808 1228.07 9.73019 1230.8 Q13.3905 1233.54 19.788 1233.54 Q26.1855 1233.54 29.8777 1230.84 Q33.5379 1228.1 33.5379 1223.36 Q33.5379 1218.68 29.8458 1215.94 Q26.1537 1213.2 19.788 1213.2 Q13.4541 1213.2 9.76202 1215.94 Q6.03808 1218.68 6.03808 1223.36 M1.07283 1223.36 Q1.07283 1215.72 6.03808 1211.36 Q11.0033 1207 19.788 1207 Q28.5409 1207 33.5379 1211.36 Q38.5032 1215.72 38.5032 1223.36 Q38.5032 1231.03 33.5379 1235.39 Q28.5409 1239.72 19.788 1239.72 Q11.0033 1239.72 6.03808 1235.39 Q1.07283 1231.03 1.07283 1223.36 Z" fill="#000000" fill-rule="nonzero" fill-opacity="1" /><path clip-path="url(#clip930)" d="M3.30083 1171.63 L8.77533 1171.63 Q7.40671 1174.12 6.73831 1176.63 Q6.03808 1179.11 6.03808 1181.66 Q6.03808 1187.36 9.66653 1190.51 Q13.2632 1193.66 19.788 1193.66 Q26.3129 1193.66 29.9413 1190.51 Q33.5379 1187.36 33.5379 1181.66 Q33.5379 1179.11 32.8695 1176.63 Q32.1693 1174.12 30.8007 1171.63 L36.2115 1171.63 Q37.3574 1174.09 37.9303 1176.73 Q38.5032 1179.34 38.5032 1182.3 Q38.5032 1190.35 33.4424 1195.09 Q28.3817 1199.83 19.788 1199.83 Q11.067 1199.83 6.06991 1195.06 Q1.07283 1190.25 1.07283 1181.92 Q1.07283 1179.21 1.64574 1176.63 Q2.18683 1174.05 3.30083 1171.63 Z" fill="#000000" fill-rule="nonzero" fill-opacity="1" /><path clip-path="url(#clip930)" d="M1.9322 1165.68 L1.9322 1131.53 L6.61099 1131.53 L6.61099 1145.73 L37.5802 1145.73 L37.5802 1151.49 L6.61099 1151.49 L6.61099 1165.68 L1.9322 1165.68 Z" fill="#000000" fill-rule="nonzero" fill-opacity="1" /><path clip-path="url(#clip930)" d="M27.0131 1101.29 Q24.1485 1101.29 22.6526 1103.39 Q21.1566 1105.46 21.1566 1109.47 L21.1566 1117.81 L32.9014 1117.81 L32.9014 1109.47 Q32.9014 1105.46 31.4054 1103.39 Q29.8777 1101.29 27.0131 1101.29 M1.9322 1123.7 L1.9322 1117.81 L16.4778 1117.81 L16.4778 1109.22 Q16.4778 1102.41 19.0878 1098.75 Q21.6659 1095.06 27.0131 1095.06 Q32.3603 1095.06 34.9702 1098.75 Q37.5802 1102.41 37.5802 1109.22 L37.5802 1123.7 L1.9322 1123.7 Z" fill="#000000" fill-rule="nonzero" fill-opacity="1" /><path clip-path="url(#clip930)" d="M1333.08 18.8205 L1333.08 41.5461 L1343.37 41.5461 Q1349.08 41.5461 1352.2 38.5889 Q1355.32 35.6318 1355.32 30.163 Q1355.32 24.7348 1352.2 21.7777 Q1349.08 18.8205 1343.37 18.8205 L1333.08 18.8205 M1324.9 12.096 L1343.37 12.096 Q1353.54 12.096 1358.72 16.714 Q1363.95 21.2916 1363.95 30.163 Q1363.95 39.1155 1358.72 43.6931 Q1353.54 48.2706 1343.37 48.2706 L1333.08 48.2706 L1333.08 72.576 L1324.9 72.576 L1324.9 12.096 Z" fill="#000000" fill-rule="nonzero" fill-opacity="1" /><path clip-path="url(#clip930)" d="M1413.41 48.0275 L1413.41 51.6733 L1379.14 51.6733 Q1379.62 59.3701 1383.76 63.421 Q1387.93 67.4314 1395.34 67.4314 Q1399.64 67.4314 1403.65 66.3781 Q1407.7 65.3249 1411.67 63.2184 L1411.67 70.267 Q1407.66 71.9684 1403.44 72.8596 Q1399.23 73.7508 1394.9 73.7508 Q1384.04 73.7508 1377.68 67.4314 Q1371.36 61.1119 1371.36 50.3365 Q1371.36 39.1965 1377.36 32.6746 Q1383.39 26.1121 1393.6 26.1121 Q1402.76 26.1121 1408.06 32.0264 Q1413.41 37.9003 1413.41 48.0275 M1405.96 45.84 Q1405.87 39.7232 1402.51 36.0774 Q1399.19 32.4315 1393.68 32.4315 Q1387.44 32.4315 1383.68 35.9558 Q1379.95 39.4801 1379.38 45.8805 L1405.96 45.84 Z" fill="#000000" fill-rule="nonzero" fill-opacity="1" /><path clip-path="url(#clip930)" d="M1425.36 72.576 L1425.36 27.2059 L1457.36 27.2059 L1457.36 33.1607 L1432.85 33.1607 L1432.85 72.576 L1425.36 72.576 Z" fill="#000000" fill-rule="nonzero" fill-opacity="1" /><path clip-path="url(#clip930)" d="M1488.11 76.7889 Q1484.95 84.8907 1481.95 87.3618 Q1478.95 89.8329 1473.93 89.8329 L1467.97 89.8329 L1467.97 83.5945 L1472.35 83.5945 Q1475.43 83.5945 1477.13 82.1361 Q1478.83 80.6778 1480.9 75.2496 L1482.23 71.8468 L1463.88 27.2059 L1471.78 27.2059 L1485.96 62.6918 L1500.14 27.2059 L1508.04 27.2059 L1488.11 76.7889 Z" fill="#000000" fill-rule="nonzero" fill-opacity="1" /><path clip-path="url(#clip930)" d="M1513.59 72.576 L1513.59 66.3781 Q1520.96 65.2439 1523.23 60.1397 Q1525.98 52.9696 1525.98 34.619 L1525.98 27.2059 L1556.65 27.2059 L1556.65 72.576 L1549.2 72.576 L1549.2 33.1607 L1533.44 33.1607 L1533.44 37.6572 Q1533.44 55.1571 1529.87 63.0159 Q1526.06 71.4012 1513.59 72.576 Z" fill="#000000" fill-rule="nonzero" fill-opacity="1" /><path clip-path="url(#clip930)" d="M1578.85 40.2903 Q1578.85 43.6525 1581.44 45.5565 Q1584.03 47.4604 1588.85 47.4604 L1598.9 47.4604 L1598.9 33.1607 L1588.85 33.1607 Q1584.03 33.1607 1581.44 35.0241 Q1578.85 36.8875 1578.85 40.2903 M1568.23 72.576 L1582.09 52.6861 Q1577.39 51.6328 1574.27 48.8782 Q1571.15 46.0831 1571.15 40.2903 Q1571.15 33.7278 1575.49 30.4871 Q1579.86 27.2059 1588.65 27.2059 L1606.39 27.2059 L1606.39 72.576 L1598.9 72.576 L1598.9 53.4152 L1589.62 53.4152 L1576.26 72.576 L1568.23 72.576 Z" fill="#000000" fill-rule="nonzero" fill-opacity="1" /><path clip-path="url(#clip930)" d="M1628.47 65.7705 L1628.47 89.8329 L1620.98 89.8329 L1620.98 27.2059 L1628.47 27.2059 L1628.47 34.0924 Q1630.82 30.0415 1634.39 28.0971 Q1637.99 26.1121 1642.97 26.1121 Q1651.24 26.1121 1656.38 32.6746 Q1661.57 39.2371 1661.57 49.9314 Q1661.57 60.6258 1656.38 67.1883 Q1651.24 73.7508 1642.97 73.7508 Q1637.99 73.7508 1634.39 71.8063 Q1630.82 69.8214 1628.47 65.7705 M1653.83 49.9314 Q1653.83 41.7081 1650.43 37.0496 Q1647.07 32.3505 1641.15 32.3505 Q1635.24 32.3505 1631.83 37.0496 Q1628.47 41.7081 1628.47 49.9314 Q1628.47 58.1548 1631.83 62.8538 Q1635.24 67.5124 1641.15 67.5124 Q1647.07 67.5124 1650.43 62.8538 Q1653.83 58.1548 1653.83 49.9314 Z" fill="#000000" fill-rule="nonzero" fill-opacity="1" /><path clip-path="url(#clip930)" d="M1673.64 27.2059 L1681.13 27.2059 L1681.13 45.7185 L1705.32 45.7185 L1705.32 27.2059 L1712.81 27.2059 L1712.81 72.576 L1705.32 72.576 L1705.32 51.6733 L1681.13 51.6733 L1681.13 72.576 L1673.64 72.576 L1673.64 27.2059 Z" fill="#000000" fill-rule="nonzero" fill-opacity="1" /><path clip-path="url(#clip930)" d="M1771.02 27.2059 L1778.48 27.2059 L1778.48 72.576 L1771.02 72.576 L1771.02 27.2059 M1774.75 26.1121 L1774.75 26.1121 M1756.4 59.127 Q1756.4 55.4812 1753.73 53.5773 Q1751.09 51.6733 1745.99 51.6733 L1735.37 51.6733 L1735.37 66.6212 L1745.99 66.6212 Q1751.09 66.6212 1753.73 64.7172 Q1756.4 62.7728 1756.4 59.127 M1727.88 27.2059 L1735.37 27.2059 L1735.37 45.7185 L1746.31 45.7185 Q1754.98 45.7185 1759.64 49.0402 Q1764.34 52.3215 1764.34 59.127 Q1764.34 65.9325 1759.64 69.2543 Q1754.98 72.576 1746.31 72.576 L1727.88 72.576 L1727.88 27.2059 Z" fill="#000000" fill-rule="nonzero" fill-opacity="1" /><path clip-path="url(#clip930)" d="M1832.47 48.0275 L1832.47 51.6733 L1798.2 51.6733 Q1798.69 59.3701 1802.82 63.421 Q1806.99 67.4314 1814.41 67.4314 Q1818.7 67.4314 1822.71 66.3781 Q1826.76 65.3249 1830.73 63.2184 L1830.73 70.267 Q1826.72 71.9684 1822.51 72.8596 Q1818.3 73.7508 1813.96 73.7508 Q1803.11 73.7508 1796.75 67.4314 Q1790.43 61.1119 1790.43 50.3365 Q1790.43 39.1965 1796.42 32.6746 Q1802.46 26.1121 1812.67 26.1121 Q1821.82 26.1121 1827.13 32.0264 Q1832.47 37.9003 1832.47 48.0275 M1825.02 45.84 Q1824.94 39.7232 1821.58 36.0774 Q1818.26 32.4315 1812.75 32.4315 Q1806.51 32.4315 1802.74 35.9558 Q1799.01 39.4801 1798.45 45.8805 L1825.02 45.84 Z" fill="#000000" fill-rule="nonzero" fill-opacity="1" /><path clip-path="url(#clip930)" d="M1878.25 51.6733 L1878.25 66.6212 L1888.86 66.6212 Q1893.97 66.6212 1896.64 64.7172 Q1899.31 62.7728 1899.31 59.127 Q1899.31 55.4812 1896.64 53.5773 Q1893.97 51.6733 1888.86 51.6733 L1878.25 51.6733 M1878.25 33.1607 L1878.25 45.7185 L1888.05 45.7185 Q1892.27 45.7185 1894.94 44.0576 Q1897.61 42.3563 1897.61 39.3586 Q1897.61 36.3609 1894.94 34.7811 Q1892.27 33.1607 1888.05 33.1607 L1878.25 33.1607 M1870.8 27.2059 L1888.54 27.2059 Q1896.52 27.2059 1900.81 30.1225 Q1905.11 33.0392 1905.11 38.4269 Q1905.11 42.5993 1902.92 45.0704 Q1900.73 47.5009 1896.44 48.1085 Q1901.58 49.0808 1904.42 52.1594 Q1907.25 55.2381 1907.25 59.8562 Q1907.25 65.9325 1902.56 69.2543 Q1897.9 72.576 1889.23 72.576 L1870.8 72.576 L1870.8 27.2059 Z" fill="#000000" fill-rule="nonzero" fill-opacity="1" /><path clip-path="url(#clip930)" d="M1937.56 32.4315 Q1931.56 32.4315 1928.08 37.1306 Q1924.59 41.7891 1924.59 49.9314 Q1924.59 58.0738 1928.04 62.7728 Q1931.52 67.4314 1937.56 67.4314 Q1943.51 67.4314 1946.99 62.7323 Q1950.48 58.0333 1950.48 49.9314 Q1950.48 41.8701 1946.99 37.1711 Q1943.51 32.4315 1937.56 32.4315 M1937.56 26.1121 Q1947.28 26.1121 1952.83 32.4315 Q1958.38 38.7509 1958.38 49.9314 Q1958.38 61.0714 1952.83 67.4314 Q1947.28 73.7508 1937.56 73.7508 Q1927.79 73.7508 1922.24 67.4314 Q1916.73 61.0714 1916.73 49.9314 Q1916.73 38.7509 1922.24 32.4315 Q1927.79 26.1121 1937.56 26.1121 Z" fill="#000000" fill-rule="nonzero" fill-opacity="1" /><path clip-path="url(#clip930)" d="M2009.3 27.2059 L2009.3 72.576 L2001.88 72.576 L2001.88 36.1584 L1980.01 72.576 L1970.45 72.576 L1970.45 27.2059 L1977.86 27.2059 L1977.86 63.5425 L1999.7 27.2059 L2009.3 27.2059 M1977.21 9.54393 L1981.99 9.54393 Q1982.44 12.5821 1984.38 14.1215 Q1986.37 15.6203 1989.89 15.6203 Q1993.38 15.6203 1995.32 14.1215 Q1997.27 12.6226 1997.79 9.54393 L2002.57 9.54393 Q2002.17 15.3367 1998.97 18.2534 Q1995.77 21.17 1989.89 21.17 Q1984.02 21.17 1980.82 18.2534 Q1977.62 15.3367 1977.21 9.54393 Z" fill="#000000" fill-rule="nonzero" fill-opacity="1" /><path clip-path="url(#clip930)" d="M2057.3 28.9478 L2057.3 35.9153 Q2054.14 34.1734 2050.94 33.3227 Q2047.78 32.4315 2044.54 32.4315 Q2037.29 32.4315 2033.28 37.0496 Q2029.27 41.6271 2029.27 49.9314 Q2029.27 58.2358 2033.28 62.8538 Q2037.29 67.4314 2044.54 67.4314 Q2047.78 67.4314 2050.94 66.5807 Q2054.14 65.6895 2057.3 63.9476 L2057.3 70.8341 Q2054.18 72.2924 2050.82 73.0216 Q2047.5 73.7508 2043.73 73.7508 Q2033.48 73.7508 2027.44 67.3098 Q2021.41 60.8689 2021.41 49.9314 Q2021.41 38.832 2027.49 32.472 Q2033.6 26.1121 2044.22 26.1121 Q2047.66 26.1121 2050.94 26.8413 Q2054.22 27.5299 2057.3 28.9478 Z" fill="#000000" fill-rule="nonzero" fill-opacity="1" /><path clip-path="url(#clip930)" d="M2069.98 27.2059 L2077.39 27.2059 L2077.39 48.5136 L2098.42 27.2059 L2107.57 27.2059 L2090.23 44.7463 L2109.8 72.576 L2101.45 72.576 L2085.37 49.6884 L2077.39 57.7902 L2077.39 72.576 L2069.98 72.576 L2069.98 27.2059 Z" fill="#000000" fill-rule="nonzero" fill-opacity="1" /><path clip-path="url(#clip930)" d="M2140.99 49.7694 Q2131.96 49.7694 2128.47 51.8354 Q2124.99 53.9013 2124.99 58.8839 Q2124.99 62.8538 2127.58 65.2034 Q2130.22 67.5124 2134.71 67.5124 Q2140.91 67.5124 2144.64 63.1374 Q2148.4 58.7219 2148.4 51.4303 L2148.4 49.7694 L2140.99 49.7694 M2155.86 46.6907 L2155.86 72.576 L2148.4 72.576 L2148.4 65.6895 Q2145.85 69.8214 2142.05 71.8063 Q2138.24 73.7508 2132.73 73.7508 Q2125.76 73.7508 2121.63 69.8619 Q2117.54 65.9325 2117.54 59.3701 Q2117.54 51.7138 2122.64 47.825 Q2127.79 43.9361 2137.95 43.9361 L2148.4 43.9361 L2148.4 43.2069 Q2148.4 38.0623 2145 35.2672 Q2141.64 32.4315 2135.52 32.4315 Q2131.63 32.4315 2127.95 33.3632 Q2124.26 34.295 2120.86 36.1584 L2120.86 29.2718 Q2124.95 27.692 2128.8 26.9223 Q2132.65 26.1121 2136.29 26.1121 Q2146.14 26.1121 2151 31.2163 Q2155.86 36.3204 2155.86 46.6907 Z" fill="#000000" fill-rule="nonzero" fill-opacity="1" /><path clip-path="url(#clip930)" d="M2192.24 27.2059 L2200.14 27.2059 L2214.31 65.2844 L2228.49 27.2059 L2236.39 27.2059 L2219.38 72.576 L2209.25 72.576 L2192.24 27.2059 Z" fill="#000000" fill-rule="nonzero" fill-opacity="1" /><path clip-path="url(#clip930)" d="M2275.6 28.5427 L2275.6 35.5912 Q2272.44 33.9709 2269.04 33.1607 Q2265.64 32.3505 2261.99 32.3505 Q2256.44 32.3505 2253.65 34.0519 Q2250.89 35.7533 2250.89 39.156 Q2250.89 41.7486 2252.88 43.2475 Q2254.86 44.7058 2260.86 46.0426 L2263.41 46.6097 Q2271.35 48.3111 2274.67 51.4303 Q2278.03 54.509 2278.03 60.0587 Q2278.03 66.3781 2273.01 70.0644 Q2268.03 73.7508 2259.28 73.7508 Q2255.63 73.7508 2251.66 73.0216 Q2247.73 72.3329 2243.36 70.9151 L2243.36 63.2184 Q2247.49 65.3654 2251.5 66.4591 Q2255.51 67.5124 2259.44 67.5124 Q2264.71 67.5124 2267.54 65.73 Q2270.38 63.9071 2270.38 60.6258 Q2270.38 57.5877 2268.31 55.9673 Q2266.29 54.3469 2259.36 52.8481 L2256.77 52.2405 Q2249.84 50.7821 2246.76 47.7845 Q2243.68 44.7463 2243.68 39.4801 Q2243.68 33.0797 2248.22 29.5959 Q2252.76 26.1121 2261.1 26.1121 Q2265.23 26.1121 2268.88 26.7198 Q2272.52 27.3274 2275.6 28.5427 Z" fill="#000000" fill-rule="nonzero" fill-opacity="1" /><path clip-path="url(#clip930)" d="M2324.78 18.8205 L2324.78 41.5461 L2335.07 41.5461 Q2340.78 41.5461 2343.9 38.5889 Q2347.02 35.6318 2347.02 30.163 Q2347.02 24.7348 2343.9 21.7777 Q2340.78 18.8205 2335.07 18.8205 L2324.78 18.8205 M2316.6 12.096 L2335.07 12.096 Q2345.24 12.096 2350.42 16.714 Q2355.65 21.2916 2355.65 30.163 Q2355.65 39.1155 2350.42 43.6931 Q2345.24 48.2706 2335.07 48.2706 L2324.78 48.2706 L2324.78 72.576 L2316.6 72.576 L2316.6 12.096 Z" fill="#000000" fill-rule="nonzero" fill-opacity="1" /><path clip-path="url(#clip930)" d="M2405.11 48.0275 L2405.11 51.6733 L2370.84 51.6733 Q2371.33 59.3701 2375.46 63.421 Q2379.63 67.4314 2387.04 67.4314 Q2391.34 67.4314 2395.35 66.3781 Q2399.4 65.3249 2403.37 63.2184 L2403.37 70.267 Q2399.36 71.9684 2395.15 72.8596 Q2390.93 73.7508 2386.6 73.7508 Q2375.74 73.7508 2369.38 67.4314 Q2363.06 61.1119 2363.06 50.3365 Q2363.06 39.1965 2369.06 32.6746 Q2375.09 26.1121 2385.3 26.1121 Q2394.46 26.1121 2399.76 32.0264 Q2405.11 37.9003 2405.11 48.0275 M2397.66 45.84 Q2397.58 39.7232 2394.21 36.0774 Q2390.89 32.4315 2385.38 32.4315 Q2379.14 32.4315 2375.38 35.9558 Q2371.65 39.4801 2371.08 45.8805 L2397.66 45.84 Z" fill="#000000" fill-rule="nonzero" fill-opacity="1" /><path clip-path="url(#clip930)" d="M2417.06 72.576 L2417.06 27.2059 L2449.06 27.2059 L2449.06 33.1607 L2424.56 33.1607 L2424.56 72.576 L2417.06 72.576 Z" fill="#000000" fill-rule="nonzero" fill-opacity="1" /><path clip-path="url(#clip930)" d="M2479.81 76.7889 Q2476.65 84.8907 2473.65 87.3618 Q2470.65 89.8329 2465.63 89.8329 L2459.68 89.8329 L2459.68 83.5945 L2464.05 83.5945 Q2467.13 83.5945 2468.83 82.1361 Q2470.53 80.6778 2472.6 75.2496 L2473.94 71.8468 L2455.59 27.2059 L2463.48 27.2059 L2477.66 62.6918 L2491.84 27.2059 L2499.74 27.2059 L2479.81 76.7889 Z" fill="#000000" fill-rule="nonzero" fill-opacity="1" /><path clip-path="url(#clip930)" d="M2505.29 72.576 L2505.29 66.3781 Q2512.66 65.2439 2514.93 60.1397 Q2517.69 52.9696 2517.69 34.619 L2517.69 27.2059 L2548.35 27.2059 L2548.35 72.576 L2540.9 72.576 L2540.9 33.1607 L2525.14 33.1607 L2525.14 37.6572 Q2525.14 55.1571 2521.57 63.0159 Q2517.77 71.4012 2505.29 72.576 Z" fill="#000000" fill-rule="nonzero" fill-opacity="1" /><path clip-path="url(#clip930)" d="M2570.55 40.2903 Q2570.55 43.6525 2573.14 45.5565 Q2575.73 47.4604 2580.56 47.4604 L2590.6 47.4604 L2590.6 33.1607 L2580.56 33.1607 Q2575.73 33.1607 2573.14 35.0241 Q2570.55 36.8875 2570.55 40.2903 M2559.94 72.576 L2573.79 52.6861 Q2569.09 51.6328 2565.97 48.8782 Q2562.85 46.0831 2562.85 40.2903 Q2562.85 33.7278 2567.19 30.4871 Q2571.56 27.2059 2580.35 27.2059 L2598.1 27.2059 L2598.1 72.576 L2590.6 72.576 L2590.6 53.4152 L2581.33 53.4152 L2567.96 72.576 L2559.94 72.576 Z" fill="#000000" fill-rule="nonzero" fill-opacity="1" /><path clip-path="url(#clip930)" d="M2620.17 65.7705 L2620.17 89.8329 L2612.68 89.8329 L2612.68 27.2059 L2620.17 27.2059 L2620.17 34.0924 Q2622.52 30.0415 2626.09 28.0971 Q2629.69 26.1121 2634.68 26.1121 Q2642.94 26.1121 2648.08 32.6746 Q2653.27 39.2371 2653.27 49.9314 Q2653.27 60.6258 2648.08 67.1883 Q2642.94 73.7508 2634.68 73.7508 Q2629.69 73.7508 2626.09 71.8063 Q2622.52 69.8214 2620.17 65.7705 M2645.53 49.9314 Q2645.53 41.7081 2642.13 37.0496 Q2638.77 32.3505 2632.85 32.3505 Q2626.94 32.3505 2623.54 37.0496 Q2620.17 41.7081 2620.17 49.9314 Q2620.17 58.1548 2623.54 62.8538 Q2626.94 67.5124 2632.85 67.5124 Q2638.77 67.5124 2642.13 62.8538 Q2645.53 58.1548 2645.53 49.9314 Z" fill="#000000" fill-rule="nonzero" fill-opacity="1" /><path clip-path="url(#clip930)" d="M2665.34 27.2059 L2672.84 27.2059 L2672.84 45.7185 L2697.02 45.7185 L2697.02 27.2059 L2704.51 27.2059 L2704.51 72.576 L2697.02 72.576 L2697.02 51.6733 L2672.84 51.6733 L2672.84 72.576 L2665.34 72.576 L2665.34 27.2059 Z" fill="#000000" fill-rule="nonzero" fill-opacity="1" /><path clip-path="url(#clip930)" d="M2762.72 27.2059 L2770.18 27.2059 L2770.18 72.576 L2762.72 72.576 L2762.72 27.2059 M2766.45 26.1121 L2766.45 26.1121 M2748.1 59.127 Q2748.1 55.4812 2745.43 53.5773 Q2742.79 51.6733 2737.69 51.6733 L2727.08 51.6733 L2727.08 66.6212 L2737.69 66.6212 Q2742.79 66.6212 2745.43 64.7172 Q2748.1 62.7728 2748.1 59.127 M2719.58 27.2059 L2727.08 27.2059 L2727.08 45.7185 L2738.01 45.7185 Q2746.68 45.7185 2751.34 49.0402 Q2756.04 52.3215 2756.04 59.127 Q2756.04 65.9325 2751.34 69.2543 Q2746.68 72.576 2738.01 72.576 L2719.58 72.576 L2719.58 27.2059 Z" fill="#000000" fill-rule="nonzero" fill-opacity="1" /><path clip-path="url(#clip930)" d="M2824.18 48.0275 L2824.18 51.6733 L2789.91 51.6733 Q2790.39 59.3701 2794.52 63.421 Q2798.7 67.4314 2806.11 67.4314 Q2810.4 67.4314 2814.41 66.3781 Q2818.47 65.3249 2822.43 63.2184 L2822.43 70.267 Q2818.42 71.9684 2814.21 72.8596 Q2810 73.7508 2805.66 73.7508 Q2794.81 73.7508 2788.45 67.4314 Q2782.13 61.1119 2782.13 50.3365 Q2782.13 39.1965 2788.12 32.6746 Q2794.16 26.1121 2804.37 26.1121 Q2813.52 26.1121 2818.83 32.0264 Q2824.18 37.9003 2824.18 48.0275 M2816.72 45.84 Q2816.64 39.7232 2813.28 36.0774 Q2809.96 32.4315 2804.45 32.4315 Q2798.21 32.4315 2794.44 35.9558 Q2790.72 39.4801 2790.15 45.8805 L2816.72 45.84 Z" fill="#000000" fill-rule="nonzero" fill-opacity="1" /><polyline clip-path="url(#clip932)" style="stroke:#009af9; stroke-linecap:round; stroke-linejoin:round; stroke-width:8; stroke-opacity:1; fill:none" points="356.318,193.563 379.227,212.909 402.137,232.044 425.046,250.97 447.956,269.69 470.865,288.206 493.775,306.519 516.685,324.632 539.594,342.547 562.504,360.265 585.413,377.79 608.323,395.122 631.233,412.264 654.142,429.219 677.052,445.986 699.961,462.57 722.871,478.971 745.781,495.191 768.69,511.233 791.6,527.098 814.509,542.787 837.419,558.303 860.329,573.648 883.238,588.823 906.148,603.83 929.057,618.67 951.967,633.346 974.876,647.859 997.786,662.211 1020.7,676.403 1043.61,690.437 1066.51,704.315 1089.42,718.038 1112.33,731.608 1135.24,745.026 1158.15,758.294 1181.06,771.414 1203.97,784.387 1226.88,797.214 1249.79,809.897 1272.7,822.437 1295.61,834.837 1318.52,847.096 1341.43,859.218 1364.34,871.202 1387.25,883.051 1410.16,894.766 1433.07,906.349 1455.98,917.799 1478.89,929.12 1501.8,940.312 1524.71,951.377 1547.62,962.316 1570.53,973.13 1593.44,983.82 1616.34,994.388 1639.25,1004.84 1662.16,1015.16 1685.07,1025.37 1707.98,1035.46 1730.89,1045.44 1753.8,1055.3 1776.71,1065.04 1799.62,1074.68 1822.53,1084.2 1845.44,1093.61 1868.35,1102.91 1891.26,1112.11 1914.17,1121.2 1937.08,1130.18 1959.99,1139.05 1982.9,1147.83 2005.81,1156.49 2028.72,1165.06 2051.63,1173.53 2074.54,1181.9 2097.45,1190.16 2120.36,1198.34 2143.27,1206.41 2166.18,1214.39 2189.08,1222.27 2211.99,1230.06 2234.9,1237.76 2257.81,1245.36 2280.72,1252.87 2303.63,1260.3 2326.54,1267.63 2349.45,1274.88 2372.36,1282.04 2395.27,1289.11 2418.18,1296.09 2441.09,1302.99 2464,1309.81 2486.91,1316.55 2509.82,1323.2 2532.73,1329.77 2555.64,1336.26 2578.55,1342.67 2601.46,1349 2624.37,1355.25 2647.28,1361.43 2670.19,1367.52 2693.1,1373.55 2716.01,1379.49 2738.91,1385.37 2761.82,1391.17 2784.73,1396.89 2807.64,1402.55 2830.55,1408.13 2853.46,1413.64 2876.37,1419.08 2899.28,1424.46 2922.19,1429.76 2945.1,1434.99 2968.01,1440.16 2990.92,1445.26 3013.83,1450.3 3036.74,1455.27 3059.65,1460.17 3082.56,1465.02 3105.47,1469.79 3128.38,1474.51 3151.29,1479.16 3174.2,1483.75 3197.11,1488.28 3220.02,1492.75 3242.93,1497.16 3265.84,1501.51 3288.74,1505.8 3311.65,1510.04 3334.56,1514.21 3357.47,1518.33 3380.38,1522.4 3403.29,1526.4 3426.2,1530.35 3449.11,1534.25 3472.02,1538.1 3494.93,1541.89 3517.84,1545.62 3540.75,1549.31 3563.66,1552.94 3586.57,1556.52 3609.48,1560.05 3632.39,1563.53 3655.3,1566.95 3678.21,1570.33 3701.12,1573.66 3724.03,1576.95 3746.94,1580.18 3769.85,1583.36 3792.76,1586.5 "/>
<polyline clip-path="url(#clip932)" style="stroke:#e26f46; stroke-linecap:round; stroke-linejoin:round; stroke-width:8; stroke-opacity:1; fill:none" points="356.318,900.943 379.227,920.169 402.137,939.204 425.046,958.048 447.956,976.705 470.865,995.176 493.775,1013.46 516.685,1031.57 539.594,1049.49 562.504,1067.24 585.413,1084.81 608.323,1102.2 631.233,1119.43 654.142,1136.48 677.052,1153.36 699.961,1170.08 722.871,1186.63 745.781,1203.01 768.69,1219.24 791.6,1235.3 814.509,1251.2 837.419,1266.95 860.329,1282.54 883.238,1297.98 906.148,1313.27 929.057,1328.4 951.967,1343.39 974.876,1358.23 997.786,1372.93 1020.7,1387.47 1043.61,1401.88 1066.51,1416.15 1089.42,1430.27 1112.33,1444.26 1135.24,1458.11 1158.15,1471.83 1181.06,1485.41 1203.97,1498.86 1226.88,1512.17 1249.79,1525.36 1272.7,1538.42 1295.61,1551.35 1318.52,1564.16 1341.43,1576.84 1364.34,1589.4 1387.25,1601.84 1410.16,1614.16 1433.07,1626.35 1455.98,1638.43 1478.89,1650.39 1501.8,1662.24 1524.71,1673.98 1547.62,1685.6 1570.53,1697.1 1593.44,1708.5 1616.34,1719.79 1639.25,1730.97 1662.16,1742.04 1685.07,1753.01 1707.98,1763.87 1730.89,1774.63 1753.8,1785.28 1776.71,1795.83 1799.62,1806.29 1822.53,1816.64 1845.44,1826.9 1868.35,1837.05 1891.26,1847.11 1914.17,1857.08 1937.08,1866.95 1959.99,1876.73 1982.9,1886.42 2005.81,1896.01 2028.72,1905.52 2051.63,1914.93 2074.54,1924.26 2097.45,1933.5 2120.36,1942.65 2143.27,1951.71 2166.18,1960.7 2189.08,1969.59 2211.99,1978.41 2234.9,1987.14 2257.81,1995.79 2280.72,2004.36 2303.63,2012.86 2326.54,2021.27 2349.45,2029.6 2372.36,2037.86 2395.27,2046.05 2418.18,2054.15 2441.09,2062.19 2464,2070.14 2486.91,2078.03 2509.82,2085.84 2532.73,2093.59 2555.64,2101.26 2578.55,2108.86 2601.46,2116.39 2624.37,2123.86 2647.28,2131.26 2670.19,2138.59 2693.1,2145.85 2716.01,2153.05 2738.91,2160.18 2761.82,2167.25 2784.73,2174.26 2807.64,2181.2 2830.55,2188.09 2853.46,2194.91 2876.37,2201.67 2899.28,2208.37 2922.19,2215.01 2945.1,2221.59 2968.01,2228.11 2990.92,2234.58 3013.83,2240.99 3036.74,2247.34 3059.65,2253.64 3082.56,2259.88 3105.47,2266.07 3128.38,2272.2 3151.29,2278.28 3174.2,2284.31 3197.11,2290.29 3220.02,2296.21 3242.93,2302.09 3265.84,2307.91 3288.74,2313.68 3311.65,2319.41 3334.56,2325.08 3357.47,2330.71 3380.38,2336.29 3403.29,2341.82 3426.2,2347.31 3449.11,2352.74 3472.02,2358.14 3494.93,2363.49 3517.84,2368.79 3540.75,2374.05 3563.66,2379.27 3586.57,2384.44 3609.48,2389.57 3632.39,2394.66 3655.3,2399.7 3678.21,2404.71 3701.12,2409.67 3724.03,2414.6 3746.94,2419.48 3769.85,2424.32 3792.76,2429.13 "/>
<path clip-path="url(#clip930)" d="M3131.26 361.006 L3678.21 361.006 L3678.21 205.486 L3131.26 205.486  Z" fill="#ffffff" fill-rule="evenodd" fill-opacity="1"/>
<polyline clip-path="url(#clip930)" style="stroke:#000000; stroke-linecap:round; stroke-linejoin:round; stroke-width:4; stroke-opacity:1; fill:none" points="3131.26,361.006 3678.21,361.006 3678.21,205.486 3131.26,205.486 3131.26,361.006 "/>
<polyline clip-path="url(#clip930)" style="stroke:#009af9; stroke-linecap:round; stroke-linejoin:round; stroke-width:8; stroke-opacity:1; fill:none" points="3169.44,257.326 3398.53,257.326 "/>
<path clip-path="url(#clip930)" d="M3452.55 244.653 L3446.21 261.852 L3458.92 261.852 L3452.55 244.653 M3449.91 240.046 L3455.21 240.046 L3468.38 274.606 L3463.52 274.606 L3460.37 265.74 L3444.79 265.74 L3441.65 274.606 L3436.72 274.606 L3449.91 240.046 Z" fill="#000000" fill-rule="nonzero" fill-opacity="1" /><path clip-path="url(#clip930)" d="M3477.36 270.717 L3477.36 284.467 L3473.08 284.467 L3473.08 248.68 L3477.36 248.68 L3477.36 252.615 Q3478.71 250.301 3480.74 249.19 Q3482.8 248.055 3485.65 248.055 Q3490.37 248.055 3493.31 251.805 Q3496.28 255.555 3496.28 261.666 Q3496.28 267.777 3493.31 271.527 Q3490.37 275.277 3485.65 275.277 Q3482.8 275.277 3480.74 274.166 Q3478.71 273.032 3477.36 270.717 M3491.85 261.666 Q3491.85 256.967 3489.91 254.305 Q3487.99 251.62 3484.61 251.62 Q3481.23 251.62 3479.29 254.305 Q3477.36 256.967 3477.36 261.666 Q3477.36 266.365 3479.29 269.051 Q3481.23 271.713 3484.61 271.713 Q3487.99 271.713 3489.91 269.051 Q3491.85 266.365 3491.85 261.666 Z" fill="#000000" fill-rule="nonzero" fill-opacity="1" /><path clip-path="url(#clip930)" d="M3503.17 248.68 L3509.4 248.68 L3516.76 266.041 L3524.15 248.68 L3530.33 248.68 L3530.33 274.606 L3526.04 274.606 L3526.04 252.754 L3518.89 269.629 L3514.63 269.629 L3507.46 252.754 L3507.46 274.606 L3503.17 274.606 L3503.17 248.68 Z" fill="#000000" fill-rule="nonzero" fill-opacity="1" /><path clip-path="url(#clip930)" d="M3561.14 248.68 L3561.14 274.606 L3556.9 274.606 L3556.9 253.796 L3544.4 274.606 L3538.94 274.606 L3538.94 248.68 L3543.17 248.68 L3543.17 269.444 L3555.65 248.68 L3561.14 248.68 Z" fill="#000000" fill-rule="nonzero" fill-opacity="1" /><path clip-path="url(#clip930)" d="M3574.19 256.157 Q3574.19 258.078 3575.67 259.166 Q3577.16 260.254 3579.91 260.254 L3585.65 260.254 L3585.65 252.083 L3579.91 252.083 Q3577.16 252.083 3575.67 253.148 Q3574.19 254.213 3574.19 256.157 M3568.13 274.606 L3576.04 263.24 Q3573.36 262.639 3571.58 261.065 Q3569.79 259.467 3569.79 256.157 Q3569.79 252.407 3572.27 250.555 Q3574.77 248.68 3579.79 248.68 L3589.93 248.68 L3589.93 274.606 L3585.65 274.606 L3585.65 263.657 L3580.35 263.657 L3572.71 274.606 L3568.13 274.606 Z" fill="#000000" fill-rule="nonzero" fill-opacity="1" /><path clip-path="url(#clip930)" d="M3612.02 240.046 L3617.04 240.046 L3625.63 252.893 L3634.26 240.046 L3639.28 240.046 L3628.17 256.643 L3640.03 274.606 L3635 274.606 L3625.28 259.907 L3615.49 274.606 L3610.44 274.606 L3622.78 256.157 L3612.02 240.046 Z" fill="#000000" fill-rule="nonzero" fill-opacity="1" /><polyline clip-path="url(#clip930)" style="stroke:#e26f46; stroke-linecap:round; stroke-linejoin:round; stroke-width:8; stroke-opacity:1; fill:none" points="3169.44,309.166 3398.53,309.166 "/>
<path clip-path="url(#clip930)" d="M3452.55 296.493 L3446.21 313.692 L3458.92 313.692 L3452.55 296.493 M3449.91 291.886 L3455.21 291.886 L3468.38 326.446 L3463.52 326.446 L3460.37 317.58 L3444.79 317.58 L3441.65 326.446 L3436.72 326.446 L3449.91 291.886 Z" fill="#000000" fill-rule="nonzero" fill-opacity="1" /><path clip-path="url(#clip930)" d="M3477.36 322.557 L3477.36 336.307 L3473.08 336.307 L3473.08 300.52 L3477.36 300.52 L3477.36 304.455 Q3478.71 302.141 3480.74 301.03 Q3482.8 299.895 3485.65 299.895 Q3490.37 299.895 3493.31 303.645 Q3496.28 307.395 3496.28 313.506 Q3496.28 319.617 3493.31 323.367 Q3490.37 327.117 3485.65 327.117 Q3482.8 327.117 3480.74 326.006 Q3478.71 324.872 3477.36 322.557 M3491.85 313.506 Q3491.85 308.807 3489.91 306.145 Q3487.99 303.46 3484.61 303.46 Q3481.23 303.46 3479.29 306.145 Q3477.36 308.807 3477.36 313.506 Q3477.36 318.205 3479.29 320.891 Q3481.23 323.553 3484.61 323.553 Q3487.99 323.553 3489.91 320.891 Q3491.85 318.205 3491.85 313.506 Z" fill="#000000" fill-rule="nonzero" fill-opacity="1" /><path clip-path="url(#clip930)" d="M3503.17 300.52 L3509.4 300.52 L3516.76 317.881 L3524.15 300.52 L3530.33 300.52 L3530.33 326.446 L3526.04 326.446 L3526.04 304.594 L3518.89 321.469 L3514.63 321.469 L3507.46 304.594 L3507.46 326.446 L3503.17 326.446 L3503.17 300.52 Z" fill="#000000" fill-rule="nonzero" fill-opacity="1" /><path clip-path="url(#clip930)" d="M3561.14 300.52 L3561.14 326.446 L3556.9 326.446 L3556.9 305.636 L3544.4 326.446 L3538.94 326.446 L3538.94 300.52 L3543.17 300.52 L3543.17 321.284 L3555.65 300.52 L3561.14 300.52 Z" fill="#000000" fill-rule="nonzero" fill-opacity="1" /><path clip-path="url(#clip930)" d="M3574.19 307.997 Q3574.19 309.918 3575.67 311.006 Q3577.16 312.094 3579.91 312.094 L3585.65 312.094 L3585.65 303.923 L3579.91 303.923 Q3577.16 303.923 3575.67 304.988 Q3574.19 306.053 3574.19 307.997 M3568.13 326.446 L3576.04 315.08 Q3573.36 314.479 3571.58 312.905 Q3569.79 311.307 3569.79 307.997 Q3569.79 304.247 3572.27 302.395 Q3574.77 300.52 3579.79 300.52 L3589.93 300.52 L3589.93 326.446 L3585.65 326.446 L3585.65 315.497 L3580.35 315.497 L3572.71 326.446 L3568.13 326.446 Z" fill="#000000" fill-rule="nonzero" fill-opacity="1" /><path clip-path="url(#clip930)" d="M3608.94 291.886 L3613.96 291.886 L3623.54 306.099 L3633.06 291.886 L3638.08 291.886 L3625.86 309.988 L3625.86 326.446 L3621.16 326.446 L3621.16 309.988 L3608.94 291.886 Z" fill="#000000" fill-rule="nonzero" fill-opacity="1" /></svg>
